<svg width="602" height="55" viewBox="0 0 602 55" fill="none" xmlns="http://www.w3.org/2000/svg">
<path d="M26.7196 54.0367C21.8344 54.0367 17.41 52.9767 13.4466 50.8567C9.52917 48.7367 6.4183 45.7872 4.11395 42.008C1.85569 38.1828 0.726562 33.8045 0.726562 28.8732C0.726562 23.9419 1.85569 19.5637 4.11395 15.7385C6.4183 11.9132 9.52917 8.94063 13.4466 6.82063C17.41 4.70062 21.8344 3.64062 26.7196 3.64062C31.5587 3.64062 35.937 4.70062 39.8544 6.82063C43.8179 8.94063 46.9287 11.9132 49.187 15.7385C51.4453 19.5637 52.5744 23.9419 52.5744 28.8732C52.5744 33.8045 51.4453 38.1828 49.187 42.008C46.9287 45.7872 43.8179 48.7367 39.8544 50.8567C35.937 52.9767 31.5587 54.0367 26.7196 54.0367ZM26.7196 42.5611C29.1622 42.5611 31.3974 42.008 33.4253 40.9019C35.4531 39.7958 37.0661 38.2058 38.2644 36.1319C39.4627 34.058 40.0618 31.6385 40.0618 28.8732C40.0618 26.108 39.4627 23.7115 38.2644 21.6837C37.1122 19.6098 35.5222 18.0198 33.4944 16.9137C31.4666 15.7615 29.2083 15.1854 26.7196 15.1854C24.1848 15.1854 21.9035 15.7615 19.8757 16.9137C17.8479 18.0198 16.2348 19.6098 15.0366 21.6837C13.8844 23.7115 13.3083 26.108 13.3083 28.8732C13.3083 31.6385 13.8844 34.058 15.0366 36.1319C16.2348 38.2058 17.8479 39.7958 19.8757 40.9019C21.9496 42.008 24.2309 42.5611 26.7196 42.5611Z" fill="#currentColor"/>
<path d="M70.7152 54.0367C67.6734 54.0367 64.6548 53.7372 61.6591 53.138C58.6635 52.585 56.1978 51.8015 54.2621 50.7876V39.7958C56.7508 41.0863 59.3317 42.0541 62.0048 42.6993C64.7239 43.3445 67.3048 43.6672 69.7474 43.6672C72.0056 43.6672 73.7108 43.3215 74.863 42.6302C76.0152 41.9389 76.5913 40.948 76.5913 39.6576C76.5913 38.6898 76.2687 37.8602 75.6235 37.1689C75.0243 36.4315 74.1256 35.7632 72.9274 35.1641C71.7291 34.565 69.8626 33.7354 67.3278 32.6754C62.8574 30.7858 59.6082 28.6889 57.5804 26.3845C55.5526 24.0802 54.5387 21.2458 54.5387 17.8815C54.5387 15.1163 55.2991 12.6506 56.82 10.4845C58.3869 8.31845 60.553 6.63628 63.3182 5.43802C66.0835 4.23975 69.2634 3.64062 72.8582 3.64062C75.8078 3.64062 78.4348 3.87106 80.7391 4.33193C83.0435 4.7928 85.2556 5.53019 87.3756 6.5441V17.2593C83.32 15.1393 79.2413 14.0793 75.1395 14.0793C72.9274 14.0793 71.153 14.448 69.8165 15.1854C68.5261 15.8767 67.8808 16.8906 67.8808 18.2271C67.8808 19.5637 68.5491 20.6467 69.8856 21.4763C71.2221 22.3058 73.6878 23.435 77.2826 24.8637C80.5548 26.2002 83.0895 27.5137 84.8869 28.8041C86.7304 30.0945 88.0669 31.5924 88.8965 33.2976C89.7261 35.0028 90.1408 37.1689 90.1408 39.7958C90.1408 44.2663 88.5048 47.7689 85.2326 50.3037C82.0065 52.7924 77.1674 54.0367 70.7152 54.0367Z" fill="#currentColor"/>
<path d="M118.204 54.0367C112.95 54.0367 108.318 53.0228 104.309 50.995C100.345 48.9672 97.2805 46.0637 95.1145 42.2845C92.9484 38.4593 91.8653 33.9889 91.8653 28.8732C91.8653 23.7576 92.9484 19.3102 95.1145 15.5311C97.2805 11.7058 100.345 8.77932 104.309 6.7515C108.318 4.67758 112.95 3.64062 118.204 3.64062C121.661 3.64062 124.748 3.98628 127.468 4.67758C130.187 5.36889 132.698 6.45193 135.003 7.92671V19.5406C132.975 17.9276 130.671 16.7524 128.09 16.015C125.555 15.2776 122.628 14.9089 119.31 14.9089C114.563 14.9089 110.899 16.1532 108.318 18.6419C105.737 21.0845 104.447 24.495 104.447 28.8732C104.447 33.2515 105.737 36.685 108.318 39.1737C110.945 41.6624 114.609 42.9067 119.31 42.9067C122.628 42.9067 125.601 42.515 128.228 41.7315C130.855 40.948 133.298 39.7037 135.556 37.9985V49.5432C131.178 52.5389 125.394 54.0367 118.204 54.0367Z" fill="#currentColor"/>
<path d="M156.589 4.67758H168.617L187.905 52.9998H175.392L171.521 43.045H153.685L149.814 52.9998H137.232L156.589 4.67758ZM168.479 33.6432L162.603 17.3976L156.658 33.6432H168.479Z" fill="#currentColor"/>
<path d="M192.758 4.67758H214.465C220.134 4.67758 224.558 6.10628 227.738 8.96367C230.964 11.8211 232.577 15.9228 232.577 21.2689C232.577 24.8637 231.794 27.9285 230.227 30.4632C228.66 32.998 226.448 34.8876 223.59 36.1319L232.162 52.9998H219.581L211.907 37.8602H204.994V52.9998H192.758V4.67758ZM212.322 27.5598C214.764 27.5598 216.654 27.0989 217.991 26.1771C219.327 25.2093 219.995 23.5732 219.995 21.2689C219.995 18.8724 219.327 17.2363 217.991 16.3606C216.7 15.4389 214.811 14.978 212.322 14.978H204.994V27.5598H212.322Z" fill="#currentColor"/>
<path d="M260.943 4.67758H272.695L286.66 34.6111L300.693 4.67758H312.376V52.9998H300.97V28.735L289.425 52.9998H283.895L272.419 28.735V52.9998H260.943V4.67758Z" fill="#currentColor"/>
<path d="M340.235 54.0367C332.953 54.0367 327.469 52.1011 323.782 48.2298C320.095 44.3124 318.251 39.1506 318.251 32.7445V4.67758H330.487V32.8828C330.487 36.1089 331.34 38.5515 333.045 40.2106C334.797 41.8698 337.193 42.6993 340.235 42.6993C343.277 42.6993 345.65 41.8698 347.355 40.2106C349.06 38.5515 349.913 36.1089 349.913 32.8828V4.67758H362.149V32.7445C362.149 39.1967 360.306 44.3585 356.619 48.2298C352.978 52.1011 347.517 54.0367 340.235 54.0367Z" fill="#currentColor"/>
<path d="M368.014 4.67758H380.25V42.6993H401.266V52.9998H368.014V4.67758Z" fill="#currentColor"/>
<path d="M403.727 4.67758H438.016V14.978H415.963V24.0341H432.071V33.6432H415.963V42.6993H438.016V52.9998H403.727V4.67758Z" fill="#currentColor"/>
<path d="M442.883 4.67758H464.59C470.259 4.67758 474.683 6.10628 477.863 8.96367C481.089 11.8211 482.702 15.9228 482.702 21.2689C482.702 24.8637 481.919 27.9285 480.352 30.4632C478.785 32.998 476.573 34.8876 473.715 36.1319L482.288 52.9998H469.706L462.032 37.8602H455.119V52.9998H442.883V4.67758ZM462.447 27.5598C464.89 27.5598 466.779 27.0989 468.116 26.1771C469.452 25.2093 470.121 23.5732 470.121 21.2689C470.121 18.8724 469.452 17.2363 468.116 16.3606C466.825 15.4389 464.936 14.978 462.447 14.978H455.119V27.5598H462.447Z" fill="#currentColor"/>
<path d="M511.173 54.0367C506.288 54.0367 501.863 52.9767 497.9 50.8567C493.982 48.7367 490.871 45.7872 488.567 42.008C486.309 38.1828 485.18 33.8045 485.18 28.8732C485.18 23.9419 486.309 19.5637 488.567 15.7385C490.871 11.9132 493.982 8.94063 497.9 6.82063C501.863 4.70062 506.288 3.64062 511.173 3.64062C516.012 3.64062 520.39 4.70062 524.308 6.82063C528.271 8.94063 531.382 11.9132 533.64 15.7385C535.898 19.5637 537.028 23.9419 537.028 28.8732C537.028 33.8045 535.898 38.1828 533.64 42.008C531.382 45.7872 528.271 48.7367 524.308 50.8567C520.39 52.9767 516.012 54.0367 511.173 54.0367ZM511.173 42.5611C513.615 42.5611 515.851 42.008 517.878 40.9019C519.906 39.7958 521.519 38.2058 522.718 36.1319C523.916 34.058 524.515 31.6385 524.515 28.8732C524.515 26.108 523.916 23.7115 522.718 21.6837C521.565 19.6098 519.975 18.0198 517.948 16.9137C515.92 15.7615 513.661 15.1854 511.173 15.1854C508.638 15.1854 506.357 15.7615 504.329 16.9137C502.301 18.0198 500.688 19.6098 499.49 21.6837C498.338 23.7115 497.761 26.108 497.761 28.8732C497.761 31.6385 498.338 34.058 499.49 36.1319C500.688 38.2058 502.301 39.7958 504.329 40.9019C506.403 42.008 508.684 42.5611 511.173 42.5611Z" fill="#currentColor"/>
<g clip-path="url(#clip0_130_354)">
<path d="M598.232 36.2056L583.773 33.5355L588.704 47.5519C588.812 47.9287 588.788 48.2919 588.621 48.6494C588.463 49.0091 588.19 49.2627 587.822 49.4157L580.273 52.1338L580.202 52.184C579.848 52.3176 579.49 52.2937 579.117 52.1304C578.762 51.9705 578.502 51.6918 578.332 51.3138L573.392 37.3591L563.989 48.6334L563.94 48.5614L563.929 48.6231C563.704 48.8961 563.405 49.0617 563.032 49.129C562.695 49.161 562.378 49.0811 562.062 48.8869L562.051 48.9486L561.862 48.735L555.711 43.4862C555.411 43.1995 555.255 42.8558 555.235 42.4538C555.216 42.0415 555.324 41.6726 555.573 41.3734L565.04 30.0797L550.671 27.4255L550.677 27.3947L550.646 27.389C550.307 27.3262 550.028 27.1492 549.791 26.8534C549.552 26.5781 549.443 26.2641 549.464 25.9112L549.434 25.9055L550.923 17.5982C550.998 17.1813 551.2 16.8616 551.527 16.6491C551.858 16.4162 552.234 16.3396 552.645 16.415L552.979 16.5087L566.998 19.0977L562.056 5.14299L562.092 5.11787L562.098 5.08703C561.987 4.73071 561.994 4.39609 562.107 4.06033C562.239 3.72799 562.461 3.46418 562.765 3.26889L562.706 3.25747L570.56 0.44574C570.949 0.297274 571.328 0.314405 571.682 0.474291C572.052 0.658162 572.298 0.955095 572.424 1.34568L577.325 15.3563L586.844 4.00894L586.855 3.94727C587.13 3.68345 587.455 3.54412 587.833 3.50872C588.24 3.4893 588.595 3.58638 588.874 3.81593L595.025 9.06479L595.044 9.13103C595.349 9.38685 595.519 9.71233 595.561 10.1086C595.601 10.5255 595.503 10.8955 595.282 11.2016L585.754 22.5467L600.213 25.2168C600.579 25.3059 600.873 25.5069 601.086 25.8187C601.295 26.151 601.385 26.5142 601.358 26.8968L599.916 34.9414L599.856 34.9299L599.904 35.0019C599.833 35.3982 599.622 35.7157 599.271 35.9441C598.951 36.1691 598.606 36.2513 598.232 36.2033" fill="#currentColor"/>
</g>
<defs>
<clipPath id="clip0_130_354">
<rect width="51.9256" height="51.9256" fill="#currentColor" transform="translate(549.438 0.34375)"/>
</clipPath>
</defs>
</svg>
