<svg width="1237" height="124" viewBox="0 0 1237 124" fill="none" xmlns="http://www.w3.org/2000/svg">
<path d="M0.589844 3.07744H53.5631C67.3969 3.07744 78.194 6.56401 85.9544 13.5371C93.8273 20.5103 97.7637 30.5201 97.7637 43.5666C97.7637 52.3392 95.8517 59.8184 92.0277 66.0043C88.2038 72.1901 82.8052 76.8014 75.8321 79.838L96.7515 121.002H66.0472L47.321 84.0557H30.4506V121.002H0.589844V3.07744ZM48.3332 58.9187C54.2941 58.9187 58.9054 57.794 62.167 55.5446C65.4286 53.1827 67.0595 49.19 67.0595 43.5666C67.0595 37.7181 65.4286 33.7254 62.167 31.5885C59.0179 29.3391 54.4066 28.2144 48.3332 28.2144H30.4506V58.9187H48.3332Z" fill="#currentColor"/>
<path d="M109.655 3.07744H139.515V121.002H109.655V3.07744Z" fill="#currentColor"/>
<path d="M215.534 123.533C202.712 123.533 191.409 121.058 181.624 116.11C171.952 111.161 164.473 104.075 159.187 94.8528C153.901 85.5178 151.258 74.6082 151.258 62.1241C151.258 49.6399 153.901 38.7866 159.187 29.5641C164.473 20.2291 171.952 13.0873 181.624 8.13858C191.409 3.07744 202.712 0.546875 215.534 0.546875C223.969 0.546875 231.505 1.3904 238.14 3.07744C244.776 4.76449 250.906 7.40753 256.529 11.0066V39.3489C251.581 35.4125 245.957 32.5445 239.659 30.745C233.473 28.9455 226.331 28.0457 218.233 28.0457C206.649 28.0457 197.708 31.0824 191.409 37.1558C185.111 43.1167 181.962 51.4394 181.962 62.1241C181.962 72.8087 185.111 81.1877 191.409 87.261C197.82 93.3344 206.761 96.3711 218.233 96.3711C226.331 96.3711 233.585 95.4151 239.996 93.5031C246.407 91.5911 252.368 88.5544 257.879 84.3931V112.567C247.194 119.877 233.079 123.533 215.534 123.533Z" fill="#currentColor"/>
<path d="M269.628 3.07744H299.488V48.6277H345.713V3.07744H375.574V121.002H345.713V73.4273H299.488V121.002H269.628V3.07744Z" fill="#currentColor"/>
<path d="M390.719 3.07744H420.58V121.002H390.719V3.07744Z" fill="#currentColor"/>
<path d="M435.696 3.07744H519.374V28.2144H465.557V50.3147H504.865V73.7647H465.557V95.865H519.374V121.002H435.696V3.07744Z" fill="#currentColor"/>
<path d="M588.585 3.07744H618.445V48.6277H664.67V3.07744H694.531V121.002H664.67V73.4273H618.445V121.002H588.585V3.07744Z" fill="#currentColor"/>
<path d="M753.539 3.07744H782.894L829.963 121.002H799.427L789.98 96.7085H746.454L737.006 121.002H706.302L753.539 3.07744ZM782.557 73.7647L768.217 34.1191L753.708 73.7647H782.557Z" fill="#currentColor"/>
<path d="M820.639 3.07744H851.343L871.082 72.9212L890.145 3.07744H911.402L929.285 73.0899L948.855 3.07744H979.559L946.999 121.002H919.5L900.099 52.5079L880.867 121.002H853.199L820.639 3.07744Z" fill="#currentColor"/>
<path d="M1016.26 28.2144H983.024V3.07744H1079.52V28.2144H1046.12V121.002H1016.26V28.2144Z" fill="#currentColor"/>
<path d="M1088.77 3.07744H1118.63V121.002H1088.77V3.07744Z" fill="#currentColor"/>
<path d="M1133.74 3.07744H1163.27L1206.62 73.2586V3.07744H1236.49V121.002H1207.13L1163.6 50.6521V121.002H1133.74V3.07744Z" fill="#currentColor"/>
</svg>
