<svg width="691" height="72" viewBox="0 0 691 72" fill="none" xmlns="http://www.w3.org/2000/svg">
<path d="M0.976562 2.4004H31.2729C39.1847 2.4004 45.3597 4.39442 49.798 8.38248C54.3006 12.3705 56.552 18.0953 56.552 25.5568C56.552 30.574 55.4585 34.8515 53.2715 38.3893C51.0845 41.9271 47.997 44.5644 44.0089 46.3011L55.9731 69.8435H38.4128L27.7029 48.7132H18.0544V69.8435H0.976562V2.4004ZM28.2818 34.337C31.691 34.337 34.3282 33.6937 36.1936 32.4073C38.059 31.0565 38.9917 28.773 38.9917 25.5568C38.9917 22.212 38.059 19.9285 36.1936 18.7064C34.3926 17.4199 31.7553 16.7767 28.2818 16.7767H18.0544V34.337H28.2818Z" fill="#currentColor"/>
<path d="M96.288 71.2907C89.4697 71.2907 83.2947 69.8113 77.7628 66.8524C72.2954 63.8936 67.9535 59.7769 64.7374 54.5023C61.5855 49.1635 60.0096 43.0528 60.0096 36.1702C60.0096 29.2876 61.5855 23.1769 64.7374 17.838C67.9535 12.4992 72.2954 8.35031 77.7628 5.39144C83.2947 2.43256 89.4697 0.953125 96.288 0.953125C103.042 0.953125 109.153 2.43256 114.62 5.39144C120.152 8.35031 124.494 12.4992 127.646 17.838C130.797 23.1769 132.373 29.2876 132.373 36.1702C132.373 43.0528 130.797 49.1635 127.646 54.5023C124.494 59.7769 120.152 63.8936 114.62 66.8524C109.153 69.8113 103.042 71.2907 96.288 71.2907ZM96.288 55.2742C99.6971 55.2742 102.817 54.5023 105.647 52.9586C108.477 51.4148 110.729 49.1957 112.401 46.3011C114.073 43.4066 114.91 40.0296 114.91 36.1702C114.91 32.3108 114.073 28.966 112.401 26.1357C110.793 23.2412 108.574 21.022 105.744 19.4783C102.913 17.8702 99.7614 17.0661 96.288 17.0661C92.7502 17.0661 89.5662 17.8702 86.736 19.4783C83.9057 21.022 81.6544 23.2412 79.982 26.1357C78.3739 28.966 77.5699 32.3108 77.5699 36.1702C77.5699 40.0296 78.3739 43.4066 79.982 46.3011C81.6544 49.1957 83.9057 51.4148 86.736 52.9586C89.6305 54.5023 92.8145 55.2742 96.288 55.2742Z" fill="#currentColor"/>
<path d="M139.109 2.4004H173.264C179.761 2.4004 184.875 4.00848 188.605 7.22465C192.4 10.4408 194.298 15.0399 194.298 21.022C194.298 23.8522 193.655 26.4895 192.368 28.9338C191.082 31.3781 189.249 33.3078 186.869 34.7229C190.149 36.0094 192.561 37.8747 194.105 40.319C195.649 42.699 196.421 45.8187 196.421 49.6781C196.421 53.7948 195.456 57.3969 193.526 60.4844C191.596 63.5076 188.991 65.8233 185.711 67.4313C182.495 69.0394 178.893 69.8435 174.904 69.8435H139.109V2.4004ZM169.501 29.1268C174.519 29.1268 177.027 26.779 177.027 22.0834C177.027 19.4461 176.384 17.645 175.097 16.6802C173.811 15.651 171.849 15.1364 169.212 15.1364H156.186V29.1268H169.501ZM170.563 57.1074C173.457 57.1074 175.612 56.5607 177.027 55.4672C178.442 54.3737 179.15 52.444 179.15 49.6781C179.15 46.9122 178.41 44.9182 176.931 43.696C175.451 42.4095 173.2 41.7663 170.177 41.7663H156.186V57.1074H170.563Z" fill="#currentColor"/>
<path d="M203.181 2.4004H251.037V16.7767H220.258V29.4162H242.74V42.8277H220.258V55.4672H251.037V69.8435H203.181V2.4004Z" fill="#currentColor"/>
<path d="M257.83 2.4004H288.127C296.038 2.4004 302.214 4.39442 306.652 8.38248C311.154 12.3705 313.406 18.0953 313.406 25.5568C313.406 30.574 312.312 34.8515 310.125 38.3893C307.938 41.9271 304.851 44.5644 300.863 46.3011L312.827 69.8435H295.267L284.557 48.7132H274.908V69.8435H257.83V2.4004ZM285.136 34.337C288.545 34.337 291.182 33.6937 293.047 32.4073C294.913 31.0565 295.845 28.773 295.845 25.5568C295.845 22.212 294.913 19.9285 293.047 18.7064C291.246 17.4199 288.609 16.7767 285.136 16.7767H274.908V34.337H285.136Z" fill="#currentColor"/>
<path d="M332.445 16.7767H313.437V2.4004H368.627V16.7767H349.523V69.8435H332.445V16.7767Z" fill="#currentColor"/>
<path d="M406.704 2.4004H423.782V28.4514H450.219V2.4004H467.296V69.8435H450.219V42.6347H423.782V69.8435H406.704V2.4004Z" fill="#currentColor"/>
<path d="M510.307 71.2907C503.489 71.2907 497.314 69.8113 491.782 66.8524C486.314 63.8936 481.972 59.7769 478.756 54.5023C475.604 49.1635 474.029 43.0528 474.029 36.1702C474.029 29.2876 475.604 23.1769 478.756 17.838C481.972 12.4992 486.314 8.35031 491.782 5.39144C497.314 2.43256 503.489 0.953125 510.307 0.953125C517.061 0.953125 523.172 2.43256 528.639 5.39144C534.171 8.35031 538.513 12.4992 541.665 17.838C544.816 23.1769 546.392 29.2876 546.392 36.1702C546.392 43.0528 544.816 49.1635 541.665 54.5023C538.513 59.7769 534.171 63.8936 528.639 66.8524C523.172 69.8113 517.061 71.2907 510.307 71.2907ZM510.307 55.2742C513.716 55.2742 516.836 54.5023 519.666 52.9586C522.496 51.4148 524.747 49.1957 526.42 46.3011C528.092 43.4066 528.929 40.0296 528.929 36.1702C528.929 32.3108 528.092 28.966 526.42 26.1357C524.812 23.2412 522.593 21.022 519.762 19.4783C516.932 17.8702 513.78 17.0661 510.307 17.0661C506.769 17.0661 503.585 17.8702 500.755 19.4783C497.925 21.022 495.673 23.2412 494.001 26.1357C492.393 28.966 491.589 32.3108 491.589 36.1702C491.589 40.0296 492.393 43.4066 494.001 46.3011C495.673 49.1957 497.925 51.4148 500.755 52.9586C503.649 54.5023 506.833 55.2742 510.307 55.2742Z" fill="#currentColor"/>
<path d="M587.005 71.2907C580.187 71.2907 574.012 69.8113 568.48 66.8524C563.012 63.8936 558.671 59.7769 555.454 54.5023C552.303 49.1635 550.727 43.0528 550.727 36.1702C550.727 29.2876 552.303 23.1769 555.454 17.838C558.671 12.4992 563.012 8.35031 568.48 5.39144C574.012 2.43256 580.187 0.953125 587.005 0.953125C593.759 0.953125 599.87 2.43256 605.337 5.39144C610.869 8.35031 615.211 12.4992 618.363 17.838C621.514 23.1769 623.09 29.2876 623.09 36.1702C623.09 43.0528 621.514 49.1635 618.363 54.5023C615.211 59.7769 610.869 63.8936 605.337 66.8524C599.87 69.8113 593.759 71.2907 587.005 71.2907ZM587.005 55.2742C590.414 55.2742 593.534 54.5023 596.364 52.9586C599.194 51.4148 601.446 49.1957 603.118 46.3011C604.79 43.4066 605.627 40.0296 605.627 36.1702C605.627 32.3108 604.79 28.966 603.118 26.1357C601.51 23.2412 599.291 21.022 596.461 19.4783C593.63 17.8702 590.478 17.0661 587.005 17.0661C583.467 17.0661 580.283 17.8702 577.453 19.4783C574.623 21.022 572.371 23.2412 570.699 26.1357C569.091 28.966 568.287 32.3108 568.287 36.1702C568.287 40.0296 569.091 43.4066 570.699 46.3011C572.371 49.1957 574.623 51.4148 577.453 52.9586C580.347 54.5023 583.531 55.2742 587.005 55.2742Z" fill="#currentColor"/>
<path d="M629.826 2.4004H654.043C661.44 2.4004 667.905 3.75119 673.437 6.45278C678.969 9.15436 683.214 13.0459 686.173 18.1275C689.196 23.1447 690.708 29.0303 690.708 35.7842C690.708 46.9765 687.427 55.4672 680.866 61.2563C674.305 66.9811 665.203 69.8435 653.561 69.8435H629.826V2.4004ZM655.008 55.4672C660.862 55.4672 665.332 53.6983 668.42 50.1605C671.571 46.6227 673.147 41.8306 673.147 35.7842C673.147 30.2524 671.571 25.7176 668.42 22.1798C665.332 18.5777 661.055 16.7767 655.587 16.7767H646.903V55.4672H655.008Z" fill="#currentColor"/>
</svg>
