<svg width="625" height="51" viewBox="0 0 625 51" fill="none" xmlns="http://www.w3.org/2000/svg">
<path d="M0 1.03695H21.707C27.3757 1.03695 31.8 2.46565 34.98 5.32304C38.2061 8.18043 39.8191 12.2822 39.8191 17.6283C39.8191 21.223 39.0357 24.2878 37.4687 26.8226C35.9017 29.3574 33.6896 31.247 30.8322 32.4913L39.4044 49.3591H26.8226L19.1491 34.2196H12.2361V49.3591H0V1.03695ZM19.5639 23.9191C22.0065 23.9191 23.8961 23.4583 25.2326 22.5365C26.5691 21.5687 27.2374 19.9326 27.2374 17.6283C27.2374 15.2317 26.5691 13.5957 25.2326 12.72C23.9422 11.7983 22.0526 11.3374 19.5639 11.3374H12.2361V23.9191H19.5639Z" fill="#currentColor"/>
<path d="M68.2895 50.3961C63.4043 50.3961 58.98 49.3361 55.0165 47.2161C51.0991 45.0961 47.9882 42.1465 45.6839 38.3674C43.4256 34.5422 42.2965 30.1639 42.2965 25.2326C42.2965 20.3013 43.4256 15.923 45.6839 12.0978C47.9882 8.27261 51.0991 5.3 55.0165 3.18C58.98 1.06 63.4043 0 68.2895 0C73.1287 0 77.5069 1.06 81.4243 3.18C85.3878 5.3 88.4987 8.27261 90.7569 12.0978C93.0152 15.923 94.1443 20.3013 94.1443 25.2326C94.1443 30.1639 93.0152 34.5422 90.7569 38.3674C88.4987 42.1465 85.3878 45.0961 81.4243 47.2161C77.5069 49.3361 73.1287 50.3961 68.2895 50.3961ZM68.2895 38.9204C70.7321 38.9204 72.9674 38.3674 74.9952 37.2613C77.023 36.1552 78.6361 34.5652 79.8343 32.4913C81.0326 30.4174 81.6317 27.9978 81.6317 25.2326C81.6317 22.4674 81.0326 20.0709 79.8343 18.043C78.6821 15.9691 77.0921 14.3791 75.0643 13.273C73.0365 12.1209 70.7782 11.5448 68.2895 11.5448C65.7548 11.5448 63.4734 12.1209 61.4456 13.273C59.4178 14.3791 57.8047 15.9691 56.6065 18.043C55.4543 20.0709 54.8782 22.4674 54.8782 25.2326C54.8782 27.9978 55.4543 30.4174 56.6065 32.4913C57.8047 34.5652 59.4178 36.1552 61.4456 37.2613C63.5195 38.3674 65.8008 38.9204 68.2895 38.9204Z" fill="#currentColor"/>
<path d="M123.243 50.3961C118.358 50.3961 113.933 49.3361 109.97 47.2161C106.052 45.0961 102.942 42.1465 100.637 38.3674C98.3789 34.5422 97.2498 30.1639 97.2498 25.2326C97.2498 20.3013 98.3789 15.923 100.637 12.0978C102.942 8.27261 106.052 5.3 109.97 3.18C113.933 1.06 118.358 0 123.243 0C128.082 0 132.46 1.06 136.378 3.18C140.341 5.3 143.452 8.27261 145.71 12.0978C147.968 15.923 149.098 20.3013 149.098 25.2326C149.098 30.1639 147.968 34.5422 145.71 38.3674C143.452 42.1465 140.341 45.0961 136.378 47.2161C132.46 49.3361 128.082 50.3961 123.243 50.3961ZM123.243 38.9204C125.685 38.9204 127.921 38.3674 129.948 37.2613C131.976 36.1552 133.589 34.5652 134.788 32.4913C135.986 30.4174 136.585 27.9978 136.585 25.2326C136.585 22.4674 135.986 20.0709 134.788 18.043C133.635 15.9691 132.045 14.3791 130.018 13.273C127.99 12.1209 125.732 11.5448 123.243 11.5448C120.708 11.5448 118.427 12.1209 116.399 13.273C114.371 14.3791 112.758 15.9691 111.56 18.043C110.408 20.0709 109.832 22.4674 109.832 25.2326C109.832 27.9978 110.408 30.4174 111.56 32.4913C112.758 34.5652 114.371 36.1552 116.399 37.2613C118.473 38.3674 120.754 38.9204 123.243 38.9204Z" fill="#currentColor"/>
<path d="M153.923 1.03695H178.395C183.05 1.03695 186.714 2.18913 189.387 4.49348C192.106 6.79783 193.466 10.093 193.466 14.3791C193.466 16.407 193.005 18.2965 192.083 20.0478C191.162 21.7991 189.848 23.1817 188.143 24.1957C190.493 25.1174 192.222 26.4539 193.328 28.2052C194.434 29.9104 194.987 32.1457 194.987 34.9109C194.987 37.8604 194.295 40.4413 192.913 42.6535C191.53 44.8196 189.664 46.4787 187.313 47.6309C185.009 48.783 182.428 49.3591 179.571 49.3591H153.923V1.03695ZM175.699 20.1861C179.294 20.1861 181.092 18.5039 181.092 15.1396C181.092 13.25 180.631 11.9596 179.709 11.2683C178.787 10.5309 177.382 10.1622 175.492 10.1622H166.159V20.1861H175.699ZM176.46 40.2339C178.534 40.2339 180.078 39.8422 181.092 39.0587C182.105 38.2752 182.612 36.8926 182.612 34.9109C182.612 32.9291 182.082 31.5004 181.022 30.6248C179.962 29.703 178.349 29.2422 176.183 29.2422H166.159V40.2339H176.46Z" fill="#currentColor"/>
<path d="M213.281 1.03695H225.31L244.597 49.3591H232.084L228.213 39.4044H210.377L206.506 49.3591H193.924L213.281 1.03695ZM225.171 30.0026L219.295 13.757L213.35 30.0026H225.171Z" fill="#currentColor"/>
<path d="M249.45 1.03695H261.686V19.7022H280.628V1.03695H292.864V49.3591H280.628V29.8644H261.686V49.3591H249.45V1.03695Z" fill="#currentColor"/>
<path d="M321.181 1.03695H333.763L341.851 29.657L349.663 1.03695H358.373L365.701 29.7261L373.72 1.03695H386.302L372.96 49.3591H361.692L353.742 21.2922L345.861 49.3591H334.523L321.181 1.03695Z" fill="#currentColor"/>
<path d="M388.724 1.03695H410.431C416.099 1.03695 420.524 2.46565 423.704 5.32304C426.93 8.18043 428.543 12.2822 428.543 17.6283C428.543 21.223 427.759 24.2878 426.192 26.8226C424.625 29.3574 422.413 31.247 419.556 32.4913L428.128 49.3591H415.546L407.873 34.2196H400.96V49.3591H388.724V1.03695ZM408.288 23.9191C410.73 23.9191 412.62 23.4583 413.956 22.5365C415.293 21.5687 415.961 19.9326 415.961 17.6283C415.961 15.2317 415.293 13.5957 413.956 12.72C412.666 11.7983 410.776 11.3374 408.288 11.3374H400.96V23.9191H408.288Z" fill="#currentColor"/>
<path d="M455.053 50.3961C447.772 50.3961 442.287 48.4604 438.6 44.5891C434.913 40.6717 433.07 35.51 433.07 29.1039V1.03695H445.306V29.2422C445.306 32.4683 446.159 34.9109 447.864 36.57C449.615 38.2291 452.012 39.0587 455.053 39.0587C458.095 39.0587 460.469 38.2291 462.174 36.57C463.879 34.9109 464.732 32.4683 464.732 29.2422V1.03695H476.968V29.1039C476.968 35.5561 475.124 40.7178 471.437 44.5891C467.796 48.4604 462.335 50.3961 455.053 50.3961Z" fill="#currentColor"/>
<path d="M482.833 1.03695H495.069V19.7022H514.011V1.03695H526.247V49.3591H514.011V29.8644H495.069V49.3591H482.833V1.03695Z" fill="#currentColor"/>
<path d="M532.453 1.03695H544.205L558.169 30.9704L572.203 1.03695H583.886V49.3591H572.479V25.0944L560.935 49.3591H555.404L543.929 25.0944V49.3591H532.453V1.03695Z" fill="#currentColor"/>
<path d="M590.107 1.03695H624.395V11.3374H602.343V20.3935H618.45V30.0026H602.343V39.0587H624.395V49.3591H590.107V1.03695Z" fill="#currentColor"/>
</svg>
