<svg width="527" height="73" viewBox="0 0 527 73" fill="none" xmlns="http://www.w3.org/2000/svg">
<path d="M106.378 72.2907C102.132 72.2907 97.919 71.8726 93.738 71.0364C89.5569 70.2646 86.1156 69.1711 83.4141 67.7559V52.4148C86.8875 54.2159 90.4896 55.5667 94.2204 56.4672C98.0155 57.3677 101.618 57.818 105.027 57.818C108.179 57.818 110.559 57.3356 112.167 56.3707C113.775 55.4059 114.579 54.0229 114.579 52.2218C114.579 50.8711 114.128 49.7132 113.228 48.7484C112.392 47.7192 111.137 46.7865 109.465 45.9503C107.793 45.1141 105.188 43.9563 101.65 42.4769C95.4104 39.8396 90.8756 36.9129 88.0453 33.6967C85.2151 30.4805 83.8 26.5247 83.8 21.8291C83.8 17.9696 84.8613 14.5283 86.984 11.5051C89.171 8.48195 92.1942 6.13414 96.0536 4.46174C99.913 2.78933 104.351 1.95312 109.369 1.95312C113.485 1.95312 117.152 2.27474 120.368 2.91797C123.584 3.56121 126.672 4.59039 129.63 6.0055V20.9607C123.97 18.0018 118.277 16.5224 112.553 16.5224C109.465 16.5224 106.989 17.037 105.123 18.0661C103.322 19.031 102.422 20.4461 102.422 22.3115C102.422 24.1769 103.354 25.6885 105.22 26.8463C107.085 28.0041 110.526 29.58 115.544 31.574C120.111 33.4394 123.648 35.2726 126.157 37.0737C128.73 38.8747 130.595 40.9653 131.753 43.3452C132.911 45.7252 133.49 48.7484 133.49 52.4148C133.49 58.6542 131.206 63.5428 126.639 67.0806C122.137 70.554 115.383 72.2907 106.378 72.2907Z" fill="currentColor"/>
<path d="M170.476 72.2907C160.313 72.2907 152.658 69.5892 147.513 64.186C142.367 58.7185 139.794 51.5143 139.794 42.5733V3.4004H156.872V42.7663C156.872 47.2689 158.062 50.6781 160.442 52.9937C162.886 55.3094 166.231 56.4672 170.476 56.4672C174.721 56.4672 178.034 55.3094 180.414 52.9937C182.794 50.6781 183.984 47.2689 183.984 42.7663V3.4004H201.062V42.5733C201.062 51.5786 198.489 58.7828 193.343 64.186C188.261 69.5892 180.639 72.2907 170.476 72.2907Z" fill="currentColor"/>
<path d="M209.248 3.4004H239.544C247.456 3.4004 253.631 5.39442 258.069 9.38248C262.572 13.3705 264.823 19.0953 264.823 26.5568C264.823 31.574 263.73 35.8515 261.543 39.3893C259.356 42.9271 256.268 45.5644 252.28 47.3011L264.244 70.8435H246.684L235.974 49.7132H226.326V70.8435H209.248V3.4004ZM236.553 35.337C239.962 35.337 242.6 34.6937 244.465 33.4073C246.33 32.0565 247.263 29.773 247.263 26.5568C247.263 23.212 246.33 20.9285 244.465 19.7064C242.664 18.4199 240.027 17.7767 236.553 17.7767H226.326V35.337H236.553Z" fill="currentColor"/>
<path d="M305.042 72.2907C297.709 72.2907 291.244 70.8756 285.648 68.0454C280.116 65.2152 275.839 61.1628 272.816 55.8883C269.793 50.5494 268.281 44.3101 268.281 37.1702C268.281 30.0303 269.793 23.8231 272.816 18.5486C275.839 13.2097 280.116 9.12518 285.648 6.29495C291.244 3.4004 297.709 1.95312 305.042 1.95312C309.93 1.95312 314.24 2.43555 317.971 3.4004C321.766 4.30093 325.271 5.78036 328.488 7.83871V24.0482C325.657 21.7969 322.441 20.1888 318.839 19.224C315.301 18.1948 311.217 17.6802 306.586 17.6802C302.597 17.6802 299.028 18.4842 295.876 20.0923C292.788 21.6361 290.344 23.8874 288.543 26.8463C286.742 29.8051 285.841 33.2465 285.841 37.1702C285.841 43.2809 287.61 48.1052 291.148 51.6429C294.75 55.1807 299.606 56.9496 305.717 56.9496C309.126 56.9496 311.989 56.3707 314.304 55.2129V44.4066H303.98V32.4424H330.514V66.0192C323.631 70.2002 315.141 72.2907 305.042 72.2907Z" fill="currentColor"/>
<path d="M337.298 3.4004H385.155V17.7767H354.376V30.4162H376.857V43.8277H354.376V56.4672H385.155V70.8435H337.298V3.4004Z" fill="currentColor"/>
<path d="M424.883 72.2907C418.065 72.2907 411.89 70.8113 406.358 67.8524C400.89 64.8936 396.549 60.7769 393.332 55.5023C390.181 50.1635 388.605 44.0528 388.605 37.1702C388.605 30.2876 390.181 24.1769 393.332 18.838C396.549 13.4992 400.89 9.35031 406.358 6.39144C411.89 3.43256 418.065 1.95312 424.883 1.95312C431.637 1.95312 437.748 3.43256 443.215 6.39144C448.747 9.35031 453.089 13.4992 456.241 18.838C459.392 24.1769 460.968 30.2876 460.968 37.1702C460.968 44.0528 459.392 50.1635 456.241 55.5023C453.089 60.7769 448.747 64.8936 443.215 67.8524C437.748 70.8113 431.637 72.2907 424.883 72.2907ZM424.883 56.2742C428.292 56.2742 431.412 55.5023 434.242 53.9586C437.072 52.4148 439.324 50.1957 440.996 47.3011C442.668 44.4066 443.505 41.0296 443.505 37.1702C443.505 33.3108 442.668 29.966 440.996 27.1357C439.388 24.2412 437.169 22.022 434.339 20.4783C431.508 18.8702 428.356 18.0661 424.883 18.0661C421.345 18.0661 418.161 18.8702 415.331 20.4783C412.501 22.022 410.249 24.2412 408.577 27.1357C406.969 29.966 406.165 33.3108 406.165 37.1702C406.165 41.0296 406.969 44.4066 408.577 47.3011C410.249 50.1957 412.501 52.4148 415.331 53.9586C418.226 55.5023 421.41 56.2742 424.883 56.2742Z" fill="currentColor"/>
<path d="M467.704 3.4004H484.588L509.385 43.5382V3.4004H526.463V70.8435H509.675L484.781 30.6092V70.8435H467.704V3.4004Z" fill="currentColor"/>
<g clip-path="url(#clip0_130_344)">
<path d="M66.2708 49.4261L46.7241 45.8164L53.3892 64.7648C53.5352 65.2743 53.5033 65.7653 53.2767 66.2486C53.0637 66.7349 52.6941 67.0776 52.1967 67.2845L41.9922 70.959L41.8963 71.027C41.4172 71.2076 40.9335 71.1752 40.4285 70.9544C39.9494 70.7382 39.5981 70.3615 39.3684 69.8505L32.6895 50.9855L19.9783 66.2269L19.9114 66.1297L19.8962 66.213C19.592 66.582 19.1889 66.8059 18.6839 66.897C18.2291 66.9402 17.8002 66.8321 17.3728 66.5697L17.3576 66.6531L17.1021 66.3643L8.78659 59.2685C8.382 58.881 8.17058 58.4163 8.1432 57.8728C8.11734 57.3155 8.26336 56.8168 8.60103 56.4123L21.399 41.1446L1.97391 37.5565L1.98152 37.5148L1.94045 37.5071C1.4811 37.4222 1.10388 37.1829 0.784468 36.783C0.460489 36.4109 0.312949 35.9864 0.341849 35.5093L0.300781 35.5016L2.31462 24.2712C2.41501 23.7077 2.68879 23.2754 3.13141 22.9882C3.5786 22.6732 4.08662 22.5698 4.64179 22.6717L5.09354 22.7983L24.0455 26.2983L17.3652 7.43329L17.4139 7.39933L17.4215 7.35764C17.2709 6.87594 17.2815 6.42358 17.4336 5.96967C17.6116 5.52039 17.9128 5.16375 18.3234 4.89974L18.2428 4.8843L28.8611 1.08319C29.3874 0.882482 29.9 0.905641 30.3776 1.12179C30.878 1.37036 31.2111 1.77177 31.3815 2.29979L38.0071 21.2405L50.875 5.90019L50.8902 5.81682C51.2613 5.46018 51.7009 5.27182 52.2119 5.22396C52.7625 5.19771 53.2417 5.32894 53.6189 5.63927L61.9343 12.7351L61.9602 12.8246C62.3724 13.1705 62.6021 13.6105 62.6599 14.1462C62.7131 14.7097 62.5808 15.21 62.2827 15.6237L49.4011 30.9609L68.9478 34.5706C69.4437 34.691 69.8406 34.9628 70.1281 35.3842C70.411 35.8335 70.5327 36.3245 70.4962 36.8417L68.5462 47.717L68.4656 47.7016L68.531 47.7988C68.4352 48.3346 68.1493 48.7638 67.6747 49.0725C67.2427 49.3767 66.7758 49.4879 66.2708 49.423" fill="currentColor"/>
</g>
<defs>
<clipPath id="clip0_130_344">
<rect width="70.197" height="70.197" fill="currentColor" transform="translate(0.304688 0.945312)"/>
</clipPath>
</defs>
</svg>
