<svg width="43" height="42" viewBox="0 0 43 42" fill="none" xmlns="http://www.w3.org/2000/svg">
<path d="M33.671 0.125H9.32504C4.29152 0.125 0.195312 4.06097 0.195312 8.89977V32.2992C0.195312 37.138 4.29152 41.0739 9.32504 41.0739H33.671C38.7045 41.0739 42.8007 37.138 42.8007 32.2992V8.89977C42.8007 4.06097 38.7045 0.125 33.671 0.125ZM31.6422 22.5494V26.4493V26.4698H31.6401C31.628 29.148 29.3587 31.3242 26.5701 31.3242H26.0629C25.0617 31.3242 24.102 30.9147 23.4295 30.201C22.7579 29.4883 22.4303 28.526 22.5297 27.5637C22.7102 25.8448 24.3252 24.4994 26.2079 24.4994H27.5845C28.7034 24.4994 29.6133 23.6248 29.6133 22.5494V12.9995L17.4404 15.1932V25.4743V29.3742C17.4404 32.0622 15.165 34.2491 12.3683 34.2491H11.8611C10.8599 34.2491 9.90022 33.8396 9.22766 33.1259C8.55612 32.4132 8.22846 31.4509 8.32787 30.4886C8.50844 28.7698 10.1234 27.4243 12.0061 27.4243H13.3827C14.5016 27.4243 15.4115 26.5497 15.4115 25.4743V11.1939C15.4115 10.255 16.1084 9.44868 17.0681 9.27709L29.8406 6.97615C30.2859 6.89522 30.7444 7.00832 31.0923 7.28716C31.4423 7.56601 31.6422 7.97647 31.6422 8.41228V22.5494Z" fill="#F1F1F1"/>
</svg>
