<svg width="47" height="47" viewBox="0 0 47 47" fill="none" xmlns="http://www.w3.org/2000/svg">
<path d="M15.1655 3.40625C8.61951 3.40625 3.29688 8.72888 3.29688 15.2749V31.7084C3.29688 38.2544 8.61951 43.5771 15.1655 43.5771H31.599C38.1451 43.5771 43.4677 38.2544 43.4677 31.7084V15.2749C43.4677 8.72888 38.1451 3.40625 31.599 3.40625H15.1655ZM34.338 10.71C35.3422 10.71 36.1639 11.5317 36.1639 12.536C36.1639 13.5402 35.3422 14.3619 34.338 14.3619C33.3337 14.3619 32.512 13.5402 32.512 12.536C32.512 11.5317 33.3337 10.71 34.338 10.71ZM23.3823 13.449C28.924 13.449 33.425 17.9499 33.425 23.4917C33.425 29.0334 28.924 33.5344 23.3823 33.5344C17.8405 33.5344 13.3396 29.0334 13.3396 23.4917C13.3396 17.9499 17.8405 13.449 23.3823 13.449ZM23.3823 15.2749C18.8539 15.2749 15.1655 18.9633 15.1655 23.4917C15.1655 28.02 18.8539 31.7084 23.3823 31.7084C27.9106 31.7084 31.599 28.02 31.599 23.4917C31.599 18.9633 27.9106 15.2749 23.3823 15.2749Z" fill="#F1F1F1"/>
</svg>
