<svg width="44" height="42" viewBox="0 0 44 42" fill="none" xmlns="http://www.w3.org/2000/svg">
<path d="M21.9824 0.125C10.2362 0.125 0.679688 9.30999 0.679688 20.5995C0.679688 31.8889 10.2362 41.0739 21.9824 41.0739C33.7285 41.0739 43.2851 31.8898 43.2851 20.5995C43.2851 9.3091 33.7285 0.125 21.9824 0.125ZM30.9992 29.8023C30.7316 30.1884 30.2909 30.3967 29.8419 30.3967C29.5771 30.3967 29.3095 30.3246 29.0725 30.1724C26.7829 28.7051 22.8999 27.7262 19.6595 27.7271C16.2209 27.7289 13.6433 28.5405 13.6174 28.5485C12.8915 28.7852 12.1037 28.4043 11.8611 27.7049C11.6185 27.0055 12.012 26.2491 12.7397 26.0168C12.8619 25.9777 15.7755 25.0603 19.6595 25.0585C22.8999 25.0567 27.4069 25.8967 30.614 27.9514C31.2528 28.3607 31.4251 29.1892 30.9992 29.8023ZM33.7693 24.3386C33.4684 24.8031 32.949 25.0585 32.4185 25.0585C32.1315 25.0585 31.8408 24.9846 31.5797 24.8271C27.4282 22.3409 23.1619 21.815 19.4863 21.8461C15.3367 21.8817 12.0185 22.6426 11.962 22.6586C11.1223 22.8882 10.239 22.4165 9.99921 21.6059C9.75942 20.7935 10.251 19.949 11.0954 19.7194C11.3519 19.6491 14.6636 18.866 19.1975 18.8296C23.3313 18.7966 28.4827 19.3724 33.2619 22.2341C34.0054 22.679 34.2341 23.6223 33.7693 24.3386ZM36.5329 17.9495C36.1876 18.5137 35.5691 18.8278 34.934 18.8278C34.6155 18.8278 34.2933 18.7486 33.998 18.5831C29.1595 15.853 23.2767 15.2737 19.1938 15.2684C19.1743 15.2684 19.1549 15.2684 19.1354 15.2684C14.1979 15.2684 10.3955 16.1031 10.3575 16.112C9.35946 16.3318 8.36603 15.7391 8.13457 14.7817C7.90311 13.8251 8.52064 12.8694 9.51592 12.646C9.68721 12.6078 13.7498 11.709 19.1354 11.709C19.1567 11.709 19.178 11.709 19.1993 11.709C23.7406 11.7152 30.3196 12.3791 35.8737 15.5131C36.7551 16.0114 37.0505 17.1024 36.5329 17.9495Z" fill="#F1F1F1"/>
</svg>
