<svg width="200" height="200" viewBox="0 0 200 200" fill="none" xmlns="http://www.w3.org/2000/svg">
<path d="M67.9629 88.3605H76.6363C76.6543 88.2279 76.6874 88.1044 76.6874 87.9825C76.6874 86.3605 76.6814 84.7386 76.6769 83.1166C76.6769 83.0069 76.6769 82.8941 76.6649 82.7858C76.5595 81.8986 76.2556 81.612 75.3648 81.5572C75.2775 81.5511 75.1902 81.5358 75.0217 81.516C75.0563 80.83 75.0894 80.1623 75.124 79.4688H82.231V81.4474C82.1286 81.5069 82.1 81.5373 82.0669 81.5419C81.0181 81.6486 80.836 81.8148 80.675 82.8681C80.6419 83.0846 80.6434 83.3087 80.6434 83.5297C80.6419 88.2111 80.6404 92.8941 80.6465 97.5755C80.6465 97.9047 80.6871 98.2355 80.7412 98.5617C80.8571 99.2599 81.1445 99.513 81.8292 99.5587C81.9556 99.5678 82.0805 99.5755 82.2249 99.5846V101.638H75.0202C75.0563 100.94 75.0894 100.274 75.1195 99.673C75.2233 99.6014 75.2384 99.5831 75.2534 99.5831C76.3293 99.5648 76.6589 99.1669 76.6724 98.013C76.695 96.0221 76.6859 94.0313 76.6889 92.0404C76.6889 91.9154 76.6679 91.7904 76.6528 91.6258H68.005C67.9779 91.7614 67.9328 91.8834 67.9343 92.0038C67.9403 94.0313 67.9313 96.0587 67.9689 98.0846C67.99 99.2584 68.2262 99.4672 69.3879 99.5678C69.439 99.5724 69.4887 99.5983 69.6151 99.6395C69.573 100.28 69.5308 100.931 69.4842 101.63H62.293C62.3321 100.941 62.3697 100.29 62.4088 99.6105C62.5849 99.5892 62.7233 99.5694 62.8618 99.5556C63.4652 99.4931 63.8068 99.1928 63.8865 98.5998C63.9497 98.1273 63.9964 97.6471 63.9979 97.17C64.0054 92.8011 64.0054 88.4322 63.9979 84.0648C63.9979 83.6059 63.9512 83.1456 63.9031 82.6898C63.8203 81.8971 63.4998 81.6059 62.7008 81.5602C62.5924 81.5541 62.4856 81.5404 62.299 81.5236C62.3351 80.8498 62.3712 80.1867 62.4088 79.4809H69.5669C69.5669 79.8239 69.579 80.1471 69.5639 80.4703C69.5489 80.7995 69.5068 81.1288 69.4721 81.5023C69.3367 81.5221 69.1998 81.548 69.0629 81.5633C68.3842 81.6395 68.0547 81.9596 67.9839 82.6532C67.9463 83.0191 67.9328 83.3895 67.9313 83.7569C67.9253 85.0846 67.9283 86.4108 67.9313 87.7386C67.9313 87.9352 67.9508 88.1334 67.9629 88.3636V88.3605Z" fill="white"/>
<path d="M136.896 91.1266C137.564 92.4543 138.22 93.7668 138.881 95.0763C139.335 95.9772 139.796 96.8751 140.256 97.7729C140.357 97.9681 140.473 98.1556 140.58 98.3492C140.972 99.0595 141.473 99.6113 142.436 99.558C142.396 100.262 142.357 100.915 142.316 101.633C142.133 101.649 141.959 101.677 141.788 101.677C140.569 101.681 139.35 101.663 138.131 101.688C137.739 101.695 137.573 101.538 137.406 101.194C135.977 98.2379 134.52 95.2943 133.071 92.3476C133.047 92.3004 133.009 92.2607 132.967 92.2028C131.926 92.2379 130.88 92.2714 129.806 92.3065C129.792 92.5046 129.771 92.6647 129.771 92.8263C129.772 94.5031 129.778 96.1799 129.783 97.8568C129.783 97.9117 129.783 97.9681 129.783 98.0229C129.819 99.1068 130.168 99.6403 131.283 99.5595C131.372 99.5534 131.462 99.5748 131.571 99.5839V101.636H124.235V99.6525C124.34 99.6083 124.388 99.5732 124.438 99.5687C125.418 99.4848 125.63 99.2973 125.785 98.3309C125.819 98.1144 125.816 97.8903 125.816 97.6693C125.818 92.933 125.819 88.1967 125.813 83.462C125.813 83.151 125.78 82.837 125.722 82.5321C125.591 81.8446 125.303 81.6052 124.608 81.558C124.485 81.5504 124.361 81.5382 124.23 81.5275V79.4848C124.455 79.465 124.626 79.436 124.799 79.436C128.092 79.433 131.384 79.4193 134.676 79.4452C135.361 79.4513 136.058 79.5427 136.724 79.7028C138.523 80.1357 139.577 81.3918 140.122 83.1083C140.537 84.4132 140.542 85.7546 140.218 87.0854C139.814 88.7531 138.803 89.9589 137.373 90.8339C137.22 90.9269 137.066 91.0199 136.893 91.1251L136.896 91.1266ZM129.81 89.1479C130.528 89.1479 131.187 89.2043 131.834 89.1327C132.55 89.0549 133.276 88.9254 133.96 88.7028C135.135 88.3232 135.915 87.5031 136.139 86.247C136.225 85.7638 136.214 85.2562 136.19 84.7623C136.138 83.6617 135.486 82.8461 134.437 82.5641C133.294 82.2562 132.133 82.2607 130.982 82.5031C130.146 82.6784 129.893 82.9985 129.795 83.8537C129.785 83.9452 129.786 84.0382 129.785 84.1296C129.78 85.6586 129.774 87.1891 129.772 88.7181C129.772 88.8431 129.794 88.9681 129.81 89.1464V89.1479Z" fill="white"/>
<path d="M41.798 99.6296C41.7694 100.29 41.7408 100.957 41.7092 101.677C41.2247 101.677 40.826 101.677 40.4287 101.677C39.4642 101.677 38.4996 101.663 37.5366 101.683C37.1604 101.691 36.9723 101.569 36.7977 101.207C35.3968 98.2973 33.9643 95.4024 32.5438 92.5031C32.4505 92.3125 32.3572 92.1631 32.1029 92.1784C31.1609 92.2332 30.2189 92.2683 29.2469 92.314C29.2228 92.4131 29.1746 92.5137 29.1746 92.6159C29.1807 94.4771 29.1701 96.3384 29.2093 98.1997C29.2318 99.2485 29.5554 99.529 30.5726 99.5549C30.7125 99.5579 30.854 99.5793 31.0616 99.5991C31.0195 100.28 30.9773 100.933 30.9337 101.636C30.7336 101.651 30.5575 101.674 30.383 101.675C28.2914 101.678 26.1982 101.678 24.1066 101.675C23.5032 101.675 23.4957 101.66 23.5469 101.049C23.586 100.576 23.6161 100.104 23.6522 99.6037C23.8237 99.5839 23.9637 99.5656 24.1036 99.5503C24.7266 99.4832 25.0607 99.1692 25.1329 98.5351C25.1886 98.0412 25.2382 97.5442 25.2382 97.0488C25.2457 92.718 25.2457 88.3857 25.2382 84.0549C25.2382 83.5595 25.1901 83.061 25.1284 82.5686C25.0471 81.9116 24.701 81.6082 24.0404 81.5564C23.8975 81.5457 23.7545 81.5366 23.58 81.5244C23.5604 81.3872 23.5243 81.2637 23.5303 81.1433C23.5499 80.7028 23.598 80.2622 23.6086 79.8217C23.6161 79.5366 23.735 79.4177 24.0073 79.4329C24.1157 79.439 24.2255 79.4329 24.3354 79.4329C27.5375 79.4329 30.7396 79.4207 33.9417 79.4436C34.6279 79.4482 35.3231 79.5274 35.9957 79.6677C37.204 79.9192 38.1385 80.6037 38.8352 81.6509C40.1548 83.6357 40.1759 87.0625 38.7058 89.0671C38.1881 89.7729 37.5516 90.3399 36.8158 90.7973C36.6473 90.9009 36.4817 91.0076 36.2861 91.1311C36.8173 92.189 37.3319 93.2226 37.8511 94.2515C38.3958 95.3339 38.9435 96.4146 39.4927 97.4939C39.6176 97.7393 39.7501 97.9817 39.8885 98.218C40.51 99.2835 40.6228 99.3659 41.804 99.6281L41.798 99.6296ZM29.1656 89.1326C30.4672 89.1784 31.6786 89.2073 32.8628 88.8674C34.825 88.3049 35.7098 87.0579 35.6165 85.0031C35.5548 83.6464 34.8777 82.7927 33.5836 82.4985C32.5242 82.2592 31.4528 82.2729 30.3935 82.4893C29.5192 82.6677 29.2378 82.9802 29.2093 83.875C29.1641 85.3278 29.1762 86.782 29.1656 88.2363C29.1641 88.5107 29.1656 88.7851 29.1656 89.1311V89.1326Z" fill="white"/>
<path d="M163.095 90.5165C163.12 92.4631 162.919 94.3229 162.317 96.1201C161.175 99.5302 158.851 101.521 155.314 102.007C153.619 102.241 151.934 102.155 150.292 101.657C147.681 100.864 145.995 99.0653 145.041 96.5241C144.481 95.0332 144.239 93.4784 144.147 91.8869C144.069 90.5195 144.114 89.1628 144.276 87.8092C144.476 86.1521 144.902 84.5607 145.739 83.1064C146.807 81.2497 148.372 80.0271 150.41 79.457C152.405 78.8991 154.429 78.8214 156.444 79.3442C159.58 80.1582 161.497 82.2528 162.422 85.3381C162.934 87.0424 163.123 88.7939 163.092 90.515L163.095 90.5165ZM158.89 90.5683C158.821 89.6522 158.788 88.7314 158.675 87.8198C158.535 86.7025 158.248 85.6186 157.69 84.6308C157.133 83.6461 156.32 82.9875 155.244 82.6445C154.534 82.4189 153.813 82.4113 153.087 82.4387C151.687 82.4906 150.563 83.0957 149.778 84.268C149.465 84.7345 149.221 85.2604 149.021 85.7878C148.635 86.8076 148.505 87.8839 148.416 88.9692C148.264 90.8534 148.339 92.7192 148.795 94.5546C148.923 95.0668 149.108 95.5744 149.334 96.0515C150.237 97.9616 151.792 98.765 153.836 98.7131C154.984 98.6842 156.019 98.3534 156.868 97.5424C157.545 96.8961 157.96 96.0836 158.252 95.1979C158.747 93.6948 158.856 92.1415 158.892 90.5668L158.89 90.5683Z" fill="white"/>
<path d="M183.121 101.636C183.168 100.921 183.21 100.267 183.251 99.6235C183.363 99.5915 183.413 99.564 183.464 99.564C184.504 99.561 184.716 99.0351 184.782 98.1829C184.8 97.9451 184.797 97.7043 184.797 97.4649C184.797 92.8552 184.8 88.247 184.794 83.6372C184.794 83.253 184.778 82.8613 184.703 82.4863C184.573 81.8369 184.262 81.5991 183.606 81.5595C183.481 81.5518 183.354 81.5427 183.135 81.5274C183.171 80.846 183.205 80.1784 183.244 79.4375C183.497 79.4375 183.691 79.4375 183.887 79.4375C188.309 79.4375 192.732 79.4375 197.154 79.4375C197.765 79.4375 197.755 79.4405 197.823 80.0625C197.944 81.1784 198.089 82.2896 198.205 83.4055C198.239 83.7302 198.209 84.0625 198.209 84.4466H195.535C195.447 84.1113 195.362 83.7759 195.267 83.4436C195.1 82.8552 194.735 82.4695 194.116 82.4329C193.229 82.3796 192.338 82.3537 191.448 82.3476C190.905 82.3445 190.36 82.3826 189.82 82.436C189.265 82.4924 188.935 82.8216 188.844 83.3857C188.82 83.5305 188.761 83.6738 188.761 83.8171C188.755 85.346 188.756 86.8735 188.756 88.468H196.577C196.539 89.5335 196.504 90.532 196.467 91.6021H188.789C188.773 91.8293 188.75 91.9893 188.75 92.1494C188.747 93.7165 188.746 95.2835 188.753 96.8506C188.753 97.1067 188.812 97.3613 188.832 97.6159C188.874 98.1692 189.235 98.4162 189.709 98.5335C189.99 98.6037 190.284 98.6601 190.571 98.657C191.807 98.6433 193.045 98.6463 194.277 98.5656C195.454 98.4893 195.902 98.0259 196.131 96.8399C196.176 96.6067 196.217 96.3735 196.265 96.1037H198.957C198.975 96.2165 199.008 96.3049 198.999 96.3887C198.885 97.375 198.76 98.3598 198.646 99.346C198.578 99.9299 198.516 100.515 198.468 101.102C198.423 101.645 198.409 101.677 197.896 101.677C193.146 101.68 188.397 101.678 183.646 101.677C183.505 101.677 183.363 101.655 183.121 101.636Z" fill="white"/>
<path d="M111.036 79.4688C111.213 81.1319 111.388 82.766 111.562 84.4093C111.367 84.452 111.261 84.4931 111.158 84.4947C110.485 84.5008 109.811 84.4916 109.138 84.5038C108.867 84.5084 108.747 84.3849 108.691 84.1319C108.625 83.8285 108.553 83.5236 108.45 83.2309C108.292 82.7736 107.952 82.513 107.483 82.4459C107.125 82.3956 106.762 82.3514 106.401 82.3453C105.564 82.33 104.728 82.3361 103.891 82.3438C103.674 82.3453 103.455 82.3636 103.243 82.4032C102.359 82.5709 102.07 82.8925 102.049 83.8239C102.024 85.0023 102.037 86.1822 102.034 87.362C102.034 87.7096 102.034 88.0587 102.034 88.4794H109.743V91.6227H102.076C102.06 91.8392 102.036 91.9977 102.036 92.1578C102.033 93.7248 102.036 95.2904 102.034 96.8575C102.033 98.0617 102.24 98.5221 103.522 98.612C104.974 98.7142 106.431 98.7492 107.876 98.5389C108.798 98.4047 109.239 97.8346 109.429 96.6745C109.447 96.5663 109.423 96.4413 109.468 96.3483C109.517 96.2447 109.618 96.0968 109.702 96.0922C110.548 96.0495 111.395 96.0495 112.291 96.0831C112.069 97.9916 111.859 99.8087 111.645 101.65H96.4922V99.673C96.5975 99.6105 96.6261 99.5785 96.6592 99.5755C97.7125 99.4748 97.8841 99.3163 98.0466 98.2538C98.0767 98.0541 98.0812 97.8498 98.0812 97.6486C98.0827 92.9306 98.0842 88.2127 98.0782 83.4931C98.0782 83.1822 98.033 82.8697 97.9819 82.5633C97.8675 81.8773 97.5681 81.6105 96.894 81.5602C96.7525 81.5495 96.6111 81.5389 96.5012 81.5297V79.4688H111.036Z" fill="white"/>
<path d="M9.59992 79.4417C10.4411 79.4417 11.2747 79.4371 12.1098 79.4432C12.4906 79.4463 12.9645 79.3365 13.2219 79.524C13.4716 79.7054 13.4957 80.2039 13.6206 80.5621C14.4919 83.0378 15.3601 85.5149 16.2389 87.9874C17.3148 91.0149 18.3952 94.0408 19.4801 97.0637C19.6667 97.582 19.8924 98.085 20.0865 98.6003C20.3017 99.1734 20.6358 99.5896 21.2873 99.5881V101.634H14.704V99.6384C14.8891 99.5911 15.0261 99.556 15.1615 99.5225C15.7559 99.3716 15.9394 99.1201 15.7784 98.5301C15.5618 97.7344 15.2984 96.9509 15.0471 96.1658C14.9298 95.7984 14.7748 95.4432 14.6709 95.0713C14.5942 94.7984 14.4633 94.6765 14.1744 94.678C12.1369 94.6856 10.098 94.6871 8.06056 94.6765C7.74456 94.6749 7.61063 94.8228 7.51132 95.0942C7.13814 96.1109 6.74089 97.1185 6.36921 98.1368C6.01861 99.0972 6.15102 99.3304 7.13062 99.5576C7.19833 99.5728 7.26605 99.5911 7.31119 99.6033V101.637H1.03938C1.02583 101.492 0.998747 101.367 1.00477 101.245C1.03035 100.713 1.06496 100.181 1.09656 99.6201C1.83539 99.5042 2.20857 98.9996 2.45535 98.3823C3.16559 96.6094 3.87584 94.8381 4.562 93.056C5.94186 89.4753 7.3142 85.8929 8.66848 82.3015C8.96491 81.5134 9.17407 80.6917 9.42687 79.8868C9.47051 79.7496 9.5292 79.6185 9.59841 79.4402L9.59992 79.4417ZM11.2401 84.4356C10.7601 86.8884 9.66161 89.1048 8.9288 91.4692H13.2595C12.6064 89.1003 11.5982 86.8823 11.2416 84.4356H11.2401Z" fill="white"/>
<path d="M179.066 79.6492C179.132 81.3672 179.197 83.0685 179.26 84.7483C178.818 84.9069 177.379 84.9374 176.64 84.823C176.597 84.6416 176.537 84.4511 176.508 84.2544C176.365 83.2758 175.795 82.6538 174.896 82.355C173.783 81.9831 172.639 81.9617 171.512 82.2712C170.454 82.5608 169.74 83.4236 169.645 84.416C169.505 85.8779 169.916 86.8185 171.068 87.3581C171.87 87.7346 172.733 87.9846 173.572 88.2758C174.362 88.5502 175.169 88.7742 175.95 89.0715C178.038 89.8657 179.43 91.3093 179.858 93.5776C180.196 95.3779 180.071 97.1416 179.208 98.7864C178.272 100.568 176.746 101.53 174.823 101.924C173.467 102.201 172.11 102.123 170.751 102.007C169.213 101.876 167.677 101.725 166.14 101.581C166.088 101.576 166.036 101.555 165.939 101.53C165.847 99.602 165.754 97.6645 165.659 95.6752H168.309C168.387 96.0837 168.455 96.48 168.54 96.8718C168.744 97.8063 169.327 98.3992 170.217 98.6569C171.442 99.0121 172.695 99.0746 173.933 98.7666C175.101 98.4755 175.829 97.6767 176.037 96.4816C176.258 95.2117 175.972 94.0806 174.818 93.355C174.344 93.0578 173.821 92.8246 173.294 92.6325C172.201 92.2331 171.089 91.8901 169.991 91.5075C168.715 91.0624 167.567 90.416 166.721 89.3124C165.973 88.3352 165.612 87.2178 165.562 85.9877C165.514 84.7788 165.599 83.5928 166.131 82.4831C167.028 80.6142 168.558 79.6142 170.524 79.2072C172.063 78.8886 173.596 79.0456 175.134 79.2194C176.343 79.355 177.552 79.4663 178.762 79.5898C178.849 79.5989 178.935 79.6233 179.066 79.6492Z" fill="white"/>
<path d="M58.7063 79.6356C58.8763 81.4115 59.0419 83.1646 59.2134 84.9603H56.4477C56.3483 84.6386 56.2551 84.3063 56.1422 83.9832C55.936 83.3947 55.5478 82.9572 54.964 82.7606C53.3855 82.2332 51.819 82.2393 50.3098 83.0091C49.3648 83.4908 48.8261 84.3444 48.4333 85.2987C47.9684 86.4298 47.7712 87.6234 47.6614 88.8383C47.5395 90.1813 47.526 91.5228 47.6659 92.8643C47.7953 94.096 48 95.3094 48.6034 96.4085C49.4837 98.0136 50.8665 98.7392 52.6527 98.7027C54.174 98.6722 55.4681 98.0548 56.6027 97.0609C56.9578 96.7499 57.3009 96.4237 57.7117 96.0472C58.3632 96.8703 58.9937 97.6676 59.6407 98.4832C59.5159 98.6402 59.4256 98.7758 59.3142 98.8886C57.5657 100.668 55.5177 101.811 53.0063 102.049C51.011 102.238 49.1225 101.971 47.4026 100.889C45.8572 99.9146 44.8912 98.4618 44.2577 96.7682C43.6873 95.2408 43.3969 93.6478 43.3804 92.0197C43.3668 90.6798 43.3698 89.3307 43.4993 87.9984C43.7084 85.8505 44.2877 83.8078 45.6104 82.0518C46.8308 80.4313 48.483 79.5563 50.4347 79.2027C51.9725 78.9237 53.5074 78.9893 55.0467 79.1874C56.1271 79.3261 57.2121 79.4298 58.294 79.5518C58.4008 79.5639 58.5062 79.5944 58.7033 79.6356H58.7063Z" fill="white"/>
<path d="M92.9816 99.5907C92.9816 99.8316 92.9921 100.031 92.9801 100.228C92.9515 100.685 92.9124 101.143 92.8748 101.639H85.7874V99.6623C85.9002 99.6075 85.9318 99.5816 85.9665 99.5785C86.9882 99.4886 87.1537 99.3392 87.3268 98.298C87.3719 98.0282 87.3794 97.7492 87.3794 97.4733C87.3824 92.8666 87.3839 88.2599 87.3779 83.6532C87.3779 83.2873 87.3328 82.9184 87.2786 82.5572C87.1763 81.8834 86.8648 81.6136 86.1831 81.5633C86.0432 81.5526 85.9018 81.5389 85.7031 81.5206C85.7859 80.8285 85.67 80.1532 85.8491 79.4688H92.9997C92.9621 80.1684 92.9259 80.8331 92.8913 81.484C92.777 81.5221 92.7273 81.5495 92.6762 81.5541C91.7507 81.6212 91.4212 81.9459 91.3535 82.8803C91.3324 83.1745 91.3339 83.4703 91.3339 83.7645C91.3339 88.298 91.3309 92.83 91.3369 97.3636C91.3369 97.766 91.3444 98.1761 91.4182 98.5709C91.5536 99.3011 91.844 99.5252 92.5693 99.5617C92.6777 99.5678 92.786 99.577 92.9816 99.5907Z" fill="white"/>
<path d="M109.774 114.439C109.774 115.856 109.762 117.143 109.78 118.429C109.788 118.969 109.816 118.969 110.405 119.114C110.412 119.256 110.457 119.426 110.415 119.57C110.384 119.678 110.242 119.826 110.146 119.829C109.424 119.85 108.701 119.841 107.946 119.841C107.928 119.467 107.765 119.131 108.261 118.996C108.355 118.971 108.447 118.731 108.449 118.589C108.462 116.894 108.456 115.199 108.462 113.504C108.462 113.143 108.282 112.966 107.908 112.954C107.923 112.69 107.936 112.48 107.951 112.202C108.628 112.202 109.26 112.178 109.887 112.221C110.029 112.23 110.19 112.458 110.281 112.62C111.108 114.07 111.922 115.528 112.739 116.984C112.809 117.111 112.885 117.234 113.04 117.349C113.017 116.966 112.979 116.582 112.975 116.199C112.964 115.37 112.976 114.541 112.969 113.711C112.963 113.099 112.94 113.08 112.307 112.914C112.325 112.701 112.344 112.475 112.366 112.224H114.775V112.919C114.266 112.983 114.263 113.361 114.266 113.774C114.277 115.56 114.271 117.349 114.271 119.135V119.835C113.839 119.835 113.428 119.859 113.025 119.82C112.904 119.807 112.769 119.634 112.694 119.503C111.777 117.914 110.871 116.318 109.961 114.725C109.926 114.664 109.884 114.608 109.773 114.437L109.774 114.439Z" fill="white"/>
<path d="M48.0586 112.941C48.0721 112.667 48.0812 112.469 48.0902 112.298C48.1609 112.254 48.191 112.217 48.2211 112.219C49.5453 112.236 50.871 112.222 52.1937 112.289C52.9551 112.327 53.5284 112.795 53.8639 113.47C54.663 115.077 54.684 116.734 53.9633 118.37C53.5675 119.265 52.7865 119.751 51.843 119.803C50.6137 119.87 49.3783 119.819 48.1067 119.819V119.126C48.6048 119.059 48.6229 118.69 48.6199 118.274C48.6078 116.745 48.6093 115.216 48.6199 113.685C48.6229 113.297 48.5702 112.978 48.0616 112.944L48.0586 112.941ZM50.0554 116.025H50.0539C50.0539 116.577 50.0539 117.13 50.0539 117.682C50.0569 118.691 50.0945 118.728 51.1147 118.713C52.0703 118.699 52.5337 118.327 52.773 117.373C52.9776 116.556 52.9746 115.723 52.8377 114.906C52.6315 113.682 51.9017 113.168 50.7055 113.319C50.2405 113.377 50.0659 113.556 50.0584 114.036C50.0464 114.699 50.0554 115.362 50.0554 116.025Z" fill="white"/>
<path d="M147.641 116.126C147.563 116.611 147.522 117.204 147.367 117.763C146.875 119.536 145.601 120.032 144.164 119.987C143.772 119.975 143.365 119.898 142.996 119.763C141.815 119.332 141.329 118.343 141.136 117.181C140.984 116.268 141.008 115.347 141.225 114.442C141.582 112.949 142.648 112.08 144.159 112.064C144.466 112.061 144.781 112.059 145.08 112.116C146.443 112.373 147.179 113.279 147.459 114.597C147.558 115.061 147.574 115.544 147.64 116.125L147.641 116.126ZM146.159 116.039C146.024 115.411 145.948 114.766 145.741 114.17C145.518 113.53 144.978 113.292 144.307 113.292C143.649 113.292 143.168 113.558 142.913 114.155C142.758 114.521 142.659 114.925 142.608 115.321C142.498 116.17 142.542 117.015 142.879 117.815C143.153 118.465 143.657 118.748 144.349 118.747C145.021 118.745 145.544 118.477 145.76 117.83C145.95 117.265 146.027 116.66 146.159 116.039Z" fill="white"/>
<path d="M123.697 114.065H122.711C122.439 113.165 121.702 113.269 121.011 113.311C120.344 113.353 119.896 113.734 119.685 114.368C119.327 115.444 119.288 116.54 119.63 117.622C119.998 118.787 120.838 118.962 121.837 118.776C121.985 118.749 122.197 118.571 122.215 118.44C122.271 118.031 122.311 117.595 122.225 117.2C122.185 117.011 121.846 116.888 121.566 116.677C121.566 116.653 121.566 116.528 121.566 116.401C121.568 116.18 121.667 116.058 121.896 116.058C122.496 116.058 123.097 116.055 123.697 116.058C123.84 116.058 123.981 116.08 124.162 116.095V116.796C123.668 116.822 123.649 117.183 123.655 117.578C123.665 118.295 123.658 119.011 123.658 119.709C123.605 119.751 123.578 119.79 123.548 119.793C122.553 119.851 121.559 119.955 120.564 119.944C119.473 119.933 118.695 119.321 118.302 118.319C117.719 116.827 117.714 115.287 118.305 113.796C118.757 112.654 119.708 112.124 120.883 112.077C121.66 112.045 122.442 112.141 123.222 112.179C123.41 112.188 123.531 112.263 123.551 112.47C123.596 112.979 123.644 113.49 123.697 114.069V114.065Z" fill="white"/>
<path d="M67.2242 114.063C67.0105 113.074 66.1844 113.083 65.423 113.269C65.0483 113.36 64.8873 113.684 64.8813 114.072C64.8753 114.458 65.0137 114.769 65.3809 114.911C65.8549 115.094 66.3424 115.238 66.824 115.405C68.5334 115.993 69.0074 118.214 67.6817 119.417C67.1415 119.906 66.4779 120.007 65.7992 119.991C65.1657 119.978 64.5337 119.886 63.9002 119.841C63.6986 119.825 63.527 119.79 63.524 119.546C63.518 118.961 63.5225 118.376 63.5225 117.746H64.3637C64.3847 117.77 64.4239 117.795 64.4299 117.825C64.5021 118.213 64.5743 118.606 65.0258 118.725C65.56 118.863 66.1122 118.947 66.6058 118.627C67.143 118.28 67.1294 117.391 66.5952 117.017C66.4192 116.894 66.2085 116.818 66.0054 116.741C65.6141 116.595 65.2139 116.475 64.8256 116.322C63.7392 115.9 63.2712 115.06 63.4458 113.876C63.5978 112.841 64.3336 112.112 65.4125 112.081C66.2777 112.057 67.146 112.174 68.0639 112.234C68.0955 112.885 68.1226 113.459 68.1511 114.065H67.2257L67.2242 114.063Z" fill="white"/>
<path d="M137.471 117.868C137.705 118.171 137.915 118.441 138.139 118.729C137.386 119.622 136.469 120.038 135.376 119.987C133.903 119.917 133.05 119.167 132.693 117.702C132.4 116.496 132.412 115.295 132.792 114.11C133.227 112.752 134.16 112.058 135.561 112.07C136.177 112.075 136.792 112.153 137.408 112.199C137.698 112.22 137.863 112.337 137.87 112.677C137.879 113.148 137.943 113.618 137.988 114.141H137.036C136.985 114.034 136.937 113.895 136.855 113.779C136.764 113.65 136.66 113.506 136.527 113.429C135.829 113.025 134.755 113.349 134.403 114.083C134.27 114.359 134.192 114.67 134.135 114.973C133.981 115.776 133.984 116.583 134.157 117.383C134.43 118.647 135.563 119.142 136.67 118.477C136.932 118.32 137.161 118.107 137.475 117.866L137.471 117.868Z" fill="white"/>
<path d="M73.333 113.347C72.5942 113.181 72.4663 113.247 72.1819 113.954H71.3392C71.3392 113.503 71.3302 113.084 71.3422 112.664C71.3542 112.236 71.3949 112.195 71.8237 112.192C72.9508 112.184 74.0778 112.189 75.2049 112.189C75.7286 112.189 76.2537 112.189 76.8165 112.189V113.948H75.9603C75.864 113.753 75.8143 113.466 75.6518 113.367C75.4592 113.25 75.1703 113.293 74.8618 113.259C74.8408 113.495 74.8107 113.672 74.8107 113.847C74.8076 115.34 74.8076 116.831 74.8092 118.323C74.8092 118.704 74.7941 119.096 75.3704 119.096C75.3479 119.357 75.3283 119.568 75.3072 119.808H72.859C72.8334 119.478 72.692 119.164 73.1449 118.985C73.2728 118.934 73.3766 118.649 73.3781 118.469C73.3887 116.776 73.3736 115.084 73.3661 113.39C73.3661 113.375 73.3465 113.361 73.3345 113.346L73.333 113.347Z" fill="white"/>
<path d="M98.1853 117.9H99.1288C99.0701 118.499 99.031 119.062 98.9557 119.62C98.9166 119.906 98.6578 119.838 98.4697 119.839C97.2704 119.844 96.0696 119.842 94.8703 119.842C94.5483 119.842 94.2278 119.842 93.8877 119.842C93.8501 119.44 93.7749 119.117 94.2233 118.982C94.303 118.958 94.3692 118.778 94.3828 118.664C94.4129 118.409 94.4114 118.15 94.4114 117.893C94.4129 116.511 94.4114 115.13 94.4114 113.749C94.4114 113.35 94.4114 112.947 93.832 112.921C93.8651 112.662 93.8922 112.452 93.9208 112.219H96.4383V112.923C95.8996 112.955 95.8168 113.33 95.8213 113.8C95.8334 115.181 95.8213 116.562 95.8273 117.943C95.8303 118.632 95.9116 118.711 96.5722 118.716C96.7182 118.716 96.8626 118.716 97.0086 118.716C97.5744 118.714 97.9661 118.442 98.1838 117.902L98.1853 117.9Z" fill="white"/>
<path d="M88.1872 112.208C88.3091 112.762 88.2956 112.74 87.8592 113.027C87.7283 113.114 87.6365 113.356 87.632 113.53C87.6079 114.321 87.62 115.114 87.62 115.906C87.62 116.569 87.6184 117.233 87.62 117.896C87.623 118.701 87.6305 118.71 88.3994 118.711C88.5995 118.711 88.8012 118.698 88.9998 118.713C89.4467 118.746 89.7296 118.557 89.85 118.117C89.8696 118.047 89.9072 117.984 89.9448 117.9H90.9108C90.8281 118.559 90.7513 119.17 90.6716 119.804H85.6623V119.141C86.1242 119.033 86.1965 118.691 86.1889 118.242C86.1649 116.731 86.1754 115.22 86.1829 113.71C86.1844 113.31 86.1543 112.955 85.6562 112.94V112.214C86.517 112.161 87.3566 112.178 88.1872 112.208Z" fill="white"/>
<path d="M82.3868 119.1C82.3492 119.387 82.3251 119.582 82.2951 119.808H79.8589C79.8167 119.468 79.7009 119.144 80.1734 118.968C80.2922 118.923 80.3735 118.62 80.375 118.436C80.39 116.835 80.3855 115.234 80.384 113.634C80.384 113.265 80.2561 112.987 79.8047 112.939C79.8242 112.702 79.8408 112.49 79.8619 112.234H82.3583C82.3432 112.48 82.3312 112.689 82.3161 112.943C81.818 112.968 81.803 113.326 81.8015 113.69C81.8015 115.254 81.8015 116.818 81.8015 118.382C81.8015 118.757 81.8376 119.102 82.3884 119.103L82.3868 119.1Z" fill="white"/>
<path d="M104.665 119.1C104.652 119.372 104.644 119.553 104.631 119.829C103.811 119.858 103.007 119.84 102.161 119.838V119.129C102.637 119.05 102.677 118.693 102.674 118.272C102.661 116.745 102.665 115.218 102.671 113.69C102.673 113.308 102.635 112.972 102.152 112.958V112.234H104.629V112.894C104.151 113.001 104.096 113.359 104.103 113.801C104.122 115.311 104.115 116.82 104.107 118.329C104.106 118.721 104.107 119.09 104.667 119.102L104.665 119.1Z" fill="white"/>
<path d="M60.1977 119.109V119.792H57.7193C57.7133 119.48 57.5267 119.146 58.0188 119.004C58.2881 118.926 58.2279 118.644 58.2294 118.434C58.2355 117.109 58.2324 115.783 58.2324 114.458C58.2324 114.183 58.2219 113.905 58.234 113.631C58.252 113.253 58.1617 112.968 57.7163 112.949V112.234H60.1901V112.894C59.7372 113.009 59.6559 113.35 59.6635 113.8C59.686 115.291 59.6785 116.782 59.668 118.272C59.665 118.687 59.683 119.061 60.1962 119.111L60.1977 119.109Z" fill="white"/>
<path d="M150.705 119.954C150.201 119.948 149.937 119.697 149.946 119.235C149.956 118.735 150.35 118.38 150.888 118.383C151.371 118.386 151.632 118.647 151.626 119.121C151.62 119.66 151.286 119.962 150.704 119.956L150.705 119.954Z" fill="white"/>
</svg>
