<svg width="200" height="200" viewBox="0 0 200 200" fill="none" xmlns="http://www.w3.org/2000/svg">
<path d="M61.5258 95.3916C59.5541 95.7443 57.9171 96.757 56.458 98.2315V97.7017C56.458 94.7457 56.4622 91.7882 56.4524 88.8321C56.4524 88.5035 56.4314 88.1593 56.3334 87.8506C56.0253 86.8676 55.3573 86.2302 54.3449 86.0659C53.4655 85.9228 52.7863 86.3676 52.2556 87.0347C51.8355 87.5616 51.7207 88.1947 51.7207 88.8605C51.7235 95.7032 51.7221 102.547 51.7221 109.39C51.7221 111.183 51.7123 112.978 51.7263 114.771C51.7361 116.017 52.7149 117.061 53.8954 117.122C55.2201 117.19 56.2885 116.311 56.4538 115.016C56.465 114.925 56.4832 114.835 56.5084 114.69C56.6134 114.779 56.6722 114.829 56.731 114.88C57.315 115.386 57.8541 115.959 58.4899 116.384C60.2697 117.574 62.2399 117.959 64.3642 117.74C67.1719 117.451 69.4936 116.221 71.153 113.961C74.1203 109.916 74.4396 105.489 72.3573 100.978C70.3562 96.6423 66.0348 94.5842 61.5244 95.3887L61.5258 95.3916ZM68.1647 110.522C67.0612 112.112 65.5167 112.898 63.6234 113.029C63.4274 113.043 63.23 113.03 63.0325 113.03C61.3059 113.044 59.7179 112.625 58.375 111.466C57.6581 110.849 57.1469 110.081 56.8557 109.18C56.2759 107.384 56.2815 105.588 56.9537 103.816C57.3276 102.829 57.9367 101.995 58.8287 101.442C61.2191 99.9623 63.7355 99.6167 66.2561 101.01C68.2165 102.095 69.1743 103.906 69.2668 106.165C69.3312 107.727 69.0721 109.21 68.1633 110.52L68.1647 110.522Z" fill="white"/>
<path d="M135.216 103.593C135.172 100.792 133.94 98.5496 131.725 96.881C130.131 95.6799 128.312 95.2507 126.336 95.357C123.733 95.4958 121.572 96.4958 119.931 98.5708C119.619 98.966 119.616 98.9731 119.34 98.5297C118.763 97.6048 118.057 96.8116 117.123 96.2351C115.73 95.3754 114.198 95.1841 112.616 95.2805C110.934 95.3824 109.389 95.8782 108.128 97.0694C107.821 97.3598 107.541 97.6799 107.205 98.034C107.107 97.7408 107.048 97.5212 106.963 97.3116C106.431 95.9972 104.663 94.9009 103.141 96.5297C102.647 97.0595 102.465 97.6756 102.465 98.3909C102.473 103.872 102.469 109.354 102.469 114.834C102.469 114.983 102.472 115.133 102.482 115.282C102.582 116.752 104.387 118.27 106.052 117.09C106.754 116.593 107.136 115.901 107.136 115.02C107.139 112.313 107.1 109.605 107.156 106.898C107.178 105.812 107.32 104.71 107.562 103.65C108.024 101.632 109.256 99.9915 111.802 99.8017C113.449 99.6784 115.059 100.333 115.856 101.953C116.275 102.804 116.472 103.707 116.475 104.646C116.486 108.017 116.475 111.389 116.49 114.762C116.492 115.168 116.555 115.599 116.702 115.974C117.245 117.352 119.06 118.205 120.435 116.787C121.004 116.201 121.219 115.498 121.221 114.707C121.225 111.751 121.208 108.793 121.238 105.837C121.249 104.636 121.45 103.453 121.938 102.344C122.386 101.324 123.108 100.565 124.188 100.261C125.451 99.9037 126.728 99.898 127.948 100.448C128.374 100.64 128.783 100.921 129.127 101.241C130.163 102.204 130.506 103.456 130.502 104.843C130.494 108.015 130.497 111.188 130.502 114.36C130.502 114.724 130.525 115.092 130.583 115.45C130.877 117.283 132.898 118.105 134.303 116.957C134.938 116.439 135.235 115.742 135.232 114.904C135.224 111.133 135.27 107.363 135.213 103.592L135.216 103.593Z" fill="white"/>
<path d="M33.4217 87.3357C32.912 86.4235 32.1502 86 31.1182 86C26.1415 86.0085 21.1647 86.0113 16.1879 86C15.1251 85.9972 14.3829 86.4646 13.869 87.3895C11.4128 91.8031 8.96227 96.218 6.47529 100.613C5.89696 101.634 5.81714 102.579 6.39827 103.615C8.90626 108.073 11.3988 112.542 13.89 117.011C14.3885 117.905 15.1083 118.344 16.1361 118.335C18.6329 118.316 21.1297 118.328 23.6251 118.328C26.1387 118.328 28.6508 118.314 31.1644 118.335C32.2315 118.344 32.9568 117.884 33.475 116.95C35.9577 112.477 38.4587 108.014 40.9611 103.551C41.4568 102.667 41.5086 101.802 41.0073 100.906C38.4755 96.3852 35.9465 91.8611 33.4203 87.3357H33.4217ZM19.067 93.3781C19.2743 93.3342 19.4899 93.3158 19.7014 93.3144C22.3284 93.3101 24.9554 93.3101 27.581 93.313C28.2756 93.313 28.9309 93.4433 29.3958 94.0283C29.9153 94.6841 29.9937 95.4263 29.6703 96.1826C29.3272 96.9857 28.6578 97.337 27.819 97.3469C26.4243 97.3611 25.0282 97.3512 23.6321 97.3512C22.2528 97.3512 20.8734 97.3597 19.4955 97.3483C18.5937 97.3413 17.9075 96.8653 17.6107 96.0821C17.15 94.8696 17.8095 93.6416 19.0684 93.3781H19.067ZM26.0392 111.024C26.007 111.024 25.9734 111.024 25.9412 111.024C25.1696 111.024 24.3995 111.024 23.6279 111.024C22.8563 111.024 22.0861 111.031 21.3145 111.022C20.2405 111.011 19.4129 110.173 19.4017 109.099C19.3891 107.943 20.1901 107.064 21.2991 107.054C22.8745 107.039 24.4485 107.041 26.0238 107.054C27.0825 107.062 27.9115 107.952 27.9241 109.062C27.9367 110.129 27.1007 110.998 26.0378 111.025L26.0392 111.024ZM31.4711 104.153C28.8623 104.164 26.2521 104.157 23.6433 104.157C21.0835 104.157 18.5223 104.149 15.9625 104.161C15.1321 104.166 14.537 103.807 14.1813 103.071C13.8172 102.319 13.8984 101.582 14.4067 100.919C14.8184 100.382 15.3954 100.177 16.0535 100.177C18.6301 100.177 21.2067 100.177 23.7833 100.177C26.2773 100.177 28.7727 100.173 31.2666 100.18C32.3449 100.183 33.0829 100.768 33.3111 101.765C33.5898 102.983 32.7076 104.147 31.4711 104.153Z" fill="white"/>
<path d="M96.9441 97.6542C96.5898 96.1429 94.7596 94.8908 93.1142 96.3794C92.5611 96.8809 92.3188 97.5296 92.3202 98.2916C92.3286 101.946 92.323 105.6 92.3202 109.256C92.3202 109.487 92.3426 109.735 92.274 109.947C91.7489 111.572 90.8233 112.854 89.0757 113.205C88.1207 113.396 87.1208 113.427 86.142 113.413C84.4644 113.391 83.1271 112.406 82.616 110.796C82.3737 110.032 82.2281 109.207 82.2169 108.406C82.1735 105.085 82.2127 101.762 82.1805 98.4389C82.1763 97.9446 82.0657 97.3879 81.8192 96.9715C80.9482 95.5013 79.2902 95.2392 78.0789 96.6231C77.6042 97.1656 77.4572 97.8511 77.4586 98.5735C77.4628 101.896 77.4474 105.218 77.4684 108.541C77.474 109.384 77.537 110.233 77.6574 111.069C78.1377 114.395 80.3657 116.828 83.5752 117.561C85.1002 117.909 86.6363 117.838 88.1781 117.658C89.647 117.487 90.8751 116.867 91.8777 115.774C91.9758 115.667 92.092 115.578 92.2572 115.427C92.3188 115.617 92.3524 115.726 92.3888 115.835C92.8622 117.294 94.4347 117.947 95.7776 117.235C96.7116 116.739 97.0631 115.912 97.0631 114.888C97.0631 109.456 97.0645 104.024 97.0575 98.5919C97.0575 98.2789 97.0169 97.9602 96.9455 97.6556L96.9441 97.6542Z" fill="white"/>
<path d="M199.172 101.196C198.088 98.2074 196.083 96.1918 193.019 95.325C191.235 94.8193 189.425 94.7612 187.606 95.0799C184.297 95.6592 181.815 97.417 180.311 100.476C179.041 103.06 178.645 105.823 179.016 108.665C179.59 113.066 182.553 116.336 186.819 117.421C188.251 117.785 189.698 117.835 191.165 117.721C192.752 117.6 194.289 117.322 195.704 116.54C196.927 115.864 197.948 114.965 198.562 113.679C199.291 112.153 198.457 110.519 196.891 110.393C195.937 110.316 195.176 110.723 194.617 111.52C193.99 112.417 193.144 113.042 192.056 113.11C190.784 113.189 189.496 113.211 188.229 113.095C185.681 112.863 184.183 111.404 183.706 108.859C183.594 108.261 183.606 108.243 184.218 108.241C186.615 108.24 189.014 108.241 191.412 108.241C193.76 108.241 196.108 108.241 198.457 108.241C199.435 108.241 199.963 107.727 199.991 106.723C200.045 104.831 199.816 102.978 199.171 101.193L199.172 101.196ZM195.111 104.156C193.274 104.151 191.437 104.153 189.6 104.153C187.796 104.153 185.991 104.155 184.187 104.153C183.645 104.153 183.623 104.117 183.764 103.583C184.376 101.285 186.058 99.8433 188.423 99.5586C189.556 99.4227 190.679 99.4142 191.794 99.6819C193.929 100.195 195.023 101.686 195.534 103.733C195.638 104.145 195.411 104.159 195.111 104.158V104.156Z" fill="white"/>
<path d="M174.823 113.164C174.204 113.129 173.578 113.169 172.962 113.113C171.946 113.023 171.349 112.441 171.181 111.424C171.133 111.13 171.119 110.83 171.118 110.533C171.115 103.275 171.118 96.0187 171.107 88.761C171.107 88.3559 171.04 87.9267 170.897 87.55C170.467 86.414 169.19 85.7879 168.138 86.1491C167.128 86.4961 166.459 87.4338 166.458 88.5429C166.454 92.4621 166.456 96.3813 166.456 100.301C166.456 104.07 166.47 107.84 166.449 111.609C166.438 113.521 167.155 115.082 168.621 116.247C170.72 117.912 173.049 118.222 175.526 117.211C176.368 116.867 176.854 115.931 176.705 115.067C176.53 114.045 175.724 113.215 174.823 113.164Z" fill="white"/>
<path d="M150.907 95.3173C148.898 95.5609 147.199 96.4986 145.796 97.9759C145.694 98.0836 145.579 98.177 145.389 98.3513C145.389 98.0184 145.389 97.8215 145.389 97.6232C145.389 94.5836 145.396 91.5454 145.384 88.5057C145.38 87.357 144.582 86.3754 143.467 86.0851C142.588 85.857 141.48 86.3684 141.015 87.3372C140.788 87.8117 140.668 88.3853 140.668 88.9151C140.647 97.4504 140.653 105.987 140.654 114.522C140.654 114.639 140.653 114.755 140.661 114.871C140.755 116.154 141.779 117.12 143.043 117.123C144.34 117.124 145.249 116.228 145.436 114.675C145.866 115.081 146.226 115.464 146.629 115.793C148.567 117.369 150.778 117.974 153.254 117.738C156.063 117.47 158.316 116.2 160.075 114.011C161.48 112.262 162.229 110.232 162.461 107.997C162.81 104.633 162.139 101.538 159.983 98.8937C157.632 96.0113 154.547 94.8768 150.909 95.3173H150.907ZM157.527 109.804C156.737 111.408 155.461 112.413 153.763 112.833C152.091 113.246 150.433 113.117 148.845 112.425C147.209 111.711 146.129 110.479 145.666 108.729C145.242 107.132 145.253 105.528 145.841 103.983C146.708 101.701 148.506 100.627 150.805 100.279C151.971 100.102 153.125 100.123 154.254 100.53C156.472 101.329 158.363 103.626 158.203 106.634C158.245 107.71 158.029 108.786 157.527 109.804Z" fill="white"/>
</svg>
