<svg width="202" height="200" viewBox="0 0 202 200" fill="none" xmlns="http://www.w3.org/2000/svg">
<path d="M114.921 117.071H108.019C106.06 109.55 104.101 102.032 102.062 94.21C99.0868 97.6545 96.2705 100.916 93.3636 104.281C96.1441 108.519 98.9109 112.732 101.782 117.106C101.304 117.147 100.983 117.199 100.664 117.199C98.7763 117.208 96.8887 117.172 95.0039 117.219C94.2648 117.238 93.8224 117.005 93.446 116.351C91.7178 113.364 89.9401 110.404 88.1762 107.435C87.9866 107.115 87.7833 106.806 87.3877 106.513V117.112H80.4336V86.6016H87.3217V102.409C87.7174 101.994 87.9097 101.827 88.0636 101.627C89.8028 99.3835 91.5117 97.1155 93.2977 94.9104C93.6054 94.5301 94.2401 94.2292 94.7319 94.2155C97.092 94.1443 99.4549 94.1826 102.054 94.1826C101.483 91.9502 100.947 89.8627 100.381 87.6521H108.096C109.379 93.8215 110.676 100.048 111.973 106.272C112.058 106.281 112.143 106.292 112.228 106.3C113.652 100.092 115.078 93.8817 116.515 87.622H122.383C123.787 93.8954 125.186 100.139 126.584 106.382H126.837C128.159 100.136 129.477 93.8899 130.807 87.6084H138.495C135.866 97.4684 133.261 107.235 130.642 117.049H123.922C122.471 110.852 121.026 104.68 119.581 98.5108C119.485 98.4971 119.388 98.4834 119.292 98.4725C117.847 104.636 116.399 110.803 114.929 117.071H114.921Z" fill="white"/>
<path d="M3.00391 86.4986C3.97929 86.4986 4.83103 86.4876 5.68277 86.4986C9.27933 86.5533 12.9061 86.3508 16.4697 86.7284C23.6051 87.4807 28.4875 92.854 28.9051 100.019C29.1002 103.357 28.8584 106.643 27.3528 109.712C25.1245 114.259 21.2257 116.516 16.3845 116.932C12.0928 117.302 7.75718 117.121 3.43802 117.179C3.31163 117.179 3.18525 117.102 3.00391 117.047L3.00391 86.4986ZM10.1833 110.26C12.3896 110.238 14.5107 110.53 16.5713 109.827C18.2858 109.242 19.5497 108.115 20.2119 106.446C21.4922 103.212 21.4153 99.9809 19.9041 96.8292C19.2117 95.3874 18.0798 94.3724 16.5439 93.8444C14.4777 93.133 12.3566 93.486 10.1833 93.423V110.262V110.26Z" fill="white"/>
<path d="M193.449 107.815H176.359C176.62 110.439 179.09 112.291 181.931 112.119C183.294 112.037 184.423 111.503 185.404 110.546C185.726 110.231 186.267 109.99 186.715 109.977C188.726 109.917 190.74 109.949 192.77 109.949C192.072 114.844 184.992 118.822 179.197 117.689C172.284 116.34 167.979 109.421 169.776 102.546C171.576 95.6573 178.62 91.797 185.44 93.961C191.083 95.7503 195.325 102.976 193.446 107.81L193.449 107.815ZM186.728 103.061C186.096 100.363 183.775 98.9348 180.755 99.2522C178.516 99.4848 176.598 101.192 176.549 103.061H186.731H186.728Z" fill="white"/>
<path d="M56.2344 94.2447H62.529C62.5757 94.9232 62.6197 95.547 62.6609 96.1708C62.7846 96.1598 62.8835 96.179 62.9054 96.1462C65.5761 92.2667 71.7251 92.978 74.6238 95.1312C76.7284 96.6961 77.4785 98.9614 77.5252 101.421C77.6241 106.471 77.5802 111.522 77.5911 116.572C77.5911 116.734 77.5307 116.895 77.4867 117.125H70.7195C70.6975 116.684 70.6645 116.29 70.6645 115.896C70.6591 112.211 70.6645 108.523 70.6618 104.838C70.6618 104.395 70.6673 103.949 70.6316 103.508C70.4283 101.024 69.2386 99.845 66.9691 99.8587C64.6089 99.8724 63.2214 101.139 63.1033 103.593C62.9961 105.806 63.0566 108.028 63.0511 110.247C63.0456 112.496 63.0511 114.745 63.0511 117.097H56.2371V94.2447H56.2344Z" fill="white"/>
<path d="M148.98 110.394H155.591C156.602 112.555 157.926 112.629 159.155 112.339C159.957 112.15 160.646 111.748 160.77 110.831C160.891 109.926 160.402 109.283 159.633 108.955C157.965 108.246 156.259 107.625 154.566 106.966C154.088 106.78 153.605 106.604 153.137 106.394C147.343 103.773 148.618 97.8278 152.019 95.2944C155.165 92.9525 160.374 92.7199 163.688 94.832C165.771 96.1589 166.774 98.1014 167.021 100.586H160.377C159.652 99.0781 158.498 98.5473 157.154 99.0671C156.017 99.5076 155.704 100.761 156.671 101.486C157.443 102.066 158.394 102.446 159.311 102.791C160.655 103.294 162.059 103.647 163.408 104.137C169.389 106.309 168.535 113.171 165.001 115.879C161.465 118.59 155.437 118.705 151.882 116.027C150.115 114.697 148.936 112.465 148.978 110.394H148.98Z" fill="white"/>
<path d="M38.3644 117.125H31.5312V94.2751H37.8891C37.9358 94.8961 37.9798 95.5144 38.0512 96.4856C39.447 94.1547 41.3538 93.3695 43.7826 93.416V100.201C42.9281 100.338 42.1121 100.42 41.3181 100.606C39.4717 101.035 38.4853 102.091 38.4441 103.971C38.3534 107.894 38.3837 111.817 38.3644 115.741C38.3644 116.176 38.3644 116.611 38.3644 117.122V117.125Z" fill="white"/>
<path d="M46.3945 94.2344H53.1728V117.109H46.3945V94.2344Z" fill="white"/>
<path d="M139.781 117.097V94.25H146.573V117.097H139.781Z" fill="white"/>
<path d="M146.637 88.4204C146.643 90.341 145.109 91.8621 143.172 91.8539C141.288 91.8457 139.746 90.3492 139.708 88.4915C139.669 86.6229 141.255 85.0143 143.15 84.9924C145.074 84.9732 146.629 86.4998 146.637 88.4177V88.4204Z" fill="white"/>
<path d="M53.2607 88.4746C53.2387 90.4088 51.7056 91.8862 49.7521 91.8561C47.837 91.826 46.3176 90.2501 46.3643 88.3378C46.411 86.4774 47.9524 84.9945 49.8372 85C51.7688 85.0082 53.2827 86.543 53.2607 88.4746Z" fill="white"/>
<path d="M194.1 114.602C194.078 112.648 195.559 111.149 197.518 111.141C199.466 111.132 201.008 112.64 201.005 114.552C201.005 116.44 199.411 118.01 197.513 117.994C195.628 117.978 194.117 116.476 194.098 114.602H194.1Z" fill="white"/>
</svg>
