<svg width="200" height="200" viewBox="0 0 200 200" fill="none" xmlns="http://www.w3.org/2000/svg">
<path d="M130.259 74.7353C128.352 74.1259 126.444 73.5155 124.531 72.9041C123.588 74.3915 122.669 75.8397 121.728 77.321C120.443 76.9133 119.165 76.5088 117.836 76.0868C117.891 75.3457 118.249 74.6992 118.429 73.954C118.795 74.0631 119.121 74.1599 119.497 74.271C123.917 67.2973 128.338 60.3226 132.761 53.3438C134.448 53.8862 136.111 54.4204 137.757 54.9495C137.757 55.3695 137.767 55.7431 137.754 56.1168C137.743 56.4039 137.697 56.6891 137.677 56.9763C137.624 57.7956 137.575 58.6149 137.525 59.4343C137.519 59.5208 137.507 59.6062 137.503 59.6927C137.45 60.6993 137.399 61.7071 137.347 62.7148C137.282 63.9819 137.225 65.249 137.151 66.515C137.08 67.7369 136.988 68.9576 136.912 70.1795C136.869 70.8846 136.844 71.5907 136.805 72.2958C136.749 73.3024 136.687 74.3091 136.631 75.3158C136.571 76.3657 136.515 77.4167 136.455 78.4676C136.432 78.8691 136.404 79.2705 136.378 79.6843C136.712 79.7934 137.012 79.8902 137.364 80.0054C137.23 80.7404 136.974 81.4311 136.713 82.1187C134.564 81.4342 132.443 80.7579 130.321 80.0826C129.965 79.9694 129.933 79.9118 129.959 79.5608C130.022 78.6848 130.07 77.8068 130.132 76.9308C130.167 76.4285 130.221 75.9272 130.256 75.4249C130.271 75.2119 130.258 74.9967 130.258 74.7363L130.259 74.7353ZM131.044 62.7601C131.015 62.7456 130.986 62.7312 130.957 62.7168C130.599 63.2438 130.279 63.7986 129.934 64.3349C129.583 64.8815 129.244 65.4363 128.899 65.986C128.553 66.5356 128.202 67.0822 127.858 67.6329C127.514 68.1836 127.182 68.7425 126.833 69.2901C126.488 69.8305 126.13 70.3627 125.786 70.97C127.345 71.4682 128.846 71.9479 130.389 72.4409C130.611 69.1717 130.828 65.9664 131.045 62.7611L131.044 62.7601Z" fill="white"/>
<path d="M31.7782 81.9891C30.785 83.1142 29.8145 84.2135 28.8047 85.3571C31.9238 88.0879 35.018 90.7971 38.1256 93.5176C39.2768 92.2134 40.4084 90.9309 41.5606 89.6257C42.1356 90.1404 42.6715 90.618 43.2197 91.1079C42.083 92.3997 40.9597 93.6771 39.8096 94.9844C41.5771 96.5366 43.3312 98.0765 45.1184 99.6452C45.3548 99.3837 45.584 99.1305 45.8473 98.8392C46.4182 99.2767 46.9282 99.779 47.5126 100.293C45.584 102.504 43.6471 104.688 41.6876 106.908C41.1177 106.402 40.5798 105.923 40.0377 105.442C40.2659 105.165 40.4848 104.901 40.7315 104.603C38.9547 103.048 37.1995 101.511 35.4165 99.9509C35.1594 100.239 34.9323 100.492 34.6897 100.765C34.126 100.277 33.5942 99.8171 33.0367 99.3354C33.2639 99.0564 33.4796 98.7908 33.7316 98.48C30.6404 95.7749 27.5514 93.0709 24.4303 90.339C24.1784 90.6118 23.9492 90.8599 23.69 91.1409C23.1304 90.654 22.5925 90.1867 22.0195 89.6885C25.4287 85.8213 28.8058 81.9912 32.2139 78.125C33.6201 79.354 35.017 80.5748 36.4366 81.8151C35.7923 82.546 35.1677 83.2552 34.5276 83.9809C33.5953 83.3056 32.6981 82.6561 31.7771 81.9891H31.7782Z" fill="white"/>
<path d="M155.25 94.7472C155.82 94.2305 156.342 93.757 156.915 93.2382C157.161 93.5254 157.384 93.7858 157.627 94.0689C163.012 89.2053 168.351 84.3839 173.712 79.5419C173.483 79.2671 173.257 78.9954 173.008 78.6979C173.549 78.211 174.081 77.7303 174.65 77.2188C176.628 79.3917 178.587 81.545 180.584 83.7375C180.022 84.2408 179.49 84.7184 178.934 85.2166C178.673 84.9428 178.44 84.6979 178.183 84.4282C172.822 89.2691 167.484 94.0905 162.101 98.952C163.009 99.9525 163.905 100.943 164.825 101.957C166.079 101.257 167.326 100.562 168.614 99.8444C169.25 100.538 169.891 101.238 170.563 101.973C168.956 103.422 167.371 104.851 165.761 106.302C162.25 102.442 158.762 98.6092 155.25 94.7493V94.7472Z" fill="white"/>
<path d="M153.93 64.6626C153.603 64.4444 153.318 64.254 153.007 64.046C153.417 63.4336 153.816 62.8376 154.245 62.1953C156.705 63.8268 159.133 65.4387 161.605 67.0785C161.182 67.7053 160.783 68.2982 160.367 68.9158C160.065 68.7213 159.789 68.5432 159.515 68.3672C159.498 68.3672 159.484 68.3672 159.471 68.3703C159.457 68.3733 159.439 68.3775 159.431 68.3867C159.1 68.8592 158.76 69.3265 158.44 69.8072C154.77 75.309 151.103 80.8118 147.414 86.3444C148.544 87.0938 149.651 87.8277 150.792 88.5842C151.836 87.6002 152.874 86.6213 153.945 85.6126C154.738 86.1375 155.539 86.6676 156.351 87.2039C155.152 88.9949 153.974 90.7551 152.765 92.5626C148.416 89.6784 144.092 86.8107 139.734 83.9193C140.154 83.2894 140.548 82.6954 140.963 82.0717C141.274 82.2703 141.551 82.4474 141.824 82.6203C141.848 82.6172 141.862 82.6162 141.877 82.6121C141.89 82.6079 141.909 82.6049 141.915 82.5956C145.91 76.6337 149.904 70.6708 153.93 64.6616V64.6626Z" fill="white"/>
<path d="M37.5417 76.5804C37.2485 76.814 36.979 77.0292 36.6817 77.2669C36.2233 76.7111 35.769 76.1583 35.2734 75.5582C37.5345 73.6931 39.7893 71.8341 42.0803 69.9453C42.5501 70.5176 43.0044 71.0714 43.4855 71.6581C43.2109 71.8918 42.9527 72.111 42.6564 72.3632C47.2673 77.9185 51.8617 83.4553 56.487 89.027C56.7751 88.8026 57.0435 88.5947 57.3533 88.3538C57.823 88.9189 58.2876 89.4779 58.7687 90.0574C56.4912 91.9349 54.2435 93.7866 51.9649 95.6641C51.4838 95.0898 51.0234 94.5401 50.5453 93.9688C50.8096 93.7413 51.0781 93.5108 51.3816 93.2493C46.7656 87.6899 42.1681 82.1521 37.5417 76.5793V76.5804Z" fill="white"/>
<path d="M80.2383 125.392C80.3291 125.323 80.3673 125.288 80.4117 125.261C81.8675 124.367 83.4595 123.973 85.1589 123.94C86.6425 123.911 88.1014 124.117 89.5602 124.35C90.6009 124.516 91.6395 124.724 92.6875 124.804C93.692 124.88 94.7131 124.963 95.7115 124.681C95.7642 124.666 95.8251 124.679 95.9149 124.679C95.8633 124.867 95.7208 124.964 95.599 125.063C94.4705 125.979 93.2161 126.651 91.7707 126.898C91.019 127.027 90.253 127.157 89.4952 127.146C88.5753 127.132 87.6522 127.001 86.7396 126.866C85.066 126.616 83.444 126.135 81.8024 125.736C81.3038 125.615 80.7989 125.515 80.2393 125.393L80.2383 125.392Z" fill="white"/>
<path d="M74.0987 95.81C74.8204 95.6721 75.4543 95.5506 76.0882 95.4292C77.0391 95.247 77.99 95.0638 78.9419 94.8836C80.4802 94.5923 82.0309 94.3731 83.5972 94.4812C85.7591 94.6304 87.7259 95.3098 89.3499 96.8044C89.4728 96.9176 89.5822 97.0452 89.6566 97.2202C89.3603 97.1646 89.067 97.0946 88.7687 97.0566C87.41 96.8816 86.0544 96.9629 84.6988 97.107C83.6065 97.2233 82.5152 97.3458 81.4197 97.4281C80.6991 97.4827 79.9733 97.5002 79.2506 97.4827C77.5254 97.4415 75.9075 97.0092 74.4415 96.0766C74.3454 96.0159 74.2608 95.9377 74.0977 95.8111L74.0987 95.81Z" fill="white"/>
<path d="M157.71 92.8966C157.517 92.6805 157.355 92.4993 157.152 92.2718C161.901 87.9816 166.636 83.7027 171.409 79.3887C171.171 79.1304 170.933 78.873 170.666 78.5838C171.615 77.7274 172.545 76.8885 173.511 76.0156C173.693 76.2174 173.86 76.4027 174.052 76.6147C173.311 77.2992 172.594 77.96 171.852 78.6445C172.085 78.9173 172.296 79.1664 172.55 79.4639C170.074 81.713 167.607 83.9487 165.127 86.1731C162.654 88.3913 160.203 90.6342 157.71 92.8966Z" fill="white"/>
<path d="M50.0865 67.5998C50.4252 67.4341 50.7091 67.2951 51.0395 67.1335C51.1561 67.3322 51.279 67.5195 51.3802 67.7182C52.2763 69.4825 53.1673 71.2498 54.0635 73.0131C55.3076 75.4598 56.5568 77.9044 57.802 80.3501C58.5691 81.856 59.332 83.363 60.1229 84.9203C59.9102 85.0459 59.6934 85.1736 59.4291 85.329C56.5114 79.6059 53.602 73.8983 50.6771 68.1608C50.3353 68.3306 50.0308 68.482 49.6901 68.6518C49.1129 67.5072 48.5451 66.3801 47.9648 65.2293C48.2333 65.1037 48.4501 65.0018 48.6876 64.8906C49.1532 65.7933 49.6095 66.6765 50.0865 67.5998Z" fill="white"/>
<path d="M151.647 65.12C151.344 64.9069 151.077 64.7196 150.766 64.5024C151.449 63.4185 152.14 62.3634 152.882 61.3125C153.118 61.4762 153.315 61.6131 153.537 61.7664C152.982 62.6033 152.444 63.4154 151.882 64.2656C152.186 64.49 152.46 64.6918 152.761 64.9141C149.051 70.4632 145.356 75.9918 141.65 81.5337C141.415 81.3731 141.226 81.2444 140.984 81.0787C144.525 75.7663 148.076 70.4591 151.647 65.12Z" fill="white"/>
<path d="M50.216 93.1386C50.0002 93.3177 49.8247 93.4628 49.6058 93.645C45.5163 88.7197 41.4371 83.8067 37.3269 78.8567C37.0441 79.0924 36.7942 79.3003 36.4948 79.5504C35.6492 78.5962 34.8697 77.6081 34.0469 76.6045C34.2523 76.4316 34.4237 76.2874 34.6333 76.1094C35.2817 76.8824 35.9084 77.6297 36.5681 78.4151C36.8541 78.1989 37.1246 77.9941 37.4446 77.7522C41.7045 82.8844 45.9509 88.0012 50.216 93.1386Z" fill="white"/>
<path d="M165.128 106.834C164.914 107.018 164.741 107.166 164.519 107.357C160.654 103.111 156.807 98.8851 152.922 94.6186C153.89 93.7395 154.814 92.9006 155.763 92.0391C155.96 92.2563 156.133 92.4446 156.319 92.6505C155.578 93.3247 154.856 93.9835 154.085 94.6855C157.769 98.7379 161.428 102.765 165.127 106.835L165.128 106.834Z" fill="white"/>
<path d="M152.289 93.235C152.124 93.4728 151.995 93.6581 151.831 93.8958C147.043 90.7173 142.275 87.5541 137.465 84.3612C138.187 83.2783 138.879 82.2387 139.595 81.1641C139.817 81.3257 140.01 81.4657 140.242 81.6355C139.695 82.4682 139.16 83.2835 138.596 84.1429C143.165 87.1774 147.703 90.1903 152.288 93.235H152.289Z" fill="white"/>
<path d="M128.38 75.8643C127.089 75.4495 125.805 75.0377 124.457 74.6044C124.615 74.3367 124.742 74.1206 124.881 73.8828C126.395 74.3656 127.878 74.838 129.39 75.3208C129.297 77.0521 129.204 78.7742 129.109 80.5477C131.563 81.3362 134.003 82.1195 136.483 82.9152C136.385 83.1931 136.305 83.4175 136.212 83.681C135.898 83.5853 135.598 83.4978 135.302 83.4031C132.989 82.664 130.678 81.9208 128.364 81.1869C128.167 81.1241 128.083 81.0531 128.097 80.8277C128.157 79.8931 128.188 78.9564 128.243 78.0207C128.277 77.4464 128.336 76.873 128.379 76.2986C128.389 76.171 128.38 76.0413 128.38 75.8622V75.8643Z" fill="white"/>
<path d="M119.154 73.2656C118.949 73.2152 118.801 73.1781 118.617 73.1328C118.689 72.9939 118.728 72.9033 118.779 72.822C119.816 71.1874 120.857 69.5549 121.891 67.9193C122.586 66.8199 123.269 65.7144 123.964 64.6151C124.706 63.4437 125.458 62.2785 126.202 61.1082C127.099 59.6929 127.99 58.2734 128.885 56.8571C129.649 55.6476 130.414 54.4392 131.181 53.2328C131.376 52.925 131.381 52.9281 131.897 53.1535C127.651 59.8555 123.408 66.5513 119.153 73.2656H119.154Z" fill="white"/>
<path d="M73.8516 53.4401C74.1561 53.3907 74.3884 53.3526 74.6383 53.3125C74.851 54.3017 75.0533 55.2384 75.2681 56.2348C75.616 56.1658 75.934 56.104 76.3119 56.0299C76.6216 57.1704 76.8147 58.3295 77.0656 59.473C77.3216 60.6424 77.557 61.8148 77.8038 62.9861C78.0474 64.14 78.2952 65.2939 78.5512 66.4982C78.2766 66.5569 78.0433 66.6073 77.7563 66.6691C77.4207 65.0479 77.0934 63.4473 76.7569 61.8487C76.4192 60.244 76.0723 58.6424 75.7213 57.0006C75.36 57.0634 75.0244 57.122 74.6383 57.189C74.3812 55.963 74.1252 54.7443 73.8516 53.4412V53.4401Z" fill="white"/>
<path d="M70.5915 84.8546C70.45 84.5726 70.3334 84.343 70.2188 84.1125C69.6344 82.9432 68.8529 81.9375 67.7585 81.1964C67.4993 81.0204 67.3155 80.797 67.1865 80.5108C67.044 80.1959 66.8654 79.8963 66.7064 79.5886C66.6496 79.4784 66.6073 79.3601 66.5195 79.1562C67.584 79.6771 68.4739 80.27 69.2256 81.0574C69.9813 81.8479 70.4748 82.8135 70.9807 83.8037C73.2996 82.6354 75.5813 81.4856 77.9043 80.3153C78.0199 80.5366 78.1283 80.7445 78.2543 80.9854C75.6979 82.2772 73.1726 83.5525 70.5915 84.8556V84.8546Z" fill="white"/>
<path d="M32.5706 98.5666C32.3816 98.7818 32.2319 98.9526 32.0564 99.1523C29.5724 96.9804 27.109 94.8261 24.6032 92.6346C24.3647 92.8919 24.1345 93.138 23.8702 93.4221C22.8842 92.6264 21.9643 91.7834 21 90.9239C21.1518 90.7448 21.3025 90.5657 21.4832 90.3516C22.306 90.9558 22.9957 91.6742 23.7897 92.3032C24.0209 92.0448 24.2491 91.7906 24.5113 91.4993C27.2039 93.8564 29.8883 96.1889 32.5696 98.5656L32.5706 98.5666Z" fill="white"/>
<path d="M41.8617 109.198C40.9067 108.359 39.9765 107.541 39.0039 106.686C39.166 106.48 39.3178 106.287 39.4902 106.069C40.2594 106.741 40.9945 107.383 41.776 108.068C43.9049 105.655 46.009 103.268 48.1472 100.844C48.3485 101.018 48.5292 101.174 48.7522 101.368C46.4561 103.976 44.1795 106.563 41.8617 109.197V109.198Z" fill="white"/>
<path d="M51.7496 97.9492C50.9278 96.9569 50.138 96.0037 49.3203 95.0166C49.5154 94.8458 49.693 94.6893 49.9088 94.5009C50.5654 95.2812 51.2014 96.0367 51.8591 96.819C54.3555 94.7624 56.8045 92.7459 59.2751 90.7109C59.4537 90.9168 59.6107 91.098 59.7986 91.3152C57.1194 93.522 54.4619 95.7124 51.7486 97.9482L51.7496 97.9492Z" fill="white"/>
<path d="M60.541 89.9382C59.9567 88.7916 59.393 87.6861 58.8086 86.5373C59.043 86.4138 59.2525 86.3037 59.5127 86.1668C59.9835 87.0726 60.444 87.9588 60.9292 88.8904C63.4825 87.5996 65.9892 86.3335 68.5342 85.0469C68.654 85.3063 68.7469 85.507 68.8532 85.7376C66.0656 87.1457 63.3204 88.5332 60.541 89.9372V89.9382Z" fill="white"/>
<path d="M30.5973 85.7961C30.4909 85.7199 30.4187 85.6736 30.3516 85.6201C30.2297 85.5212 30.112 85.4183 29.9727 85.2999C30.6355 84.5454 31.2611 83.8342 31.9002 83.1054C32.8367 83.7755 33.7462 84.4281 34.663 85.0848C35.4704 84.1687 36.2416 83.2948 37.0459 82.3828C37.2534 82.5547 37.4444 82.7132 37.6675 82.8975C36.6794 84.0225 35.7213 85.1136 34.7456 86.2243C33.929 85.6324 33.134 85.058 32.34 84.4816C32.0045 84.2377 32.0055 84.2346 31.7216 84.5485C31.3551 84.9541 30.9896 85.3596 30.5973 85.7961Z" fill="white"/>
<path d="M80.4617 75.5888C80.1809 75.6403 79.9486 75.6835 79.6771 75.7339C79.3611 74.2342 79.0555 72.7767 78.7375 71.2656C78.3844 71.3263 78.0375 71.3871 77.6493 71.454C77.3923 70.2198 77.1383 69.0021 76.875 67.7381C77.1672 67.6753 77.3964 67.6259 77.6524 67.5703C77.862 68.5595 78.0633 69.5106 78.2729 70.4977C78.6477 70.4298 78.9822 70.3701 79.3549 70.3022C79.7214 72.051 80.0869 73.7936 80.4627 75.5888H80.4617Z" fill="white"/>
<path d="M35.5942 102.248C35.3227 102.539 35.0987 102.78 34.8468 103.05C33.8886 102.211 32.9491 101.388 31.9766 100.537C32.1583 100.341 32.31 100.178 32.5031 99.9688C33.2578 100.618 33.9971 101.253 34.7693 101.917C35.0171 101.658 35.2515 101.412 35.522 101.129C36.8662 102.31 38.2032 103.486 39.5671 104.685C39.3792 104.895 39.2191 105.074 39.0447 105.268C37.8935 104.26 36.7578 103.266 35.5932 102.247L35.5942 102.248Z" fill="white"/>
<path d="M116.726 76.5953C118.347 77.111 119.884 77.6009 121.478 78.1084C121.324 78.3606 121.187 78.585 121.034 78.8351C119.267 78.2669 117.514 77.7039 115.715 77.1254C116.102 75.919 116.474 74.759 116.848 73.5886C117.129 73.5217 117.364 73.5824 117.615 73.7821C117.323 74.7044 117.031 75.6298 116.726 76.5953Z" fill="white"/>
<path d="M86.7369 56.3759C86.5314 55.8262 86.3518 55.3414 86.168 54.8587C86.1598 54.8371 86.1236 54.8257 86.103 54.8113C85.626 54.9029 85.1521 54.9935 84.6483 55.0903C84.578 54.8144 84.5223 54.5972 84.4531 54.3255C85.244 54.1628 86.0008 54.0074 86.7937 53.8438C86.9785 54.3769 87.1561 54.8875 87.3471 55.4382C88.5086 55.1994 89.6463 54.9657 90.8336 54.7218C90.9038 54.9647 90.9699 55.1911 91.0515 55.4721C89.5968 55.8046 88.1782 56.1042 86.7369 56.3759Z" fill="white"/>
<path d="M41.5912 95.4374C41.3754 95.2449 41.1948 95.0843 40.9883 94.9001C41.9412 93.8172 42.8807 92.7488 43.8492 91.6484C43.9751 91.7534 44.0722 91.8306 44.1651 91.9119C44.2508 91.9871 44.3324 92.0674 44.4542 92.1816C43.5074 93.2583 42.569 94.3257 41.5902 95.4374H41.5912Z" fill="white"/>
<path d="M91.7381 67.75C91.7763 68.0073 91.8084 68.2183 91.8486 68.4921C90.46 68.7845 89.0806 69.0747 87.6466 69.3763C87.597 69.1571 87.5299 68.9553 87.5196 68.7515C87.5165 68.6826 87.6476 68.5591 87.7354 68.5395C88.4539 68.3789 89.1756 68.2358 89.8973 68.0876C90.3918 67.9867 90.8864 67.8848 91.382 67.7871C91.478 67.7685 91.5781 67.7665 91.7381 67.75Z" fill="white"/>
<path d="M182.766 86.4766C183.035 86.6124 183.015 86.774 182.894 86.9573C182.705 87.2465 182.517 87.5357 182.331 87.8281C182.262 87.9362 182.203 88.0514 182.087 88.2563C182.421 88.1513 182.672 88.0751 182.921 87.9948C183.126 87.9279 183.334 87.8651 183.534 87.7848C183.747 87.6994 183.896 87.7416 184.002 87.9979C183.473 88.4765 182.935 88.9645 182.399 89.4503C182.178 89.2877 182.269 89.1775 182.384 89.0756C182.665 88.8276 182.947 88.5815 183.235 88.3396C183.288 88.2944 183.363 88.2717 183.428 88.2388C183.4 88.1966 183.372 88.1554 183.343 88.1132C182.797 88.2892 182.252 88.4663 181.72 88.6382C181.549 88.4642 181.669 88.3448 181.742 88.2316C181.979 87.8569 182.226 87.4884 182.515 87.0468C182.374 87.0983 182.296 87.1117 182.236 87.1528C181.939 87.3566 181.646 87.5666 181.351 87.7756C181.225 87.8651 181.104 87.9341 180.977 87.6994C181.581 87.2866 182.181 86.8759 182.766 86.4766Z" fill="white"/>
<path d="M150.706 87.5365C150.538 87.4223 150.396 87.3276 150.203 87.1968C151.04 86.394 151.855 85.6127 152.698 84.8047C152.862 84.921 153.01 85.026 153.214 85.1691C152.366 85.9699 151.544 86.745 150.706 87.5365Z" fill="white"/>
<path d="M167.596 98.8047C167.716 98.9189 167.847 99.0445 168.034 99.2236C166.999 99.8 166.013 100.35 165.002 100.913C164.872 100.765 164.761 100.638 164.652 100.514C164.883 100.25 166.779 99.1505 167.597 98.8057L167.596 98.8047Z" fill="white"/>
<path d="M181.749 85.586C181.558 85.2985 181.472 85.0693 181.491 84.8984C181.907 85.2165 182.15 85.6426 182.456 86.0091C182.504 86.0657 182.485 86.1779 182.498 86.2644C182.469 86.2798 182.44 86.2942 182.411 86.3096C182.274 86.1594 182.135 86.0091 181.97 85.8289C181.651 86.075 181.344 86.3086 181.041 86.5454C180.881 86.6699 180.729 86.8037 180.567 86.9252C180.48 86.99 180.473 86.9818 180.27 86.8099C180.768 86.3982 181.262 85.9895 181.749 85.5871V85.586Z" fill="white"/>
<path d="M75.6066 78.0398C75.906 77.8957 76.2168 77.7464 76.5657 77.5776C76.8982 78.2353 77.2224 78.8756 77.5641 79.5518C75.493 80.5997 73.4374 81.6404 71.3344 82.7047C70.3349 80.5894 68.6779 79.2101 66.6089 78.2878C66.0772 78.0511 65.5351 77.8113 64.8651 77.7783C65.977 79.9677 67.059 82.1015 68.1689 84.2868C65.8954 85.4736 63.6055 86.5976 61.2846 87.7875C60.9531 87.1329 60.6238 86.4854 60.2831 85.8133C60.6052 85.6445 60.9087 85.4849 61.2567 85.3027C57.9849 78.8787 54.7193 72.467 51.4351 66.0172C51.0943 66.1809 50.7867 66.3291 50.446 66.4927C50.2736 66.1654 50.098 65.8402 49.9297 65.5108C49.7666 65.1917 49.6118 64.8685 49.4414 64.5247C49.8472 64.3137 50.2271 64.1119 50.6101 63.9184C52.2631 63.0846 53.9078 62.2334 55.5751 61.4274C57.3066 60.5906 59.1267 60.0214 61.0512 59.8495C62.6402 59.7074 64.1981 59.832 65.6869 60.4856C67.123 61.1155 68.1916 62.1253 68.9339 63.4892C69.5616 64.641 69.9798 65.8618 70.114 67.1711C70.2121 68.1263 70.1408 69.0733 69.924 70.0079C69.6484 71.1999 69.1239 72.2868 68.4766 73.3718C68.6221 73.4294 68.7491 73.4901 68.8823 73.5292C69.9963 73.8586 71.067 74.293 72.0725 74.8756C73.4023 75.6455 74.568 76.5997 75.4311 77.8874C75.4548 77.9235 75.4837 77.9564 75.5147 77.9862C75.5343 78.0058 75.5632 78.0161 75.6056 78.0408L75.6066 78.0398ZM57.4139 63.1536C59.5015 67.2555 61.5798 71.3378 63.685 75.4736C63.7748 75.3491 63.8337 75.2904 63.8657 75.2194C64.2311 74.4124 64.3199 73.5457 64.3014 72.6842C64.2766 71.4881 64.1 70.3044 63.7449 69.1536C63.1935 67.3666 62.3666 65.728 61.0946 64.3384C60.5102 63.7002 59.8257 63.1876 58.9636 62.9848C58.4526 62.8644 57.9363 62.8623 57.4129 63.1546L57.4139 63.1536Z" fill="white"/>
<path d="M58.7694 63.7677C59.5159 63.9972 60.123 64.445 60.6237 65.0327C61.8337 66.4542 62.6204 68.0909 63.0819 69.8912C63.3163 70.8031 63.4433 71.7265 63.4206 72.6683C63.4185 72.7486 63.4123 72.8289 63.403 72.9915C63.1408 72.6024 62.9849 72.2648 62.9157 71.8798C62.6741 70.552 62.2611 69.2797 61.6148 68.0909C61.0955 67.1356 60.5008 66.2329 59.6522 65.5258C59.5861 65.4712 59.519 65.4074 59.4797 65.3333C59.2154 64.8382 58.9584 64.339 58.6992 63.8418C58.7219 63.8161 58.7457 63.7914 58.7684 63.7656L58.7694 63.7677Z" fill="white"/>
<path d="M108.641 62.8565C108.986 62.7041 109.184 62.8256 109.353 63.0654C109.925 63.8755 110.28 64.7751 110.332 65.7581C110.409 67.2476 110.313 68.7298 109.889 70.1719C109.717 70.7576 109.484 71.3165 109.007 71.7344C108.944 71.789 108.876 71.8384 108.738 71.9465C108.775 71.791 108.781 71.7169 108.809 71.6521C109.153 70.8626 109.294 70.0226 109.397 69.1786C109.473 68.5497 109.506 67.9135 109.516 67.2795C109.536 66.1627 109.292 65.1045 108.72 64.1308C108.653 64.0175 108.627 63.8673 108.623 63.7324C108.615 63.4339 108.632 63.1344 108.638 62.8554L108.641 62.8565Z" fill="white"/>
<path d="M109.353 53.0547C109.505 53.2358 109.686 53.4005 109.802 53.6023C110.049 54.0326 110.177 54.506 110.167 55.0063C110.154 55.767 110.236 56.5318 110.002 57.2811C109.862 57.7309 109.666 58.1355 109.309 58.4525C109.257 58.4998 109.195 58.539 109.134 58.576C109.115 58.5873 109.082 58.576 109.023 58.5719C109.261 57.837 109.362 57.0845 109.343 56.3218C109.334 55.9348 109.325 55.5385 109.238 55.1648C109.107 54.6028 109.16 54.0521 109.221 53.4952C109.234 53.3686 109.241 53.241 109.251 53.1134L109.353 53.0557V53.0547Z" fill="white"/>
<path d="M129.851 66.0312C129.956 67.7945 129.713 69.5166 129.631 71.3169C129.343 71.2294 129.088 71.1563 128.836 71.0729C128.684 71.0225 128.668 70.8907 128.678 70.7538C128.756 69.7214 128.831 68.689 128.912 67.6566C128.917 67.5866 128.933 67.5104 128.968 67.4517C129.26 66.9762 129.556 66.5047 129.85 66.0323L129.851 66.0312Z" fill="white"/>
<path d="M69.3889 123.542C69.7833 122.631 70.3119 121.831 71.0501 121.177C72.1073 120.241 73.3607 119.767 74.7504 119.64C75.7291 119.549 76.712 119.504 77.6928 119.43C78.3412 119.381 78.9875 119.322 79.6152 119.124C80.913 118.716 81.484 117.611 81.5655 116.427C81.5903 116.065 81.4478 115.738 81.2434 115.459C80.6921 114.703 79.9405 114.257 79.0236 114.051C77.6567 113.745 76.3827 114.043 75.1406 114.588C73.5311 115.293 72.064 116.255 70.5473 117.128C69.2061 117.9 67.866 118.677 66.5011 119.406C65.287 120.053 64.0078 120.57 62.6605 120.873C61.2316 121.194 59.7923 121.277 58.3769 120.781C57.9009 120.614 57.4425 120.403 56.981 120.071C57.0987 120.031 57.1679 119.998 57.2401 119.984C58.6381 119.728 60.0174 119.399 61.3131 118.807C61.7684 118.599 62.1969 118.309 62.5892 117.995C63.1788 117.523 63.3181 116.933 63.0827 116.25C62.8215 115.491 62.0049 114.851 61.2088 114.859C60.8258 114.864 60.4294 114.959 60.0659 115.089C59.4547 115.307 58.8631 115.582 58.2654 115.839C57.2825 116.262 56.3182 116.733 55.3167 117.103C54.3287 117.468 53.2941 117.594 52.2483 117.3C52.0676 117.25 51.8849 117.197 51.7166 117.117C51.4172 116.974 51.1281 116.81 50.84 116.59C50.9247 116.583 51.0104 116.567 51.095 116.568C51.7031 116.572 52.3133 116.591 52.9059 116.415C53.6039 116.207 54.1893 115.862 54.3989 115.108C54.5403 114.598 54.5496 114.072 54.3627 113.577C54.1614 113.043 53.6916 112.804 53.1661 112.67C52.4362 112.484 51.697 112.516 50.9691 112.646C50.1875 112.786 49.4163 112.986 48.6409 113.16C48.5862 113.172 48.5315 113.182 48.3828 113.211C48.5005 113.092 48.5532 113.022 48.6213 112.972C49.7467 112.151 51.0104 111.634 52.3453 111.267C54.0024 110.812 55.6946 110.792 57.3919 110.86C58.7671 110.917 60.1258 111.12 61.4783 111.374C62.3156 111.532 63.155 111.684 63.9995 111.802C64.9164 111.931 65.8373 112.06 66.7686 111.998C67.4159 111.955 68.0354 111.826 68.5093 111.329C69.1153 110.694 69.3724 109.643 68.3224 108.907C67.6802 108.457 66.9492 108.217 66.1852 108.102C65.5585 108.007 64.9205 107.962 64.2866 107.941C63.9149 107.929 63.5411 108.008 63.1674 108.045C63.0136 108.061 62.8597 108.074 62.6295 108.095C62.8628 107.791 63.1302 107.648 63.378 107.496C64.5602 106.768 65.8538 106.418 67.2383 106.321C68.8014 106.211 70.3346 106.392 71.843 106.751C73.6291 107.177 75.3905 107.704 77.1714 108.149C78.2648 108.422 79.3685 108.682 80.4825 108.84C81.3952 108.969 82.3326 108.965 83.2154 108.573C83.7471 108.337 84.1817 107.986 84.4853 107.495C84.6701 107.196 84.7331 106.852 84.6814 106.497C84.5224 105.397 83.9267 104.565 83.0171 103.97C81.8876 103.231 80.625 102.996 79.2849 103.106C78.4888 103.17 77.7145 103.325 76.8999 103.514C76.9866 103.419 77.0672 103.318 77.1611 103.23C78.2524 102.221 79.4913 101.478 80.9543 101.137C82.2284 100.841 83.5055 100.866 84.7857 101.1C86.4789 101.41 88.0761 102.011 89.6072 102.771C91.2519 103.587 92.8615 104.476 94.4927 105.318C95.5975 105.888 96.6939 106.494 97.9328 106.731C98.3097 106.803 98.7206 106.82 99.0964 106.751C99.9131 106.601 100.296 105.987 100.467 105.242C100.626 104.549 100.243 104.042 99.7427 103.639C98.7784 102.862 97.6303 102.455 96.4616 102.102C96.3098 102.056 96.155 102.016 96.0022 101.973C95.9898 101.97 95.9805 101.956 95.9382 101.922C95.9805 101.875 96.0135 101.817 96.0641 101.787C97.1265 101.163 98.2684 100.755 99.496 100.645C100.602 100.547 101.693 100.706 102.763 101.001C103.71 101.261 104.651 101.553 105.607 101.779C106.653 102.026 107.526 101.708 108.13 100.793C108.21 100.672 108.285 100.549 108.361 100.425C108.771 99.7499 108.673 99.1385 108.102 98.4879C107.396 97.682 106.439 97.3588 105.432 97.1611C103.768 96.8338 102.117 97.0037 100.477 97.3577C99.1139 97.6521 97.7997 98.1009 96.5153 98.6372C96.4781 98.6526 96.4379 98.6609 96.346 98.6887C96.3831 98.6074 96.3924 98.5569 96.4224 98.526C97.4497 97.438 98.5616 96.4509 99.8594 95.6892C101.386 94.7927 103.028 94.2399 104.787 93.9908C105.83 93.8436 106.872 93.8282 107.91 93.8807C109.136 93.9435 110.347 94.1648 111.549 94.4334C113.766 94.9296 115.907 95.6861 118.085 96.313C119.002 96.5765 119.926 96.84 120.893 96.8101C121.392 96.7947 121.897 96.7103 122.233 96.2996C122.897 95.4905 122.941 94.7649 122.209 94.1256C121.812 93.7798 121.346 93.4782 120.86 93.2744C119.595 92.7422 118.301 92.277 117.02 91.7819C116.048 91.4062 115.078 91.0233 114.186 90.4777C113.349 89.9672 112.59 89.3671 112.171 88.4448C111.949 87.9569 111.809 87.4504 111.896 86.8359C112.043 86.9224 112.161 86.9677 112.25 87.0449C113.193 87.8632 114.295 88.4026 115.46 88.8174C117.223 89.4463 119.063 89.7664 120.893 90.1226C121.857 90.3099 122.824 90.488 123.779 90.7134C124.805 90.9553 125.835 91.1993 126.835 91.5256C128.743 92.1473 130.483 93.0747 131.884 94.5477C131.974 94.6413 132.061 94.7381 132.141 94.84C132.269 95.0047 132.423 95.0428 132.634 95.0273C134.226 94.9121 135.816 94.8894 137.4 95.1478C139.786 95.5379 142.013 96.3593 144.078 97.6089C145.232 98.3078 146.29 99.1303 147.269 100.065C148.517 101.257 149.548 102.599 150.3 104.148C151.044 105.678 151.497 107.293 151.696 108.983C151.82 110.035 151.835 111.089 151.755 112.139C151.66 113.391 151.414 114.618 151.038 115.823C150.468 117.648 149.621 119.327 148.483 120.858C146.955 122.915 145.03 124.496 142.709 125.598C141.215 126.309 139.667 126.867 138.06 127.259C136.907 127.54 135.738 127.74 134.557 127.868C132.922 128.045 131.282 128.018 129.649 127.925C128.206 127.842 126.782 127.559 125.38 127.184C123.426 126.66 121.57 125.911 119.83 124.873C119.62 124.747 119.342 124.699 119.091 124.683C116.69 124.538 114.411 125.103 112.164 125.867C110.687 126.369 109.231 126.941 107.701 127.28C105.865 127.687 104.074 127.602 102.349 126.814C101.772 126.552 101.224 126.232 100.645 125.794C100.957 125.716 101.195 125.651 101.437 125.594C102.949 125.243 104.418 124.768 105.8 124.052C106.625 123.625 107.418 123.149 108.075 122.48C108.464 122.084 108.77 121.639 108.964 121.111C109.281 120.251 108.853 119.153 108.12 118.665C107.497 118.251 106.812 118.077 106.071 118.046C104.106 117.964 102.378 118.647 100.75 119.656C100.025 120.106 99.3153 120.577 98.5007 120.861C96.6918 121.493 94.9439 121.362 93.2538 120.466C93.1898 120.432 93.1299 120.391 93.07 120.351C93.0112 120.312 92.9534 120.27 92.8109 120.169C93.0091 120.147 93.1237 120.129 93.2404 120.122C94.3245 120.069 95.4478 119.251 95.8163 118.273C95.9702 117.864 95.8917 117.506 95.6718 117.164C95.233 116.483 94.5867 116.145 93.7886 116.088C92.8687 116.024 92.0531 116.344 91.2777 116.797C90.4848 117.26 89.8168 117.881 89.1426 118.494C87.7313 119.777 86.067 120.586 84.2416 121.088C82.9676 121.438 81.6667 121.637 80.3503 121.724C79.2095 121.8 78.0666 121.828 76.9257 121.905C75.599 121.995 74.2672 122.067 72.9488 122.236C71.6789 122.398 70.4647 122.78 69.391 123.538L69.3889 123.542ZM110.262 115.821C110.495 116.219 110.654 116.559 110.87 116.855C111.804 118.129 113.014 119.076 114.424 119.772C115.441 120.275 116.513 120.606 117.633 120.803C118.537 120.961 119.445 121.02 120.356 120.98C120.622 120.969 120.818 121.023 121.037 121.154C121.718 121.561 122.396 121.983 123.107 122.335C125.532 123.537 128.139 124.032 130.816 124.198C132.061 124.275 133.309 124.198 134.544 124.036C136.839 123.734 139.046 123.128 141.137 122.109C143.327 121.042 145.01 119.457 146.233 117.367C147.303 115.536 147.852 113.557 147.969 111.447C148.019 110.548 147.933 109.661 147.795 108.777C147.605 107.57 147.226 106.418 146.623 105.355C145.405 103.204 143.615 101.627 141.461 100.469C138.886 99.085 136.124 98.5209 133.202 98.7937C131.886 98.9161 130.599 99.1848 129.362 99.6542C127.994 100.174 126.684 100.82 125.424 101.562C125.243 101.668 125.097 101.689 124.9 101.602C123.571 101.013 122.196 100.587 120.748 100.394C119.458 100.223 118.179 100.25 116.903 100.483C114.79 100.867 112.934 101.807 111.252 103.114C111.14 103.201 110.973 103.27 110.986 103.465C113.363 103.784 115.688 104.843 116.322 105.915C116.204 105.897 116.106 105.894 116.015 105.866C115.657 105.755 115.304 105.623 114.942 105.521C113.291 105.055 111.613 104.904 109.913 105.171C107.864 105.495 106.049 106.356 104.455 107.669C103.91 108.118 103.42 108.635 102.899 109.115C101.679 110.237 100.183 110.563 98.5936 110.491C97.4693 110.441 96.346 110.296 95.232 110.128C93.9115 109.929 92.593 109.766 91.255 109.81C89.4606 109.867 87.9853 110.59 86.7948 111.915C86.737 111.979 86.703 112.066 86.6235 112.201C86.7783 112.161 86.8599 112.143 86.9394 112.117C88.263 111.691 89.6134 111.62 90.969 111.89C91.89 112.073 92.8006 112.316 93.7081 112.563C95.4684 113.044 97.2339 113.485 99.0799 113.385C99.6715 113.354 100.265 113.298 100.847 113.195C102.177 112.958 103.462 112.555 104.692 111.999C105.103 111.814 105.489 111.81 105.913 111.924C107.098 112.244 108.179 112.796 109.243 113.383C110.61 114.139 111.977 114.893 113.447 115.439C113.5 115.459 113.542 115.505 113.624 115.563C112.519 115.867 111.449 115.838 110.264 115.821H110.262Z" fill="white"/>
<path d="M99.332 75.0451C99.3744 74.2978 99.4157 73.5855 99.458 72.8413C99.6882 72.8526 99.872 72.865 100.056 72.8701C100.222 72.8743 100.389 72.8701 100.598 72.8701C100.598 72.5253 100.583 72.2237 100.601 71.9232C100.659 70.9021 100.725 69.881 100.793 68.8609C100.867 67.74 100.952 66.6211 101.021 65.5002C101.071 64.6942 101.093 63.8872 101.143 63.0812C101.21 62.0035 101.296 60.9268 101.367 59.8502C101.388 59.5331 101.383 59.2151 101.4 58.898C101.457 57.8049 101.509 56.7117 101.579 55.6186C101.65 54.4832 101.742 53.3489 101.816 52.2136C101.835 51.9284 101.819 51.6413 101.819 51.318C101.488 51.2851 101.162 51.2522 100.787 51.2151C100.738 50.4925 100.881 49.772 100.888 49C101.081 49.0144 101.246 49.0288 101.411 49.0381C102.119 49.0803 102.826 49.1184 103.533 49.1637C104.76 49.2429 105.985 49.3531 107.213 49.4014C108.215 49.4416 109.203 49.5672 110.181 49.7699C112 50.1467 113.718 50.7735 115.207 51.9161C116.318 52.7684 117.135 53.8276 117.428 55.2254C117.808 57.0432 117.291 58.6108 116.057 59.9675C115.647 60.4173 115.186 60.8033 114.644 61.039C115.081 61.4137 115.521 61.7462 115.909 62.1301C117.015 63.2222 117.736 64.5521 117.887 66.0858C118.131 68.5655 117.597 70.8619 115.816 72.7281C115.06 73.5197 114.133 74.0878 113.109 74.4913C111.613 75.0822 110.058 75.3879 108.453 75.4157C107.411 75.4332 106.367 75.4373 105.325 75.4126C104.575 75.3951 103.825 75.3158 103.075 75.2716C102.093 75.2139 101.111 75.1645 100.129 75.1079C99.872 75.0935 99.616 75.0678 99.332 75.0441V75.0451ZM107.866 61.9685C107.644 65.5938 107.424 69.1666 107.208 72.7394C107.2 72.864 107.222 72.9896 107.234 73.1656C107.519 73.1192 107.77 73.075 108.023 73.0379C109.08 72.8835 109.815 72.303 110.299 71.3653C110.811 70.372 110.993 69.2881 111.104 68.2063C111.196 67.3118 111.276 66.406 111.137 65.494C110.969 64.3905 110.637 63.3694 109.952 62.476C109.68 62.1219 109.412 61.8265 108.877 61.9562C108.566 62.0313 108.222 61.9696 107.865 61.9696L107.866 61.9685ZM107.989 59.7637C108.28 59.7071 108.507 59.6721 108.73 59.6196C109.642 59.4055 110.268 58.8548 110.628 57.9984C110.842 57.4889 110.97 56.9588 110.977 56.406C110.984 55.8615 111.002 55.3149 110.973 54.7714C110.925 53.8605 110.642 53.0401 109.898 52.4493C109.49 52.125 109.018 51.9284 108.471 51.8379C108.309 54.4894 108.151 57.0874 107.988 59.7637H107.989Z" fill="white"/>
<path d="M76.9834 55.0498C76.6179 55.1218 76.2834 55.1877 75.9148 55.2608C75.8208 54.8727 75.7331 54.5269 75.6556 54.179C75.5937 53.898 75.5534 53.6118 75.4863 53.3329C75.4409 53.1445 75.509 53.0694 75.6866 53.0333C76.8316 52.7986 77.9755 52.5588 79.1205 52.3221C80.5092 52.0349 81.8999 51.7528 83.2875 51.4626C84.6451 51.1785 85.9997 50.8831 87.3563 50.5969C88.1771 50.424 89 50.2593 89.8837 50.0781C90.1955 51.3339 90.4433 52.5917 90.7117 53.8928C89.7598 54.0894 88.8379 54.2809 87.8973 54.4754C87.7135 53.9206 87.5473 53.4183 87.3646 52.8666C86.075 53.1363 84.8072 53.4018 83.4754 53.6797C84.324 57.7075 85.1675 61.7095 86.0203 65.7589C86.2072 65.7311 86.3456 65.7188 86.4818 65.69C87.9118 65.3884 89.3417 65.0847 90.7716 64.7821C91.0452 64.7245 91.132 64.7533 91.1763 64.9591C91.3002 65.5366 91.4148 66.1171 91.5284 66.6966C91.5387 66.7502 91.5191 66.8099 91.5088 66.9056C89.8466 67.2504 88.1812 67.5963 86.4839 67.9493C86.9691 70.2478 87.4534 72.5391 87.9448 74.8675C89.4129 74.5607 90.8542 74.2591 92.3213 73.9524V72.2324C93.2319 72.0368 94.1426 71.8423 95.0532 71.6467C95.2524 71.9174 95.8719 74.9828 95.8585 75.4799C90.878 76.5216 85.8882 77.5653 80.8416 78.6214C80.6805 77.8875 80.5288 77.1917 80.3687 76.4588C80.7384 76.3816 81.0708 76.3116 81.4507 76.2324C80.9655 73.9287 80.4854 71.6539 79.996 69.3307C79.6595 69.3914 79.3384 69.4501 79.0245 69.5067C78.8376 69.2566 78.5578 68.147 78.4918 67.3863C78.66 67.3441 78.8366 67.2998 79.0131 67.2556C79.1773 67.2144 79.3404 67.1743 79.5314 67.1279C78.6817 63.095 77.8393 59.0981 76.9844 55.0457L76.9834 55.0498Z" fill="white"/>
<path d="M100.13 52.8606C99.7487 52.8215 99.4349 52.7906 99.122 52.7577C99.0405 52.4808 99.1871 49.5389 99.3151 49.0078H100.057C100.008 50.0063 99.9594 50.9779 99.9088 51.9929C100.245 52.0176 100.559 52.0402 100.927 52.067C100.932 52.2276 100.949 52.3953 100.94 52.5611C100.852 54.1009 100.757 55.6398 100.67 57.1797C100.63 57.8714 100.61 58.5631 100.564 59.2538C100.496 60.2893 100.407 61.3227 100.341 62.3572C100.29 63.1776 100.266 64 100.216 64.8204C100.146 65.9845 100.061 67.1487 99.9883 68.3129C99.9428 69.0468 99.9108 69.7817 99.8675 70.5167C99.8386 71.0036 99.8004 71.4904 99.7632 72.0113C99.5102 71.9917 99.2841 71.9732 98.9961 71.9505C99.3471 65.6006 99.7777 59.2682 100.13 52.8606Z" fill="white"/>
<path d="M78.7901 76.7903C79.0936 76.7429 79.3146 76.7079 79.5655 76.6678C79.7802 77.6652 79.9846 78.6184 80.1963 79.5993C80.7115 79.4995 81.175 79.4161 81.6365 79.3204C83.3907 78.955 85.1438 78.5885 86.8958 78.218C88.2369 77.9349 89.5771 77.6436 90.9182 77.3585C92.5009 77.0219 94.0826 76.6884 95.6664 76.358C95.8027 76.3292 95.9462 76.3384 96.1155 76.3281C96.1609 76.5875 96.2002 76.8088 96.2446 77.062C90.689 78.2272 85.1613 79.3863 79.583 80.5566C79.2774 79.3214 79.0585 78.0842 78.7891 76.7913L78.7901 76.7903Z" fill="white"/>
<path d="M114.875 74.537C114.268 75.1752 113.513 75.5983 112.717 75.9441C111.462 76.4887 110.14 76.7861 108.783 76.9405C107.746 77.0589 106.707 77.1186 105.665 77.0805C105.059 77.0589 104.455 76.9941 103.85 76.9539C103.575 76.9354 103.3 76.9292 103.026 76.9148C101.973 76.8572 100.919 76.8016 99.8655 76.7378C99.1314 76.6935 98.3984 76.6359 97.6055 76.5803C97.686 75.308 97.7645 74.0666 97.844 72.8047H98.6193C98.5698 73.8011 98.5223 74.7738 98.4727 75.7856C98.6121 75.8217 98.7298 75.8731 98.8516 75.8793C99.66 75.9236 100.469 75.9544 101.278 75.9956C102.374 76.0512 103.471 76.114 104.567 76.1696C105.606 76.2221 106.647 76.3312 107.683 76.3054C109.757 76.254 111.803 75.9863 113.719 75.1135C114.11 74.9354 114.489 74.7306 114.874 74.5381L114.875 74.537Z" fill="white"/>
<path d="M125.726 120.362C125.862 120.279 125.982 120.21 126.096 120.134C126.611 119.792 127.08 119.412 127.212 118.761C127.293 118.36 127.218 117.979 127.015 117.634C126.787 117.246 126.405 117.087 125.978 117.146C125.51 117.21 125.039 117.317 124.591 117.468C123.605 117.799 122.638 118.191 121.65 118.519C120.949 118.751 120.222 118.857 119.475 118.868C117.978 118.889 116.788 118.278 115.816 117.182C115.722 117.076 115.638 116.96 115.502 116.79C115.803 116.749 116.05 116.709 116.299 116.683C117.903 116.521 119.48 116.243 120.984 115.639C121.456 115.449 121.897 115.209 122.249 114.821C122.611 114.423 122.699 113.809 122.433 113.296C122.173 112.794 121.708 112.536 121.141 112.638C120.573 112.74 120.012 112.883 119.449 113.017C118.803 113.17 118.165 113.368 117.512 113.484C116.27 113.705 115.065 113.575 113.912 113.023C112.875 112.526 111.943 111.867 111.016 111.198C110.242 110.639 109.468 110.08 108.567 109.726C107.89 109.459 107.193 109.449 106.422 109.538C107.067 108.801 107.763 108.234 108.58 107.805C109.393 107.379 110.271 107.174 111.169 107.158C111.827 107.146 112.504 107.241 113.142 107.407C114.133 107.663 115.096 108.028 116.076 108.331C116.752 108.541 117.428 108.762 118.117 108.914C118.692 109.042 119.289 109.012 119.779 108.626C120.666 107.925 120.729 107.229 120.236 106.443C119.756 105.678 119.079 105.113 118.346 104.619C117.651 104.15 116.922 103.732 116.207 103.294C116.097 103.226 115.982 103.166 115.822 103.077C115.939 103.015 116.013 102.953 116.099 102.933C117.426 102.611 118.766 102.364 120.137 102.458C121.647 102.561 123.006 103.098 124.22 104.002C124.87 104.485 125.521 104.968 126.181 105.436C126.878 105.93 127.654 106.225 128.507 106.332C129.125 106.41 129.724 106.289 130.314 106.156C130.891 106.027 131.451 105.826 131.937 105.46C132.782 104.821 132.869 103.833 132.146 103.054C131.722 102.597 131.209 102.288 130.623 102.088C130.508 102.049 130.395 101.999 130.211 101.926C131.033 101.628 131.797 101.431 132.583 101.33C133.185 101.253 133.792 101.161 134.396 101.164C136.03 101.174 137.618 101.45 139.138 102.082C140.12 102.491 141.036 103.01 141.885 103.644C143.209 104.63 144.275 105.834 144.888 107.379C145.304 108.429 145.526 109.521 145.539 110.668C145.559 112.349 145.213 113.932 144.482 115.437C143.467 117.526 141.921 119.073 139.795 120.056C138.3 120.748 136.751 121.256 135.128 121.504C133.737 121.716 132.337 121.751 130.928 121.625C129.182 121.47 127.506 121.053 125.866 120.465C125.828 120.452 125.799 120.416 125.731 120.363L125.726 120.362Z" fill="white"/>
</svg>
