<svg width="200" height="200" viewBox="0 0 200 200" fill="none" xmlns="http://www.w3.org/2000/svg">
<g clip-path="url(#clip0_121_209)">
<path d="M14.0195 89.5781H20.3363V102.945H29.2003V108.296H14.0195V89.5781Z" fill="white"/>
<path d="M37.7773 89.5781H44.8481L48.5159 100.078L52.1838 89.5781H59.1323L51.4706 108.418H45.439L37.7773 89.5781Z" fill="white"/>
<path d="M59.3758 89.5781H75.4735V94.707H65.5704V96.605H74.8011V101.128H65.5704V103.168H75.5958V108.296H59.3555V89.5781H59.3758Z" fill="white"/>
<path d="M83.0781 89.5781H88.9874L95.7118 97.8368V89.5781H101.967V108.276H96.3638L89.3542 99.6541V108.276H83.0985V89.5781H83.0781Z" fill="white"/>
<path d="M109.604 89.4297H115.86L123.807 108.269H116.96L115.962 105.765H109.36L108.381 108.269H101.637L109.604 89.4297ZM114.413 101.323L112.681 96.7797L110.949 101.323H114.413Z" fill="white"/>
<path d="M124.848 94.8685H119.285V89.5781H136.707V94.8685H131.144V108.276H124.828V94.8685H124.848Z" fill="white"/>
<path d="M137.668 89.5781H143.985V108.276H137.668V89.5781Z" fill="white"/>
<path d="M145.207 98.9853V98.9248C145.207 93.493 149.71 89.1719 155.538 89.1719C161.366 89.1719 165.808 93.4526 165.808 98.8642V98.9248C165.808 104.356 161.305 108.678 155.477 108.678C149.649 108.678 145.207 104.397 145.207 98.9853ZM159.45 98.9853V98.9248C159.45 96.7036 157.922 94.7046 155.477 94.7046C153.072 94.7046 151.565 96.6834 151.565 98.8642V98.9248C151.565 101.146 153.093 103.145 155.538 103.145C157.943 103.145 159.45 101.166 159.45 98.9853Z" fill="white"/>
<path d="M166.457 89.5781H172.366L179.091 97.8368V89.5781H185.346V108.276H179.722L172.713 99.6541V108.276H166.457V89.5781Z" fill="white"/>
<path d="M199 120H0V78H199V120ZM4.17725 115.84H194.823V82.1394H4.17725V115.84Z" fill="white"/>
<path d="M40.0448 85.7671C40.0448 85.7671 39.6372 85.0604 39.5557 84.9191C39.4742 84.7777 39.352 84.8787 39.352 84.8787C39.352 84.8787 38.9444 85.1816 38.7203 85.3229C38.4961 85.4643 38.5165 85.646 38.5165 85.7268C38.5165 85.8277 38.4554 86.3729 38.4554 86.3729C38.435 86.4941 38.3739 86.595 38.3331 86.6556L34.706 89.4421L34.2578 89.5431L33.137 90.0883L33.1982 89.3412C33.2797 89.3816 33.4019 89.5027 33.4834 89.5229C33.5853 89.5431 33.7483 89.5027 33.7483 89.5027C33.7483 89.5027 33.6872 89.3614 33.6872 89.2806C33.6872 89.1998 33.7076 89.0585 33.7076 89.0585C33.7076 89.0585 33.8706 89.1595 34.0132 89.1595C34.1151 89.1595 34.217 89.1191 34.2781 89.0787C34.3393 89.0383 34.4004 88.9575 34.4004 88.9575C34.4004 88.9575 34.1966 88.8364 34.1151 88.7556C34.0744 88.695 33.9929 88.6143 34.0336 88.6143C34.1355 88.6143 34.2985 88.4729 34.2985 88.4729C34.2985 88.4729 34.1966 88.4123 34.0947 88.3316C33.9929 88.2508 33.9521 88.1902 33.9113 88.0893C33.8706 87.9883 33.8502 87.9075 33.8502 87.9075C33.8502 87.9075 33.9114 87.9883 34.054 87.9883C34.1763 87.9883 34.2985 87.9075 34.2985 87.9075C34.2985 87.9075 34.1966 87.847 34.1355 87.7864C34.0744 87.7056 34.0132 87.6248 33.9725 87.5239C33.9317 87.3825 33.9113 87.3018 33.8706 87.2008C33.8502 87.1402 33.8502 87.0595 33.8095 86.9181C33.7687 86.595 33.6261 86.4537 33.6261 86.4537C33.1982 85.8883 32.2201 85.747 32.2201 85.747C31.731 85.646 31.2216 86.2921 31.0178 86.9383C30.6918 88.0085 30.7937 89.0585 30.7937 89.0585C30.7937 89.0585 30.8141 89.2604 30.9771 89.3614C31.079 89.422 31.5069 89.5229 31.5069 89.5229L31.4661 90.3912L30.4269 90.472C30.4269 90.472 29.6526 90.0075 29.0005 89.6239L26.1274 87.5037C26.1274 87.5037 26.0051 87.4229 25.9848 87.2008C25.9848 87.2008 25.9236 86.6556 25.9236 86.5546C25.9236 86.4537 25.944 86.2921 25.7199 86.1508C25.4957 86.0095 25.0882 85.7066 25.0882 85.7066C25.0882 85.7066 24.9456 85.5854 24.864 85.7268C24.7825 85.8681 24.375 86.5748 24.375 86.5748L24.5788 87.3825C24.5788 87.3825 24.6603 87.5441 24.8029 87.6854L24.9863 87.8671L26.0459 88.8162H26.0663L27.8187 90.371L28.3281 90.8556C28.3281 90.8556 28.3689 90.9162 28.3689 91.0171C28.3689 91.1181 28.3689 91.4008 28.3689 91.4008C28.3689 91.4008 28.3689 91.4816 28.4096 91.5421C28.4707 91.6027 29.4081 92.3498 29.4081 92.3498C29.4081 92.3498 29.4692 92.4104 29.4692 92.5316L29.6322 98.1046C29.6322 98.1046 29.6322 98.1854 29.7137 98.1854L30.0194 98.3066L30.7122 104.405L32.0367 108.443L29.9379 109.453C29.9379 109.453 29.8564 109.493 29.8156 109.574C29.8156 109.574 29.6933 109.816 29.6933 109.857C29.6933 109.937 29.7545 109.958 29.7545 109.958H32.8721L32.5665 110.765L32.485 110.987C32.485 110.987 32.3831 111.391 32.5461 111.452C32.7295 111.512 33.2797 111.533 33.5242 111.512C33.8298 111.492 34.38 111.452 34.4819 111.371C34.5634 111.29 34.6042 110.907 34.1559 108.443L33.891 98.9123L34.6857 92.9354C34.7672 92.2691 34.8487 92.2085 34.8487 92.2085C34.8487 92.2085 35.7045 91.5825 35.786 91.5018C35.8675 91.421 35.8471 91.2998 35.8471 91.2998V90.6335C35.8471 90.5123 35.8879 90.4114 35.8879 90.4114L36.5807 89.745L36.7845 89.5431L38.9852 87.4431L39.3723 86.9989L39.5557 86.8171C39.678 86.6758 39.7595 86.5143 39.7595 86.5143C39.7595 86.5143 39.9225 86.1104 39.9836 85.9893C40.1059 85.9085 40.0448 85.7671 40.0448 85.7671Z" fill="white"/>
<path d="M188.426 91.0053C188.426 90.1976 189.078 89.5312 189.913 89.5312C190.749 89.5312 191.401 90.1976 191.401 91.0053C191.401 91.813 190.749 92.4793 189.913 92.4793C189.057 92.4591 188.426 91.7928 188.426 91.0053ZM191.217 90.9851C191.217 90.2582 190.647 89.6726 189.913 89.6726C189.159 89.6726 188.589 90.2582 188.589 90.9851C188.589 91.712 189.159 92.2774 189.893 92.2774C190.647 92.2976 191.217 91.712 191.217 90.9851ZM189.302 90.1572H189.995C190.199 90.1572 190.382 90.2178 190.484 90.3188C190.565 90.3995 190.606 90.5207 190.606 90.662C190.606 90.9043 190.463 91.0659 190.26 91.1466L190.647 91.712H190.239L189.893 91.2072H189.628V91.7322H189.302V90.1572ZM189.995 90.9245C190.178 90.9245 190.26 90.8236 190.26 90.7024C190.26 90.5611 190.158 90.4803 189.974 90.4803H189.628V90.9245H189.995Z" fill="white"/>
</g>
<defs>
<clipPath id="clip0_121_209">
<rect width="199" height="42" fill="white" transform="translate(0 78)"/>
</clipPath>
</defs>
</svg>
