<svg width="200" height="200" viewBox="0 0 200 200" fill="none" xmlns="http://www.w3.org/2000/svg">
<g clip-path="url(#clip0_121_200)">
<path d="M120.678 56.0048C129.857 55.983 137.203 63.4096 137.324 72.6359C137.435 81.1658 130.724 89.5349 120.539 89.5785C111.36 89.617 103.942 82.043 103.899 72.8134C103.856 63.4163 111.581 55.7821 120.678 56.0048Z" fill="white"/>
<path d="M61.723 92.7867C61.6898 85.9444 67.0095 80.6038 73.8709 80.5938C80.4405 80.5837 85.8812 85.9628 85.926 92.5155C85.9724 99.3729 80.6593 104.898 74.0599 104.988C67.0907 105.083 61.5439 99.3193 61.723 92.7867Z" fill="white"/>
<path d="M40.2898 135.703V120.681C40.2302 120.659 40.1705 120.635 40.1108 120.614C37.9972 123.833 35.8836 127.052 33.6622 130.434C31.5138 127.171 29.4217 123.994 27.207 120.629C27.1407 121.031 27.0777 121.238 27.0777 121.447C27.076 125.847 27.0826 130.247 27.0826 134.646C27.0826 135.7 27.076 135.701 26.0217 135.701C24.7021 135.701 23.3826 135.701 22 135.701V112.017C23.2019 112.017 24.4253 112.136 25.6155 111.987C27.1307 111.797 27.943 112.414 28.6674 113.706C30.0699 116.211 31.658 118.611 33.1715 121.052C33.324 121.297 33.5031 121.526 33.7169 121.831C33.8661 121.628 33.9938 121.478 34.0965 121.312C35.8239 118.533 37.5745 115.769 39.2571 112.963C39.698 112.228 40.1887 111.953 41.0375 111.997C42.483 112.072 43.9369 112.017 45.4802 112.017C45.4802 112.434 45.4802 112.747 45.4802 113.06C45.4802 120.234 45.4786 127.407 45.4769 134.581C45.4769 135.328 45.115 135.701 44.3911 135.701C43.0666 135.701 41.742 135.701 40.2882 135.701L40.2898 135.703Z" fill="white"/>
<path d="M176.807 78.2792C177.054 83.2514 172.585 88.664 166.213 88.3627C161.516 88.14 156.661 84.0467 156.735 78.095C156.805 72.6791 161.385 67.9981 167.114 68.1521C172.414 68.2944 176.829 72.7979 176.807 78.2808V78.2792Z" fill="white"/>
<path d="M61.8982 111.609C68.6668 111.623 74.1058 117.071 74.1092 123.839C74.1125 130.623 68.5955 136.019 61.6744 135.999C55.1131 135.98 49.6641 130.405 49.7271 123.774C49.7901 116.972 55.1711 111.594 61.8982 111.609ZM69.1028 123.796C69.1194 119.843 65.8752 116.563 61.9347 116.547C58.0937 116.531 54.8694 119.763 54.6887 123.493C54.4914 127.566 57.9827 131.068 61.8717 131.057C65.8752 131.043 69.0845 127.839 69.1011 123.796H69.1028Z" fill="white"/>
<path d="M105.458 112.081C105.458 114.914 105.483 117.683 105.44 120.452C105.43 121.125 105.609 121.325 106.274 121.316C108.872 121.284 111.469 121.279 114.067 121.325C114.78 121.336 114.896 121.06 114.889 120.436C114.861 117.877 114.878 115.318 114.878 112.758C114.878 112.549 114.878 112.341 114.878 112.078H120.032C120.056 112.487 120.1 112.878 120.1 113.27C120.091 120.36 120.08 127.452 120.065 134.542C120.061 135.707 120.051 135.707 118.871 135.707C117.576 135.707 116.283 135.707 114.911 135.707C114.893 135.356 114.866 135.073 114.868 134.792C114.868 132.18 114.854 129.566 114.894 126.955C114.904 126.293 114.719 126.084 114.05 126.093C111.453 126.128 108.853 126.131 106.257 126.089C105.558 126.077 105.417 126.335 105.425 126.971C105.46 129.451 105.452 131.929 105.453 134.408C105.453 135.706 105.45 135.706 104.131 135.706C102.866 135.706 101.601 135.706 100.281 135.706V112.081H105.457H105.458Z" fill="white"/>
<path d="M80.056 128.57C81.1219 129.203 82.0967 129.839 83.1245 130.376C84.7474 131.223 86.493 131.456 88.2983 131.215C88.6083 131.173 88.9183 131.071 89.2084 130.949C90.0124 130.611 90.4815 129.983 90.5395 129.119C90.5942 128.31 90.1301 127.684 89.4471 127.408C88.0794 126.856 86.6588 126.432 85.258 125.958C84.1307 125.576 82.9653 125.287 81.8812 124.806C78.4745 123.296 77.1002 120.02 78.3684 116.482C79.4343 113.509 81.7717 112.133 84.7192 111.776C88.2684 111.346 91.5657 112.146 94.4932 114.283C94.6424 114.391 94.7734 114.522 94.9989 114.714C94.0954 116.022 93.2002 117.318 92.2735 118.661C90.7633 117.579 89.2067 116.713 87.428 116.452C86.5576 116.325 85.6277 116.37 84.7607 116.531C83.8721 116.695 83.2438 117.326 83.156 118.289C83.0731 119.196 83.5621 119.849 84.3611 120.166C85.4652 120.603 86.6123 120.927 87.7363 121.309C89.0874 121.768 90.4683 122.158 91.7795 122.714C95.5376 124.307 96.2803 127.599 95.3636 130.892C94.7237 133.194 93.124 134.674 90.9324 135.323C85.9675 136.795 81.4601 135.685 77.4301 132.497C77.2876 132.385 77.2196 131.92 77.324 131.791C78.2209 130.679 79.1658 129.608 80.0543 128.575L80.056 128.57Z" fill="white"/>
<path d="M166.683 127.596C166.29 128.204 165.962 128.715 165.628 129.222C164.344 131.178 163.082 133.15 161.746 135.072C161.52 135.396 160.987 135.659 160.584 135.676C158.951 135.743 157.313 135.704 155.508 135.704C155.763 135.269 155.926 134.949 156.126 134.655C158.53 131.144 160.932 127.632 163.356 124.134C163.626 123.746 163.636 123.498 163.357 123.093C161.007 119.674 158.687 116.234 156.362 112.797C156.221 112.589 156.121 112.355 155.944 112.023C157.931 112.023 159.781 112.01 161.63 112.043C161.827 112.047 162.074 112.293 162.203 112.489C163.639 114.664 165.055 116.852 166.475 119.035C166.575 119.187 166.679 119.338 166.843 119.584C167.198 119.041 167.512 118.563 167.826 118.084C169.052 116.215 170.267 114.34 171.515 112.489C171.664 112.266 172.001 112.045 172.254 112.04C174.002 112.002 175.75 112.02 177.672 112.02C177.413 112.415 177.224 112.711 177.027 113.003C174.757 116.348 172.501 119.703 170.202 123.028C169.847 123.542 170.061 123.831 170.323 124.218C172.692 127.72 175.054 131.228 177.415 134.735C177.591 134.995 177.74 135.273 177.998 135.703C177.362 135.703 176.851 135.703 176.341 135.703C175.174 135.703 174.007 135.684 172.841 135.711C172.254 135.725 171.873 135.529 171.545 135.01C170.126 132.761 168.662 130.54 167.213 128.31C167.084 128.112 166.931 127.93 166.681 127.596H166.683Z" fill="white"/>
<path d="M143.199 112.086C143.199 113.511 143.184 114.894 143.206 116.276C143.216 116.901 142.796 116.871 142.402 116.871C140.547 116.871 138.69 116.884 136.835 116.841C136.228 116.825 136.004 116.951 136.008 117.624C136.036 123.301 136.024 128.978 136.026 134.657C136.026 135.667 135.994 135.703 135.02 135.705C133.649 135.705 132.276 135.705 130.788 135.705C130.788 135.256 130.788 134.893 130.788 134.531C130.792 128.881 130.788 123.229 130.814 117.579C130.817 116.99 130.602 116.846 130.08 116.852C128.225 116.874 126.368 116.846 124.515 116.891C123.825 116.908 123.59 116.708 123.624 115.987C123.687 114.713 123.643 113.434 123.643 112.089H143.199V112.086Z" fill="white"/>
<path d="M33.7553 81.2578C37.5714 81.2645 40.5802 84.3366 40.5586 88.2039C40.5371 91.9541 37.4935 95.0111 33.7652 95.0261C29.9209 95.0412 26.864 91.949 26.879 88.0599C26.8922 84.278 29.9508 81.2528 33.7553 81.2595V81.2578Z" fill="white"/>
<path d="M146.827 112.062H151.934C151.934 112.449 151.934 112.838 151.934 113.224C151.931 120.371 151.918 127.518 151.934 134.665C151.936 135.431 151.772 135.779 150.92 135.72C149.784 135.641 148.639 135.672 147.5 135.71C146.938 135.729 146.74 135.523 146.75 134.98C146.77 133.86 146.762 132.74 146.762 131.62C146.769 125.193 146.775 118.768 146.784 112.34C146.784 112.263 146.807 112.185 146.827 112.062Z" fill="white"/>
</g>
<defs>
<clipPath id="clip0_121_200">
<rect width="156" height="80" fill="white" transform="translate(22 56)"/>
</clipPath>
</defs>
</svg>
