<svg width="200" height="200" viewBox="0 0 200 200" fill="none" xmlns="http://www.w3.org/2000/svg">
<g clip-path="url(#clip0_121_203)">
<path d="M144 56V145H56V56H144ZM60.2379 60.202V140.741H139.782V60.202H60.2379Z" fill="white"/>
<path d="M100.663 81.4559C100.663 78.8398 100.609 76.2238 100.675 73.6077C100.786 69.1873 104.044 66.122 108.663 66.0103C112.825 65.9085 116.4 68.9366 116.557 73.1635C116.763 78.7827 116.756 84.4194 116.567 90.0411C116.429 94.1464 112.812 97.0876 108.515 97.0206C104.187 96.9535 100.857 93.9429 100.683 89.7781C100.567 87.0081 100.66 84.2308 100.663 81.4559ZM110.834 81.7165C110.834 79.1799 110.866 76.6457 110.825 74.1116C110.793 72.2575 110.039 71.3739 108.626 71.3566C107.21 71.3392 106.408 72.2426 106.398 74.0669C106.373 78.9788 106.381 83.8907 106.42 88.8026C106.437 90.7659 107.102 91.5328 108.577 91.5279C110.054 91.5229 110.788 90.7038 110.822 88.8473C110.866 86.472 110.832 84.0942 110.837 81.7165H110.834Z" fill="white"/>
<path d="M82.6906 119.724C82.6906 117.115 82.6685 114.504 82.6955 111.896C82.7397 107.547 85.8905 104.41 90.3149 104.271C94.9479 104.125 98.4546 106.986 98.5896 111.404C98.7589 117.011 98.7564 122.633 98.5896 128.24C98.4669 132.397 94.7958 135.321 90.3297 135.187C86.0427 135.06 82.7863 131.933 82.7029 127.788C82.6489 125.1 82.6931 122.412 82.6882 119.724H82.6906ZM92.9112 119.831C92.9112 117.383 92.9406 114.939 92.9014 112.491C92.8695 110.481 92.121 109.535 90.661 109.511C89.2082 109.486 88.3739 110.466 88.3616 112.437C88.3297 117.249 88.3346 122.065 88.3764 126.877C88.3935 128.84 89.0463 129.63 90.4745 129.692C92.0278 129.761 92.8572 128.878 92.9014 126.932C92.9554 124.566 92.9136 122.196 92.9112 119.831Z" fill="white"/>
<path d="M82.6131 81.4882C82.6131 78.8002 82.5787 76.1122 82.6204 73.4241C82.6842 69.2295 85.916 66.2238 90.5 66.0377C94.5367 65.8739 98.328 68.8597 98.4728 72.7987C98.6887 78.6413 98.6911 84.5014 98.485 90.344C98.3476 94.2507 94.414 97.1969 90.176 97.0157C85.9651 96.837 82.7088 93.7593 82.6204 89.7905C82.5591 87.0256 82.6082 84.2557 82.6131 81.4907V81.4882ZM88.2399 81.4932C88.2399 83.861 88.2154 86.2289 88.2473 88.5967C88.2767 90.6841 88.9466 91.5205 90.4803 91.5255C92.0189 91.5304 92.7846 90.6766 92.8042 88.6438C92.8508 83.9082 92.8484 79.17 92.814 74.4343C92.7993 72.2924 91.9674 71.2921 90.4288 71.3517C88.9736 71.4063 88.2767 72.342 88.2522 74.3847C88.2252 76.7525 88.2448 79.1204 88.2448 81.4882L88.2399 81.4932Z" fill="white"/>
<path d="M100.569 119.664C100.569 116.976 100.529 114.288 100.578 111.6C100.657 107.323 103.862 104.305 108.389 104.176C112.747 104.052 116.296 106.876 116.438 111.029C116.634 116.792 116.637 122.57 116.446 128.333C116.313 132.319 112.554 135.228 108.249 135.104C104.092 134.988 100.726 131.91 100.588 127.961C100.49 125.198 100.569 122.429 100.571 119.661L100.569 119.664ZM110.779 119.326C110.779 116.879 110.799 114.431 110.772 111.984C110.757 110.545 110.149 109.534 108.598 109.43C107.194 109.336 106.284 110.279 106.267 112.044C106.22 117.015 106.225 121.989 106.274 126.963C106.291 128.825 107.076 129.646 108.527 129.616C109.984 129.587 110.725 128.76 110.765 126.906C110.819 124.382 110.777 121.855 110.777 119.328L110.779 119.326Z" fill="white"/>
<path d="M65.2891 104.315C68.273 104.315 71.0926 104.121 73.8753 104.367C77.0654 104.647 79.7647 107.675 79.8359 111.028C79.961 116.889 79.9586 122.756 79.8359 128.616C79.7696 131.786 77.2838 134.546 74.2827 135.171C73.3698 135.36 72.4152 135.404 71.4803 135.422C69.4632 135.456 67.4461 135.432 65.2891 135.432V104.315ZM70.3564 109.663V129.931C73.8974 130.85 75.0409 130.016 75.0508 126.601C75.0606 122.24 75.0606 117.879 75.0581 113.52C75.0557 109.783 74.2483 109.09 70.3589 109.663H70.3564Z" fill="white"/>
<path d="M70.5177 97.0398H65.2344V65.8359C68.6821 65.9948 72.0489 65.8781 75.3224 66.3795C78.5984 66.8809 80.5395 69.5465 80.7211 72.927C80.8045 74.5031 80.78 76.0891 80.7554 77.6702C80.6867 82.175 77.8254 85.2552 73.3986 85.5903C72.552 85.6548 71.6955 85.6002 70.5201 85.6002V97.0398H70.5177ZM70.5766 71.4304V80.2366C74.4807 80.9216 75.5163 80.105 75.5261 76.4639C75.5286 75.5207 75.5801 74.5701 75.4819 73.6344C75.3421 72.3165 74.6771 71.4378 73.2342 71.4304C72.3998 71.4254 71.5655 71.4304 70.5766 71.4304Z" fill="white"/>
<path d="M126.008 79.0183H132.555V84.0047C130.346 84.104 128.209 84.2008 125.883 84.3075V96.9583H120.543V66.1094H134.862V71.1454H126.01V79.0158L126.008 79.0183Z" fill="white"/>
<path d="M120.534 104.156H134.779V109.14H126.07V116.944H132.585V122.089H125.842V135.052H120.531V104.156H120.534Z" fill="white"/>
</g>
<defs>
<clipPath id="clip0_121_203">
<rect width="88" height="89" fill="white" transform="translate(56 56)"/>
</clipPath>
</defs>
</svg>
