<svg width="200" height="200" viewBox="0 0 200 200" fill="none" xmlns="http://www.w3.org/2000/svg">
<g clip-path="url(#clip0_121_206)">
<path d="M96.9977 95.9613C97.0994 95.9804 97.201 95.9982 97.3024 96.016L96.9977 95.9613ZM97.8288 96.0979C97.9471 96.1153 98.0654 96.1307 98.1841 96.1462L97.8288 96.0979ZM98.7075 96.2019C98.8231 96.2123 98.938 96.222 99.0536 96.2307L98.7075 96.2019ZM99.1774 96.2391C99.275 96.2462 99.3726 96.2519 99.4702 96.2569L99.1774 96.2391ZM99.6124 96.2643C99.728 96.2693 99.8436 96.2737 99.9592 96.2774L99.6124 96.2643ZM100.074 96.2787C100.332 96.2855 100.591 96.2857 100.849 96.2794L100.074 96.2787ZM100.973 96.2774C101.093 96.2738 101.213 96.2692 101.334 96.2636L100.973 96.2774ZM101.447 96.2583C101.552 96.2526 101.654 96.2462 101.758 96.2391L101.447 96.2583ZM101.866 96.2318C101.979 96.2234 102.092 96.214 102.204 96.2036L101.866 96.2318ZM102.783 96.1398C102.87 96.1297 102.957 96.1187 103.043 96.1052L102.783 96.1398ZM118.649 67.3411C118.556 67.2913 118.46 67.2461 118.362 67.2055L118.649 67.3411ZM117.707 67.0065C117.586 66.9822 117.465 66.9639 117.343 66.9515L117.707 67.0065ZM55.9893 79.3538C55.5708 78.9748 55.2527 78.5003 55.063 77.9719C54.9086 77.5306 54.7087 76.9793 54.7087 76.5111C54.7185 74.4004 55.9669 72.8325 57.3108 72.1067C57.9215 71.7771 58.1483 71.551 58.2415 71.4348C58.1968 71.4153 58.1491 71.4033 58.1004 71.3993C56.2712 71.3993 55.3334 70.6979 54.8729 70.1043C54.4366 69.5482 54.2139 68.8314 54.2139 68.0475C54.2139 67.6666 54.2683 67.268 54.3754 66.8602C54.891 66.0199 55.3806 66.2508 55.6806 66.6807C55.8717 66.9498 57.1812 67.866 58.7948 68.0113C59.969 68.1213 60.6018 68.6881 60.931 69.1408C61.3105 69.665 61.456 70.2966 61.456 70.8338C61.456 71.0536 61.4309 71.26 61.3829 71.4436C61.2061 72.1516 60.4501 72.7899 59.3973 73.603L58.8002 74.0916C57.9259 74.8467 57.4448 75.687 57.4448 76.3991C57.4448 76.5769 57.4764 76.7504 57.5372 76.9105C57.5624 76.9763 57.5927 77.0397 57.6284 77.0997C58.0191 77.7524 59.1233 78.1619 60.7249 77.6088C61.4652 77.3555 62.8904 76.4702 63.7606 75.6188C64.7845 74.6108 66.1511 74.3688 67.4671 74.2661C68.6084 74.1812 69.3109 73.905 69.8057 73.356C71.2679 71.7302 72.675 71.5016 73.9921 71.405C74.496 71.3667 74.5232 71.3311 74.5889 71.2436C75.3149 70.2895 76.0606 69.7845 76.7298 69.4905C77.2399 69.2667 77.7058 69.1647 78.0873 69.0821L78.5505 68.9697L78.6661 68.9294C79.3993 68.6965 79.9668 68.5036 81.4583 67.5089L81.5219 67.4693L81.5848 67.43L81.6484 67.3931L81.7123 67.3572L81.7766 67.324L81.7786 67.3233L81.8412 67.2911L81.8432 67.2904L81.9061 67.2602L81.9088 67.2596L81.9721 67.2307L81.9745 67.2294L82.0381 67.2032L82.0408 67.2022L82.104 67.1763L82.1074 67.1757L82.171 67.1522L82.1741 67.1505L82.237 67.1284L82.304 67.1062L82.3084 67.1052L82.371 67.0854L82.3751 67.0844L82.4386 67.0663L82.4431 67.0653L82.506 67.0482L82.5107 67.0468L82.574 67.0321L82.5798 67.0307L82.642 67.0166L82.6471 67.0153L82.7107 67.0025L82.7161 67.0012L82.779 66.9898L82.7848 66.9888L82.8477 66.9784L82.8535 66.9777L82.9157 66.9686L82.9222 66.9673L82.9848 66.9602L82.9912 66.9589L83.0528 66.9522L83.0596 66.9518L83.1218 66.9461L83.129 66.9455L83.1908 66.9411L83.198 66.9404L83.2589 66.9367L83.266 66.9364L83.3275 66.9337L83.3962 66.9317H83.4034L83.4646 66.931H83.5408L83.6013 66.9317L83.6084 66.932H83.6156C83.6591 66.9331 83.7026 66.9357 83.7462 66.9381L83.806 66.9418L83.8145 66.9425L83.8733 66.9468L83.8822 66.9475L83.941 66.9532L83.9502 66.9542L84.0087 66.9599L84.0182 66.9606L84.0763 66.9676L84.0855 66.969L84.1433 66.976L84.1532 66.9777L84.2103 66.9861L84.2198 66.9878L84.2773 66.9965L84.2875 66.9985L84.3436 67.0082L84.3542 67.0099L84.4099 67.02L84.4201 67.0223C84.5092 67.0388 84.597 67.0582 84.683 67.079L84.7371 67.0925L84.748 67.0955C84.8347 67.1176 84.9204 67.1411 85.0047 67.1659L85.0547 67.1814L85.0669 67.1851C85.2342 67.2371 85.3964 67.2958 85.5535 67.3579L85.5977 67.376L85.6556 67.3995C88.8452 63.1232 93.8882 60.2779 99.6198 60.0205V60.0191C99.902 60.0066 100.184 60.0002 100.467 60C100.654 60.0001 100.84 60.0029 101.027 60.0084C101.12 60.0114 101.213 60.0151 101.305 60.0188C101.397 60.0232 101.491 60.0275 101.583 60.0332C107.129 60.3621 112.014 63.1185 115.16 67.2398C115.609 67.0857 116.098 66.974 116.598 66.9404L116.611 66.9398L116.658 66.9367L116.707 66.9344L116.719 66.9337L116.732 66.9334L116.781 66.932L116.794 66.9314L116.842 66.931L116.855 66.9307L116.904 66.9304H116.916L116.965 66.9307H116.977L117.038 66.9317L117.088 66.9337L117.099 66.9341L117.149 66.9364L117.16 66.9371L117.21 66.9404L117.22 66.9411L117.27 66.9451L117.28 66.9458L117.331 66.9508L117.34 66.9518C117.462 66.9642 117.584 66.9825 117.704 67.0069L117.758 67.0176L117.765 67.0193L117.817 67.0317L117.825 67.0331L117.878 67.0465L117.885 67.0482L117.939 67.0623L117.945 67.0639L118 67.079L118.005 67.0807L118.059 67.0972L118.065 67.0988L118.119 67.1166L118.124 67.118L118.183 67.1384L118.239 67.1579L118.242 67.1596L118.297 67.1807L118.301 67.1821L118.357 67.2042L118.36 67.2059C118.457 67.2461 118.553 67.2908 118.648 67.3415L118.65 67.3425L118.706 67.372L118.762 67.4045L118.82 67.4384L118.876 67.4733L118.932 67.5092C119.959 68.1985 120.553 68.5022 121.06 68.7005C121.288 68.7901 121.499 68.8576 121.724 68.9297L121.842 68.97L122.31 69.0824C122.563 69.1375 122.853 69.2009 123.167 69.3022C123.952 69.5546 124.89 70.0445 125.801 71.2439C125.866 71.3315 125.896 71.3671 126.402 71.4053C127.718 71.5023 129.122 71.7305 130.591 73.3564C131.082 73.9054 131.781 74.1812 132.922 74.2665C134.246 74.3691 135.608 74.6108 136.63 75.6192C137.501 76.4705 138.925 77.3558 139.667 77.6092C141.268 78.1622 142.377 77.7528 142.759 77.1001C142.843 76.9625 142.899 76.8111 142.927 76.6511C142.942 76.568 142.95 76.4838 142.95 76.3994C142.95 75.6873 142.468 74.847 141.596 74.092L141.488 74.003L140.993 73.6034C139.945 72.7902 139.188 72.152 139.006 71.4439C138.958 71.2603 138.937 71.054 138.937 70.8342C138.937 70.2966 139.086 69.6653 139.458 69.1412C139.79 68.6885 140.43 68.1217 141.596 68.0116C143.218 67.8663 144.521 66.9502 144.711 66.681C145.016 66.2512 145.501 66.0203 146.015 66.8606C146.123 67.2683 146.178 67.667 146.178 68.0478C146.178 68.8361 145.955 69.5486 145.519 70.1046C145.056 70.6982 144.121 71.3996 142.289 71.3996C142.25 71.3996 142.196 71.4174 142.151 71.4352C142.241 71.5516 142.468 71.7778 143.08 72.107C144.424 72.8332 145.674 74.401 145.685 76.5115C145.685 76.9796 145.488 77.5306 145.328 77.9722C145.161 78.4354 144.897 78.8585 144.553 79.2136C144.506 79.2612 144.458 79.3082 144.406 79.3542C143.649 80.0481 142.388 80.5928 140.287 80.469C140.066 80.4556 139.845 80.4359 139.625 80.4099C139.571 81.4559 139.28 82.6992 138.871 83.3264C138.747 83.5234 138.722 83.6556 138.722 83.7204C138.722 83.7476 138.725 83.7633 138.725 83.7747C138.738 83.7791 139.657 84.3144 139.657 84.3144L139.805 84.3885C139.805 84.3885 139.892 84.4288 139.903 84.4378C139.916 84.4331 140.22 84.4197 140.22 84.4197L140.281 84.4113L140.287 84.4107C140.861 84.3566 141.739 84.0791 142.112 85.1073C142.21 85.3801 142.269 85.6177 142.325 85.8281C142.439 86.2584 142.537 86.5778 142.918 86.8681C142.918 86.8681 143.107 86.7084 143.321 86.5204C143.487 86.3762 143.649 86.2284 143.808 86.0771C144.074 85.8083 144.566 85.9449 144.921 86.0771C145.279 86.2114 145.724 86.5164 146.037 86.6929C146.353 86.8678 146.527 87.0896 146.618 87.3544C146.713 87.6185 146.932 87.7933 147.267 87.9681C147.59 88.1493 148.053 88.7299 148.053 89.5135C148.053 89.6336 148.067 89.7363 148.101 89.8454C148.125 89.9175 148.157 89.9927 148.2 90.0782C148.652 90.9766 148.29 91.429 148.028 91.6196C147.676 91.8793 147.056 91.9867 146.473 91.8927L146.478 92.0404L145.627 91.9283C145.297 91.8877 144.862 91.9709 144.602 92.0243L144.541 92.0404C143.935 92.1592 143.143 91.9568 142.698 91.2434C142.681 91.2169 142.665 91.1904 142.65 91.1622C142.423 90.7685 142.069 90.4031 141.896 90.3021C141.646 90.3699 141.251 90.4618 140.781 90.4145C140.345 90.3712 139.842 90.2061 139.331 89.788C139.246 89.7185 139.161 89.6417 139.076 89.5584C138.325 88.8145 137.333 88.6621 136.71 88.7564L136.338 88.8215C135.571 88.9584 134.613 89.1329 133.727 88.6C133.507 88.4675 133.19 88.3309 132.878 88.201C132.074 87.8557 131.244 87.4997 131.131 86.749C131.111 86.6151 130.965 86.3704 130.844 86.1758C130.738 86.0037 130.622 85.8154 130.533 85.6137C130.447 85.4211 130.385 85.216 130.379 85.002C130.116 85.0687 129.844 85.0961 129.573 85.0832C129.477 85.0784 129.381 85.0691 129.286 85.0553L128.938 85.002C128.35 84.903 127.118 84.7033 126.726 84.8446C125.945 85.1224 123.488 85.2567 122.815 85.1046C122.815 85.1046 122.567 85.0509 122.333 85.002C122.109 85.2305 121.859 85.4449 121.595 85.6359C122.088 85.6624 122.522 85.602 122.82 85.6778L123.439 85.8389C123.636 85.7812 124.12 85.7879 124.394 85.8124L125.119 85.8661L125.946 85.9446C126.345 86.0235 126.768 86.1933 126.695 86.9637C126.667 87.2013 126.533 87.5372 126.33 87.7346C126.218 87.8554 125.786 88.4738 125.691 88.6685L125.66 88.7292C125.492 89.0833 125.242 89.4084 124.516 89.4084C124.424 89.4072 124.331 89.4108 124.239 89.4192C124.217 89.4772 124.158 89.5849 124.158 89.5849C123.994 89.9521 123.758 90.4632 123.306 90.7588L123.186 90.8444C122.823 91.0998 122.219 91.5206 121.294 91.1894L120.976 91.0769C120.17 90.7903 118.952 90.3605 118.336 90.0286L118.25 89.9816C117.677 89.6722 117.55 89.6101 117.342 89.639L117.226 89.6568C116.787 89.7175 115.959 89.8272 115.386 88.8903L115.334 88.8091C112.618 92.487 108.537 95.1196 103.827 95.9791L103.806 95.9834C103.645 96.0123 103.484 96.0391 103.322 96.0643L103.261 96.073L103.04 96.1052C102.954 96.118 102.868 96.1294 102.781 96.1401L102.623 96.1596L102.374 96.1861L102.202 96.2039C102.089 96.2143 101.976 96.2237 101.863 96.2321L101.756 96.2391C101.652 96.2462 101.55 96.2529 101.445 96.2583L101.332 96.2643C101.211 96.27 101.092 96.2744 100.971 96.2781L100.848 96.2801C100.589 96.2864 100.331 96.2862 100.073 96.2794L99.9572 96.2781C99.8415 96.2744 99.7259 96.27 99.6103 96.265L99.4688 96.2573C99.3713 96.2519 99.2737 96.2469 99.1761 96.2395L99.0519 96.2314C98.9365 96.2226 98.8211 96.213 98.7058 96.2026L98.5351 96.1851L98.3089 96.1609L98.1828 96.1465C98.0641 96.1321 97.9456 96.1159 97.8274 96.0979L97.6842 96.0771L97.4313 96.0381L97.301 96.0167C97.1993 95.9989 97.0977 95.9814 96.9963 95.962L96.777 95.9187L96.6648 95.8962C96.5148 95.864 96.3638 95.8321 96.2149 95.7965L96.1754 95.7874L95.9411 95.7311L95.8208 95.7005C95.681 95.665 95.5419 95.6267 95.4032 95.5885L95.3535 95.574C91.2232 94.3982 87.6938 91.8313 85.3145 88.4218L85.0013 88.8923C84.4341 89.8292 83.6074 89.7192 83.1623 89.6588L83.0467 89.641C82.8392 89.6121 82.708 89.6742 82.1404 89.9836L82.0493 90.0306C81.4362 90.3625 80.2222 90.7924 79.4118 91.0789L79.0929 91.1914C78.1689 91.5226 77.563 91.1011 77.2073 90.8464L77.0825 90.7608C76.6305 90.4655 76.3966 89.9544 76.2306 89.587C76.2306 89.587 76.1762 89.4792 76.1497 89.4212C76.0576 89.4128 75.9651 89.4092 75.8726 89.4104C75.1527 89.4104 74.8959 89.0853 74.7303 88.7312L74.7011 88.6705C74.6035 88.4759 74.1767 87.8574 74.0587 87.7366C73.8591 87.5396 73.7173 87.2033 73.6949 86.9658C73.6201 86.1953 74.0489 86.0255 74.4437 85.9466L75.271 85.8681L75.9974 85.8144C76.2674 85.7899 76.7509 85.7832 76.9482 85.8409L77.5677 85.6798C77.8626 85.604 78.3005 85.6644 78.7892 85.6379C78.5294 85.4437 78.2837 85.2318 78.0537 85.004C77.8173 85.053 77.5718 85.1067 77.5718 85.1067C76.8961 85.2587 74.4437 85.1244 73.6677 84.8466C73.2732 84.7053 72.0429 84.9046 71.4522 85.004L71.0979 85.0573C70.7364 85.1121 70.3673 85.094 70.0131 85.004C69.9944 85.4426 69.7537 85.8409 69.5472 86.1778C69.4272 86.3725 69.2752 86.6171 69.2568 86.751C69.1507 87.5017 68.3098 87.8577 67.5086 88.203C67.1975 88.3329 66.8846 88.4695 66.6626 88.602C65.7839 89.1349 64.8212 88.9604 64.0516 88.8235L63.6789 88.7584C63.059 88.6641 62.0668 88.8165 61.3135 89.5605C60.1618 90.6944 59.0158 90.445 58.4938 90.3041C58.3211 90.4051 57.965 90.7705 57.7396 91.1642C57.3043 91.9441 56.4729 92.1656 55.8465 92.0424L55.7836 92.0263C55.5265 91.9729 55.097 91.8897 54.7682 91.9303L53.9119 92.0424L53.9211 91.8947C53.3352 91.9887 52.7129 91.881 52.3599 91.6216C52.1005 91.431 51.737 90.9786 52.196 90.0803C52.3025 89.8648 52.3389 89.7152 52.3389 89.5155C52.3389 88.7316 52.7983 88.1514 53.1206 87.9701C53.4586 87.7953 53.681 87.6205 53.7715 87.3564C53.8603 87.0916 54.0344 86.8698 54.3506 86.6949C54.6635 86.5184 55.1086 86.2134 55.4653 86.0792C55.8213 85.9469 56.3134 85.8104 56.5817 86.0792C56.852 86.3389 57.4713 86.8698 57.4713 86.8698C58.0395 86.4369 57.9851 85.9379 58.2796 85.1087C58.6479 84.0805 59.5289 84.358 60.1009 84.412L60.1665 84.4211C60.1665 84.4211 60.475 84.4345 60.4841 84.4392C60.5001 84.4301 60.5865 84.3899 60.5865 84.3899L60.7297 84.3157C60.7297 84.3157 61.6532 83.7804 61.6624 83.7761C61.6665 83.765 61.6665 83.7489 61.6665 83.7217C61.6665 83.657 61.6441 83.5247 61.5193 83.3278C61.1085 82.7002 60.8181 81.4572 60.7654 80.4112C60.6171 80.4287 60.4739 80.4431 60.3332 80.4542C58.0963 80.6314 56.767 80.073 55.9893 79.3538Z" fill="#141414"/>
<path d="M61.4945 79.647C61.4945 79.647 61.3082 81.4272 62.1209 82.9961C62.1209 82.9961 62.7231 83.8384 62.0978 84.3793L60.8528 85.0934C60.8528 85.0934 60.6855 85.2162 60.1302 85.1746C60.1302 85.1746 59.3627 84.987 59.1063 85.3216C59.1063 85.3216 58.8836 85.9649 58.6047 86.4951C58.6047 86.4951 58.0379 87.7804 57.0997 88.1922C57.0997 88.1922 56.3519 88.3613 56.1251 89.0012C56.1251 89.0012 55.884 89.4502 55.4011 89.47C55.4011 89.47 55.041 89.5828 54.8026 90.3744C54.8026 90.3744 54.6727 90.8865 54.6795 91.2791C54.6795 91.2791 55.2937 91.1996 55.6939 91.3426C55.6939 91.3426 56.678 91.6688 57.118 90.8687C57.118 90.8687 57.9682 89.4321 58.5986 89.6482C58.5986 89.6482 59.865 90.0664 60.7593 89.1543C60.7593 89.1543 61.9879 87.8297 63.7232 88.1022C63.7232 88.1022 65.6778 88.4928 66.2876 88.0479C66.2876 88.0479 67.5203 87.4119 67.9827 87.2542C67.9827 87.2542 68.5486 87.0901 68.6071 86.4787C68.6071 86.4787 68.9512 85.6186 69.2015 85.332L68.2691 85.3216C68.2691 85.3216 67.4247 86.723 65.99 87.1455C65.99 87.1455 65.2055 87.4549 63.6307 87.2035C63.6307 87.2035 61.3697 86.6982 59.3838 88.8147C59.3838 88.8147 59.1124 89.2016 58.7251 89.0469C58.7251 89.0469 59.8225 87.2002 62.2318 86.7626C62.2318 86.7626 63.0203 86.5972 63.678 86.7025C63.678 86.7025 66.9231 86.7965 68.4279 83.6437C68.4279 83.6437 68.265 80.9557 68.9835 80.3191C68.9835 80.3191 69.261 80.2353 69.2056 80.7551C69.2056 80.7551 68.7118 83.5709 69.6391 84.1162C69.6391 84.1162 70.1774 84.5337 71.1734 84.3793C71.1734 84.3793 72.6833 84.0233 73.9105 84.2307C73.9105 84.2307 75.7978 84.6726 77.4195 84.4682C77.4195 84.4682 76.9986 83.832 77.0812 83.0712C77.0812 83.0712 77.3134 82.5266 77.5797 82.8769C77.5797 82.8769 78.2037 84.9112 79.9091 85.5216C79.9091 85.5216 81.4322 86.069 81.4073 87.9754C81.4073 87.9754 81.1741 88.2368 79.1545 88.9449C79.1545 88.9449 78.3999 89.1801 78.1568 88.6237C78.1568 88.6237 77.1829 86.5666 76.3351 86.63L74.7433 86.7576C74.7433 86.7576 74.2003 86.8948 74.6002 87.3244C74.6002 87.3244 75.1453 88.0395 75.368 88.4663C75.368 88.4663 75.433 88.8311 75.9451 88.7536C75.9451 88.7536 76.6554 88.4063 77.056 89.7103C77.056 89.7103 77.4226 90.3623 78.0432 90.5707C78.0432 90.5707 78.6237 90.762 79.1684 90.4603C79.1684 90.4603 81.7974 89.508 82.2551 89.1704C82.2551 89.1704 82.8237 88.8563 83.2746 89.0073C83.2746 89.0073 84.0632 89.1929 84.3879 88.5787L85.2027 87.3348C85.2027 87.3348 85.3815 87.0284 85.3567 86.6435C85.3567 86.6435 85.4305 86.2622 85.1047 85.8747C85.1047 85.8747 84.797 85.5535 84.7484 85.3209L84.1676 83.9739C84.1676 83.9739 83.9322 83.6142 83.6738 83.4662L82.8985 83.5222C82.8985 83.5222 83.432 84.8679 83.8227 85.4163C83.8227 85.4163 84.3515 86.2143 84.3247 86.7217C84.3247 86.7217 84.2896 87.0774 84.1475 87.2257C84.1475 87.2257 83.9686 87.5082 83.8965 87.6455C83.8965 87.6455 83.6616 88.1489 83.4708 88.2606C83.4708 88.2606 83.1409 88.4532 83.0607 88.461C83.0607 88.461 82.9172 88.5002 83.0236 88.2465C83.0236 88.2465 83.4582 87.3441 83.4296 86.8616C83.4296 86.8616 83.514 86.3589 83.1535 86.0646C83.1535 86.0646 82.3088 84.7488 82.1878 84.3555C82.1878 84.3555 81.9229 83.8293 81.7817 83.739C81.7817 83.739 81.4866 83.3561 81.963 83.1769C81.963 83.1769 83.1498 82.9125 83.3623 82.7689C83.3623 82.7689 83.9329 82.5984 84.3036 81.4255C84.3036 81.4255 84.814 80.0577 84.8065 79.2134C84.8065 79.2134 85.8069 81.1168 84.2114 83.0524C84.2114 83.0524 85.474 83.4199 85.9964 83.0524C85.9964 83.0524 87.5691 82.8256 87.8728 82.743C87.8728 82.743 88.2683 82.6487 88.0425 82.9256C88.0425 82.9256 87.5681 83.5914 87.528 84.0276C87.528 84.0276 87.4974 84.3749 87.209 84.5783C87.209 84.5783 86.315 85.1961 86.2364 85.7877C86.2364 85.7877 86.0453 86.3572 86.4401 86.221C86.4401 86.221 86.9754 85.9763 87.1644 86.2226C87.1644 86.2226 87.2199 86.2485 87.0135 86.477C87.0135 86.477 86.4765 86.9381 86.4364 87.5569C86.4364 87.5569 86.5357 88.271 86.7254 88.5006C86.7254 88.5006 86.9672 88.8314 87.3494 88.7264C87.3494 88.7264 87.4508 88.6455 87.6337 88.6999C87.6337 88.6999 87.8228 88.6992 88.3165 88.5308C88.3165 88.5308 89.065 88.3277 89.3153 88.2405C89.3153 88.2405 90.2681 87.9042 90.7381 87.9277C90.7381 87.9277 91.0438 87.8945 91.4335 87.9713C91.4335 87.9713 92.625 88.1049 93.419 87.2388C93.419 87.2388 94.0233 86.7659 94.2284 87.225C94.2284 87.225 95.678 89.1445 98.0244 88.6388C98.0244 88.6388 96.1575 87.8811 95.6732 86.8492C95.6732 86.8492 95.6086 85.973 94.6306 84.7562C94.6306 84.7562 94.3317 84.3525 94.6201 84.2474C94.6201 84.2474 94.7871 84.1243 95.1513 84.485C95.1513 84.485 96.0803 85.3646 96.4159 86.1696C96.4159 86.1696 97.5697 87.8901 99.2326 87.3119C99.2326 87.3119 97.9271 86.8149 97.3137 85.8881C97.3137 85.8881 96.9345 84.6337 95.66 83.7004C95.66 83.7004 95.61 82.2907 95.0156 81.4984C95.0156 81.4984 94.7126 80.1745 94.631 79.8651C94.631 79.8651 94.3103 78.7023 94.3124 78.3812C94.3124 78.3812 94.4184 76.8624 93.4262 75.6801C93.4262 75.6801 92.7614 74.4153 91.7259 73.5341C91.7259 73.5341 90.939 72.5747 90.3538 71.9871C90.3538 71.9871 89.5839 71.0964 87.9054 69.9343C87.9054 69.9343 87.1454 69.389 86.5887 68.8028C86.5887 68.8028 83.6279 66.6997 81.489 68.3866C81.489 68.3866 80.0118 69.3783 78.778 69.6853C78.778 69.6853 76.2426 69.9766 75.1616 71.7132C75.1616 71.7132 75.0691 72.034 74.0472 72.1562C74.0472 72.1562 71.8025 71.8887 70.1499 74.0673C70.1499 74.0673 69.382 74.8069 67.862 74.9868C67.862 74.9868 65.383 74.7365 63.7691 76.612C63.7691 76.612 59.6967 80.1178 57.2683 77.8443C57.2683 77.8443 56.0101 76.6687 57.4486 74.5401C57.4486 74.5401 58.3609 73.4535 59.9174 72.3183C59.9174 72.3183 61.18 71.4404 60.6012 70.0756C60.6012 70.0756 60.2955 68.7568 58.4031 68.7219C58.4031 68.7219 56.0285 68.2692 55.0682 67.0859C55.0682 67.0859 53.996 70.8125 58.2042 70.7505C58.2042 70.7505 59.3008 70.9105 58.9179 71.7696C58.9179 71.7696 58.3803 72.5045 57.6587 72.772C57.6587 72.772 56.3893 73.32 55.8156 75.1442C55.8156 75.1442 54.5336 78.3376 57.6614 79.5701C58.8652 79.9805 60.2557 79.8597 61.4945 79.647ZM55.4725 87.172C55.6422 87.0321 55.8908 86.9532 56.1115 87.0042C56.6093 87.1099 56.308 87.5354 56.308 87.5354C56.1064 87.9076 55.4484 88.5355 55.4484 88.5355C54.8631 88.968 54.3997 88.4529 54.3997 88.4529C53.9661 88.0311 54.5302 87.827 54.5302 87.827C54.8584 87.6955 55.4725 87.172 55.4725 87.172ZM54.2177 89.168C54.2177 89.168 54.3997 89.3006 54.3024 89.5623C54.3024 89.5623 53.8379 90.8171 53.8596 91.2382C53.8596 91.2382 52.8317 91.4194 52.6892 90.9187C52.6892 90.9187 52.6616 90.7254 52.8293 90.4452C52.8293 90.4452 53.0037 90.1838 53.049 89.7056C53.049 89.7056 53.0337 88.5022 53.8236 88.821C53.9804 88.9076 54.1041 89.0335 54.2177 89.168ZM90.4504 86.6216C90.2695 86.6173 90.2236 86.5519 90.2453 86.3552C90.3667 85.8085 90.8108 85.5726 90.8108 85.5726C91.644 85.0813 91.7453 85.5733 91.7453 85.5733C91.898 86.4508 91.1951 86.5612 91.1951 86.5612C91.0546 86.6089 90.4504 86.6216 90.4504 86.6216ZM92.9637 82.7028C92.979 82.291 93.0144 81.3759 92.5903 81.049C92.4339 80.9262 91.815 80.2574 91.815 80.2574C91.7208 80.0953 91.6484 80.0852 91.6484 80.0852C91.5209 80.0732 91.3563 80.3658 91.3563 80.3658C90.9156 81.2051 90.4759 81.1027 90.4759 81.1027C90.4721 80.9497 90.5759 80.7789 90.5759 80.7789C90.7886 80.3712 90.9993 79.9624 91.208 79.5527C91.2723 79.407 91.3314 79.2131 91.3314 79.2131C91.7569 78.5624 92.1578 79.0577 92.1578 79.0577C92.3366 79.4023 93.2905 80.5252 93.2905 80.5252C93.502 80.7735 93.5224 81.0403 93.5224 81.0403C93.7434 82.5783 92.9637 82.7028 92.9637 82.7028ZM84.1784 73.4186C84.0482 73.1874 84.1019 72.9515 84.2328 72.7267C84.528 72.2804 84.8038 72.7673 84.8038 72.7673C85.8229 74.1693 85.0704 76.2684 85.0704 76.2684C84.9657 74.3365 84.1784 73.4186 84.1784 73.4186ZM138.897 79.647C138.897 79.647 139.084 81.4272 138.271 82.9961C138.271 82.9961 137.669 83.8384 138.294 84.3793L139.539 85.0934C139.539 85.0934 139.706 85.2162 140.262 85.1746C140.262 85.1746 141.029 84.987 141.285 85.3216C141.285 85.3216 141.508 85.9649 141.787 86.4951C141.787 86.4951 142.355 87.7804 143.293 88.1922C143.293 88.1922 144.04 88.3613 144.266 89.0012C144.266 89.0012 144.508 89.4502 144.99 89.47C144.99 89.47 145.351 89.5828 145.589 90.3744C145.589 90.3744 145.72 90.8865 145.713 91.2791C145.713 91.2791 145.099 91.1996 144.698 91.3426C144.698 91.3426 143.714 91.6688 143.274 90.8687C143.274 90.8687 142.424 89.4321 141.794 89.6482C141.794 89.6482 140.528 90.0664 139.633 89.1543C139.633 89.1543 138.405 87.8297 136.669 88.1022C136.669 88.1022 134.715 88.4928 134.105 88.0479C134.105 88.0479 132.872 87.4119 132.41 87.2542C132.41 87.2542 131.844 87.0901 131.786 86.4787C131.786 86.4787 131.441 85.6186 131.191 85.332L132.123 85.3216C132.123 85.3216 132.967 86.723 134.402 87.1455C134.402 87.1455 135.187 87.4549 136.761 87.2035C136.761 87.2035 139.023 86.6982 141.008 88.8147C141.008 88.8147 141.28 89.2016 141.667 89.0469C141.667 89.0469 140.57 87.2002 138.16 86.7626C138.16 86.7626 137.372 86.5972 136.714 86.7025C136.714 86.7025 133.469 86.7965 131.963 83.6437C131.963 83.6437 132.127 80.9557 131.408 80.3191C131.408 80.3191 131.132 80.2353 131.186 80.7551C131.186 80.7551 131.679 83.5709 130.753 84.1162C130.753 84.1162 130.214 84.5337 129.218 84.3793C129.218 84.3793 127.709 84.0233 126.482 84.2307C126.482 84.2307 124.594 84.6726 122.972 84.4682C122.972 84.4682 123.393 83.832 123.311 83.0712C123.311 83.0712 123.078 82.5266 122.812 82.8769C122.812 82.8769 122.188 84.9112 120.482 85.5216C120.482 85.5216 118.959 86.069 118.984 87.9754C118.984 87.9754 119.218 88.2368 121.238 88.9449C121.238 88.9449 121.993 89.1801 122.236 88.6237C122.236 88.6237 123.209 86.5666 124.057 86.63L125.649 86.7576C125.649 86.7576 126.192 86.8948 125.792 87.3244C125.792 87.3244 125.247 88.0395 125.024 88.4663C125.024 88.4663 124.96 88.8311 124.447 88.7536C124.447 88.7536 123.737 88.4063 123.336 89.7103C123.336 89.7103 122.97 90.3623 122.349 90.5707C122.349 90.5707 121.768 90.762 121.224 90.4603C121.224 90.4603 118.595 89.508 118.137 89.1704C118.137 89.1704 117.569 88.8563 117.118 89.0073C117.118 89.0073 116.33 89.1929 116.005 88.5787L115.191 87.3348C115.191 87.3348 115.011 87.0284 115.036 86.6435C115.036 86.6435 114.962 86.2622 115.288 85.8747C115.288 85.8747 115.596 85.5535 115.645 85.3209L116.226 83.9739C116.226 83.9739 116.461 83.6142 116.719 83.4662L117.495 83.5222C117.495 83.5222 116.961 84.8679 116.57 85.4163C116.57 85.4163 116.041 86.2143 116.068 86.7217C116.068 86.7217 116.103 87.0774 116.245 87.2257C116.245 87.2257 116.424 87.5082 116.496 87.6455C116.496 87.6455 116.73 88.1489 116.922 88.2606C116.922 88.2606 117.251 88.4532 117.332 88.461C117.332 88.461 117.476 88.5002 117.368 88.2465C117.368 88.2465 116.935 87.3441 116.962 86.8616C116.962 86.8616 116.879 86.3589 117.238 86.0646C117.238 86.0646 118.084 84.7488 118.205 84.3555C118.205 84.3555 118.469 83.8293 118.611 83.739C118.611 83.739 118.906 83.3561 118.43 83.1769C118.43 83.1769 117.243 82.9125 117.031 82.7689C117.031 82.7689 116.46 82.5984 116.089 81.4255C116.089 81.4255 115.579 80.0577 115.586 79.2134C115.586 79.2134 114.586 81.1168 116.181 83.0524C116.181 83.0524 114.919 83.4199 114.397 83.0524C114.397 83.0524 112.824 82.8256 112.519 82.743C112.519 82.743 112.125 82.6487 112.35 82.9256C112.35 82.9256 112.824 83.5914 112.865 84.0276C112.865 84.0276 112.895 84.3749 113.184 84.5783C113.184 84.5783 114.078 85.1961 114.156 85.7877C114.156 85.7877 114.347 86.3572 113.952 86.221C113.952 86.221 113.417 85.9763 113.228 86.2226C113.228 86.2226 113.173 86.2485 113.379 86.477C113.379 86.477 113.916 86.9381 113.956 87.5569C113.956 87.5569 113.857 88.271 113.666 88.5006C113.666 88.5006 113.425 88.8314 113.043 88.7264C113.043 88.7264 112.942 88.6455 112.758 88.6999C112.758 88.6999 112.569 88.6992 112.075 88.5308C112.075 88.5308 111.327 88.3277 111.077 88.2405C111.077 88.2405 110.124 87.9042 109.654 87.9277C109.654 87.9277 109.348 87.8945 108.958 87.9713C108.958 87.9713 107.766 88.1049 106.972 87.2388C106.972 87.2388 106.368 86.7659 106.164 87.225C106.164 87.225 104.714 89.1445 102.367 88.6388C102.367 88.6388 104.235 87.8811 104.719 86.8492C104.719 86.8492 104.783 85.973 105.761 84.7562C105.761 84.7562 106.059 84.3525 105.771 84.2474C105.771 84.2474 105.604 84.1243 105.24 84.485C105.24 84.485 104.312 85.3646 103.976 86.1696C103.976 86.1696 102.821 87.8901 101.159 87.3119C101.159 87.3119 102.464 86.8149 103.077 85.8881C103.077 85.8881 103.456 84.6337 104.732 83.7004C104.732 83.7004 104.782 82.2907 105.376 81.4984C105.376 81.4984 105.68 80.1745 105.761 79.8651C105.761 79.8651 106.081 78.7023 106.079 78.3812C106.079 78.3812 105.973 76.8624 106.965 75.6801C106.965 75.6801 107.63 74.4153 108.666 73.5341C108.666 73.5341 109.453 72.5747 110.038 71.9871C110.038 71.9871 110.808 71.0964 112.486 69.9343C112.486 69.9343 113.246 69.389 113.802 68.8028C113.802 68.8028 116.763 66.6997 118.903 68.3866C118.903 68.3866 120.38 69.3783 121.614 69.6853C121.614 69.6853 124.149 69.9766 125.229 71.7132C125.229 71.7132 125.322 72.034 126.344 72.1562C126.344 72.1562 128.588 71.8887 130.241 74.0673C130.241 74.0673 131.009 74.8069 132.53 74.9868C132.53 74.9868 135.007 74.7365 136.621 76.612C136.621 76.612 140.694 80.1178 143.123 77.8443C143.123 77.8443 144.38 76.6687 142.942 74.5401C142.942 74.5401 142.03 73.4535 140.474 72.3183C140.474 72.3183 139.21 71.4404 139.79 70.0756C139.79 70.0756 140.095 68.7568 141.988 68.7219C141.988 68.7219 144.362 68.2692 145.322 67.0859C145.322 67.0859 146.395 70.8125 142.186 70.7505C142.186 70.7505 141.089 70.9105 141.473 71.7696C141.473 71.7696 142.01 72.5045 142.732 72.772C142.732 72.772 144.001 73.32 144.575 75.1442C144.575 75.1442 145.858 78.3376 142.728 79.5701C141.526 79.9805 140.136 79.8597 138.897 79.647ZM144.92 87.172C144.75 87.0321 144.501 86.9532 144.281 87.0042C143.783 87.1099 144.084 87.5354 144.084 87.5354C144.286 87.9076 144.944 88.5355 144.944 88.5355C145.53 88.968 145.993 88.4529 145.993 88.4529C146.426 88.0311 145.861 87.827 145.861 87.827C145.534 87.6955 144.92 87.172 144.92 87.172ZM146.174 89.168C146.174 89.168 145.993 89.3006 146.089 89.5623C146.089 89.5623 146.554 90.8171 146.532 91.2382C146.532 91.2382 147.561 91.4194 147.702 90.9187C147.702 90.9187 147.73 90.7254 147.563 90.4452C147.563 90.4452 147.388 90.1838 147.343 89.7056C147.343 89.7056 147.359 88.5022 146.569 88.821C146.412 88.9076 146.288 89.0335 146.174 89.168ZM109.941 86.6216C110.122 86.6173 110.169 86.5519 110.147 86.3552C110.025 85.8085 109.581 85.5726 109.581 85.5726C108.748 85.0813 108.647 85.5733 108.647 85.5733C108.495 86.4508 109.197 86.5612 109.197 86.5612C109.338 86.6089 109.941 86.6216 109.941 86.6216ZM107.429 82.7028C107.413 82.291 107.377 81.3759 107.802 81.049C107.959 80.9262 108.577 80.2574 108.577 80.2574C108.671 80.0953 108.744 80.0852 108.744 80.0852C108.871 80.0732 109.036 80.3658 109.036 80.3658C109.476 81.2051 109.917 81.1027 109.917 81.1027C109.92 80.9497 109.816 80.7789 109.816 80.7789C109.603 80.3712 109.392 79.9624 109.184 79.5527C109.137 79.4415 109.096 79.3281 109.06 79.2131C108.635 78.5624 108.234 79.0577 108.234 79.0577C108.056 79.4023 107.102 80.5252 107.102 80.5252C106.976 80.6713 106.895 80.8501 106.869 81.0403C106.649 82.5783 107.429 82.7028 107.429 82.7028ZM116.213 73.4186C116.344 73.1874 116.29 72.9515 116.159 72.7267C115.864 72.2804 115.589 72.7673 115.589 72.7673C114.569 74.1693 115.322 76.2684 115.322 76.2684C115.426 74.3365 116.213 73.4186 116.213 73.4186Z" fill="white"/>
<path d="M41.0156 102.474V128.194H46.2745V107.383H48.7522C48.7522 107.383 52.6199 107.211 52.6199 110.686C52.6199 114.16 49.1861 114.074 49.1861 114.074H47.9255V119.994L53.1854 128.194H59.3564L52.0116 117.678C52.0116 117.678 58.053 117.163 58.053 110.686C58.053 104.21 53.4891 102.475 47.4049 102.475L41.0156 102.474ZM117.904 114.504C117.904 114.504 120.207 112.736 120.207 109.386C120.207 106.035 117.74 103.013 112.487 103.013H103.691V128.194H114.526C114.526 128.194 122.291 128.107 122.291 121.182C122.292 117.161 120.71 115.622 117.904 114.504ZM113.666 123.811H108.95V107.404H111.471C111.471 107.404 114.896 107.15 114.896 110.099C114.896 113.048 112.171 112.787 112.171 112.787H110.602V117.208H113.665C114.467 117.208 117.025 117.592 117.025 120.497C117.025 123.401 113.666 123.811 113.666 123.811ZM151.066 101.969H155.978V128.194H151.066V101.969ZM142.613 101.969H147.59V128.194H142.613V101.969ZM123.772 112.831H128.813V121.623C128.813 121.623 128.988 124.584 131.812 124.584C134.636 124.584 134.594 121.623 134.594 121.623V112.873H139.679V121.925C139.679 121.925 140.331 129.002 131.942 129.002C123.554 129.002 123.772 122.782 123.772 121.667V112.831ZM90.3481 101.969V113.861C90.3481 113.861 87.914 112.017 85.1307 112.017C82.3501 112.017 77.656 113.947 77.656 120.037C77.656 126.127 81.655 128.445 85.0882 128.445C88.5224 128.445 90.4349 126.214 90.4349 126.214V128.195H95.3887V101.969L90.3481 101.969ZM86.5225 124.154C86.2614 124.154 83.0016 124.197 83.0016 120.251C83.0016 116.305 86.5654 116.176 86.5654 116.176C86.5654 116.176 90.5648 116.305 90.5648 120.165C90.5648 124.026 86.783 124.154 86.5225 124.154ZM67.7458 112.016C76.1778 112.016 75.8299 120.123 75.8299 120.123V121.409H64.3994C64.3994 123.253 65.9636 124.84 68.0937 124.84C70.2231 124.84 71.3099 122.825 71.3099 122.825L75.3515 124.797C73.4829 127.586 70.9621 128.7 68.1372 128.7C59.3571 128.7 59.1833 121.495 59.1833 120.595C59.1833 119.693 59.3146 112.016 67.7458 112.016ZM64.4857 118.449H70.7454C70.7454 118.449 70.4846 115.534 67.6595 115.534C64.8343 115.533 64.4857 118.449 64.4857 118.449Z" fill="white"/>
</g>
<defs>
<clipPath id="clip0_121_206">
<rect width="115" height="69" fill="white" transform="translate(41 60)"/>
</clipPath>
</defs>
</svg>
