<svg width="200" height="200" viewBox="0 0 200 200" fill="none" xmlns="http://www.w3.org/2000/svg">
<path d="M93.4166 84.5059C93.4166 84.0973 93.3294 83.9141 92.7679 83.9141H92.7067C91.8652 83.9313 90.3734 83.9689 89.5273 83.9971V92.3757C89.5273 92.3757 91.7734 90.0364 92.7067 89.0703H92.7036C93.1932 88.6303 93.4564 87.9836 93.4166 87.3197V84.5059Z" fill="white"/>
<path d="M129.281 85.1211C128.439 85.049 126.928 84.9175 126.071 84.8517H126.034C125.829 84.8455 125.658 85.0099 125.648 85.2181V98.5746C125.667 98.811 125.85 99.0005 126.081 99.0208C126.928 99.0897 128.439 99.2118 129.294 99.287H129.342C129.44 99.2839 129.533 99.2447 129.605 99.1758C129.675 99.1116 129.715 99.0192 129.717 98.9237L129.72 85.5736C129.698 85.334 129.513 85.1445 129.281 85.1195V85.1211Z" fill="white"/>
<path d="M23.0039 81.9052V118.002C73.344 106.132 125.664 106.132 176.004 118.002V81.9052C125.664 70.0316 73.344 70.0316 23.0039 81.9052ZM47.158 90.3496C45.8499 90.5548 44.5448 90.7724 43.2412 91.0042V89.122C43.229 88.9404 43.0806 88.7995 42.9031 88.7995H42.8358L40.0053 89.3052C39.7681 89.3569 39.5937 89.5636 39.5753 89.811V93.7537C39.5753 94.2141 39.6809 94.3002 39.9135 94.3002C39.9624 94.3033 40.0099 94.3033 40.0588 94.3002C40.0588 94.3002 43.2106 93.7537 44.5631 93.5251C44.6748 93.5095 44.788 93.5001 44.9013 93.4969C45.4215 93.4844 45.9279 93.6551 46.3379 93.9808C46.8979 94.4975 47.1901 95.2506 47.1289 96.0195V102.99C47.132 103.8 46.8719 104.586 46.3884 105.226C45.9753 105.792 45.374 106.183 44.6978 106.324C42.1717 106.747 40.8529 106.979 38.2718 107.473C38.1433 107.498 38.0132 107.511 37.8832 107.511C37.363 107.509 36.8626 107.304 36.4832 106.939C35.9584 106.399 35.6769 105.659 35.709 104.898V101.976L39.5646 101.256V102.862C39.5646 103.385 39.635 103.477 39.8752 103.477C39.9456 103.477 42.6996 102.972 42.7394 102.972C43.0637 102.889 43.2121 102.781 43.2121 102.165V98.174C43.2121 97.6416 42.874 97.6416 42.7654 97.6416H42.617L38.2641 98.4073C38.1142 98.4355 37.9627 98.4496 37.8112 98.4527C37.2819 98.4621 36.7693 98.2601 36.3838 97.889C35.9401 97.4287 35.6968 96.8055 35.7075 96.1588V89.2739C35.7014 87.6251 36.8519 86.2096 38.437 85.9168C40.3847 85.5504 42.3676 85.2044 44.3489 84.8583C44.4928 84.8364 44.6396 84.8239 44.785 84.8207C45.3649 84.802 45.931 85.0071 46.3716 85.3954C46.901 85.9137 47.1871 86.6402 47.1565 87.3887V90.3512L47.158 90.3496ZM71.5615 102.928C70.3467 103.031 69.1319 103.147 67.9186 103.274L67.712 103.294L65.5517 90.4091L63.3867 103.745L63.2169 103.762C62.0067 103.896 60.7949 104.038 59.5847 104.188L59.372 104.212L57.2147 91.3846L55.0605 104.772L54.8952 104.796C53.6865 104.962 52.4778 105.134 51.2691 105.311L50.9585 105.356L51.0289 105.024C52.4105 97.7904 53.7967 90.5642 55.1859 83.3442L55.2165 83.1813L55.3756 83.161C56.5859 82.9966 57.7976 82.84 59.0079 82.6897L59.2175 82.6662L61.3778 95.3759L63.5382 82.162L63.708 82.1448C64.9213 82.0132 66.1346 81.8864 67.3464 81.7643L67.5453 81.7439L71.8094 102.909L71.5585 102.929L71.5615 102.928ZM79.9627 102.339H79.7531C78.5567 102.413 77.3572 102.493 76.1576 102.579H75.9174V81.0283H76.124C77.3235 80.9406 78.5245 80.8608 79.7256 80.7888H79.9627V102.338V102.339ZM98.7435 101.716C97.4155 101.717 96.0752 101.732 94.7227 101.753H94.5712L94.513 101.608C93.6287 99.3374 92.7459 97.0717 91.8646 94.8106L89.5482 96.9777V101.882H89.3325C88.1314 101.919 86.9288 101.963 85.7278 102.017H85.4937V80.4646H85.7064C88.8444 80.33 91.3414 80.247 94.4014 80.2016C96.4944 80.2016 97.4445 81.7204 97.4445 83.1328V87.6909C97.4445 89.1925 97.1202 89.5605 96.4669 90.287L94.8374 91.9108C96.2098 95.0596 97.5807 98.2194 98.95 101.387L99.0816 101.716H98.7435ZM116.384 102.076L116.164 102.096C114.787 102.029 113.409 101.971 112.032 101.923H111.88L111.83 101.777C110.333 97.5195 108.831 93.2746 107.325 89.0406V101.785H107.099C105.971 101.761 104.844 101.743 103.718 101.73H103.497V80.1734H103.724C105.076 80.1891 106.429 80.2125 107.783 80.2423H107.934L107.985 80.3879C109.502 84.6454 111.028 88.9107 112.561 93.1838V80.3785H112.79C113.918 80.4224 115.046 80.4709 116.172 80.5241H116.384V102.076ZM133.744 100.394C133.768 101.126 133.51 101.838 133.023 102.374C132.52 102.886 131.831 103.161 131.123 103.139H130.785C128.234 102.897 126.949 102.787 124.443 102.607C124.429 102.607 124.414 102.607 124.4 102.607C122.807 102.543 121.568 101.171 121.629 99.541V83.8484C121.629 82.1761 122.708 81.0518 124.314 81.0518H124.379C126.611 81.2147 128.826 81.401 131.007 81.6061L131.01 81.603C132.592 81.7189 133.799 83.0968 133.742 84.7174V100.396L133.744 100.394ZM148.901 87.4638L148.644 87.4263C146.747 87.146 144.833 86.8798 142.945 86.634V91.6978C144.397 91.8873 145.848 92.0861 147.298 92.2928L147.491 92.321V96.0242L147.237 95.9897C145.805 95.7846 144.374 95.5889 142.945 95.4041V104.503L142.691 104.455C141.502 104.299 140.314 104.152 139.123 104.011L138.927 103.988V82.4344L139.178 82.4658C142.347 82.84 145.554 83.269 148.709 83.7325L148.901 83.7607V87.4638ZM163.282 89.9253L163.019 89.8736C161.2 89.5276 159.299 89.1815 157.361 88.8355V93.8884C158.808 94.1405 160.254 94.402 161.7 94.6744L161.882 94.7089V98.423L161.619 98.3744C160.201 98.1067 158.781 97.8499 157.361 97.6025V106.687L157.11 106.642C155.926 106.434 154.741 106.235 153.556 106.044L153.369 106.013V84.4528L153.629 84.4951C156.767 85.0071 159.96 85.5755 163.098 86.1799L163.28 86.2143V89.9253H163.282Z" fill="white"/>
</svg>
