<svg width="200" height="200" viewBox="0 0 200 200" fill="none" xmlns="http://www.w3.org/2000/svg">
<path d="M35.9079 71.0007C51.732 70.8888 64.84 83.9672 64.8178 100.055C64.7955 115.739 51.9993 129.3 35.3205 128.995C19.7456 128.71 6.99797 115.939 7 99.9651C7.00203 83.7962 20.1952 70.8888 35.9079 71.0007ZM31.6891 86.1665C31.687 86.2011 31.685 86.2357 31.683 86.2703C28.9184 86.2316 26.1598 86.3802 23.4378 86.8644C21.542 87.2021 19.6524 87.6192 17.7911 88.1136C16.3065 88.5084 15.5348 90.0587 15.9602 91.489C16.4037 92.9804 17.8883 93.8247 19.383 93.3771C23.2636 92.2154 27.2515 91.8491 31.2718 91.7698C32.5802 91.7433 33.8947 91.8125 35.201 91.9224C36.9428 92.0689 38.6887 92.2337 40.4163 92.5002C44.8964 93.1899 49.1881 94.4758 53.1295 96.7932C53.7371 97.1492 54.4054 97.1818 55.0596 97.0333C56.2627 96.7627 57.0384 95.8756 57.1619 94.5124C57.2612 93.4219 56.7751 92.5287 55.8191 91.9773C54.8368 91.4137 53.8363 90.8705 52.8074 90.3985C48.2321 88.3008 43.3936 87.1737 38.4193 86.6284C36.1874 86.3842 33.9352 86.3151 31.6911 86.1665H31.6891ZM30.725 96.2459C30.2268 96.2683 29.366 96.2642 28.5174 96.3558C26.6561 96.5531 24.7907 96.7505 22.9416 97.0455C21.7891 97.2306 20.657 97.5663 19.5288 97.8837C18.2569 98.2439 17.5602 99.4748 17.8843 100.689C18.2488 102.049 19.5126 102.718 20.9466 102.287C23.6444 101.475 26.409 101.066 29.2121 100.936C30.6176 100.871 32.0313 100.921 33.4369 101.005C34.8243 101.088 36.2178 101.212 37.5869 101.44C41.8563 102.152 45.9192 103.469 49.6539 105.725C50.0327 105.953 50.5512 106.069 50.9927 106.042C52.0297 105.979 52.85 105.218 53.0545 104.278C53.2793 103.247 52.8803 102.272 51.9325 101.731C50.8408 101.109 49.7431 100.48 48.6028 99.957C43.0432 97.4056 37.1737 96.2907 30.725 96.2459ZM31.4339 105.751C31.4298 105.713 31.4258 105.674 31.4217 105.636C29.3072 105.821 27.1867 105.945 25.0824 106.211C23.5006 106.411 21.935 106.763 20.3754 107.104C19.3729 107.324 18.82 108.352 19.0711 109.361C19.304 110.297 20.2924 110.909 21.2504 110.691C23.9016 110.085 26.5831 109.65 29.2971 109.515C31.7377 109.395 34.1843 109.448 36.6086 109.841C40.1753 110.417 43.5354 111.568 46.6341 113.459C47.5638 114.024 48.7081 113.751 49.2388 112.856C49.7795 111.943 49.5 110.812 48.5339 110.276C47.3268 109.607 46.1177 108.925 44.8539 108.374C40.5783 106.504 36.0821 105.715 31.4318 105.756L31.4339 105.751Z" fill="white"/>
<path d="M183.026 107.21C183.141 106.915 183.214 106.742 183.275 106.567C184.762 102.305 186.252 98.0445 187.727 93.778C187.856 93.4036 188.045 93.247 188.444 93.251C189.77 93.2673 191.099 93.2572 192.428 93.2572C193.013 93.2572 193.12 93.4158 192.91 93.9672C190.542 100.106 188.18 106.246 185.795 112.378C185.288 113.68 184.752 114.978 184.108 116.215C183.289 117.786 182.06 118.946 180.257 119.308C178.035 119.756 175.925 119.381 173.924 118.331C173.659 118.193 173.618 118.018 173.742 117.754C174.208 116.749 174.667 115.739 175.115 114.726C175.255 114.411 175.427 114.384 175.737 114.498C176.381 114.736 177.031 114.978 177.699 115.115C178.906 115.359 180.271 114.411 180.492 113.227C180.519 113.082 180.44 112.905 180.379 112.757C178.754 108.84 177.126 104.928 175.498 101.013C175.089 100.028 174.669 99.0476 174.278 98.0547C174.161 97.7577 173.989 97.6742 173.685 97.6783C172.565 97.6946 171.445 97.7027 170.325 97.6763C169.924 97.6661 169.845 97.8146 169.847 98.1809C169.857 103.054 169.853 107.924 169.853 112.797C169.853 113.414 169.839 113.428 169.223 113.428C167.951 113.428 166.677 113.428 165.405 113.428C164.883 113.428 164.844 113.391 164.844 112.854C164.844 108.024 164.844 103.194 164.844 98.364C164.844 97.9136 164.617 97.6885 164.162 97.6885C163.706 97.6885 163.248 97.6803 162.793 97.6905C162.499 97.6966 162.361 97.5827 162.363 97.2755C162.371 96.0669 162.369 94.8604 162.363 93.6519C162.363 93.367 162.495 93.2531 162.768 93.2551C163.307 93.2612 163.848 93.2388 164.387 93.2612C164.733 93.2755 164.852 93.1391 164.844 92.8014C164.814 91.5929 164.863 90.3925 165.264 89.2307C165.97 87.1839 167.421 86.0323 169.519 85.6803C171.204 85.3975 172.867 85.5583 174.513 85.9937C174.872 86.0893 175.008 86.2561 174.999 86.6305C174.979 87.7271 174.995 88.8238 174.991 89.9204C174.991 90.3823 174.872 90.4738 174.438 90.3355C173.604 90.071 172.757 89.9082 171.874 89.9367C170.831 89.9713 170.141 90.4779 169.908 91.4972C169.806 91.9367 169.817 92.4026 169.766 92.8543C169.727 93.1961 169.892 93.2694 170.203 93.2673C172.486 93.2572 174.769 93.2714 177.049 93.2531C177.487 93.249 177.718 93.3853 177.878 93.8106C179.504 98.1117 181.15 102.405 182.791 106.702C182.842 106.836 182.906 106.964 183.02 107.214L183.026 107.21Z" fill="white"/>
<path d="M101.134 95.8531C101.727 95.3159 102.195 94.8439 102.714 94.4329C103.848 93.5357 105.146 93.0474 106.59 92.9049C111.441 92.4288 115.627 95.731 116.571 100.596C117.116 103.397 116.972 106.156 115.648 108.738C114.143 111.67 111.737 113.377 108.45 113.761C105.77 114.075 103.459 113.292 101.557 111.346C101.462 111.249 101.357 111.163 101.175 110.999C101.156 111.241 101.136 111.393 101.134 111.546C101.132 113.947 101.134 116.349 101.134 118.75C101.134 119.308 101.098 119.346 100.547 119.346C99.2748 119.348 98.0008 119.346 96.7289 119.346C96.1314 119.346 96.1253 119.34 96.1253 118.742C96.1253 111.426 96.1253 104.111 96.1253 96.7951C96.1253 95.7818 96.1355 94.7686 96.1213 93.7554C96.1152 93.379 96.255 93.2386 96.6337 93.2447C97.9623 93.261 99.2889 93.2569 100.618 93.2447C100.988 93.2427 101.146 93.3892 101.138 93.7635C101.124 94.4227 101.134 95.0819 101.134 95.847V95.8531ZM101.037 103.643C100.988 104.5 101.26 105.58 101.819 106.577C102.837 108.392 104.403 109.389 106.477 109.377C108.593 109.365 110.195 108.354 111.083 106.411C112.059 104.274 112.026 102.103 110.925 100.012C109.333 96.9884 105.513 96.5611 103.21 98.4431C101.669 99.7005 101.031 101.389 101.035 103.648L101.037 103.643Z" fill="white"/>
<path d="M84.6988 113.858C80.6076 113.781 77.043 112.4 73.9503 109.755C73.5715 109.431 73.5675 109.364 73.8875 108.981C74.651 108.066 75.4146 107.152 76.1822 106.241C76.6318 105.706 76.644 105.71 77.1929 106.172C78.5742 107.327 80.0689 108.284 81.8188 108.782C83.3965 109.234 85.0026 109.354 86.6047 108.983C87.8766 108.69 88.8792 108.017 89.1202 106.603C89.2923 105.596 89.027 104.729 88.1683 104.111C87.1839 103.401 86.0295 103.097 84.8872 102.77C83.2304 102.294 81.5616 101.86 79.923 101.331C79.1818 101.091 78.4729 100.709 77.8005 100.306C75.9999 99.2256 74.963 97.6122 74.7503 95.5165C74.5397 93.4372 74.8759 91.4779 76.2045 89.7831C77.5048 88.1269 79.2405 87.1483 81.2679 86.778C85.6406 85.9804 89.6184 86.9509 93.1689 89.661C93.499 89.9133 93.5253 90.1127 93.2823 90.4443C92.5775 91.4046 91.901 92.3853 91.2103 93.3578C90.8336 93.8889 90.8215 93.8889 90.3091 93.5226C88.8913 92.5074 87.3763 91.6976 85.6568 91.3273C84.3424 91.0445 83.0299 90.9692 81.7418 91.4494C80.1985 92.0231 79.5018 93.2968 79.8927 94.7902C80.083 95.5165 80.5712 96.0252 81.2233 96.2978C82.3028 96.7474 83.4026 97.1686 84.5246 97.488C86.2219 97.9723 87.9536 98.3365 89.5759 99.0669C90.7708 99.606 91.8807 100.269 92.7577 101.27C93.7299 102.381 94.1633 103.7 94.2443 105.15C94.3436 106.955 94.0053 108.658 92.9643 110.168C91.662 112.056 89.7885 113.051 87.6072 113.496C86.6533 113.691 85.671 113.742 84.7009 113.858H84.6988Z" fill="white"/>
<path d="M128.884 113.901C124.526 113.701 121.081 111.807 119.242 107.632C116.558 101.539 120.026 94.4299 126.831 93.0992C130.873 92.3078 134.383 93.4065 137.182 96.4909C138.626 98.082 139.408 99.9945 139.657 102.139C140.303 107.716 136.585 112.77 130.807 113.74C130.211 113.84 129.599 113.844 128.882 113.903L128.884 113.901ZM129.648 109.417C130.748 109.398 132.222 108.837 133.29 107.496C134.932 105.433 135.139 103.118 134.132 100.731C133.28 98.7127 131.665 97.5753 129.498 97.378C127.461 97.1928 125.735 97.909 124.52 99.612C123.507 101.03 123.252 102.635 123.452 104.357C123.787 107.221 126.183 109.415 129.65 109.417H129.648Z" fill="white"/>
<path d="M142.687 103.438C142.687 101.717 142.687 99.9954 142.687 98.2742C142.687 97.6862 142.685 97.6862 142.085 97.6862C141.615 97.6862 141.143 97.674 140.673 97.6903C140.341 97.7004 140.191 97.5763 140.195 97.2325C140.203 96.0667 140.206 94.9008 140.195 93.735C140.193 93.3688 140.357 93.2467 140.704 93.2569C141.214 93.2732 141.729 93.2426 142.239 93.2671C142.591 93.2833 142.695 93.145 142.693 92.8093C142.683 91.3647 142.687 89.9222 142.689 88.4776C142.689 87.9263 142.701 87.9141 143.244 87.9141C144.53 87.9141 145.816 87.9141 147.102 87.9141C147.683 87.9141 147.693 87.9263 147.693 88.5326C147.693 89.9629 147.703 91.3932 147.687 92.8215C147.683 93.1714 147.801 93.2691 148.139 93.2671C149.55 93.2508 150.96 93.2589 152.372 93.261C152.88 93.261 152.925 93.3057 152.927 93.8022C152.929 94.8988 152.927 95.9954 152.927 97.0921C152.927 97.6679 152.909 97.6862 152.352 97.6862C150.94 97.6862 149.53 97.6943 148.119 97.6801C147.797 97.676 147.687 97.7696 147.689 98.1033C147.701 101.143 147.689 104.183 147.699 107.224C147.703 108.498 148.4 109.147 149.664 109.178C150.61 109.2 151.501 109.029 152.354 108.62C152.698 108.455 152.85 108.553 152.852 108.939C152.86 110.077 152.87 111.216 152.84 112.354C152.836 112.522 152.653 112.746 152.493 112.842C151.535 113.407 150.47 113.662 149.378 113.745C148.246 113.831 147.114 113.772 146.022 113.401C144.078 112.744 143.106 111.3 142.796 109.344C142.707 108.787 142.699 108.213 142.693 107.645C142.678 106.244 142.689 104.842 142.689 103.44L142.687 103.438Z" fill="white"/>
<path d="M155.149 103.293C155.149 100.143 155.149 96.9937 155.149 93.8462C155.149 93.2887 155.181 93.2562 155.738 93.2562C157.038 93.2562 158.337 93.2643 159.637 93.2501C160.009 93.246 160.153 93.3783 160.153 93.7587C160.147 100.153 160.147 106.55 160.153 112.945C160.153 113.311 160.011 113.431 159.659 113.427C158.318 113.415 156.978 113.411 155.637 113.427C155.244 113.431 155.143 113.268 155.145 112.904C155.155 109.7 155.151 106.495 155.151 103.291L155.149 103.293Z" fill="white"/>
<path d="M160.81 87.4913C160.81 89.2715 159.43 90.6835 157.684 90.6856C155.941 90.6896 154.503 89.2715 154.488 87.536C154.474 85.8046 155.914 84.3458 157.642 84.3438C159.412 84.3438 160.81 85.7293 160.81 87.4892V87.4913Z" fill="white"/>
</svg>
