<svg width="200" height="200" viewBox="0 0 200 200" fill="none" xmlns="http://www.w3.org/2000/svg">
<mask id="mask0_121_193" style="mask-type:alpha" maskUnits="userSpaceOnUse" x="0" y="0" width="200" height="200">
<rect opacity="0.5" x="0.5" y="0.5" width="199" height="199" stroke="white"/>
</mask>
<g mask="url(#mask0_121_193)">
</g>
<g clip-path="url(#clip0_121_193)">
<path d="M192.999 112.663C192.784 113.5 192.603 114.348 192.35 115.174C190.984 119.619 186.919 122.859 182.314 123.214C181.807 123.254 181.526 123.179 181.544 122.566C181.578 121.247 181.566 119.927 181.547 118.606C181.541 118.153 181.689 117.986 182.155 117.901C185.651 117.262 187.688 114.775 187.689 111.201C187.693 105.341 187.7 99.4802 187.705 93.6196C187.705 93.3596 187.705 93.0997 187.705 92.6875H192.999V112.661V112.663Z" fill="white"/>
<path d="M4.00157 95.0698C4.54338 94.0631 5.40018 93.8095 6.49638 93.838C11.4009 93.9712 16.3055 94.0552 21.2116 94.1361C21.7707 94.1456 22.0196 94.32 22.0369 94.9033C22.0511 95.4486 22.1597 95.9924 22.2353 96.6138C21.8904 96.6613 21.5896 96.7295 21.2856 96.739C16.9591 96.8753 12.6326 97.0037 8.30605 97.1369C7.7296 97.1543 7.15 97.1639 6.57828 97.2304C5.4616 97.362 4.567 97.0561 4 96.0209V95.0698H4.00157Z" fill="white"/>
<path d="M192.999 90.9501C191.508 90.9263 190.014 90.8676 188.523 90.8962C187.849 90.9089 187.672 90.6742 187.693 90.0306C187.735 88.7387 187.724 87.4435 187.696 86.15C187.683 85.5952 187.821 85.3257 188.438 85.3447C189.958 85.3922 191.478 85.3859 192.999 85.4018V90.9501Z" fill="white"/>
<path d="M47.6427 83.662C47.8584 83.8316 48.1026 83.9743 48.2853 84.174C49.0759 85.0395 49.9485 85.8512 50.6021 86.815C51.3172 87.8692 51.2195 89.0581 50.3958 90.0552C49.6114 91.0048 48.7294 91.8719 47.8868 92.7723C47.7325 92.9356 47.5592 93.0814 47.4537 93.3683C48.0774 93.2368 48.6964 93.064 49.3279 92.9847C50.2351 92.8706 51.1565 92.7263 52.0621 92.7691C53.9222 92.8579 55.0657 93.8217 55.5886 95.6241C55.8217 96.4278 55.9855 97.2521 56.3304 98.1161C56.4296 97.853 56.532 97.5898 56.6281 97.3251C56.9588 96.4104 57.2061 95.4545 57.6345 94.5874C58.3684 93.102 59.578 92.5107 61.2129 92.7929C62.2319 92.9689 63.2289 93.2748 64.3613 93.5522C64.2227 93.2463 64.1251 93.0449 64.0384 92.8405C63.8321 92.3554 63.5895 91.883 63.4352 91.382C62.8398 89.4592 63.2635 88.5239 65.1047 87.7297C66.2009 87.2557 67.3207 86.8356 68.4138 86.1983C68.0216 86.1809 67.6279 86.1682 67.2357 86.1428C66.5569 86.1 65.867 86.1096 65.2024 85.9875C64.0636 85.7767 63.6793 84.9777 64.3377 84.0171C64.9882 83.0691 65.782 82.2131 66.5789 81.3808C67.2656 80.6643 68.0452 80.0381 68.8327 79.3279C70.4755 80.7864 71.4598 82.481 71.5953 84.6321C71.7292 86.7547 71.0157 88.6364 69.9132 90.3833C67.998 93.4159 65.3315 95.6748 62.3138 97.4963C54.5963 102.154 46.2315 104.343 37.2241 103.875C33.8394 103.699 30.5681 102.991 27.604 101.236C25.8746 100.213 24.4713 98.8754 23.6649 96.8146C24.213 96.775 24.6666 96.7259 25.1202 96.7116C28.0576 96.6181 30.9934 96.5166 33.9307 96.4627C34.293 96.4564 34.7261 96.6402 35.0112 96.8764C35.9798 97.6754 37.139 97.677 37.9816 96.8051C38.8022 95.957 38.7928 94.6524 37.9596 93.8154C37.1437 92.9974 35.8869 93.0243 34.9718 93.8154C34.7088 94.0421 34.3009 94.2212 33.9607 94.2196C30.6028 94.1942 27.2449 94.1102 23.887 94.0817C23.1782 94.0753 23.1971 93.6981 23.2759 93.213C23.6176 91.0967 24.5705 89.2626 25.8967 87.6187C28.6324 84.2263 32.151 81.8707 36.0019 79.9668C36.5673 79.6878 37.1469 79.4389 37.7107 79.1583C38.1139 78.957 38.3612 78.9887 38.5549 79.4643C39.1109 80.8323 39.7267 82.175 40.2796 83.5431C40.3819 83.7951 40.3819 84.1566 40.2843 84.4118C39.8118 85.6609 40.2213 86.8356 41.3521 87.3302C42.4058 87.7915 43.6438 87.3001 44.1226 86.2285C44.6281 85.1014 44.1336 83.9616 42.9067 83.3798C42.7066 83.2847 42.4499 83.1452 42.379 82.9645C41.7569 81.3745 41.171 79.7702 40.5284 78.0439C48.0979 75.5424 55.6547 74.466 63.6069 76.5443C63.2399 77.023 62.9879 77.4082 62.6808 77.7427C61.6665 78.846 60.6884 79.9906 59.5906 81.0035C58.5921 81.923 57.6975 81.7105 57.036 80.5026C56.658 79.8114 56.3839 79.0632 56.0595 78.3419C55.9681 78.139 55.8626 77.944 55.5838 77.7776C55.5634 78.0788 55.546 78.38 55.5193 78.6796C55.4704 79.2566 55.4688 79.8447 55.3539 80.4091C54.7837 83.2308 52.878 84.5227 50.0634 84.0107C49.2775 83.868 48.4995 83.6778 47.7183 83.5082C47.6931 83.5589 47.6663 83.6081 47.6411 83.6588L47.6427 83.662Z" fill="white"/>
<path d="M26.3709 105.387C26.6088 105.614 26.8639 105.825 27.0797 106.069C33.1056 112.867 39.1253 119.667 45.1544 126.462C45.3339 126.663 45.5938 126.791 45.8175 126.955C45.9765 126.704 46.2081 126.474 46.2852 126.2C47.9658 120.208 49.629 114.209 51.2937 108.212C51.3504 108.009 51.4008 107.803 51.4575 107.6C51.7946 106.41 51.9521 106.377 52.8309 107.245C57.3984 111.76 61.9675 116.272 66.546 120.774C66.735 120.959 67.0201 121.045 67.2595 121.178C67.3965 120.907 67.5997 120.65 67.658 120.362C69.5023 111.451 71.334 102.539 73.1658 93.6266C73.1768 93.5743 73.1689 93.5141 73.1957 93.4713C73.3453 93.2287 73.5012 92.9894 73.6556 92.75C73.7737 92.9941 73.9659 93.2287 73.9974 93.484C74.6085 98.5139 75.1944 103.547 75.7976 108.579C76.0386 110.595 76.2386 112.621 76.5772 114.621C77.0607 117.48 76.3 120.014 74.777 122.367C72.3357 126.137 68.8739 128.695 64.8876 130.574C59.972 132.891 54.7902 134.11 49.3502 133.993C45.9608 133.92 42.6848 133.262 39.675 131.572C37.2951 130.236 35.6288 128.326 34.5625 125.775C31.8472 119.28 29.0358 112.829 26.2717 106.354C26.163 106.098 26.152 105.8 26.0938 105.521C26.1851 105.476 26.2764 105.43 26.3678 105.386L26.3709 105.387Z" fill="white"/>
<path d="M124.189 112.904C124.189 110.104 124.182 107.305 124.189 104.505C124.206 97.0324 130.284 91.576 137.644 92.4226C143.314 93.0741 147.878 98.1912 147.925 103.949C147.985 110.987 142.814 116.242 135.81 116.257C133.974 116.26 132.136 116.29 130.301 116.228C129.507 116.201 129.331 116.493 129.35 117.227C129.394 118.942 129.342 120.66 129.37 122.377C129.38 122.965 129.199 123.163 128.606 123.143C127.4 123.102 126.192 123.106 124.985 123.143C124.376 123.162 124.17 122.97 124.176 122.333C124.206 119.191 124.19 116.047 124.189 112.904ZM129.247 107.108C129.287 107.111 129.326 107.114 129.366 107.118C129.366 108.148 129.397 109.178 129.355 110.207C129.328 110.865 129.567 111.09 130.213 111.074C132.363 111.024 134.513 111.014 136.663 110.986C136.845 110.982 137.029 110.963 137.211 110.932C140.49 110.359 142.844 107.446 142.766 104.06C142.692 100.845 140.109 97.9946 136.911 97.5983C133.598 97.1878 130.408 99.285 129.658 102.56C129.323 104.031 129.372 105.591 129.246 107.11L129.247 107.108Z" fill="white"/>
<path d="M162.027 106.79C162.979 108.954 164.414 110.257 166.451 110.807C167.3 111.035 168.213 111.075 169.098 111.094C170.979 111.135 172.861 111.107 174.834 111.107C174.834 112.763 174.846 114.315 174.816 115.866C174.812 116.007 174.537 116.267 174.392 116.263C171.434 116.183 168.418 116.411 165.534 115.891C159.992 114.894 156.221 109.708 156.355 103.889C156.481 98.3804 160.631 93.5471 166.065 92.5769C174.042 91.1534 180.99 97.7606 180.038 105.852C179.956 106.546 179.726 106.819 178.969 106.814C173.746 106.776 168.522 106.793 163.299 106.793C162.94 106.793 162.581 106.793 162.025 106.793L162.027 106.79ZM174.291 101.763C173.628 99.3728 170.837 97.5418 168.056 97.5878C165.493 97.6306 162.715 99.5725 162.17 101.763H174.291Z" fill="white"/>
<path d="M103.151 97.5702C101.487 97.5702 99.9675 97.5702 98.4477 97.5702C97.7211 97.5702 97.3572 97.9258 97.3562 98.6371C97.3562 104.211 97.3452 109.786 97.3704 115.36C97.3735 116.035 97.227 116.301 96.5057 116.265C95.3276 116.206 94.1416 116.209 92.9635 116.265C92.2579 116.298 92.0752 116.049 92.0799 115.361C92.1256 109.841 92.1351 104.32 92.1587 98.7988C92.1618 97.9755 91.767 97.5649 90.9743 97.5671C89.6623 97.5671 88.3488 97.5496 87.0368 97.575C86.5281 97.5845 86.3375 97.4165 86.3501 96.8949C86.3784 95.7329 86.3816 94.5694 86.3485 93.409C86.3312 92.8082 86.5737 92.6275 87.1392 92.6386C88.5299 92.6623 89.9222 92.6243 91.3129 92.6512C91.9256 92.6623 92.1209 92.4341 92.1146 91.8158C92.0957 89.9421 92.1524 88.0668 92.1429 86.1914C92.1398 85.5779 92.3477 85.3402 92.9651 85.356C94.1448 85.3877 95.3276 85.3893 96.5073 85.3528C97.1388 85.3338 97.3877 85.5225 97.3719 86.2025C97.331 88.0779 97.3814 89.9548 97.3452 91.8285C97.3326 92.4579 97.5515 92.6655 98.1563 92.6528C99.547 92.6243 100.939 92.6623 102.33 92.6291C102.921 92.6148 103.182 92.7733 103.162 93.4248C103.119 94.7659 103.149 96.1086 103.149 97.5702H103.151Z" fill="white"/>
<path d="M154.785 100.773C154.785 105.603 154.773 110.433 154.8 115.263C154.804 115.997 154.641 116.308 153.845 116.265C152.642 116.2 151.432 116.233 150.227 116.256C149.752 116.265 149.541 116.092 149.578 115.615C149.589 115.483 149.578 115.352 149.578 115.219C149.571 105.584 149.569 95.9503 149.539 86.3152C149.537 85.6098 149.701 85.3229 150.448 85.3498C151.599 85.391 152.755 85.3625 153.907 85.3007C154.601 85.2626 154.804 85.5052 154.8 86.2011C154.773 91.0583 154.785 95.9154 154.784 100.771L154.785 100.773Z" fill="white"/>
<path d="M102.848 109.385C102.933 107.013 102.835 104.618 103.141 102.277C103.848 96.8473 108.543 92.7748 113.983 92.6258C114.5 92.6115 114.69 92.7828 114.681 93.2995C114.659 94.5138 114.696 95.7297 114.649 96.9424C114.641 97.1469 114.345 97.4861 114.147 97.5147C109.945 98.1234 108.007 100.363 107.979 104.758C107.955 108.269 107.951 111.78 107.99 115.291C107.998 116.073 107.749 116.296 107.003 116.257C105.903 116.2 104.799 116.214 103.698 116.254C103.115 116.274 102.914 116.078 102.92 115.488C102.947 113.456 102.93 111.422 102.93 109.39C102.903 109.39 102.874 109.388 102.848 109.386V109.385Z" fill="white"/>
<path d="M116.801 104.34C116.801 100.721 116.82 97.1039 116.785 93.4848C116.779 92.773 116.996 92.5717 117.683 92.605C118.861 92.6637 120.044 92.651 121.225 92.6304C121.792 92.6209 122.003 92.819 122.002 93.4119C121.986 100.782 121.988 108.15 122.002 115.52C122.002 116.066 121.835 116.269 121.28 116.255C120.047 116.225 118.812 116.209 117.581 116.261C116.924 116.288 116.788 116.03 116.792 115.434C116.812 111.736 116.803 108.039 116.801 104.34Z" fill="white"/>
<path d="M57.6271 89.0176C56.5892 89.0065 55.7592 88.2361 55.6899 87.2184C55.6127 86.085 56.2521 85.1766 57.342 85.1053C58.0571 85.0593 58.4697 84.7248 58.895 84.2239C64.817 77.2362 70.7532 70.258 76.6909 63.283C76.9256 63.0072 77.1933 62.7282 77.5036 62.557C78.1982 62.1733 79.0802 62.3953 79.5606 63.0072C80.0835 63.6714 80.0378 64.6035 79.3826 65.3153C78.0438 66.7658 76.6783 68.1909 75.3238 69.6255C70.2145 75.0407 65.1005 80.4526 60.0085 85.8852C59.799 86.1087 59.6888 86.5241 59.7014 86.8427C59.7518 88.0728 58.8714 89.0303 57.6255 89.0192L57.6271 89.0176Z" fill="white"/>
<path d="M39.945 76.9695C39.2472 77.2422 38.6393 77.4799 37.9983 77.7304C37.9006 77.583 37.7951 77.4688 37.7368 77.3325C34.9191 70.8251 32.1078 64.3146 29.2885 57.8072C28.9404 57.0019 28.8034 56.2267 29.4822 55.5324C30.4115 54.5829 31.7975 54.9459 32.3015 56.2838C33.582 59.6905 34.842 63.1035 36.1098 66.5149C37.3226 69.7773 38.5338 73.0397 39.7434 76.3037C39.8142 76.4971 39.8646 76.6984 39.9465 76.9679L39.945 76.9695Z" fill="white"/>
</g>
<defs>
<clipPath id="clip0_121_193">
<rect width="189" height="79" fill="white" transform="translate(4 55)"/>
</clipPath>
</defs>
</svg>
