<svg width="200" height="200" viewBox="0 0 200 200" fill="none" xmlns="http://www.w3.org/2000/svg">
<g clip-path="url(#clip0_121_208)">
<path d="M38.2039 103.715C38.7334 105.104 39.4664 106.292 40.403 107.279C41.3397 108.265 42.4493 109.02 43.732 109.544C45.0148 110.068 46.4096 110.329 47.9163 110.329C49.3824 110.329 50.7567 110.057 52.0395 109.514C53.3224 108.97 54.4422 108.205 55.3991 107.218C56.356 106.232 57.0993 105.054 57.6287 103.685C58.1581 102.316 58.4228 100.786 58.4228 99.0942V73H64.8366V115.282H58.4839V111.356C57.0586 112.846 55.3787 113.994 53.4444 114.799C51.51 115.604 49.4231 116.007 47.1834 116.007C44.9028 116.007 42.7751 115.614 40.8 114.829C38.825 114.044 37.1146 112.927 35.669 111.477C34.2235 110.027 33.0831 108.286 32.2484 106.252C31.4135 104.218 30.9961 101.953 30.9961 99.4566V73H37.4099V99.0942C37.4099 100.786 37.6745 102.326 38.2039 103.715Z" fill="white"/>
<path d="M75.8921 73V88.4028C77.3173 86.9934 78.9667 85.876 80.8399 85.0504C82.7131 84.2249 84.7493 83.8121 86.9482 83.8121C89.2288 83.8121 91.3665 84.2349 93.362 85.0805C95.3574 85.9262 97.088 87.0738 98.5541 88.5236C100.02 89.9734 101.181 91.6847 102.036 93.6578C102.891 95.6311 103.319 97.7251 103.319 99.9399C103.319 102.155 102.891 104.238 102.036 106.191C101.181 108.145 100.02 109.846 98.5541 111.295C97.088 112.745 95.3574 113.893 93.362 114.739C91.3665 115.584 89.2287 116.007 86.9482 116.007C84.7492 116.007 82.703 115.594 80.8094 114.769C78.9158 113.943 77.2562 112.826 75.831 111.416V115.282H69.7227V73H75.8921ZM76.5945 104.108C77.1442 105.396 77.9079 106.524 78.8852 107.49C79.8626 108.457 81.0028 109.222 82.3059 109.786C83.6091 110.349 85.0139 110.631 86.5207 110.631C87.9868 110.631 89.3713 110.349 90.6743 109.786C91.9774 109.222 93.1074 108.457 94.0646 107.49C95.0215 106.524 95.785 105.396 96.3551 104.108C96.9253 102.819 97.2103 101.43 97.2103 99.9399C97.2103 98.4499 96.9253 97.0505 96.3551 95.7418C95.785 94.433 95.0215 93.2955 94.0646 92.329C93.1075 91.3627 91.9776 90.6075 90.6743 90.064C89.3711 89.5204 87.9867 89.2484 86.5207 89.2484C85.0548 89.2484 83.6702 89.5203 82.3671 90.064C81.064 90.6077 79.9238 91.3627 78.9463 92.329C77.9691 93.2955 77.1953 94.433 76.6252 95.7418C76.0551 97.0505 75.77 98.4499 75.77 99.9399C75.7699 101.43 76.0448 102.819 76.5945 104.108Z" fill="white"/>
<path d="M106.8 93.7205C107.614 91.7876 108.734 90.0863 110.159 88.6165C111.584 87.1467 113.274 85.989 115.229 85.1434C117.184 84.2977 119.301 83.875 121.582 83.875C123.822 83.875 125.898 84.2777 127.812 85.083C129.726 85.8884 131.376 87.0059 132.76 88.4354C134.145 89.8649 135.224 91.5563 135.998 93.5092C136.771 95.4623 137.158 97.5865 137.158 99.8819V101.875H111.808C112.012 103.124 112.419 104.281 113.03 105.348C113.641 106.415 114.405 107.342 115.321 108.127C116.237 108.912 117.275 109.526 118.436 109.969C119.597 110.412 120.828 110.634 122.132 110.634C125.838 110.634 128.831 109.123 131.111 106.103L135.57 109.365C134.023 111.419 132.109 113.03 129.828 114.197C127.548 115.365 124.982 115.949 122.132 115.949C119.811 115.949 117.642 115.546 115.626 114.741C113.611 113.936 111.86 112.808 110.373 111.358C108.887 109.908 107.716 108.207 106.861 106.254C106.006 104.301 105.578 102.177 105.578 99.8816C105.578 97.7072 105.985 95.6535 106.8 93.7205ZM115.382 91.3345C113.651 92.7641 112.501 94.6668 111.931 97.0427H130.928C130.398 94.6668 129.268 92.7641 127.538 91.3345C125.807 89.9051 123.781 89.1903 121.46 89.1903C119.139 89.1903 117.113 89.9051 115.382 91.3345Z" fill="white"/>
<path d="M148.702 92.0264C147.399 93.4358 146.748 95.3486 146.748 97.7648V115.282H140.578V84.4762H146.686V88.2816C147.46 87.0332 148.468 86.0466 149.71 85.3218C150.952 84.5968 152.428 84.2344 154.139 84.2344H156.277V89.9123H153.711C151.675 89.9124 150.005 90.6171 148.702 92.0264Z" fill="white"/>
</g>
<defs>
<clipPath id="clip0_121_208">
<rect width="125.281" height="43.007" fill="white" transform="translate(31 73)"/>
</clipPath>
</defs>
</svg>
