<svg width="494" height="342" viewBox="0 0 494 342" fill="none" xmlns="http://www.w3.org/2000/svg">
<path d="M387.333 251.519L395.091 250.434C434.321 245.343 457.943 232.781 461.58 215.07C465.419 195.954 446.929 174.271 408.123 152.352C370.13 131.323 318.139 113.341 261.709 101.705C204.86 89.9395 149.767 85.9244 106.591 90.4009C62.8462 94.9337 36.5767 107.743 32.6596 126.46L32.6618 126.477C28.8217 145.585 47.312 167.268 86.1268 189.185C124.119 210.214 176.11 228.196 232.532 239.834C289.513 251.608 344.493 255.76 387.333 251.519Z" fill="#D6FD24"/>
<path fill-rule="evenodd" clip-rule="evenodd" d="M387.633 254.033L395.417 252.944C395.421 252.944 395.425 252.943 395.43 252.943C415.201 250.376 431.239 245.906 442.87 239.72C454.492 233.539 462.028 225.459 464.056 215.583L464.059 215.572C466.189 204.961 462.031 193.994 452.767 183.126C443.502 172.258 428.894 161.185 409.366 150.155L409.356 150.15L409.347 150.145C371.072 128.959 318.824 110.906 262.221 99.2336C205.198 87.4323 149.835 83.3802 106.331 87.8907C84.3057 90.173 66.477 94.5548 53.5822 100.844C40.7125 107.12 32.3712 115.504 30.1858 125.946L30.0982 126.364L30.1031 126.402C28.1628 136.878 32.3326 147.698 41.4756 158.421C50.7412 169.288 65.352 180.361 84.8843 191.39L84.8937 191.395L84.9031 191.401C123.178 212.586 175.427 230.64 232.022 242.313C289.171 254.122 344.417 258.311 387.582 254.038L387.633 254.033ZM232.533 239.838C176.11 228.2 124.12 210.218 86.1271 189.189C47.3122 167.272 28.8219 145.588 32.662 126.481L32.6598 126.464C36.5769 107.747 62.8465 94.9377 106.591 90.4048C149.767 85.9283 204.86 89.9435 261.709 101.709C318.14 113.345 370.13 131.327 408.123 152.356C446.929 174.275 465.419 195.958 461.58 215.074C457.943 232.785 434.321 245.347 395.092 250.438L387.333 251.523C344.493 255.764 289.514 251.612 232.533 239.838Z" fill="black"/>
<path d="M157.535 142.485L161.814 123.167L160.445 122.864C160.06 122.778 159.799 122.646 159.663 122.468C159.53 122.277 159.491 122.059 159.545 121.815C159.599 121.57 159.726 121.396 159.924 121.292C160.125 121.175 160.419 121.159 160.804 121.244L169.518 123.174C170.881 123.476 172.058 124.034 173.051 124.847C174.057 125.663 174.776 126.497 175.208 127.347C175.953 128.793 176.438 130.256 176.663 131.735C176.816 132.807 176.744 134.018 176.445 135.368L175.949 137.604C175.582 139.262 174.86 140.787 173.783 142.18C172.705 143.573 171.184 144.659 169.218 145.437C167.758 146.003 166.192 146.101 164.522 145.731L155.807 143.801C155.422 143.715 155.163 143.577 155.03 143.386C154.897 143.195 154.856 142.983 154.907 142.752C154.961 142.508 155.087 142.333 155.286 142.229C155.487 142.112 155.781 142.096 156.166 142.181L157.535 142.485ZM159.154 142.843L165.035 144.146C166.397 144.448 167.768 144.286 169.147 143.661C170.538 143.039 171.666 142.177 172.531 141.074C173.411 139.961 173.985 138.8 174.253 137.592L174.902 134.662C175.124 133.659 175.161 132.73 175.014 131.875C174.804 130.629 174.389 129.398 173.769 128.181C173.432 127.513 172.864 126.848 172.067 126.186C171.273 125.511 170.355 125.059 169.314 124.828L163.434 123.526L159.154 142.843Z" fill="black"/>
<path d="M199.628 141.737C199.149 143.896 198.268 145.804 196.984 147.462C195.703 149.106 194.177 150.271 192.407 150.958C190.65 151.647 188.891 151.797 187.13 151.407C184.521 150.829 182.465 149.214 180.963 146.562C179.476 143.9 179.117 140.834 179.886 137.364C180.657 133.88 182.278 131.253 184.747 129.481C187.229 127.711 189.774 127.115 192.383 127.693C194.144 128.084 195.675 128.962 196.977 130.329C198.279 131.696 199.163 133.395 199.63 135.427C200.11 137.461 200.109 139.565 199.628 141.737ZM197.989 141.374C198.573 138.739 198.332 136.205 197.266 133.771C196.201 131.337 194.454 129.851 192.024 129.313C189.749 128.809 187.58 129.38 185.517 131.026C183.469 132.663 182.132 134.895 181.505 137.722C180.839 140.73 181.136 143.378 182.395 145.666C183.67 147.944 185.368 149.318 187.489 149.787C189.918 150.326 192.128 149.723 194.119 147.98C196.112 146.223 197.402 144.022 197.989 141.374Z" fill="black"/>
<path d="M218.06 157.591L215.515 157.027L214.476 139.99L206.435 155.016L203.89 154.452L206.137 132.985L205.54 132.853C205.154 132.768 204.893 132.636 204.758 132.457C204.625 132.266 204.585 132.048 204.639 131.804C204.693 131.56 204.82 131.386 205.018 131.281C205.219 131.164 205.513 131.148 205.898 131.233L211.913 132.566C212.312 132.654 212.578 132.794 212.71 132.985C212.846 133.164 212.887 133.375 212.833 133.619C212.779 133.863 212.651 134.044 212.45 134.161C212.252 134.266 211.953 134.274 211.555 134.185L207.776 133.348L205.688 152.909L213.545 138.166L216.032 138.717L217.043 155.424L223.373 136.803L219.575 135.962C219.189 135.877 218.929 135.745 218.793 135.566C218.66 135.375 218.62 135.157 218.675 134.913C218.729 134.669 218.855 134.495 219.053 134.39C219.255 134.273 219.548 134.257 219.934 134.343L225.91 135.667C226.309 135.755 226.574 135.895 226.707 136.086C226.843 136.264 226.884 136.476 226.83 136.72C226.776 136.964 226.648 137.145 226.447 137.262C226.248 137.366 225.95 137.374 225.551 137.286L224.954 137.154L218.06 157.591Z" fill="black"/>
<path d="M242.602 163.028L240.52 162.567L233.058 139.738L228.945 158.304L231.934 158.966C232.332 159.054 232.598 159.194 232.731 159.385C232.866 159.563 232.907 159.775 232.853 160.019C232.802 160.25 232.676 160.424 232.474 160.542C232.273 160.659 231.973 160.673 231.575 160.585L225.617 159.265C225.219 159.177 224.953 159.037 224.82 158.846C224.688 158.655 224.647 158.444 224.698 158.212C224.752 157.968 224.878 157.794 225.077 157.689C225.278 157.572 225.578 157.558 225.976 157.646L227.326 157.945L231.605 138.627L229.427 138.144C229.041 138.059 228.78 137.927 228.645 137.749C228.512 137.557 228.472 137.34 228.526 137.096C228.58 136.851 228.707 136.677 228.905 136.573C229.106 136.455 229.4 136.44 229.785 136.525L234.027 137.465L241.5 160.336L245.621 141.732L242.633 141.07C242.247 140.985 241.987 140.853 241.851 140.674C241.718 140.483 241.678 140.265 241.733 140.021C241.787 139.777 241.906 139.601 242.092 139.494C242.293 139.377 242.593 139.362 242.992 139.45L248.968 140.774C249.354 140.86 249.613 140.998 249.746 141.189C249.882 141.368 249.923 141.579 249.868 141.823C249.814 142.068 249.687 142.248 249.485 142.365C249.287 142.47 248.995 142.479 248.609 142.394L247.241 142.091L242.602 163.028Z" fill="black"/>
<path d="M260.215 144.965L255.936 164.283L266.694 166.666L268.12 160.227C268.206 159.841 268.344 159.582 268.535 159.449C268.727 159.316 268.944 159.276 269.189 159.331C269.42 159.382 269.594 159.508 269.711 159.709C269.832 159.898 269.847 160.191 269.759 160.59L267.974 168.648L250.083 164.685C249.697 164.6 249.438 164.461 249.305 164.27C249.172 164.079 249.131 163.867 249.183 163.636C249.237 163.392 249.363 163.218 249.561 163.113C249.763 162.996 250.056 162.98 250.442 163.066L254.297 163.92L258.577 144.602L254.721 143.748C254.335 143.662 254.075 143.53 253.939 143.352C253.806 143.161 253.767 142.943 253.821 142.699C253.875 142.455 254.001 142.28 254.199 142.176C254.401 142.059 254.694 142.043 255.08 142.128L264.43 144.2C264.816 144.285 265.075 144.423 265.208 144.615C265.344 144.793 265.384 145.004 265.33 145.248C265.276 145.493 265.149 145.673 264.947 145.791C264.749 145.895 264.457 145.904 264.071 145.819L260.215 144.965Z" fill="black"/>
<path d="M294.482 162.749C294.003 164.908 293.122 166.817 291.838 168.474C290.557 170.118 289.031 171.284 287.261 171.97C285.504 172.66 283.745 172.809 281.984 172.419C279.375 171.841 277.319 170.226 275.817 167.574C274.33 164.912 273.971 161.846 274.74 158.376C275.511 154.893 277.131 152.265 279.601 150.493C282.082 148.724 284.628 148.128 287.237 148.706C288.998 149.096 290.529 149.974 291.831 151.341C293.133 152.708 294.017 154.408 294.484 156.439C294.963 158.474 294.963 160.577 294.482 162.749ZM292.843 162.386C293.426 159.751 293.186 157.217 292.12 154.783C291.055 152.349 289.308 150.863 286.878 150.325C284.603 149.821 282.434 150.392 280.37 152.039C278.323 153.675 276.985 155.907 276.359 158.735C275.693 161.742 275.989 164.39 277.249 166.678C278.524 168.956 280.222 170.33 282.343 170.8C284.772 171.338 286.982 170.735 288.973 168.992C290.966 167.236 292.256 165.034 292.843 162.386Z" fill="black"/>
<path d="M312.81 170.672L302.168 168.315L298.678 173.751L301.782 174.439C302.168 174.524 302.427 174.662 302.56 174.854C302.696 175.032 302.737 175.243 302.682 175.488C302.631 175.719 302.505 175.893 302.304 176.01C302.102 176.128 301.809 176.144 301.423 176.058L295.37 174.717C294.984 174.632 294.725 174.493 294.592 174.302C294.459 174.111 294.418 173.9 294.47 173.668C294.524 173.424 294.65 173.25 294.848 173.145C295.05 173.028 295.343 173.012 295.729 173.098L296.982 173.375L308.414 155.642L303.632 154.583C303.247 154.497 302.986 154.365 302.85 154.187C302.717 153.996 302.678 153.778 302.732 153.534C302.786 153.29 302.912 153.115 303.111 153.011C303.312 152.894 303.606 152.878 303.991 152.963L312.146 154.77L315.413 177.458L316.666 177.736C317.051 177.821 317.311 177.959 317.444 178.151C317.579 178.329 317.62 178.54 317.566 178.785C317.515 179.016 317.389 179.19 317.187 179.307C316.986 179.425 316.693 179.441 316.307 179.355L310.273 178.018C309.874 177.93 309.609 177.79 309.476 177.599C309.343 177.408 309.302 177.197 309.353 176.965C309.407 176.721 309.533 176.547 309.732 176.442C309.933 176.325 310.233 176.311 310.631 176.399L313.716 177.082L312.81 170.672ZM312.552 168.916L310.689 156.146L310.091 156.013L303.144 166.832L312.552 168.916Z" fill="black"/>
<path d="M323.529 179.256L327.809 159.938L326.44 159.635C326.054 159.55 325.793 159.418 325.658 159.239C325.525 159.048 325.485 158.83 325.539 158.586C325.594 158.342 325.72 158.168 325.918 158.063C326.119 157.946 326.413 157.93 326.798 158.016L335.513 159.946C336.875 160.248 338.053 160.805 339.046 161.619C340.051 162.435 340.77 163.268 341.202 164.119C341.947 165.565 342.432 167.027 342.657 168.506C342.811 169.579 342.738 170.79 342.439 172.139L341.943 174.375C341.576 176.033 340.854 177.559 339.777 178.952C338.7 180.345 337.178 181.43 335.213 182.208C333.752 182.775 332.187 182.873 330.516 182.503L321.802 180.572C321.416 180.487 321.157 180.349 321.024 180.157C320.891 179.966 320.85 179.755 320.901 179.523C320.955 179.279 321.082 179.105 321.28 179.001C321.481 178.883 321.775 178.867 322.16 178.953L323.529 179.256ZM325.149 179.615L331.029 180.917C332.391 181.219 333.762 181.058 335.141 180.433C336.533 179.811 337.661 178.948 338.525 177.845C339.406 176.732 339.98 175.572 340.247 174.364L340.896 171.433C341.118 170.431 341.156 169.502 341.008 168.647C340.799 167.4 340.384 166.169 339.763 164.953C339.426 164.285 338.858 163.62 338.061 162.958C337.267 162.283 336.349 161.83 335.308 161.6L329.428 160.297L325.149 179.615Z" fill="black"/>
<path d="M172.821 163.502L168.542 182.82L172.745 183.751C173.13 183.836 173.39 183.975 173.523 184.166C173.658 184.344 173.699 184.556 173.645 184.8C173.594 185.031 173.468 185.205 173.266 185.323C173.065 185.44 172.772 185.456 172.386 185.37L162.342 183.145C161.956 183.06 161.697 182.921 161.564 182.73C161.431 182.539 161.39 182.328 161.441 182.096C161.495 181.852 161.622 181.678 161.82 181.573C162.021 181.456 162.315 181.44 162.7 181.526L166.903 182.457L171.182 163.139L164.55 161.67L163.308 167.28C163.219 167.679 163.08 167.944 162.888 168.077C162.71 168.213 162.499 168.254 162.254 168.2C162.023 168.148 161.849 168.022 161.732 167.821C161.614 167.62 161.6 167.32 161.688 166.921L163.29 159.692L181.431 163.71L179.83 170.94C179.742 171.339 179.602 171.604 179.411 171.737C179.232 171.873 179.021 171.914 178.777 171.86C178.533 171.806 178.352 171.678 178.235 171.477C178.13 171.278 178.122 170.98 178.21 170.581L179.453 164.971L172.821 163.502Z" fill="black"/>
<path d="M198.999 179.818L188.26 177.439L186.202 186.732L188.38 187.214C188.766 187.3 189.025 187.438 189.158 187.629C189.294 187.808 189.335 188.019 189.28 188.263C189.229 188.495 189.103 188.669 188.902 188.786C188.7 188.903 188.407 188.919 188.021 188.834L182.392 187.587C182.006 187.501 181.747 187.363 181.614 187.172C181.481 186.981 181.44 186.769 181.492 186.538C181.546 186.294 181.672 186.119 181.87 186.015C182.072 185.898 182.365 185.882 182.751 185.967L184.582 186.373L188.862 167.055L187.859 166.833C187.461 166.745 187.193 166.612 187.058 166.433C186.925 166.242 186.885 166.024 186.939 165.78C186.994 165.536 187.12 165.362 187.318 165.257C187.519 165.14 187.819 165.126 188.218 165.214L193.018 166.277C193.404 166.363 193.663 166.501 193.796 166.692C193.932 166.871 193.973 167.082 193.919 167.326C193.864 167.57 193.737 167.751 193.536 167.868C193.337 167.973 193.045 167.982 192.66 167.897L190.481 167.414L188.619 175.82L199.357 178.199L201.22 169.793L199.06 169.315C198.675 169.229 198.414 169.097 198.278 168.919C198.145 168.728 198.106 168.51 198.16 168.266C198.214 168.021 198.334 167.846 198.519 167.739C198.721 167.621 199.021 167.607 199.419 167.695L204.22 168.759C204.618 168.847 204.884 168.987 205.017 169.178C205.152 169.356 205.193 169.568 205.139 169.812C205.085 170.056 204.957 170.237 204.756 170.354C204.558 170.458 204.259 170.466 203.861 170.378L202.858 170.156L198.579 189.474L200.41 189.879C200.796 189.965 201.055 190.103 201.188 190.294C201.324 190.473 201.365 190.684 201.311 190.928C201.259 191.16 201.133 191.334 200.932 191.451C200.731 191.568 200.437 191.584 200.052 191.499L194.422 190.252C194.037 190.166 193.777 190.028 193.644 189.837C193.512 189.646 193.471 189.434 193.522 189.203C193.576 188.959 193.696 188.783 193.881 188.676C194.083 188.559 194.382 188.544 194.781 188.632L196.94 189.111L198.999 179.818Z" fill="black"/>
<path d="M211.95 182.707L209.896 191.981L222.35 194.74L223.409 189.958C223.495 189.573 223.627 189.312 223.805 189.176C223.996 189.043 224.214 189.004 224.458 189.058C224.703 189.112 224.877 189.238 224.981 189.437C225.098 189.638 225.114 189.932 225.029 190.317L223.611 196.718L205.739 192.759C205.354 192.673 205.094 192.535 204.961 192.344C204.828 192.153 204.788 191.941 204.839 191.71C204.893 191.466 205.019 191.291 205.218 191.187C205.419 191.07 205.712 191.054 206.098 191.139L208.276 191.622L212.556 172.304L210.377 171.822C209.992 171.736 209.731 171.604 209.595 171.426C209.462 171.235 209.423 171.017 209.477 170.773C209.531 170.528 209.657 170.354 209.856 170.25C210.057 170.133 210.35 170.117 210.736 170.202L227.76 173.973L226.525 179.545C226.44 179.93 226.301 180.19 226.11 180.323C225.932 180.458 225.721 180.499 225.476 180.445C225.232 180.391 225.051 180.263 224.934 180.062C224.83 179.864 224.82 179.572 224.906 179.186L225.781 175.234L214.175 172.663L212.309 181.088L218.112 182.373L218.518 180.542C218.603 180.156 218.741 179.897 218.933 179.764C219.124 179.631 219.342 179.592 219.586 179.646C219.817 179.697 219.991 179.823 220.109 180.025C220.226 180.226 220.242 180.519 220.156 180.905L218.986 186.187C218.901 186.573 218.762 186.832 218.571 186.965C218.38 187.098 218.169 187.139 217.937 187.088C217.693 187.034 217.512 186.906 217.395 186.705C217.278 186.503 217.262 186.21 217.347 185.824L217.753 183.993L211.95 182.707Z" fill="black"/>
<path d="M269.238 198.917L258.595 196.56L255.106 201.996L258.21 202.683C258.595 202.769 258.854 202.907 258.987 203.098C259.123 203.277 259.164 203.488 259.11 203.732C259.059 203.964 258.932 204.138 258.731 204.255C258.53 204.372 258.236 204.388 257.851 204.303L251.797 202.962C251.412 202.876 251.152 202.738 251.019 202.547C250.887 202.355 250.846 202.144 250.897 201.913C250.951 201.669 251.077 201.494 251.276 201.39C251.477 201.273 251.77 201.257 252.156 201.342L253.409 201.62L264.841 183.887L260.06 182.827C259.674 182.742 259.414 182.61 259.278 182.432C259.145 182.24 259.105 182.023 259.16 181.778C259.214 181.534 259.34 181.36 259.538 181.256C259.74 181.138 260.033 181.123 260.419 181.208L268.574 183.014L271.84 205.703L273.093 205.98C273.479 206.066 273.738 206.204 273.871 206.395C274.007 206.574 274.048 206.785 273.993 207.029C273.942 207.261 273.816 207.435 273.615 207.552C273.413 207.669 273.12 207.685 272.734 207.6L266.7 206.263C266.302 206.175 266.036 206.035 265.903 205.844C265.77 205.653 265.729 205.441 265.781 205.21C265.835 204.966 265.961 204.791 266.159 204.687C266.361 204.57 266.66 204.555 267.059 204.644L270.143 205.327L269.238 198.917ZM268.979 197.161L267.116 184.39L266.518 184.258L259.571 195.077L268.979 197.161Z" fill="black"/>
<path d="M284.482 200.494L282.791 208.129L288.343 209.359C288.729 209.444 288.988 209.582 289.121 209.774C289.257 209.952 289.297 210.163 289.243 210.407C289.192 210.639 289.066 210.813 288.865 210.93C288.663 211.048 288.37 211.063 287.984 210.978L278.634 208.907C278.248 208.821 277.989 208.683 277.856 208.492C277.723 208.3 277.682 208.089 277.734 207.858C277.788 207.614 277.914 207.439 278.112 207.335C278.314 207.218 278.607 207.202 278.993 207.287L281.171 207.77L285.451 188.452L283.272 187.969C282.886 187.884 282.626 187.752 282.49 187.574C282.357 187.382 282.318 187.165 282.372 186.921C282.426 186.676 282.552 186.502 282.75 186.398C282.952 186.28 283.245 186.265 283.631 186.35L293.039 188.434C295.263 188.927 296.93 189.984 298.04 191.605C299.164 193.229 299.53 194.922 299.14 196.682C298.91 197.724 298.47 198.611 297.823 199.344C297.188 200.079 296.496 200.614 295.748 200.947C294.625 201.453 293.512 201.76 292.41 201.866C291.61 201.945 290.658 201.862 289.552 201.617L284.482 200.494ZM284.841 198.875L290.007 200.019C291.203 200.284 292.379 200.268 293.537 199.972C294.711 199.665 295.621 199.179 296.267 198.514C296.926 197.851 297.344 197.121 297.521 196.324C297.803 195.051 297.51 193.786 296.642 192.529C295.775 191.272 294.505 190.458 292.834 190.088L287.07 188.811L284.841 198.875Z" fill="black"/>
<path d="M308.195 205.747L306.504 213.382L312.057 214.612C312.442 214.697 312.701 214.835 312.834 215.027C312.97 215.205 313.011 215.416 312.957 215.661C312.906 215.892 312.779 216.066 312.578 216.183C312.377 216.301 312.083 216.317 311.698 216.231L302.347 214.16C301.962 214.074 301.703 213.936 301.57 213.745C301.437 213.554 301.396 213.342 301.447 213.111C301.501 212.867 301.627 212.692 301.826 212.588C302.027 212.471 302.321 212.455 302.706 212.54L304.885 213.023L309.164 193.705L306.985 193.223C306.6 193.137 306.339 193.005 306.203 192.827C306.071 192.636 306.031 192.418 306.085 192.174C306.139 191.929 306.266 191.755 306.464 191.651C306.665 191.534 306.959 191.518 307.344 191.603L316.752 193.687C318.976 194.18 320.643 195.237 321.754 196.858C322.877 198.482 323.244 200.175 322.854 201.936C322.623 202.977 322.184 203.864 321.536 204.597C320.901 205.332 320.21 205.867 319.462 206.2C318.338 206.706 317.225 207.013 316.123 207.119C315.324 207.198 314.371 207.115 313.266 206.87L308.195 205.747ZM308.554 204.128L313.721 205.272C314.916 205.537 316.093 205.521 317.251 205.225C318.424 204.919 319.334 204.432 319.981 203.767C320.64 203.104 321.058 202.374 321.234 201.577C321.516 200.304 321.223 199.039 320.356 197.782C319.488 196.525 318.219 195.711 316.548 195.341L310.783 194.064L308.554 204.128Z" fill="black"/>
</svg>
