<?xml version="1.0" encoding="utf-8"?>
<!-- Generator: Adobe Illustrator 27.4.0, SVG Export Plug-In . SVG Version: 6.00 Build 0)  -->
<svg version="1.1" id="Layer_1" xmlns="http://www.w3.org/2000/svg" xmlns:xlink="http://www.w3.org/1999/xlink" x="0px" y="0px"
	 viewBox="0 0 700 700" style="enable-background:new 0 0 700 700;" xml:space="preserve">
<g>
	<path d="M607.9,92.1L607.9,92.1c-11.5-11.5-30.2-11.5-41.7,0L350,308.3L133.8,92.1c-11.5-11.5-30.2-11.5-41.7,0l0,0
		c-11.5,11.5-11.5,30.2,0,41.7L308.3,350L92.1,566.2c-11.5,11.5-11.5,30.2,0,41.7l0,0c11.5,11.5,30.2,11.5,41.7,0L350,391.7
		l216.2,216.2c11.5,11.5,30.2,11.5,41.7,0l0,0c11.5-11.5,11.5-30.2,0-41.7L391.7,350l216.2-216.2
		C619.4,122.3,619.4,103.6,607.9,92.1z"/>
</g>
</svg>
