<svg width="24" height="23" viewBox="0 0 24 23" fill="none" xmlns="http://www.w3.org/2000/svg">
<path d="M22.5518 15.8851L15.8697 14.7017L18.1475 20.911C18.1978 21.0783 18.1874 21.2389 18.1092 21.3961C18.0363 21.5551 17.9094 21.6683 17.7409 21.7359L14.2521 22.9396L14.2191 22.9616C14.0558 23.0207 13.8908 23.0106 13.717 22.9379C13.5537 22.8669 13.4338 22.7435 13.3539 22.5761L11.0709 16.3939L6.72559 21.3894L6.703 21.3573L6.69779 21.3843C6.59355 21.506 6.45629 21.5787 6.28255 21.6092C6.12618 21.6227 5.98023 21.5889 5.83429 21.5027L5.82908 21.5297L5.74221 21.435L2.89977 19.1106C2.76078 18.9838 2.68954 18.8316 2.67912 18.6525C2.67043 18.4699 2.72082 18.3059 2.83549 18.174L7.21034 13.1718L0.569872 11.9969L0.57335 11.9834L0.559448 11.98C0.401341 11.9512 0.272768 11.8735 0.165047 11.7433C0.0538519 11.6216 0.00346723 11.483 0.0138918 11.3257L0 11.3224L0.688016 7.64211C0.722764 7.45784 0.816594 7.31584 0.96775 7.22117C1.12064 7.11805 1.29438 7.08423 1.48376 7.11804L1.6384 7.15861L8.11727 8.30479L5.83429 2.12256L5.84993 2.11242V2.09889C5.80128 1.94168 5.80475 1.79291 5.85687 1.64414C5.91768 1.49707 6.02019 1.38043 6.16092 1.29422L6.13313 1.28914L9.76262 0.0449206C9.94158 -0.0210096 10.1171 -0.0125645 10.2804 0.0584373C10.4506 0.139582 10.5653 0.271448 10.6244 0.44388L12.89 6.64978L17.2892 1.62386L17.2944 1.59681C17.4212 1.48017 17.5724 1.41762 17.7461 1.4024C17.9338 1.39395 18.0988 1.43621 18.2274 1.53933L21.0698 3.86379L21.0785 3.89254C21.2192 4.00581 21.2974 4.1495 21.3183 4.32531C21.3356 4.50958 21.2905 4.67356 21.1897 4.8088L16.7871 9.8347L23.4692 11.0181C23.6377 11.0569 23.775 11.1466 23.8723 11.2852C23.9696 11.4322 24.0113 11.5928 23.9974 11.7636L23.3302 15.3272L23.3024 15.3221L23.325 15.3542C23.292 15.5301 23.1947 15.6704 23.0314 15.7718C22.8837 15.8715 22.7239 15.9087 22.5518 15.8868" fill="#4C43D6"/>
</svg>
