<svg width="23" height="19" viewBox="0 0 23 19" fill="#141414" xmlns="http://www.w3.org/2000/svg">
<path d="M23 9.5026C23 9.35039 22.9565 9.20985 22.8816 9.09215C22.8816 9.09164 22.8807 9.09062 22.8807 9.09012C22.8689 9.07134 22.8557 9.05359 22.8425 9.03634C22.8411 9.03431 22.8396 9.03177 22.8376 9.02974C22.8283 9.01807 22.8186 9.00742 22.8088 8.99625C22.8019 8.98864 22.7961 8.98053 22.7887 8.97342L14.3534 0.218418C14.0722 -0.0728062 13.6184 -0.0728062 13.3372 0.218418C13.1943 0.366568 13.1254 0.554798 13.1254 0.747595C13.1254 0.940392 13.1943 1.12913 13.3372 1.27677L20.5488 8.7578H0.717451C0.319845 8.7578 0 9.08961 0 9.50209C0 9.91458 0.319845 10.2464 0.717451 10.2464H20.5449L13.3372 17.7274C13.1943 17.8756 13.1254 18.0638 13.1254 18.2566C13.1254 18.4494 13.1943 18.6381 13.3372 18.7812C13.6184 19.0729 14.0722 19.0729 14.3534 18.7812L22.7457 10.0708C22.9012 9.93436 23 9.73091 23 9.50159V9.5026Z" fill="#D6FD24"/>
</svg>
