<svg width="25" height="25" viewBox="0 0 25 25" fill="none" xmlns="http://www.w3.org/2000/svg">
<path d="M12.5 0C5.6069 0 0 5.60737 0 12.5C0 19.3926 5.60737 25 12.5 25C19.3926 25 25 19.3926 25 12.5C25 5.60737 19.3926 0 12.5 0ZM17.3636 13.2993L10.2208 16.8709C10.095 16.9331 9.9582 16.9647 9.82187 16.9647C9.65877 16.9647 9.49614 16.9202 9.35216 16.8317C9.08956 16.6686 8.92885 16.3816 8.92885 16.0721V8.92932C8.92885 8.61937 9.08956 8.33286 9.35216 8.16927C9.61572 8.0052 9.9448 7.99229 10.2208 8.13005L17.3636 11.7017C17.6664 11.8533 17.8572 12.1623 17.8572 12.5005C17.8572 12.8387 17.6659 13.1481 17.3636 13.2998V13.2993Z" fill="#D6FD24"/>
</svg>
