<svg width="39" height="38" viewBox="0 0 39 38" fill="none" xmlns="http://www.w3.org/2000/svg">
<path d="M27.2579 18.9409C27.2579 18.8245 27.2273 18.717 27.1747 18.6269C27.1747 18.6265 27.174 18.6258 27.174 18.6254C27.1658 18.611 27.1565 18.5974 27.1472 18.5842C27.1462 18.5827 27.1452 18.5808 27.1438 18.5792C27.1373 18.5703 27.1304 18.5621 27.1235 18.5536C27.1187 18.5478 27.1146 18.5416 27.1094 18.5361L21.1826 11.839C20.985 11.6162 20.6662 11.6162 20.4686 11.839C20.3682 11.9523 20.3198 12.0963 20.3198 12.2437C20.3198 12.3912 20.3682 12.5356 20.4686 12.6485L25.5356 18.3712H11.6018C11.3224 18.3712 11.0977 18.625 11.0977 18.9405C11.0977 19.2561 11.3224 19.5099 11.6018 19.5099H25.5329L20.4686 25.2325C20.3682 25.3458 20.3198 25.4898 20.3198 25.6373C20.3198 25.7848 20.3682 25.9292 20.4686 26.0386C20.6662 26.2618 20.985 26.2618 21.1826 26.0386L27.0792 19.3756C27.1885 19.2712 27.2579 19.1156 27.2579 18.9401V18.9409Z" fill="white"/>
<path fill-rule="evenodd" clip-rule="evenodd" d="M19.6852 1.28125C9.63242 1.28125 1.5 9.26809 1.5 19.0996C1.5 28.9311 9.63242 36.9179 19.6852 36.9179C29.7381 36.9179 37.8705 28.9311 37.8705 19.0996C37.8705 9.26809 29.7381 1.28125 19.6852 1.28125ZM0.5 19.0996C0.5 8.6972 9.09892 0.28125 19.6852 0.28125C30.2716 0.28125 38.8705 8.6972 38.8705 19.0996C38.8705 29.5019 30.2716 37.9179 19.6852 37.9179C9.09892 37.9179 0.5 29.5019 0.5 19.0996Z" fill="white"/>
</svg>
