<?xml version="1.0" encoding="UTF-8"?><svg id="Layer_2" xmlns="http://www.w3.org/2000/svg" viewBox="0 0 2041.7 1189.26"><defs><style>.cls-1{fill:#fd93ff;}.cls-2{fill:#d6fd24;}.cls-3{fill:#4c43d6;}.cls-4{fill:none;stroke:#fff;stroke-miterlimit:10;stroke-width:.75px;}</style></defs><g id="Layer_1-2"><path class="cls-4" d="m20.22,136.79c-7.67-1.39-14.22-3.48-19.67-6.27v-26.6c12.79,5.83,25.71,8.74,38.76,8.74,17.6,0,26.41-5.25,26.41-15.77,0-5.32-2.16-9.15-6.46-11.49-4.31-2.34-11.02-3.52-20.14-3.52h-18.43v-25.65h17.67c7.47,0,13.27-1.26,17.39-3.8,4.11-2.53,6.17-6.27,6.17-11.21,0-4.68-1.84-8.29-5.51-10.83-3.68-2.53-8.87-3.8-15.58-3.8-13.81,0-26.35,3.55-37.62,10.64V10.06c5.7-3.04,12.22-5.41,19.57-7.12C30.13,1.23,37.73.38,45.58.38c17.35,0,30.14,3.45,38.38,10.35,8.23,6.91,12.35,16.62,12.35,29.17,0,5.7-1.36,11.09-4.08,16.15-2.73,5.07-6.75,9.38-12.06,12.92,13.3,5.83,19.95,15.71,19.95,29.64,0,12.8-4.37,22.71-13.11,29.74-8.74,7.03-22.99,10.54-42.75,10.54-8.36,0-16.37-.7-24.04-2.09Z"/><path class="cls-4" d="m166.61,3.23h33.25l48.83,79.04V3.23h33.63v132.81h-33.06l-49.02-79.23v79.23h-33.63V3.23Z"/><path class="cls-4" d="m293.72,3.23h33.63v132.81h-33.63V3.23Z"/><path class="cls-4" d="m369.24,130.53c-10.96-5.57-19.41-13.59-25.37-24.04-5.96-10.45-8.93-22.71-8.93-36.77s2.97-26.31,8.93-36.77c5.95-10.45,14.41-18.49,25.37-24.13,10.96-5.63,23.66-8.46,38.09-8.46,9.62,0,18.15.92,25.56,2.76,7.41,1.84,14.28,4.78,20.61,8.83v31.92c-5.58-4.43-11.88-7.63-18.9-9.6-7.03-1.96-15.11-2.94-24.23-2.94-7.86,0-14.85,1.55-21,4.65-6.14,3.11-10.99,7.57-14.53,13.4-3.55,5.83-5.32,12.61-5.32,20.33,0,12.04,3.51,21.54,10.54,28.5,7.03,6.97,16.56,10.45,28.59,10.45,6.71,0,12.35-1.14,16.91-3.42v-21.28h-20.33v-23.56h52.25v66.12c-13.55,8.24-30.28,12.35-50.16,12.35-14.44,0-27.14-2.79-38.09-8.36Z"/><path class="cls-4" d="m465.1,3.23h33.63v51.3h52.06V3.23h33.63v132.81h-33.63v-53.58h-52.06v53.58h-33.63V3.23Z"/><path class="cls-4" d="m626.6,31.54h-37.43V3.23h108.68v28.31h-37.62v104.5h-33.63V31.54Z"/><path class="cls-4" d="m714.38,136.51c-8.24-1.58-15.01-3.77-20.33-6.56v-30.21c6.84,3.55,13.96,6.21,21.38,7.98,7.41,1.78,14.47,2.66,21.18,2.66,6.21,0,10.89-.95,14.06-2.85,3.17-1.9,4.75-4.62,4.75-8.17,0-2.66-.86-4.97-2.57-6.94-1.71-1.96-4.21-3.77-7.5-5.42-3.29-1.64-8.42-3.92-15.39-6.84-12.29-5.19-21.22-10.95-26.79-17.29-5.58-6.33-8.36-14.12-8.36-23.37,0-7.6,2.12-14.37,6.37-20.33,4.24-5.95,10.17-10.57,17.76-13.87,7.6-3.29,16.34-4.94,26.22-4.94,8.1,0,15.32.64,21.66,1.9,6.33,1.27,12.41,3.29,18.24,6.08v29.45c-11.15-5.82-22.36-8.74-33.63-8.74-6.08,0-10.92.98-14.54,2.95-3.61,1.97-5.42,4.78-5.42,8.46s1.83,6.65,5.51,8.93c3.67,2.28,10.45,5.39,20.33,9.31,8.99,3.68,15.99,7.29,21,10.83,5,3.55,8.65,7.67,10.93,12.35,2.28,4.69,3.42,10.64,3.42,17.86,0,12.29-4.47,21.88-13.4,28.79-8.93,6.91-22.26,10.35-40,10.35-8.36,0-16.66-.79-24.89-2.38Z"/><path class="cls-4" d="m890.41,130.15c-10.83-5.82-19.38-13.96-25.65-24.42-6.27-10.45-9.41-22.45-9.41-36s3.13-25.58,9.41-36.1c6.27-10.51,14.82-18.68,25.65-24.51,10.83-5.82,22.96-8.74,36.39-8.74s25.36,2.92,36.19,8.74c10.83,5.83,19.35,14,25.56,24.51,6.2,10.52,9.31,22.55,9.31,36.1s-3.11,25.56-9.31,36c-6.21,10.45-14.73,18.59-25.56,24.42-10.83,5.83-22.89,8.74-36.19,8.74s-25.56-2.91-36.39-8.74Zm54.82-27.36c5.57-3.04,10-7.41,13.3-13.11,3.29-5.7,4.94-12.35,4.94-19.95s-1.62-14.22-4.85-19.85c-3.23-5.63-7.63-10-13.21-13.11-5.58-3.1-11.78-4.66-18.62-4.66s-13.24,1.55-18.81,4.66c-5.58,3.1-9.97,7.48-13.21,13.11-3.23,5.64-4.84,12.25-4.84,19.85s1.62,14.25,4.84,19.95c3.23,5.7,7.66,10.07,13.3,13.11,5.63,3.04,11.88,4.56,18.72,4.56s12.85-1.52,18.43-4.56Z"/><path class="cls-4" d="m1005.45,3.23h94.24v28.31h-60.61v24.89h44.27v26.41h-44.27v53.2h-33.63V3.23Z"/><path class="cls-4" d="m544.35,153.23h58.52c15.45,0,27.8,4.06,37.05,12.16,9.24,8.11,13.87,19.45,13.87,34.01s-4.59,26.51-13.78,34.68c-9.19,8.17-21.56,12.25-37.14,12.25h-24.89v39.71h-33.63v-132.81Zm53.2,64.79c6.71,0,12-1.39,15.87-4.18,3.86-2.78,5.79-7.6,5.79-14.44s-1.9-11.52-5.7-14.06c-3.8-2.53-9.12-3.8-15.96-3.8h-19.57v36.48h19.57Z"/><path class="cls-4" d="m659.49,153.23h59.66c15.58,0,27.77,3.93,36.58,11.78,8.8,7.85,13.21,19.13,13.21,33.82,0,9.88-2.16,18.31-6.46,25.27-4.31,6.97-10.39,12.16-18.24,15.58l23.56,46.36h-34.58l-21.09-41.61h-19v41.61h-33.63v-132.81Zm53.77,62.89c6.71,0,11.9-1.3,15.58-3.9,3.67-2.59,5.51-7.06,5.51-13.4s-1.8-11.12-5.42-13.58c-3.61-2.47-8.83-3.71-15.67-3.71h-20.14v34.58h20.14Z"/><path class="cls-4" d="m776.53,153.23h94.24v28.31h-60.61v24.89h44.27v26.41h-44.27v24.89h60.61v28.31h-94.24v-132.81Z"/><path class="cls-4" d="m878.37,153.23h32.3l38.38,82.27,38.57-82.27h32.11v132.81h-31.35v-66.69l-31.73,66.69h-15.2l-31.54-66.69v66.69h-31.54v-132.81Z"/><path class="cls-4" d="m1031.13,153.23h33.63v132.81h-33.63v-132.81Z"/><path class="cls-4" d="m1076.16,153.23h94.24v28.31h-60.61v24.89h44.27v26.41h-44.27v24.89h60.61v28.31h-94.24v-132.81Z"/><path class="cls-4" d="m1178,153.23h59.66c15.58,0,27.77,3.93,36.58,11.78,8.8,7.85,13.21,19.13,13.21,33.82,0,9.88-2.16,18.31-6.46,25.27-4.31,6.97-10.39,12.16-18.24,15.58l23.56,46.36h-34.58l-21.09-41.61h-19v41.61h-33.63v-132.81Zm53.77,62.89c6.71,0,11.9-1.3,15.58-3.9,3.67-2.59,5.51-7.06,5.51-13.4s-1.8-11.12-5.42-13.58c-3.61-2.47-8.83-3.71-15.67-3.71h-20.14v34.58h20.14Z"/><path class="cls-4" d="m1295.04,153.23h94.24v28.31h-60.61v24.89h44.27v26.41h-44.27v24.89h60.61v28.31h-94.24v-132.81Z"/><path class="cls-4" d="m1641.21,153.23h33.06l53.01,132.81h-34.39l-10.64-27.36h-49.02l-10.64,27.36h-34.58l53.2-132.81Zm32.68,79.61l-16.15-44.65-16.34,44.65h32.49Z"/><path class="cls-4" d="m1734.88,153.23h59.66c15.58,0,27.77,3.93,36.58,11.78,8.8,7.85,13.21,19.13,13.21,33.82,0,9.88-2.16,18.31-6.46,25.27-4.31,6.97-10.39,12.16-18.24,15.58l23.56,46.36h-34.58l-21.09-41.61h-19v41.61h-33.63v-132.81Zm53.77,62.89c6.71,0,11.9-1.3,15.58-3.9,3.67-2.59,5.51-7.06,5.51-13.4s-1.8-11.12-5.42-13.58c-3.61-2.47-8.83-3.71-15.67-3.71h-20.14v34.58h20.14Z"/><path class="cls-4" d="m1876.05,181.54h-37.43v-28.31h108.68v28.31h-37.62v104.5h-33.63v-104.5Z"/><path class="cls-4" d="m1948.25,215.17h67.64v26.6h-67.64v-26.6Z"/><path class="cls-4" d="m4.35,303.23h33.63v132.81H4.35v-132.81Z"/><path class="cls-4" d="m65.91,436.51c-8.24-1.58-15.01-3.77-20.33-6.56v-30.21c6.84,3.55,13.96,6.21,21.38,7.98,7.41,1.78,14.47,2.66,21.18,2.66,6.21,0,10.89-.95,14.06-2.85,3.17-1.9,4.75-4.62,4.75-8.17,0-2.66-.86-4.97-2.57-6.94-1.71-1.96-4.21-3.77-7.5-5.42-3.29-1.64-8.42-3.92-15.39-6.84-12.29-5.19-21.22-10.95-26.79-17.29-5.58-6.33-8.36-14.12-8.36-23.37,0-7.6,2.12-14.37,6.37-20.33,4.24-5.95,10.17-10.57,17.76-13.87,7.6-3.29,16.34-4.94,26.22-4.94,8.1,0,15.32.64,21.66,1.9,6.33,1.27,12.41,3.29,18.24,6.08v29.45c-11.15-5.82-22.36-8.74-33.63-8.74-6.08,0-10.92.98-14.54,2.95-3.61,1.97-5.42,4.78-5.42,8.46s1.83,6.65,5.51,8.93c3.67,2.28,10.45,5.39,20.33,9.31,8.99,3.68,15.99,7.29,21,10.83,5,3.55,8.65,7.67,10.93,12.35,2.28,4.69,3.42,10.64,3.42,17.86,0,12.29-4.47,21.88-13.4,28.79-8.93,6.91-22.26,10.35-40,10.35-8.36,0-16.66-.79-24.89-2.38Z"/><path class="cls-4" d="m177.82,331.54h-37.43v-28.31h108.68v28.31h-37.62v104.5h-33.63v-104.5Z"/><path class="cls-4" d="m253.82,303.23h59.66c15.58,0,27.77,3.93,36.58,11.78,8.8,7.85,13.21,19.13,13.21,33.82,0,9.88-2.16,18.31-6.46,25.27-4.31,6.97-10.39,12.16-18.24,15.58l23.56,46.36h-34.58l-21.09-41.61h-19v41.61h-33.63v-132.81Zm53.77,62.89c6.71,0,11.9-1.3,15.58-3.9,3.67-2.59,5.51-7.06,5.51-13.4s-1.8-11.12-5.42-13.58c-3.61-2.47-8.83-3.71-15.67-3.71h-20.14v34.58h20.14Z"/><path class="cls-4" d="m403.73,385.5l-49.02-82.27h35.91l30.02,51.49,31.35-51.49h35.72l-50.35,82.27v50.54h-33.63v-50.54Z"/><path class="cls-4" d="m603.61,303.23h33.06l53.01,132.81h-34.39l-10.64-27.36h-49.02l-10.64,27.36h-34.58l53.2-132.81Zm32.68,79.61l-16.15-44.65-16.34,44.65h32.49Z"/><path class="cls-4" d="m697.28,303.23h33.25l48.83,79.04v-79.04h33.63v132.81h-33.06l-49.02-79.23v79.23h-33.63v-132.81Z"/><path class="cls-4" d="m824.39,303.23h47.69c14.56,0,27.29,2.66,38.19,7.98,10.89,5.32,19.29,12.95,25.18,22.9,5.89,9.95,8.83,21.56,8.83,34.87,0,22.04-6.46,38.73-19.38,50.06-12.92,11.34-30.84,17-53.77,17h-46.74v-132.81Zm49.59,104.5c11.53,0,20.36-3.48,26.5-10.45,6.14-6.96,9.22-16.4,9.22-28.31,0-10.89-3.07-19.85-9.22-26.89-6.14-7.03-14.6-10.54-25.36-10.54h-17.1v76.19h15.96Z"/><path class="cls-4" d="m1128.57,303.23h33.63v51.3h52.06v-51.3h33.63v132.81h-33.63v-53.58h-52.06v53.58h-33.63v-132.81Z"/><path class="cls-4" d="m1304.51,385.5l-49.02-82.27h35.91l30.02,51.49,31.35-51.49h35.72l-50.35,82.27v50.54h-33.63v-50.54Z"/><path class="cls-4" d="m1391.34,303.23h58.52c15.45,0,27.8,4.06,37.05,12.16,9.24,8.11,13.87,19.45,13.87,34.01s-4.59,26.51-13.78,34.68c-9.19,8.17-21.56,12.25-37.14,12.25h-24.89v39.71h-33.63v-132.81Zm53.2,64.79c6.71,0,12-1.39,15.87-4.18,3.86-2.78,5.79-7.6,5.79-14.44s-1.9-11.52-5.7-14.06c-3.8-2.53-9.12-3.8-15.96-3.8h-19.57v36.48h19.57Z"/><path class="cls-4" d="m1506.48,303.23h33.25l48.83,79.04v-79.04h33.63v132.81h-33.06l-49.02-79.23v79.23h-33.63v-132.81Z"/><path class="cls-4" d="m1664.84,430.15c-10.83-5.82-19.38-13.96-25.65-24.42-6.27-10.45-9.41-22.45-9.41-36s3.13-25.58,9.41-36.1c6.27-10.51,14.82-18.68,25.65-24.51,10.83-5.82,22.96-8.74,36.39-8.74s25.36,2.92,36.19,8.74c10.83,5.83,19.35,14,25.56,24.51,6.2,10.52,9.31,22.55,9.31,36.1s-3.11,25.56-9.31,36c-6.21,10.45-14.73,18.59-25.56,24.42-10.83,5.83-22.89,8.74-36.19,8.74s-25.56-2.91-36.39-8.74Zm54.82-27.36c5.57-3.04,10-7.41,13.3-13.11,3.29-5.7,4.94-12.35,4.94-19.95s-1.62-14.22-4.85-19.85c-3.23-5.63-7.63-10-13.21-13.11-5.58-3.1-11.78-4.66-18.62-4.66s-13.24,1.55-18.81,4.66c-5.58,3.1-9.97,7.48-13.21,13.11-3.23,5.64-4.84,12.25-4.84,19.85s1.62,14.25,4.84,19.95c3.23,5.7,7.66,10.07,13.3,13.11,5.63,3.04,11.88,4.56,18.72,4.56s12.85-1.52,18.43-4.56Z"/><path class="cls-4" d="m1804.02,331.54h-37.43v-28.31h108.68v28.31h-37.62v104.5h-33.63v-104.5Z"/><path class="cls-4" d="m1880.02,303.23h33.63v132.81h-33.63v-132.81Z"/><path class="cls-4" d="m1955.54,430.53c-10.96-5.57-19.41-13.59-25.37-24.04-5.96-10.45-8.93-22.71-8.93-36.77s2.97-26.31,8.93-36.77c5.95-10.45,14.41-18.49,25.37-24.13,10.96-5.63,23.66-8.46,38.09-8.46,9.5,0,17.99.95,25.46,2.85,7.47,1.9,14.38,4.88,20.71,8.93v31.92c-5.58-4.43-11.88-7.66-18.9-9.69-7.03-2.02-15.11-3.04-24.23-3.04-13.05,0-23.12,3.39-30.21,10.17-7.09,6.78-10.64,16.18-10.64,28.21s3.58,21.47,10.74,28.31c7.15,6.84,17.19,10.26,30.11,10.26,9.12,0,17.29-1.07,24.51-3.23,7.22-2.15,13.93-5.57,20.14-10.26v31.73c-12.04,8.24-27.93,12.35-47.69,12.35-14.44,0-27.14-2.79-38.09-8.36Z"/><path class="cls-4" d="m34.85,880.53c-10.96-5.57-19.41-13.58-25.37-24.04-5.96-10.45-8.93-22.71-8.93-36.76s2.97-26.32,8.93-36.77c5.95-10.45,14.41-18.49,25.37-24.13,10.96-5.63,23.66-8.46,38.09-8.46,9.5,0,17.99.95,25.46,2.85,7.47,1.9,14.38,4.88,20.71,8.93v31.92c-5.58-4.43-11.88-7.66-18.9-9.69-7.03-2.02-15.11-3.04-24.23-3.04-13.05,0-23.12,3.39-30.21,10.17-7.09,6.78-10.64,16.18-10.64,28.22s3.58,21.47,10.74,28.31c7.15,6.84,17.19,10.26,30.11,10.26,9.12,0,17.29-1.07,24.51-3.23,7.22-2.15,13.93-5.57,20.14-10.26v31.73c-12.04,8.24-27.93,12.35-47.69,12.35-14.44,0-27.14-2.79-38.09-8.36Z"/><path class="cls-4" d="m128.23,753.23h59.66c15.58,0,27.77,3.93,36.58,11.78,8.8,7.86,13.21,19.13,13.21,33.82,0,9.88-2.16,18.31-6.46,25.27-4.31,6.97-10.39,12.16-18.24,15.58l23.56,46.36h-34.58l-21.09-41.61h-19v41.61h-33.63v-132.81Zm53.77,62.89c6.71,0,11.9-1.3,15.58-3.9,3.67-2.59,5.51-7.06,5.51-13.39s-1.8-11.12-5.42-13.58-8.83-3.71-15.67-3.71h-20.14v34.58h20.14Z"/><path class="cls-4" d="m286.12,753.23h33.06l53.01,132.81h-34.39l-10.64-27.36h-49.02l-10.64,27.36h-34.58l53.2-132.81Zm32.68,79.61l-16.15-44.65-16.34,44.65h32.49Z"/><path class="cls-4" d="m379.79,753.23h94.24v28.31h-60.61v24.89h44.27v26.41h-44.27v53.2h-33.63v-132.81Z"/><path class="cls-4" d="m508.61,781.54h-37.43v-28.31h108.68v28.31h-37.62v104.5h-33.63v-104.5Z"/><path class="cls-4" d="m596.39,886.51c-8.24-1.58-15.01-3.77-20.33-6.55v-30.21c6.84,3.55,13.96,6.21,21.38,7.98,7.41,1.77,14.47,2.66,21.18,2.66,6.21,0,10.89-.95,14.06-2.85,3.17-1.9,4.75-4.62,4.75-8.17,0-2.66-.86-4.97-2.57-6.94-1.71-1.96-4.21-3.77-7.5-5.41-3.29-1.65-8.42-3.92-15.39-6.84-12.29-5.19-21.22-10.95-26.79-17.29-5.58-6.33-8.36-14.12-8.36-23.37,0-7.6,2.12-14.38,6.37-20.33,4.24-5.95,10.17-10.58,17.76-13.87,7.6-3.29,16.34-4.94,26.22-4.94,8.1,0,15.32.64,21.66,1.9,6.33,1.27,12.41,3.29,18.24,6.08v29.45c-11.15-5.82-22.36-8.74-33.63-8.74-6.08,0-10.92.98-14.54,2.94-3.61,1.97-5.42,4.78-5.42,8.46s1.83,6.65,5.51,8.93c3.67,2.28,10.45,5.38,20.33,9.31,8.99,3.68,15.99,7.29,21,10.83,5,3.55,8.65,7.67,10.93,12.35,2.28,4.69,3.42,10.64,3.42,17.86,0,12.29-4.47,21.88-13.4,28.79-8.93,6.91-22.26,10.35-40,10.35-8.36,0-16.66-.79-24.89-2.38Z"/><path class="cls-4" d="m688.35,753.23h32.3l38.38,82.27,38.57-82.27h32.11v132.81h-31.35v-66.69l-31.73,66.69h-15.2l-31.54-66.69v66.69h-31.54v-132.81Z"/><path class="cls-4" d="m885.77,753.23h33.06l53.01,132.81h-34.39l-10.64-27.36h-49.02l-10.64,27.36h-34.58l53.2-132.81Zm32.68,79.61l-16.15-44.65-16.34,44.65h32.49Z"/><path class="cls-4" d="m979.43,753.23h33.25l48.83,79.04v-79.04h33.63v132.81h-33.06l-49.02-79.23v79.23h-33.63v-132.81Z"/><path class="cls-4" d="m1123.07,886.51c-8.24-1.58-15.01-3.77-20.33-6.55v-30.21c6.84,3.55,13.96,6.21,21.38,7.98,7.41,1.77,14.47,2.66,21.18,2.66,6.21,0,10.89-.95,14.06-2.85,3.17-1.9,4.75-4.62,4.75-8.17,0-2.66-.86-4.97-2.57-6.94-1.71-1.96-4.21-3.77-7.5-5.41-3.29-1.65-8.42-3.92-15.39-6.84-12.29-5.19-21.22-10.95-26.79-17.29-5.58-6.33-8.36-14.12-8.36-23.37,0-7.6,2.12-14.38,6.37-20.33,4.24-5.95,10.17-10.58,17.76-13.87,7.6-3.29,16.34-4.94,26.22-4.94,8.1,0,15.32.64,21.66,1.9,6.33,1.27,12.41,3.29,18.24,6.08v29.45c-11.15-5.82-22.36-8.74-33.63-8.74-6.08,0-10.92.98-14.54,2.94-3.61,1.97-5.42,4.78-5.42,8.46s1.83,6.65,5.51,8.93c3.67,2.28,10.45,5.38,20.33,9.31,8.99,3.68,15.99,7.29,21,10.83,5,3.55,8.65,7.67,10.93,12.35,2.28,4.69,3.42,10.64,3.42,17.86,0,12.29-4.47,21.88-13.4,28.79-8.93,6.91-22.26,10.35-40,10.35-8.36,0-16.66-.79-24.89-2.38Z"/><path class="cls-4" d="m1208.95,753.23h33.63v51.3h52.06v-51.3h33.63v132.81h-33.63v-53.58h-52.06v53.58h-33.63v-132.81Z"/><path class="cls-4" d="m1339.67,753.23h33.63v132.81h-33.63v-132.81Z"/><path class="cls-4" d="m1384.7,753.23h58.52c15.45,0,27.8,4.05,37.05,12.16,9.24,8.11,13.87,19.45,13.87,34.01s-4.59,26.5-13.78,34.67c-9.19,8.17-21.56,12.25-37.14,12.25h-24.89v39.71h-33.63v-132.81Zm53.2,64.79c6.71,0,12-1.39,15.87-4.18,3.86-2.78,5.79-7.6,5.79-14.44s-1.9-11.53-5.7-14.06c-3.8-2.53-9.12-3.8-15.96-3.8h-19.57v36.48h19.57Z"/><path class="cls-4" d="m1935.99,886.8c-7.67-1.39-14.22-3.48-19.67-6.27v-26.6c12.79,5.83,25.71,8.74,38.76,8.74,17.6,0,26.41-5.25,26.41-15.77,0-5.32-2.16-9.15-6.46-11.5-4.31-2.34-11.02-3.52-20.14-3.52h-18.43v-25.65h17.67c7.47,0,13.27-1.26,17.39-3.8,4.11-2.53,6.17-6.27,6.17-11.21,0-4.69-1.84-8.29-5.51-10.83-3.68-2.53-8.87-3.8-15.58-3.8-13.81,0-26.35,3.55-37.62,10.64v-27.17c5.7-3.04,12.22-5.42,19.57-7.12,7.34-1.71,14.94-2.57,22.8-2.57,17.35,0,30.14,3.45,38.38,10.36,8.23,6.91,12.35,16.62,12.35,29.17,0,5.7-1.36,11.08-4.08,16.15-2.73,5.07-6.75,9.38-12.06,12.92,13.3,5.83,19.95,15.71,19.95,29.64,0,12.79-4.37,22.71-13.11,29.73-8.74,7.03-22.99,10.54-42.75,10.54-8.36,0-16.37-.7-24.04-2.09Z"/><path class="cls-4" d="m4.35,903.23h33.25l48.83,79.04v-79.04h33.63v132.81h-33.06l-49.02-79.23v79.23H4.35v-132.81Z"/><path class="cls-4" d="m131.46,903.23h33.63v132.81h-33.63v-132.81Z"/><path class="cls-4" d="m206.99,1030.53c-10.96-5.57-19.41-13.58-25.37-24.04-5.96-10.45-8.93-22.71-8.93-36.76s2.97-26.32,8.93-36.77c5.95-10.45,14.41-18.49,25.37-24.13,10.96-5.63,23.66-8.46,38.09-8.46,9.62,0,18.15.92,25.56,2.75,7.41,1.84,14.28,4.78,20.61,8.83v31.92c-5.58-4.43-11.88-7.63-18.9-9.59-7.03-1.96-15.11-2.95-24.23-2.95-7.86,0-14.85,1.55-21,4.66-6.14,3.11-10.99,7.57-14.53,13.4-3.55,5.83-5.32,12.6-5.32,20.33,0,12.04,3.51,21.54,10.54,28.5,7.03,6.97,16.56,10.45,28.59,10.45,6.71,0,12.35-1.14,16.91-3.42v-21.28h-20.33v-23.56h52.25v66.12c-13.55,8.24-30.28,12.35-50.16,12.35-14.44,0-27.14-2.79-38.09-8.36Z"/><path class="cls-4" d="m302.84,903.23h33.63v51.3h52.06v-51.3h33.63v132.81h-33.63v-53.58h-52.06v53.58h-33.63v-132.81Z"/><path class="cls-4" d="m464.34,931.54h-37.43v-28.31h108.68v28.31h-37.62v104.5h-33.63v-104.5Z"/><path class="cls-4" d="m552.12,1036.51c-8.24-1.58-15.01-3.77-20.33-6.55v-30.21c6.84,3.55,13.96,6.21,21.38,7.98,7.41,1.77,14.47,2.66,21.18,2.66,6.21,0,10.89-.95,14.06-2.85,3.17-1.9,4.75-4.62,4.75-8.17,0-2.66-.86-4.97-2.57-6.94-1.71-1.96-4.21-3.77-7.5-5.41-3.29-1.65-8.42-3.92-15.39-6.84-12.29-5.19-21.22-10.95-26.79-17.29-5.58-6.33-8.36-14.12-8.36-23.37,0-7.6,2.12-14.38,6.37-20.33,4.24-5.95,10.17-10.58,17.76-13.87,7.6-3.29,16.34-4.94,26.22-4.94,8.1,0,15.32.64,21.66,1.9,6.33,1.27,12.41,3.29,18.24,6.08v29.45c-11.15-5.82-22.36-8.74-33.63-8.74-6.08,0-10.92.98-14.54,2.94-3.61,1.97-5.42,4.78-5.42,8.46s1.83,6.65,5.51,8.93c3.67,2.28,10.45,5.38,20.33,9.31,8.99,3.68,15.99,7.29,21,10.83,5,3.55,8.65,7.67,10.93,12.35,2.28,4.69,3.42,10.64,3.42,17.86,0,12.29-4.47,21.88-13.4,28.79-8.93,6.91-22.26,10.35-40,10.35-8.36,0-16.66-.79-24.89-2.38Z"/><path class="cls-4" d="m899.61,1030.15c-10.83-5.83-19.38-13.97-25.65-24.42-6.27-10.45-9.41-22.45-9.41-36s3.13-25.58,9.41-36.1c6.27-10.51,14.82-18.68,25.65-24.51,10.83-5.83,22.96-8.74,36.39-8.74s25.36,2.92,36.19,8.74c10.83,5.83,19.35,14,25.56,24.51,6.2,10.52,9.31,22.55,9.31,36.1s-3.11,25.55-9.31,36c-6.21,10.45-14.73,18.59-25.56,24.42-10.83,5.83-22.89,8.74-36.19,8.74s-25.56-2.91-36.39-8.74Zm54.82-27.36c5.57-3.04,10-7.41,13.3-13.11,3.29-5.7,4.94-12.35,4.94-19.95s-1.62-14.22-4.85-19.86c-3.23-5.63-7.63-10-13.21-13.11-5.58-3.1-11.78-4.65-18.62-4.65s-13.24,1.55-18.81,4.65c-5.58,3.11-9.97,7.48-13.21,13.11-3.23,5.64-4.84,12.25-4.84,19.86s1.62,14.25,4.84,19.95c3.23,5.7,7.66,10.07,13.3,13.11,5.63,3.04,11.88,4.56,18.72,4.56s12.85-1.52,18.43-4.56Z"/><path class="cls-4" d="m1014.65,903.23h94.24v28.31h-60.61v24.89h44.27v26.41h-44.27v53.2h-33.63v-132.81Z"/><path class="cls-4" d="m1170.96,903.23h58.52c15.45,0,27.8,4.05,37.05,12.16,9.24,8.11,13.87,19.45,13.87,34.01s-4.59,26.5-13.78,34.67c-9.19,8.17-21.56,12.25-37.14,12.25h-24.89v39.71h-33.63v-132.81Zm53.2,64.79c6.71,0,12-1.39,15.87-4.18,3.86-2.78,5.79-7.6,5.79-14.44s-1.9-11.53-5.7-14.06c-3.8-2.53-9.12-3.8-15.96-3.8h-19.57v36.48h19.57Z"/><path class="cls-4" d="m1286.1,903.23h59.66c15.58,0,27.77,3.93,36.58,11.78,8.8,7.86,13.21,19.13,13.21,33.82,0,9.88-2.16,18.31-6.46,25.27-4.31,6.97-10.39,12.16-18.24,15.58l23.56,46.36h-34.58l-21.09-41.61h-19v41.61h-33.63v-132.81Zm53.77,62.89c6.71,0,11.9-1.3,15.58-3.9,3.67-2.59,5.51-7.06,5.51-13.39s-1.8-11.12-5.42-13.58-8.83-3.71-15.67-3.71h-20.14v34.58h20.14Z"/><path class="cls-4" d="m1403.14,903.23h94.24v28.31h-60.61v24.89h44.27v26.41h-44.27v24.89h60.61v28.31h-94.24v-132.81Z"/><path class="cls-4" d="m1504.98,903.23h32.3l38.38,82.27,38.57-82.27h32.11v132.81h-31.35v-66.69l-31.73,66.69h-15.2l-31.54-66.69v66.69h-31.54v-132.81Z"/><path class="cls-4" d="m1657.74,903.23h33.63v132.81h-33.63v-132.81Z"/><path class="cls-4" d="m1702.77,903.23h94.24v28.31h-60.61v24.89h44.27v26.41h-44.27v24.89h60.61v28.31h-94.24v-132.81Z"/><path class="cls-4" d="m1804.61,903.23h59.66c15.58,0,27.77,3.93,36.58,11.78,8.8,7.86,13.21,19.13,13.21,33.82,0,9.88-2.16,18.31-6.46,25.27-4.31,6.97-10.39,12.16-18.24,15.58l23.56,46.36h-34.58l-21.09-41.61h-19v41.61h-33.63v-132.81Zm53.77,62.89c6.71,0,11.9-1.3,15.58-3.9,3.67-2.59,5.51-7.06,5.51-13.39s-1.8-11.12-5.42-13.58-8.83-3.71-15.67-3.71h-20.14v34.58h20.14Z"/><path class="cls-4" d="m1921.65,903.23h94.24v28.31h-60.61v24.89h44.27v26.41h-44.27v24.89h60.61v28.31h-94.24v-132.81Z"/><path class="cls-4" d="m53.75,1053.23h33.06l53.01,132.81h-34.39l-10.64-27.36h-49.02l-10.64,27.36H.55l53.2-132.81Zm32.68,79.61l-16.15-44.65-16.34,44.65h32.49Z"/><path class="cls-4" d="m147.42,1053.23h59.66c15.58,0,27.77,3.93,36.58,11.78,8.8,7.86,13.21,19.13,13.21,33.82,0,9.88-2.16,18.31-6.46,25.27-4.31,6.97-10.39,12.16-18.24,15.58l23.56,46.36h-34.58l-21.09-41.61h-19v41.61h-33.63v-132.81Zm53.77,62.89c6.71,0,11.9-1.3,15.58-3.9,3.67-2.59,5.51-7.06,5.51-13.39s-1.8-11.12-5.42-13.58-8.83-3.71-15.67-3.71h-20.14v34.58h20.14Z"/><path class="cls-4" d="m288.59,1081.54h-37.43v-28.31h108.68v28.31h-37.62v104.5h-33.63v-104.5Z"/><path class="cls-4" d="m364.59,1053.23h33.63v132.81h-33.63v-132.81Z"/><path class="cls-4" d="m426.15,1186.51c-8.24-1.58-15.01-3.77-20.33-6.55v-30.21c6.84,3.55,13.96,6.21,21.38,7.98,7.41,1.77,14.47,2.66,21.18,2.66,6.21,0,10.89-.95,14.06-2.85,3.17-1.9,4.75-4.62,4.75-8.17,0-2.66-.86-4.97-2.57-6.94-1.71-1.96-4.21-3.77-7.5-5.41-3.29-1.65-8.42-3.92-15.39-6.84-12.29-5.19-21.22-10.95-26.79-17.29-5.58-6.33-8.36-14.12-8.36-23.37,0-7.6,2.12-14.38,6.37-20.33,4.24-5.95,10.17-10.58,17.76-13.87,7.6-3.29,16.34-4.94,26.22-4.94,8.1,0,15.32.64,21.66,1.9,6.33,1.27,12.41,3.29,18.24,6.08v29.45c-11.15-5.82-22.36-8.74-33.63-8.74-6.08,0-10.92.98-14.54,2.94-3.61,1.97-5.42,4.78-5.42,8.46s1.83,6.65,5.51,8.93c3.67,2.28,10.45,5.38,20.33,9.31,8.99,3.68,15.99,7.29,21,10.83,5,3.55,8.65,7.67,10.93,12.35,2.28,4.69,3.42,10.64,3.42,17.86,0,12.29-4.47,21.88-13.4,28.79-8.93,6.91-22.26,10.35-40,10.35-8.36,0-16.66-.79-24.89-2.38Z"/><path class="cls-4" d="m538.06,1081.54h-37.43v-28.31h108.68v28.31h-37.62v104.5h-33.63v-104.5Z"/><path class="cls-4" d="m614.06,1053.23h59.66c15.58,0,27.77,3.93,36.58,11.78,8.8,7.86,13.21,19.13,13.21,33.82,0,9.88-2.16,18.31-6.46,25.27-4.31,6.97-10.39,12.16-18.24,15.58l23.56,46.36h-34.58l-21.09-41.61h-19v41.61h-33.63v-132.81Zm53.77,62.89c6.71,0,11.9-1.3,15.58-3.9,3.67-2.59,5.51-7.06,5.51-13.39s-1.8-11.12-5.42-13.58-8.83-3.71-15.67-3.71h-20.14v34.58h20.14Z"/><path class="cls-4" d="m763.97,1135.5l-49.02-82.27h35.91l30.02,51.49,31.35-51.49h35.72l-50.35,82.27v50.54h-33.63v-50.54Z"/><path class="cls-4" d="m1065.42,1053.23h33.06l53.01,132.81h-34.39l-10.64-27.36h-49.02l-10.64,27.36h-34.58l53.2-132.81Zm32.68,79.61l-16.15-44.65-16.34,44.65h32.49Z"/><path class="cls-4" d="m1159.08,1053.23h33.25l48.83,79.04v-79.04h33.63v132.81h-33.06l-49.02-79.23v79.23h-33.63v-132.81Z"/><path class="cls-4" d="m1286.19,1053.23h47.69c14.56,0,27.29,2.66,38.19,7.98,10.89,5.32,19.29,12.95,25.18,22.9,5.89,9.95,8.83,21.56,8.83,34.86,0,22.04-6.46,38.73-19.38,50.07-12.92,11.34-30.84,17-53.77,17h-46.74v-132.81Zm49.59,104.5c11.53,0,20.36-3.48,26.5-10.45,6.14-6.96,9.22-16.4,9.22-28.31,0-10.89-3.07-19.85-9.22-26.88-6.14-7.03-14.6-10.54-25.36-10.54h-17.1v76.19h15.96Z"/><path class="cls-4" d="m1574.14,1053.23h33.63v51.3h52.06v-51.3h33.63v132.81h-33.63v-53.58h-52.06v53.58h-33.63v-132.81Z"/><path class="cls-4" d="m1750.08,1135.5l-49.02-82.27h35.91l30.02,51.49,31.35-51.49h35.72l-50.35,82.27v50.54h-33.63v-50.54Z"/><path class="cls-4" d="m1836.91,1053.23h58.52c15.45,0,27.8,4.05,37.05,12.16,9.24,8.11,13.87,19.45,13.87,34.01s-4.59,26.5-13.78,34.67c-9.19,8.17-21.56,12.25-37.14,12.25h-24.89v39.71h-33.63v-132.81Zm53.2,64.79c6.71,0,12-1.39,15.87-4.18,3.86-2.78,5.79-7.6,5.79-14.44s-1.9-11.53-5.7-14.06c-3.8-2.53-9.12-3.8-15.96-3.8h-19.57v36.48h19.57Z"/><path class="cls-4" d="m1948.25,1115.17h67.64v26.6h-67.64v-26.6Z"/><path class="cls-1" d="m205.29,218.75c0-1.06-.32-2.04-.86-2.86,0,0,0,0,0-.01-.09-.13-.18-.25-.28-.38-.01-.02-.02-.03-.04-.05-.07-.08-.14-.16-.21-.23-.05-.05-.09-.11-.14-.16l-61.02-61.05c-2.03-2.03-5.32-2.03-7.35,0-1.03,1.03-1.53,2.35-1.53,3.69s.5,2.66,1.53,3.69l52.17,52.17H44.09c-2.88,0-5.19,2.31-5.19,5.19,0,2.88,2.31,5.19,5.19,5.19h143.44s-52.14,52.17-52.14,52.17c-1.03,1.03-1.53,2.35-1.53,3.69s.5,2.66,1.53,3.66c2.03,2.03,5.32,2.03,7.35,0l60.71-60.74c1.13-.95,1.84-2.37,1.84-3.97Z"/><path class="cls-1" d="m1897.09,817.91h0c.17-16.71-19.83-32.56-56.29-44.63-35.98-11.91-83.72-18.82-134.41-19.45-50.3-.66-98.01,4.93-134.36,15.73-37.21,11.42-57.05,26.44-57.36,43.46-.22,15.79,17.57,30.93,50.07,42.63l6.41,2.38c35.74,11.65,83.4,18.43,134.21,19.07,50.3.66,98.01-4.93,134.36-15.73,37.21-11.41,57.05-26.44,57.36-43.45Zm-58.23,40.56c-36.05,10.72-83.44,16.26-133.44,15.6-50.51-.64-97.85-7.36-133.25-18.9l-6.37-2.36c-31.21-11.23-48.29-25.35-48.09-39.74.28-15.36,19.89-29.78,55.21-40.62,36.05-10.72,83.44-16.26,133.45-15.6,50.39.63,97.8,7.48,133.49,19.3,1.91.63,3.78,1.28,5.6,1.93,31.12,11.2,48.75,25.56,48.61,39.78-.29,15.36-19.9,29.78-55.21,40.61Z"/><polygon class="cls-3" points="1019.46 350.51 969.56 346.58 1011.95 374.09 984.1 416.28 1028.29 392.72 1050.32 438.81 1052.1 387.76 1101.99 391.69 1059.62 364.12 1087.45 321.97 1043.29 345.52 1021.25 299.4 1019.46 350.51"/><path class="cls-2" d="m1543.71,275.31c33.87-20.91,43.01-64.43,23.2-97.13-20.49-33.72-65.24-45.06-99.46-22.57-32.01,21.04-41.23,63.72-21.13,96.34,20.16,32.71,63.41,44.34,97.39,23.36Zm-72.07-118.29c31.59-19.16,73.08-8.83,92.41,23.03,19.25,31.71,9.17,73.43-22.32,92.45-31.96,19.3-73.36,9.16-92.75-22.72-19.33-31.79-9.15-73.47,22.67-92.76Z"/><path class="cls-2" d="m1459.04,233.48c.18-.1.36-.2.54-.29,3.31-1.64,6.76-2.33,10.45-1.68,1.25.22,1.91-.14,2.05-.99.14-.88-.3-1.44-1.61-1.63-1.41-.21-2.86-.31-4.29-.27-.95.03-1.45-.25-1.69-1.14-.57-2.08-1.37-4.12-1.72-6.23-1.19-7.27-.29-14.36,2.16-21.25,4.31-12.12,12.02-21.19,24.05-26.1,10.68-4.36,21.57-4.67,32.46-.6,6.18,2.31,11.45,6.01,15.71,11.1,1.2,1.43,1.14,1.42.27,3.03-.61,1.12-1.12,2.3-1.61,3.49-.35.85-.27,1.69.75,2.01.99.31,1.52-.27,1.82-1.17,1.24-3.71,3.63-6.49,6.83-8.64,1.07-.72,1.38-1.41.94-2.1-.46-.74-1.4-.83-2.46-.15-.73.47-1.4,1.03-2.09,1.56-.48.36-.94.74-1.54,1.21-4.7-5.84-10.44-10.07-17.26-12.78-6.81-2.7-13.89-3.66-21.16-2.98-7.26.68-14.04,2.86-20.28,6.65-8.16,4.95-13.98,11.98-17.76,20.67-4.79,10.98-6,22.23-1.71,33.81-.37.2-.67.37-.98.51-1.03.47-2.07.89-3.08,1.39-1.03.51-1.39,1.35-.91,2.1.53.84,1.29.94,2.14.49Z"/><path class="cls-2" d="m1534.11,212.65c-3.29-2.57-8.77-5.15-9.95.83-.27,1.38-.36,2.89-.14,4.27,1.09,6.77,4.33,12.37,9.72,16.62,1.18.93,2.64,1.62,4.09,2.05,2.69.8,5-.56,5.61-3.3,1.07-4.84-.6-9.9-3.43-14.13-1.66-2.48-3.73-4.66-5.89-6.35Z"/><path class="cls-2" d="m1496.47,229.02c-7.47-1.27-5.64,9.45-4.04,13.48.52,1.32,1.21,2.73,2.03,4.12,2.41,4.08,6.02,7.98,10.33,9.06,2.67.67,4.83-.39,5.49-3.04.41-1.65.54-3.49.28-5.16-1-6.35-4.12-11.58-8.94-15.79-1.48-1.29-3.16-2.33-5.15-2.66Z"/><path class="cls-3" d="m769.76,993.34l-38.46-7,13.11,36.73c.29.99.23,1.94-.22,2.87-.42.94-1.15,1.61-2.12,2.01l-20.08,7.12-.19.13c-.94.35-1.89.29-2.89-.14-.94-.42-1.63-1.15-2.09-2.14l-13.14-36.57-25.01,29.55-.13-.19-.03.16c-.6.72-1.39,1.15-2.39,1.33-.9.08-1.74-.12-2.58-.63l-.03.16-.5-.56-16.36-13.75c-.8-.75-1.21-1.65-1.27-2.71-.05-1.08.24-2.05.9-2.83l25.18-29.59-38.22-6.95.02-.08-.08-.02c-.91-.17-1.65-.63-2.27-1.4-.64-.72-.93-1.54-.87-2.47l-.08-.02,3.96-21.77c.2-1.09.74-1.93,1.61-2.49.88-.61,1.88-.81,2.97-.61l.89.24,37.29,6.78-13.14-36.57.09-.06v-.08c-.28-.93-.26-1.81.04-2.69.35-.87.94-1.56,1.75-2.07l-.16-.03,20.89-7.36c1.03-.39,2.04-.34,2.98.08.98.48,1.64,1.26,1.98,2.28l13.04,36.71,25.32-29.73.03-.16c.73-.69,1.6-1.06,2.6-1.15,1.08-.05,2.03.2,2.77.81l16.36,13.75.05.17c.81.67,1.26,1.52,1.38,2.56.1,1.09-.16,2.06-.74,2.86l-25.34,29.73,38.46,7c.97.23,1.76.76,2.32,1.58.56.87.8,1.82.72,2.83l-3.84,21.08-.16-.03.13.19c-.19,1.04-.75,1.87-1.69,2.47-.85.59-1.77.81-2.76.68"/><path class="cls-1" d="m1618.59,791.25c-1.43,2.23-2.14,4-2.14,5.3,0,.43.16.81.47,1.12.31.31.7.47,1.16.47.43,0,.82-.14,1.14-.41.24-.19.45-.61.61-1.26.68-2.53,2.18-4.65,4.49-6.36,2.31-1.71,4.96-2.57,7.95-2.57,3.34,0,6.2,1.13,8.57,3.39,2.37,2.26,3.55,4.85,3.55,7.79,0,1.09-.21,2.17-.63,3.24-.42,1.08-1.2,2.32-2.34,3.73s-3.25,3.63-6.32,6.65c-6.58,6.47-13.35,12.84-20.31,19.09v5.06h33.12v-4.77c0-.82-.16-1.4-.49-1.75-.33-.35-.73-.53-1.22-.53-.52,0-.94.18-1.26.53-.33.35-.49.94-.49,1.75v1.35h-26.31v-.24c5.06-4.38,11.61-10.54,19.66-18.48,3.21-3.15,5.43-5.51,6.67-7.08,1.24-1.56,2.11-3,2.63-4.32.52-1.32.78-2.77.78-4.34,0-3.75-1.54-7.11-4.61-10.08-3.07-2.96-6.74-4.45-11.01-4.45-2.64,0-5.22.64-7.73,1.92-2.52,1.28-4.49,3.03-5.91,5.26Z"/><path class="cls-1" d="m1691.79,832.66c3.51-4.3,5.26-10.13,5.26-17.5v-8.48c0-3.15-.3-5.9-.9-8.24-.44-1.63-1.12-3.44-2.04-5.42-.93-1.98-1.79-3.44-2.61-4.37-1.25-1.44-2.76-2.56-4.53-3.37-1.77-.8-3.67-1.2-5.71-1.2-4.19,0-7.65,1.69-10.4,5.06-3.51,4.3-5.26,10.14-5.26,17.54v8.48c0,3.13.31,5.86.94,8.2.41,1.66,1.08,3.48,2.02,5.47.94,1.99,1.8,3.43,2.59,4.32,1.25,1.44,2.77,2.56,4.55,3.37,1.78.8,3.68,1.2,5.69,1.2,4.19,0,7.65-1.69,10.4-5.06Zm-18.27-2.24c-1.17-1.66-2.21-3.89-3.12-6.69-.91-2.8-1.37-5.82-1.37-9.06v-7.55c0-5.22,1.09-9.79,3.26-13.71,2.18-3.92,5.18-5.87,9.02-5.87,1.93,0,3.67.48,5.22,1.43,1.09.68,1.97,1.5,2.65,2.45,1.14,1.66,2.17,3.88,3.08,6.67.91,2.79,1.37,5.8,1.37,9.03v7.55c0,5.22-1.09,9.8-3.26,13.73-2.18,3.93-5.17,5.89-8.97,5.89-1.96,0-3.71-.49-5.26-1.47-1.09-.68-1.96-1.48-2.61-2.41Z"/><path class="cls-1" d="m1729.16,784.07c-2.64,0-5.21.64-7.73,1.92-2.52,1.28-4.49,3.03-5.91,5.26-1.43,2.23-2.14,4-2.14,5.3,0,.43.16.81.47,1.12.31.31.7.47,1.16.47.43,0,.82-.14,1.14-.41.24-.19.45-.61.61-1.26.68-2.53,2.18-4.65,4.49-6.36,2.31-1.71,4.96-2.57,7.95-2.57,3.34,0,6.2,1.13,8.57,3.39,2.37,2.26,3.55,4.85,3.55,7.79,0,1.09-.21,2.17-.63,3.24-.42,1.08-1.2,2.32-2.34,3.73-1.14,1.41-3.25,3.63-6.32,6.65-6.58,6.47-13.35,12.84-20.31,19.09v5.06h33.12v-4.77c0-.82-.16-1.4-.49-1.75-.33-.35-.73-.53-1.22-.53-.52,0-.94.18-1.26.53-.33.35-.49.94-.49,1.75v1.35h-26.31v-.24c5.06-4.38,11.61-10.54,19.66-18.48,3.21-3.15,5.43-5.51,6.67-7.08,1.24-1.56,2.11-3,2.63-4.32.52-1.32.78-2.77.78-4.34,0-3.75-1.54-7.11-4.61-10.08s-6.74-4.45-11.01-4.45Z"/><path class="cls-1" d="m1778.35,784.07c-4.19,0-7.93,1.16-11.22,3.47-2.37,1.66-3.55,3.03-3.55,4.12,0,.43.16.81.49,1.12.33.31.72.47,1.18.47.3,0,.56-.06.8-.18.23-.12.56-.46,1-1,1.2-1.41,2.79-2.53,4.77-3.34,1.98-.82,4.16-1.22,6.53-1.22,3.37,0,6.11.98,8.2,2.94,2.09,1.96,3.14,4.22,3.14,6.77s-1,4.65-3,6.53c-2,1.88-4.53,2.81-7.61,2.81l-2.94-.04c-.68,0-1.19.16-1.53.49-.34.33-.51.73-.51,1.22,0,.52.18.93.53,1.24.35.31.94.47,1.75.47,2.53,0,5.03.56,7.51,1.69,2.47,1.13,4.37,2.67,5.69,4.63,1.32,1.96,1.98,3.96,1.98,6,0,3.05-1.34,5.81-4.02,8.3-2.68,2.49-6,3.73-9.97,3.73-4.7,0-9.16-1.56-13.38-4.69-.54-.41-1.03-.61-1.47-.61s-.81.16-1.12.49c-.31.33-.47.71-.47,1.14,0,.49.2.95.61,1.39,1.25,1.31,3.45,2.58,6.61,3.83,3.15,1.25,6.2,1.88,9.14,1.88,5,0,9.17-1.57,12.5-4.71,3.33-3.14,5-6.76,5-10.87,0-2.66-.83-5.23-2.49-7.69-1.66-2.46-4.07-4.4-7.22-5.81,2.58-1.22,4.54-2.86,5.87-4.89,1.33-2.04,2-4.2,2-6.49,0-3.59-1.39-6.68-4.16-9.28-2.77-2.6-6.32-3.9-10.65-3.9Z"/></g></svg>