<svg width="1440" height="887" viewBox="0 0 1440 887" fill="none" xmlns="http://www.w3.org/2000/svg">
<mask id="mask0_157_377" style="mask-type:alpha" maskUnits="userSpaceOnUse" x="1" y="0" width="1440" height="887">
<rect x="1" width="1440" height="887" fill="#D9D9D9"/>
</mask>
<g mask="url(#mask0_157_377)">
<path d="M-15.5295 112.38C-21.1721 111.357 -25.9906 109.819 -30 107.766V88.1954C-20.5909 92.4848 -11.0861 94.6258 -1.48576 94.6258C11.4619 94.6258 17.9431 90.7631 17.9431 83.023C17.9431 79.1088 16.354 76.2909 13.1907 74.5692C10.02 72.8476 5.08369 71.9794 -1.62554 71.9794H-15.1838V53.1074H-2.18464C3.31075 53.1074 7.57759 52.1803 10.6085 50.3115C13.6321 48.45 15.1475 45.6983 15.1475 42.0637C15.1475 38.6204 13.7939 35.9643 11.094 34.0955C8.38681 32.2341 4.56873 31.2997 -0.367555 31.2997C-10.527 31.2997 -19.7522 33.9116 -28.0431 39.1281V19.1377C-23.8499 16.901 -19.0534 15.1573 -13.6462 13.8991C-8.23913 12.641 -2.64811 12.0156 3.12684 12.0156C15.8906 12.0156 25.2997 14.554 31.3615 19.6307C37.416 24.7147 40.4469 31.8588 40.4469 41.0925C40.4469 45.2863 39.4464 49.252 37.4454 52.9749C35.4371 56.7052 32.4797 59.8763 28.5734 62.4808C38.3577 66.7703 43.2498 74.0395 43.2498 84.2885C43.2498 93.7061 40.035 100.997 33.6053 106.17C27.1756 111.342 16.6924 113.925 2.15576 113.925C-3.99437 113.925 -9.88702 113.41 -15.5295 112.387V112.38Z" stroke="white" stroke-width="0.75" stroke-miterlimit="10"/>
<path d="M92.1641 14.1094H116.625L152.547 72.2632V14.1094H177.287V111.825H152.966L116.904 53.5309V111.825H92.1641V14.1094Z" stroke="white" stroke-width="0.75" stroke-miterlimit="10"/>
<path d="M185.676 14.1094H210.416V111.825H185.676V14.1094Z" stroke="white" stroke-width="0.75" stroke-miterlimit="10"/>
<path d="M241.229 107.773C233.166 103.675 226.95 97.7739 222.566 90.0853C218.181 82.3967 215.996 73.3764 215.996 63.0317C215.996 52.6871 218.181 43.6741 222.566 35.9781C226.943 28.2895 233.166 22.3741 241.229 18.2245C249.292 14.0822 258.635 12 269.251 12C276.328 12 282.603 12.6769 288.054 14.0307C293.505 15.3845 298.559 17.5476 303.216 20.5274V44.0126C299.111 40.7532 294.476 38.3988 289.312 36.9493C284.14 35.5073 278.196 34.7862 271.487 34.7862C265.705 34.7862 260.562 35.9266 256.038 38.2075C251.521 40.4957 247.953 43.7771 245.349 48.0665C242.737 52.356 241.435 57.3444 241.435 63.0244C241.435 71.8828 244.017 78.8725 249.189 83.9933C254.361 89.1215 261.372 91.6819 270.222 91.6819C275.158 91.6819 279.307 90.8431 282.662 89.1656V73.5088H267.706V56.1745H306.144V104.822C296.176 110.885 283.868 113.909 269.243 113.909C258.62 113.909 249.277 111.856 241.222 107.758L241.229 107.773Z" stroke="white" stroke-width="0.75" stroke-miterlimit="10"/>
<path d="M311.75 14.1094H336.49V51.8534H374.789V14.1094H399.529V111.825H374.789V72.403H336.49V111.825H311.75V14.1094Z" stroke="white" stroke-width="0.75" stroke-miterlimit="10"/>
<path d="M430.559 34.9385H403.023V14.1094H482.975V34.9385H455.3V111.825H430.559V34.9385Z" stroke="white" stroke-width="0.75" stroke-miterlimit="10"/>
<path d="M495.136 112.173C489.074 111.01 484.093 109.399 480.18 107.346V85.119C485.212 87.7309 490.45 89.688 495.908 90.9903C501.359 92.2999 506.553 92.9474 511.489 92.9474C516.058 92.9474 519.501 92.2484 521.833 90.8505C524.165 89.4526 525.327 87.4513 525.327 84.8394C525.327 82.8823 524.695 81.1827 523.437 79.7333C522.179 78.2912 520.339 76.9595 517.919 75.7455C515.499 74.5389 511.725 72.8614 506.597 70.713C497.556 66.8944 490.987 62.6565 486.889 57.9918C482.784 53.3345 480.739 47.603 480.739 40.7973C480.739 35.2056 482.298 30.2246 485.425 25.8395C488.544 21.4618 492.907 18.0626 498.49 15.6346C504.081 13.214 510.511 12 517.779 12C523.738 12 529.05 12.4709 533.714 13.3979C538.371 14.3323 542.843 15.8186 547.132 17.8713V39.5392C538.93 35.2571 530.683 33.1087 522.392 33.1087C517.919 33.1087 514.359 33.8298 511.695 35.2792C509.04 36.7286 507.708 38.7961 507.708 41.5036C507.708 44.2112 509.054 46.3964 511.762 48.0739C514.462 49.7514 519.449 52.0396 526.718 54.9238C533.331 57.6313 538.481 60.2874 542.167 62.8919C545.845 65.5039 548.53 68.5352 550.207 71.9785C551.885 75.4291 552.723 79.8069 552.723 85.119C552.723 94.1614 549.435 101.217 542.865 106.301C536.296 111.385 526.49 113.916 513.439 113.916C507.289 113.916 501.183 113.335 495.128 112.165L495.136 112.173Z" stroke="white" stroke-width="0.75" stroke-miterlimit="10"/>
<path d="M624.636 107.494C616.669 103.212 610.379 97.223 605.766 89.5271C601.154 81.8385 598.844 73.0094 598.844 63.04C598.844 53.0706 601.146 44.2195 605.766 36.4794C610.379 28.7466 616.669 22.7355 624.636 18.4461C632.603 14.164 641.527 12.0156 651.407 12.0156C661.287 12.0156 670.063 14.164 678.03 18.4461C685.998 22.7355 692.265 28.7466 696.834 36.4794C701.395 44.2195 703.683 53.0706 703.683 63.04C703.683 73.0094 701.395 81.8458 696.834 89.5271C692.265 97.2157 685.998 103.205 678.03 107.494C670.063 111.784 661.191 113.925 651.407 113.925C641.622 113.925 632.603 111.784 624.636 107.494ZM664.965 87.364C669.063 85.1273 672.322 81.912 674.749 77.7183C677.17 73.5245 678.383 68.6317 678.383 63.04C678.383 57.4483 677.192 52.5776 674.816 48.4353C672.439 44.2931 669.202 41.0778 665.097 38.7896C660.992 36.5088 656.431 35.361 651.399 35.361C646.367 35.361 641.659 36.5014 637.562 38.7896C633.457 41.0705 630.227 44.2931 627.844 48.4353C625.467 52.585 624.283 57.4483 624.283 63.04C624.283 68.6317 625.475 73.5245 627.844 77.7183C630.22 81.912 633.479 85.1273 637.628 87.364C641.77 89.6006 646.367 90.719 651.399 90.719C656.431 90.719 660.853 89.6006 664.958 87.364H664.965Z" stroke="white" stroke-width="0.75" stroke-miterlimit="10"/>
<path d="M709.266 14.1094H778.594V34.9385H734.006V53.2514H766.574V72.6826H734.006V111.825H709.266V14.1094Z" stroke="white" stroke-width="0.75" stroke-miterlimit="10"/>
<path d="M370.051 124.477H413.102C424.468 124.477 433.553 127.464 440.358 133.423C447.155 139.39 450.562 147.734 450.562 158.446C450.562 169.159 447.185 177.951 440.424 183.962C433.663 189.973 424.563 192.975 413.102 192.975H394.791V222.192H370.051V124.477ZM409.188 172.146C414.124 172.146 418.016 171.123 420.863 169.07C423.703 167.025 425.122 163.479 425.122 158.446C425.122 153.414 423.725 149.97 420.929 148.102C418.134 146.24 414.22 145.306 409.188 145.306H394.791V172.146H409.188Z" stroke="white" stroke-width="0.75" stroke-miterlimit="10"/>
<path d="M454.758 124.477H498.647C510.109 124.477 519.077 127.368 525.558 133.144C532.032 138.919 535.276 147.219 535.276 158.027C535.276 165.296 533.687 171.498 530.524 176.619C527.353 181.747 522.88 185.566 517.105 188.082L534.437 222.192H508.998L493.483 191.577H479.505V222.192H454.765V124.477H454.758ZM494.314 170.748C499.251 170.748 503.069 169.792 505.776 167.879C508.476 165.973 509.829 162.684 509.829 158.019C509.829 153.355 508.505 149.838 505.842 148.028C503.186 146.211 499.346 145.298 494.314 145.298H479.498V170.741H494.314V170.748Z" stroke="white" stroke-width="0.75" stroke-miterlimit="10"/>
<path d="M540.859 124.477H610.188V145.306H565.6V163.619H598.167V183.05H565.6V201.363H610.188V222.192H540.859V124.477Z" stroke="white" stroke-width="0.75" stroke-miterlimit="10"/>
<path d="M615.777 124.477H639.539L667.774 185.007L696.148 124.477H719.77V222.192H696.707V173.124L673.365 222.192H662.183L638.98 173.124V222.192H615.777V124.477Z" stroke="white" stroke-width="0.75" stroke-miterlimit="10"/>
<path d="M728.156 124.477H752.897V222.192H728.156V124.477Z" stroke="white" stroke-width="0.75" stroke-miterlimit="10"/>
<path d="M761.285 124.477H830.614V145.306H786.025V163.619H818.593V183.05H786.025V201.363H830.614V222.192H761.285V124.477Z" stroke="white" stroke-width="0.75" stroke-miterlimit="10"/>
<path d="M836.203 124.477H880.093C891.554 124.477 900.522 127.368 907.003 133.144C913.477 138.919 916.721 147.219 916.721 158.027C916.721 165.296 915.132 171.498 911.969 176.619C908.798 181.747 904.325 185.566 898.55 188.082L915.883 222.192H890.443L874.928 191.577H860.951V222.192H836.21V124.477H836.203ZM875.76 170.748C880.696 170.748 884.514 169.792 887.221 167.879C889.921 165.973 891.275 162.684 891.275 158.019C891.275 153.355 889.951 149.838 887.287 148.028C884.632 146.211 880.792 145.298 875.76 145.298H860.943V170.741H875.76V170.748Z" stroke="white" stroke-width="0.75" stroke-miterlimit="10"/>
<path d="M922.305 124.477H991.633V145.306H947.045V163.619H979.613V183.05H947.045V201.363H991.633V222.192H922.305V124.477Z" stroke="white" stroke-width="0.75" stroke-miterlimit="10"/>
<path d="M1176.97 124.477H1201.29L1240.29 222.192H1214.99L1207.16 202.062H1171.1L1163.27 222.192H1137.83L1176.97 124.477ZM1201.01 183.05L1189.13 150.198L1177.11 183.05H1201.01Z" stroke="white" stroke-width="0.75" stroke-miterlimit="10"/>
<path d="M1245.88 124.477H1289.77C1301.23 124.477 1310.2 127.368 1316.68 133.144C1323.15 138.919 1326.4 147.219 1326.4 158.027C1326.4 165.296 1324.81 171.498 1321.64 176.619C1318.47 181.747 1314 185.566 1308.23 188.082L1325.56 222.192H1300.12L1284.6 191.577H1270.63V222.192H1245.89V124.477H1245.88ZM1285.44 170.748C1290.37 170.748 1294.19 169.792 1296.9 167.879C1299.6 165.973 1300.95 162.684 1300.95 158.019C1300.95 153.355 1299.63 149.838 1296.96 148.028C1294.31 146.211 1290.47 145.298 1285.44 145.298H1270.62V170.741H1285.44V170.748Z" stroke="white" stroke-width="0.75" stroke-miterlimit="10"/>
<path d="M1349.73 145.306H1322.2V124.477H1402.15V145.306H1374.47V222.192H1349.73V145.306Z" stroke="white" stroke-width="0.75" stroke-miterlimit="10"/>
<path d="M1402.85 170.047H1452.61V189.618H1402.85V170.047Z" stroke="white" stroke-width="0.75" stroke-miterlimit="10"/>
<path d="M18.081 332.899C12.0191 331.737 7.03872 330.125 3.125 328.073V305.846C8.15692 308.457 13.3948 310.415 18.8534 311.717C24.3047 313.027 29.4985 313.674 34.4348 313.674C39.0032 313.674 42.4461 312.975 44.7782 311.577C47.1102 310.179 48.2725 308.178 48.2725 305.566C48.2725 303.609 47.6399 301.909 46.3819 300.46C45.1239 299.018 43.2848 297.686 40.8644 296.472C38.4441 295.265 34.6702 293.588 29.5426 291.44C20.5013 287.621 13.9319 283.383 9.83423 278.718C5.72924 274.061 3.6841 268.33 3.6841 261.524C3.6841 255.932 5.2437 250.951 8.37026 246.566C11.4895 242.188 15.8519 238.789 21.4356 236.361C27.0266 233.941 33.4563 232.727 40.7247 232.727C46.6835 232.727 51.995 233.197 56.6591 234.125C61.3158 235.059 65.7886 236.545 70.0775 238.598V260.266C61.8749 255.984 53.6282 253.835 45.3373 253.835C40.8644 253.835 37.3038 254.556 34.6407 256.006C31.985 257.455 30.6535 259.523 30.6535 262.23C30.6535 264.938 31.9997 267.123 34.7069 268.8C37.4068 270.478 42.3946 272.766 49.6629 275.65C56.2765 278.358 61.4262 281.014 65.1118 283.619C68.7901 286.23 71.4753 289.262 73.1526 292.705C74.8299 296.156 75.6686 300.533 75.6686 305.846C75.6686 314.888 72.3802 321.944 65.8107 327.028C59.2413 332.112 49.4349 334.643 36.3843 334.643C30.2341 334.643 24.1281 334.062 18.0736 332.892L18.081 332.899Z" stroke="white" stroke-width="0.75" stroke-miterlimit="10"/>
<path d="M100.411 255.665H72.875V234.836H152.827V255.665H125.151V332.551H100.411V255.665Z" stroke="white" stroke-width="0.75" stroke-miterlimit="10"/>
<path d="M156.32 234.836H200.21C211.671 234.836 220.639 237.727 227.12 243.503C233.594 249.279 236.838 257.578 236.838 268.386C236.838 275.655 235.249 281.858 232.086 286.979C228.915 292.107 224.443 295.925 218.668 298.442L236 332.551H210.561L195.046 301.936H181.068V332.551H156.328V234.836H156.32ZM195.877 281.107C200.813 281.107 204.631 280.151 207.338 278.238C210.038 276.332 211.392 273.044 211.392 268.379C211.392 263.714 210.068 260.197 207.405 258.387C204.749 256.57 200.909 255.658 195.877 255.658H181.061V281.1H195.877V281.107Z" stroke="white" stroke-width="0.75" stroke-miterlimit="10"/>
<path d="M266.605 295.366L230.543 234.836H256.961L279.045 272.72L302.108 234.836H328.386L291.345 295.366V332.551H266.605V295.366Z" stroke="white" stroke-width="0.75" stroke-miterlimit="10"/>
<path d="M413.649 234.836H437.97L476.967 332.551H451.668L443.84 312.421H407.778L399.951 332.551H374.512L413.649 234.836ZM437.69 293.409L425.809 260.558L413.789 293.409H437.69Z" stroke="white" stroke-width="0.75" stroke-miterlimit="10"/>
<path d="M482.559 234.836H507.019L542.942 292.99V234.836H567.682V332.551H543.361L507.299 274.257V332.551H482.559V234.836Z" stroke="white" stroke-width="0.75" stroke-miterlimit="10"/>
<path d="M576.066 234.836H611.15C621.861 234.836 631.226 236.793 639.245 240.707C647.256 244.621 653.436 250.235 657.769 257.556C662.102 264.877 664.265 273.419 664.265 283.212C664.265 299.428 659.512 311.707 650.008 320.043C640.503 328.387 627.32 332.551 610.451 332.551H576.066V234.836ZM612.548 311.722C621.03 311.722 627.526 309.162 632.043 304.033C636.56 298.913 638.826 291.967 638.826 283.204C638.826 275.192 636.567 268.6 632.043 263.42C627.526 258.248 621.302 255.665 613.386 255.665H600.807V311.722H612.548Z" stroke="white" stroke-width="0.75" stroke-miterlimit="10"/>
<path d="M799.84 234.836H824.58V272.58H862.879V234.836H887.619V332.551H862.879V293.13H824.58V332.551H799.84V234.836Z" stroke="white" stroke-width="0.75" stroke-miterlimit="10"/>
<path d="M929.273 295.366L893.211 234.836H919.629L941.713 272.72L964.776 234.836H991.054L954.013 295.366V332.551H929.273V295.366Z" stroke="white" stroke-width="0.75" stroke-miterlimit="10"/>
<path d="M993.152 234.836H1036.2C1047.57 234.836 1056.65 237.823 1063.46 243.783C1070.26 249.75 1073.66 258.093 1073.66 268.806C1073.66 279.518 1070.29 288.31 1063.53 294.321C1056.77 300.333 1047.66 303.334 1036.2 303.334H1017.89V332.551H993.152V234.836ZM1032.29 282.505C1037.23 282.505 1041.12 281.483 1043.96 279.43C1046.8 277.384 1048.22 273.838 1048.22 268.806C1048.22 263.773 1046.83 260.33 1044.03 258.461C1041.24 256.599 1037.32 255.665 1032.29 255.665H1017.89V282.505H1032.29Z" stroke="white" stroke-width="0.75" stroke-miterlimit="10"/>
<path d="M1077.86 234.836H1102.32L1138.24 292.99V234.836H1162.98V332.551H1138.66L1102.6 274.257V332.551H1077.86V234.836Z" stroke="white" stroke-width="0.75" stroke-miterlimit="10"/>
<path d="M1194.35 328.221C1186.39 323.939 1180.1 317.95 1175.49 310.254C1170.87 302.565 1168.56 293.736 1168.56 283.767C1168.56 273.797 1170.87 264.946 1175.49 257.206C1180.1 249.473 1186.39 243.462 1194.35 239.173C1202.32 234.891 1211.25 232.742 1221.13 232.742C1231.01 232.742 1239.78 234.891 1247.75 239.173C1255.72 243.462 1261.98 249.473 1266.55 257.206C1271.11 264.946 1273.4 273.797 1273.4 283.767C1273.4 293.736 1271.11 302.572 1266.55 310.254C1261.98 317.942 1255.72 323.931 1247.75 328.221C1239.78 332.51 1230.91 334.651 1221.13 334.651C1211.34 334.651 1202.32 332.51 1194.35 328.221ZM1234.68 308.091C1238.78 305.854 1242.04 302.639 1244.47 298.445C1246.89 294.251 1248.1 289.358 1248.1 283.767C1248.1 278.175 1246.91 273.304 1244.53 269.162C1242.16 265.02 1238.92 261.804 1234.82 259.516C1230.71 257.235 1226.15 256.088 1221.12 256.088C1216.09 256.088 1211.38 257.228 1207.28 259.516C1203.18 261.797 1199.95 265.02 1197.56 269.162C1195.19 273.312 1194 278.175 1194 283.767C1194 289.358 1195.19 294.251 1197.56 298.445C1199.94 302.639 1203.2 305.854 1207.35 308.091C1211.49 310.327 1216.09 311.446 1221.12 311.446C1226.15 311.446 1230.57 310.327 1234.68 308.091H1234.68Z" stroke="white" stroke-width="0.75" stroke-miterlimit="10"/>
<path d="M1296.74 255.665H1269.21V234.836H1349.16V255.665H1321.48V332.551H1296.74V255.665Z" stroke="white" stroke-width="0.75" stroke-miterlimit="10"/>
<path d="M1352.65 234.836H1377.39V332.551H1352.65V234.836Z" stroke="white" stroke-width="0.75" stroke-miterlimit="10"/>
<path d="M1408.21 328.499C1400.15 324.401 1393.93 318.5 1389.55 310.812C1385.16 303.123 1382.98 294.103 1382.98 283.758C1382.98 273.414 1385.16 264.401 1389.55 256.705C1393.92 249.016 1400.15 243.101 1408.21 238.951C1416.27 234.809 1425.62 232.727 1436.23 232.727C1443.22 232.727 1449.47 233.426 1454.96 234.823C1460.46 236.221 1465.54 238.414 1470.2 241.394V264.879C1466.09 261.62 1461.46 259.243 1456.29 257.749C1451.12 256.263 1445.18 255.513 1438.47 255.513C1428.87 255.513 1421.46 258.007 1416.24 262.995C1411.03 267.984 1408.42 274.9 1408.42 283.751C1408.42 292.602 1411.05 299.548 1416.32 304.58C1421.58 309.613 1428.96 312.129 1438.47 312.129C1445.18 312.129 1451.19 311.342 1456.5 309.752C1461.81 308.171 1466.75 305.654 1471.31 302.204V325.549C1462.46 331.612 1450.77 334.636 1436.23 334.636C1425.61 334.636 1416.27 332.583 1408.21 328.485V328.499Z" stroke="white" stroke-width="0.75" stroke-miterlimit="10"/>
<path d="M-4.76681 659.586C-12.8297 655.488 -19.046 649.594 -23.4305 641.898C-27.8151 634.21 -30 625.189 -30 614.852C-30 604.515 -27.8151 595.487 -23.4305 587.798C-19.0534 580.11 -12.8297 574.194 -4.76681 570.045C3.29604 565.903 12.6389 563.82 23.2545 563.82C30.2433 563.82 36.4891 564.519 41.9845 565.917C47.4799 567.315 52.5633 569.508 57.22 572.487V595.973C53.115 592.713 48.4804 590.337 43.316 588.843C38.1443 587.357 32.2002 586.607 25.4909 586.607C15.8906 586.607 8.48245 589.101 3.26661 594.089C-1.94923 599.078 -4.56082 605.994 -4.56082 614.852C-4.56082 623.71 -1.92716 630.649 3.34018 635.681C8.60016 640.714 15.9862 643.23 25.4909 643.23C32.2002 643.23 38.2105 642.443 43.522 640.854C48.8335 639.272 53.7698 636.755 58.3382 633.305V656.65C49.4809 662.713 37.7912 665.737 23.2545 665.737C12.6316 665.737 3.28868 663.684 -4.76681 659.586Z" stroke="white" stroke-width="0.75" stroke-miterlimit="10"/>
<path d="M63.9297 565.922H107.819C119.281 565.922 128.249 568.813 134.73 574.589C141.204 580.372 144.448 588.664 144.448 599.472C144.448 606.741 142.859 612.944 139.695 618.065C136.525 623.193 132.052 627.011 126.277 629.528L143.609 663.637H118.17L102.655 633.022H88.6773V663.637H63.9371V565.922H63.9297ZM103.486 612.193C108.422 612.193 112.241 611.237 114.948 609.324C117.648 607.418 119.001 604.129 119.001 599.472C119.001 594.815 117.677 591.291 115.014 589.481C112.351 587.671 108.518 586.751 103.486 586.751H88.67V612.193H103.486Z" stroke="white" stroke-width="0.75" stroke-miterlimit="10"/>
<path d="M180.082 565.922H204.403L243.401 663.637H218.101L210.274 643.507H174.212L166.384 663.637H140.945L180.082 565.922ZM204.124 624.495L192.243 591.644L180.222 624.495H204.124Z" stroke="white" stroke-width="0.75" stroke-miterlimit="10"/>
<path d="M248.992 565.922H318.321V586.751H273.732V605.064H306.3V624.495H273.732V663.637H248.992V565.922Z" stroke="white" stroke-width="0.75" stroke-miterlimit="10"/>
<path d="M343.758 586.751H316.223V565.922H396.174V586.751H368.499V663.637H343.758V586.751Z" stroke="white" stroke-width="0.75" stroke-miterlimit="10"/>
<path d="M408.335 663.986C402.273 662.824 397.293 661.212 393.379 659.167V636.94C398.411 639.552 403.649 641.509 409.107 642.811C414.559 644.113 419.752 644.768 424.689 644.768C429.257 644.768 432.7 644.069 435.032 642.671C437.364 641.273 438.526 639.272 438.526 636.66C438.526 634.703 437.894 633.003 436.636 631.554C435.378 630.112 433.539 628.78 431.118 627.574C428.698 626.36 424.924 624.689 419.796 622.541C410.755 618.723 404.186 614.485 400.088 609.82C395.983 605.163 393.938 599.431 393.938 592.625C393.938 587.034 395.498 582.045 398.624 577.668C401.743 573.29 406.106 569.883 411.69 567.463C417.281 565.042 423.71 563.828 430.979 563.828C436.937 563.828 442.249 564.299 446.913 565.226C451.57 566.16 456.043 567.647 460.331 569.699V591.367C452.129 587.085 443.882 584.937 435.591 584.937C431.118 584.937 427.558 585.658 424.895 587.1C422.239 588.549 420.907 590.617 420.907 593.324C420.907 596.032 422.254 598.217 424.961 599.895C427.661 601.572 432.649 603.853 439.917 606.745C446.53 609.452 451.68 612.108 455.366 614.713C459.044 617.325 461.729 620.356 463.407 623.799C465.084 627.25 465.922 631.628 465.922 636.94C465.922 645.982 462.634 653.038 456.065 658.122C449.495 663.206 439.689 665.737 426.638 665.737C420.488 665.737 414.382 665.156 408.328 663.986H408.335Z" stroke="white" stroke-width="0.75" stroke-miterlimit="10"/>
<path d="M475.988 565.922H499.75L527.985 626.452L556.359 565.922H579.981V663.637H556.918V614.57L533.576 663.637H522.394L499.191 614.57V663.637H475.988V565.922Z" stroke="white" stroke-width="0.75" stroke-miterlimit="10"/>
<path d="M621.223 565.922H645.544L684.542 663.637H659.242L651.415 643.507H615.353L607.525 663.637H582.086L621.223 565.922ZM645.265 624.495L633.384 591.644L621.363 624.495H645.265Z" stroke="white" stroke-width="0.75" stroke-miterlimit="10"/>
<path d="M690.125 565.922H714.586L750.508 624.076V565.922H775.248V663.637H750.927L714.865 605.343V663.637H690.125V565.922Z" stroke="white" stroke-width="0.75" stroke-miterlimit="10"/>
<path d="M795.796 663.986C789.734 662.824 784.754 661.212 780.84 659.167V636.94C785.872 639.552 791.11 641.509 796.568 642.811C802.02 644.113 807.213 644.768 812.15 644.768C816.718 644.768 820.161 644.069 822.493 642.671C824.825 641.273 825.987 639.272 825.987 636.66C825.987 634.703 825.355 633.003 824.097 631.554C822.839 630.112 821 628.78 818.579 627.574C816.159 626.36 812.385 624.689 807.257 622.541C798.216 618.723 791.647 614.485 787.549 609.82C783.444 605.163 781.399 599.431 781.399 592.625C781.399 587.034 782.959 582.045 786.085 577.668C789.204 573.29 793.567 569.883 799.15 567.463C804.741 565.042 811.171 563.828 818.439 563.828C824.398 563.828 829.71 564.299 834.374 565.226C839.031 566.16 843.503 567.647 847.792 569.699V591.367C839.59 587.085 831.343 584.937 823.052 584.937C818.579 584.937 815.019 585.658 812.356 587.1C809.7 588.549 808.368 590.617 808.368 593.324C808.368 596.032 809.715 598.217 812.422 599.895C815.122 601.572 820.109 603.853 827.378 606.745C833.991 609.452 839.141 612.108 842.827 614.713C846.505 617.325 849.19 620.356 850.868 623.799C852.545 627.25 853.383 631.628 853.383 636.94C853.383 645.982 850.095 653.038 843.526 658.122C836.956 663.206 827.15 665.737 814.099 665.737C807.949 665.737 801.843 665.156 795.789 663.986H795.796Z" stroke="white" stroke-width="0.75" stroke-miterlimit="10"/>
<path d="M858.973 565.922H883.713V603.666H922.012V565.922H946.752V663.637H922.012V624.216H883.713V663.637H858.973V565.922Z" stroke="white" stroke-width="0.75" stroke-miterlimit="10"/>
<path d="M955.141 565.922H979.881V663.637H955.141V565.922Z" stroke="white" stroke-width="0.75" stroke-miterlimit="10"/>
<path d="M988.266 565.929H1031.32C1042.68 565.929 1051.77 568.909 1058.57 574.876C1065.37 580.843 1068.78 589.186 1068.78 599.899C1068.78 610.611 1065.4 619.396 1058.64 625.407C1051.88 631.419 1042.78 634.42 1031.32 634.42H1013.01V663.637H988.266V565.922V565.929ZM1027.4 613.599C1032.34 613.599 1036.23 612.576 1039.08 610.523C1041.92 608.478 1043.34 604.931 1043.34 599.899C1043.34 594.866 1041.94 591.416 1039.14 589.554C1036.35 587.693 1032.43 586.758 1027.4 586.758H1013.01V613.599H1027.4Z" stroke="white" stroke-width="0.75" stroke-miterlimit="10"/>
<path d="M1393.83 664.199C1388.19 663.176 1383.37 661.639 1379.36 659.586V640.015C1388.77 644.304 1398.27 646.445 1407.87 646.445C1420.82 646.445 1427.3 642.583 1427.3 634.842C1427.3 630.928 1425.71 628.11 1422.55 626.381C1419.38 624.66 1414.44 623.791 1407.73 623.791H1394.18V604.919H1407.17C1412.67 604.919 1416.94 603.992 1419.97 602.124C1422.99 600.262 1424.51 597.51 1424.51 593.876C1424.51 590.425 1423.15 587.776 1420.45 585.908C1417.75 584.046 1413.93 583.112 1408.99 583.112C1398.83 583.112 1389.61 585.724 1381.32 590.94V570.95C1385.51 568.713 1390.31 566.962 1395.71 565.711C1401.11 564.453 1406.7 563.82 1412.49 563.82C1425.25 563.82 1434.66 566.359 1440.72 571.443C1446.78 576.527 1449.81 583.671 1449.81 592.905C1449.81 597.098 1448.81 601.057 1446.8 604.787C1444.8 608.517 1441.84 611.688 1437.93 614.293C1447.72 618.582 1452.61 625.852 1452.61 636.101C1452.61 645.511 1449.39 652.809 1442.96 657.974C1436.54 663.147 1426.05 665.729 1411.52 665.729C1405.37 665.729 1399.47 665.214 1393.83 664.192V664.199Z" stroke="white" stroke-width="0.75" stroke-miterlimit="10"/>
<path d="M-27.2031 676.289H-2.74238L33.18 734.443V676.289H57.9203V774.004H33.5993L-2.46283 715.711V774.004H-27.2031V676.289Z" stroke="white" stroke-width="0.75" stroke-miterlimit="10"/>
<path d="M66.3047 676.289H91.045V774.004H66.3047V676.289Z" stroke="white" stroke-width="0.75" stroke-miterlimit="10"/>
<path d="M121.87 769.953C113.807 765.855 107.591 759.961 103.206 752.265C98.8216 744.577 96.6367 735.557 96.6367 725.219C96.6367 714.882 98.8216 705.854 103.206 698.166C107.583 690.477 113.807 684.562 121.87 680.412C129.933 676.27 139.276 674.188 149.891 674.188C156.968 674.188 163.244 674.864 168.695 676.211C174.146 677.565 179.2 679.728 183.857 682.708V706.193C179.752 702.933 175.117 700.579 169.953 699.137C164.781 697.695 158.837 696.966 152.128 696.966C146.345 696.966 141.203 698.107 136.679 700.395C132.162 702.683 128.594 705.965 125.99 710.254C123.378 714.543 122.076 719.524 122.076 725.212C122.076 734.07 124.658 741.06 129.83 746.181C135.001 751.309 142.012 753.869 150.862 753.869C155.799 753.869 159.948 753.031 163.302 751.353V735.696H148.346V718.362H186.785V767.01C176.816 773.073 164.509 776.096 149.884 776.096C139.261 776.096 129.918 774.044 121.863 769.946L121.87 769.953Z" stroke="white" stroke-width="0.75" stroke-miterlimit="10"/>
<path d="M192.383 676.289H217.123V714.033H255.422V676.289H280.162V774.004H255.422V734.583H217.123V774.004H192.383V676.289Z" stroke="white" stroke-width="0.75" stroke-miterlimit="10"/>
<path d="M311.192 697.118H283.656V676.289H363.608V697.118H335.932V774.004H311.192V697.118Z" stroke="white" stroke-width="0.75" stroke-miterlimit="10"/>
<path d="M375.769 774.345C369.707 773.183 364.726 771.572 360.812 769.526V747.299C365.844 749.911 371.082 751.868 376.541 753.17C381.992 754.473 387.186 755.128 392.122 755.128C396.691 755.128 400.134 754.429 402.466 753.031C404.798 751.633 405.96 749.631 405.96 747.02C405.96 745.062 405.327 743.363 404.069 741.913C402.811 740.471 400.972 739.14 398.552 737.933C396.132 736.719 392.358 735.049 387.23 732.9C378.189 729.082 371.619 724.844 367.522 720.179C363.417 715.522 361.372 709.791 361.372 702.985C361.372 697.393 362.931 692.405 366.058 688.027C369.177 683.649 373.539 680.243 379.123 677.822C384.714 675.401 391.144 674.188 398.412 674.188C404.371 674.188 409.683 674.658 414.347 675.585C419.003 676.52 423.476 678.006 427.765 680.059V701.727C419.562 697.445 411.316 695.296 403.025 695.296C398.552 695.296 394.991 696.017 392.328 697.459C389.673 698.909 388.341 700.976 388.341 703.684C388.341 706.391 389.687 708.577 392.394 710.254C395.094 711.932 400.082 714.212 407.35 717.104C413.964 719.811 419.114 722.468 422.799 725.072C426.478 727.684 429.163 730.715 430.84 734.159C432.517 737.609 433.356 741.987 433.356 747.299C433.356 756.342 430.068 763.397 423.498 768.481C416.929 773.565 407.122 776.096 394.072 776.096C387.922 776.096 381.816 775.515 375.761 774.345H375.769Z" stroke="white" stroke-width="0.75" stroke-miterlimit="10"/>
<path d="M631.406 769.666C623.438 765.377 617.148 759.388 612.536 751.699C607.923 744.01 605.613 735.181 605.613 725.212C605.613 715.242 607.916 706.391 612.536 698.651C617.148 690.918 623.438 684.907 631.406 680.618C639.373 676.329 648.296 674.188 658.176 674.188C668.056 674.188 676.833 676.336 684.8 680.618C692.767 684.907 699.035 690.918 703.603 698.651C708.165 706.391 710.452 715.242 710.452 725.212C710.452 735.181 708.165 744.01 703.603 751.699C699.035 759.388 692.767 765.377 684.8 769.666C676.833 773.955 667.961 776.096 658.176 776.096C648.392 776.096 639.373 773.955 631.406 769.666ZM671.735 749.536C675.832 747.299 679.091 744.084 681.519 739.89C683.939 735.696 685.153 730.804 685.153 725.212C685.153 719.62 683.961 714.749 681.585 710.6C679.209 706.458 675.972 703.242 671.867 700.954C667.762 698.673 663.201 697.533 658.169 697.533C653.137 697.533 648.429 698.673 644.331 700.954C640.226 703.242 636.997 706.458 634.613 710.6C632.237 714.749 631.052 719.613 631.052 725.212C631.052 730.811 632.244 735.696 634.613 739.89C636.989 744.084 640.248 747.299 644.397 749.536C648.539 751.772 653.137 752.891 658.169 752.891C663.201 752.891 667.622 751.772 671.727 749.536H671.735Z" stroke="white" stroke-width="0.75" stroke-miterlimit="10"/>
<path d="M716.035 676.289H785.364V697.118H740.775V715.431H773.343V734.862H740.775V774.004H716.035V676.289Z" stroke="white" stroke-width="0.75" stroke-miterlimit="10"/>
<path d="M831.027 676.289H874.078C885.444 676.289 894.53 679.268 901.335 685.235C908.132 691.202 911.538 699.546 911.538 710.258C911.538 720.971 908.161 729.756 901.401 735.767C894.64 741.778 885.54 744.78 874.078 744.78H855.768V773.996H831.027V676.281V676.289ZM870.165 723.958C875.101 723.958 878.993 722.935 881.84 720.883C884.679 718.837 886.099 715.291 886.099 710.258C886.099 705.226 884.701 701.775 881.906 699.914C879.11 698.052 875.197 697.118 870.165 697.118H855.768V723.958H870.165Z" stroke="white" stroke-width="0.75" stroke-miterlimit="10"/>
<path d="M915.73 676.289H959.62C971.082 676.289 980.049 679.181 986.531 684.956C993.004 690.739 996.249 699.031 996.249 709.839C996.249 717.109 994.66 723.311 991.496 728.432C988.326 733.56 983.853 737.379 978.078 739.895L995.41 774.004H969.971L954.456 743.39H940.478V774.004H915.738V676.289H915.73ZM955.287 722.56C960.223 722.56 964.041 721.604 966.749 719.691C969.448 717.785 970.802 714.497 970.802 709.839C970.802 705.182 969.478 701.658 966.815 699.848C964.152 698.038 960.319 697.118 955.287 697.118H940.471V722.56H955.287Z" stroke="white" stroke-width="0.75" stroke-miterlimit="10"/>
<path d="M1001.83 676.289H1071.16V697.118H1026.57V715.431H1059.14V734.862H1026.57V753.175H1071.16V774.004H1001.83V676.289Z" stroke="white" stroke-width="0.75" stroke-miterlimit="10"/>
<path d="M1076.75 676.289H1100.51L1128.75 736.819L1157.12 676.289H1180.74V774.004H1157.68V724.937L1134.34 774.004H1123.16L1099.95 724.937V774.004H1076.75V676.289Z" stroke="white" stroke-width="0.75" stroke-miterlimit="10"/>
<path d="M1189.13 676.289H1213.87V774.004H1189.13V676.289Z" stroke="white" stroke-width="0.75" stroke-miterlimit="10"/>
<path d="M1222.26 676.289H1291.59V697.118H1247V715.431H1279.57V734.862H1247V753.175H1291.59V774.004H1222.26V676.289Z" stroke="white" stroke-width="0.75" stroke-miterlimit="10"/>
<path d="M1297.18 676.289H1341.07C1352.53 676.289 1361.49 679.181 1367.98 684.956C1374.45 690.739 1377.69 699.031 1377.69 709.839C1377.69 717.109 1376.1 723.311 1372.94 728.432C1369.77 733.56 1365.3 737.379 1359.52 739.895L1376.86 774.004H1351.42L1335.9 743.39H1321.92V774.004H1297.18V676.289H1297.18ZM1336.73 722.56C1341.67 722.56 1345.49 721.604 1348.19 719.691C1350.89 717.785 1352.25 714.497 1352.25 709.839C1352.25 705.182 1350.92 701.658 1348.26 699.848C1345.6 698.038 1341.76 697.118 1336.73 697.118H1321.92V722.56H1336.73Z" stroke="white" stroke-width="0.75" stroke-miterlimit="10"/>
<path d="M1383.28 676.289H1452.61V697.118H1408.02V715.431H1440.59V734.862H1408.02V753.175H1452.61V774.004H1383.28V676.289Z" stroke="white" stroke-width="0.75" stroke-miterlimit="10"/>
<path d="M9.13719 786.648H33.4582L72.4556 884.364H47.1562L39.3287 864.234H3.26661L-4.56083 884.364H-30L9.13719 786.648ZM33.1786 845.222L21.2977 812.37L9.27696 845.222H33.1786Z" stroke="white" stroke-width="0.75" stroke-miterlimit="10"/>
<path d="M78.0469 786.648H121.936C133.398 786.648 142.366 789.54 148.847 795.316C155.321 801.099 158.565 809.391 158.565 820.199C158.565 827.468 156.976 833.67 153.813 838.791C150.642 843.919 146.169 847.738 140.394 850.254L157.726 884.364H132.287L116.772 853.749H102.795V884.364H78.0542V786.648H78.0469ZM117.603 832.92C122.54 832.92 126.358 831.963 129.065 830.05C131.765 828.145 133.118 824.856 133.118 820.199C133.118 815.541 131.794 812.017 129.131 810.207C126.468 808.397 122.635 807.478 117.603 807.478H102.787V832.92H117.603Z" stroke="white" stroke-width="0.75" stroke-miterlimit="10"/>
<path d="M181.899 807.478H154.363V786.648H234.315V807.478H206.639V884.364H181.899V807.478Z" stroke="white" stroke-width="0.75" stroke-miterlimit="10"/>
<path d="M237.809 786.648H262.549V884.364H237.809V786.648Z" stroke="white" stroke-width="0.75" stroke-miterlimit="10"/>
<path d="M283.097 884.713C277.035 883.55 272.054 881.939 268.141 879.893V857.666C273.173 860.278 278.41 862.235 283.869 863.538C289.32 864.84 294.514 865.495 299.45 865.495C304.019 865.495 307.462 864.796 309.794 863.398C312.126 862 313.288 859.999 313.288 857.387C313.288 855.43 312.655 853.73 311.398 852.281C310.14 850.839 308.3 849.507 305.88 848.3C303.46 847.086 299.686 845.416 294.558 843.268C285.517 839.449 278.947 835.211 274.85 830.547C270.745 825.889 268.7 820.158 268.7 813.352C268.7 807.76 270.259 802.772 273.386 798.394C276.505 794.016 280.868 790.61 286.451 788.189C292.042 785.769 298.472 784.555 305.74 784.555C311.699 784.555 317.011 785.026 321.675 785.953C326.331 786.887 330.804 788.373 335.093 790.426V812.094C326.891 807.812 318.644 805.663 310.353 805.663C305.88 805.663 302.319 806.384 299.656 807.827C297.001 809.276 295.669 811.343 295.669 814.051C295.669 816.759 297.015 818.944 299.723 820.621C302.422 822.299 307.41 824.58 314.679 827.471C321.292 830.179 326.442 832.835 330.127 835.439C333.806 838.051 336.491 841.082 338.168 844.526C339.846 847.976 340.684 852.354 340.684 857.666C340.684 866.709 337.396 873.765 330.826 878.849C324.257 883.933 314.451 886.464 301.4 886.464C295.25 886.464 289.144 885.882 283.089 884.713H283.097Z" stroke="white" stroke-width="0.75" stroke-miterlimit="10"/>
<path d="M365.426 807.478H337.891V786.648H417.842V807.478H390.167V884.364H365.426V807.478Z" stroke="white" stroke-width="0.75" stroke-miterlimit="10"/>
<path d="M421.336 786.648H465.225C476.687 786.648 485.655 789.54 492.136 795.316C498.61 801.099 501.854 809.391 501.854 820.199C501.854 827.468 500.265 833.67 497.102 838.791C493.931 843.919 489.458 847.738 483.683 850.254L501.015 884.364H475.576L460.061 853.749H446.084V884.364H421.343V786.648H421.336ZM460.892 832.92C465.829 832.92 469.647 831.963 472.354 830.05C475.054 828.145 476.408 824.856 476.408 820.199C476.408 815.541 475.083 812.017 472.42 810.207C469.757 808.397 465.924 807.478 460.892 807.478H446.076V832.92H460.892Z" stroke="white" stroke-width="0.75" stroke-miterlimit="10"/>
<path d="M531.617 847.179L495.555 786.648H521.972L544.057 824.532L567.12 786.648H593.398L556.357 847.179V884.364H531.617V847.179Z" stroke="white" stroke-width="0.75" stroke-miterlimit="10"/>
<path d="M753.383 786.648H777.704L816.702 884.364H791.402L783.575 864.234H747.513L739.685 884.364H714.246L753.383 786.648ZM777.425 845.222L765.544 812.37L753.523 845.222H777.425Z" stroke="white" stroke-width="0.75" stroke-miterlimit="10"/>
<path d="M822.285 786.648H846.746L882.668 844.802V786.648H907.409V884.364H883.088L847.025 826.07V884.364H822.285V786.648Z" stroke="white" stroke-width="0.75" stroke-miterlimit="10"/>
<path d="M915.797 786.648H950.881C961.592 786.648 970.957 788.606 978.975 792.52C986.987 796.434 993.166 802.048 997.499 809.368C1001.83 816.689 1004 825.231 1004 835.017C1004 851.233 999.243 863.512 989.738 871.856C980.233 880.199 967.05 884.364 950.182 884.364H915.797V786.648ZM952.278 863.534C960.761 863.534 967.256 860.974 971.773 855.846C976.29 850.725 978.556 843.78 978.556 835.017C978.556 827.004 976.298 820.412 971.773 815.24C967.256 810.067 961.033 807.485 953.117 807.485H940.537V863.542H952.278V863.534Z" stroke="white" stroke-width="0.75" stroke-miterlimit="10"/>
<path d="M1127.63 786.648H1152.37V824.393H1190.67V786.648H1215.41V884.364H1190.67V844.942H1152.37V884.364H1127.63V786.648Z" stroke="white" stroke-width="0.75" stroke-miterlimit="10"/>
<path d="M1257.06 847.179L1221 786.648H1247.42L1269.5 824.532L1292.57 786.648H1318.84L1281.8 847.179V884.364H1257.06V847.179Z" stroke="white" stroke-width="0.75" stroke-miterlimit="10"/>
<path d="M1320.94 786.648H1363.99C1375.35 786.648 1384.44 789.628 1391.24 795.595C1398.04 801.562 1401.45 809.905 1401.45 820.618C1401.45 831.33 1398.07 840.115 1391.31 846.126C1384.55 852.137 1375.45 855.139 1363.99 855.139H1345.68V884.356H1320.94V786.641V786.648ZM1360.07 834.317C1365.01 834.317 1368.9 833.295 1371.75 831.242C1374.59 829.196 1376.01 825.65 1376.01 820.618C1376.01 815.585 1374.61 812.134 1371.82 810.273C1369.02 808.412 1365.11 807.477 1360.07 807.477H1345.68V834.317H1360.07Z" stroke="white" stroke-width="0.75" stroke-miterlimit="10"/>
<path d="M1402.85 832.227H1452.61V851.798H1402.85V832.227Z" stroke="white" stroke-width="0.75" stroke-miterlimit="10"/>
<path d="M120.618 172.682C120.618 171.903 120.382 171.181 119.985 170.578C119.985 170.578 119.985 170.578 119.985 170.571C119.919 170.475 119.853 170.387 119.779 170.291C119.772 170.277 119.764 170.269 119.75 170.254C119.698 170.196 119.647 170.137 119.595 170.085C119.558 170.048 119.529 170.004 119.492 169.968L74.602 125.05C73.1086 123.556 70.6883 123.556 69.1949 125.05C68.4372 125.808 68.0693 126.779 68.0693 127.765C68.0693 128.751 68.4372 129.722 69.1949 130.48L107.574 168.864H2.02902C-0.0896857 168.864 -1.78906 170.563 -1.78906 172.682C-1.78906 174.801 -0.0896857 176.501 2.02902 176.501H107.552L69.1949 214.885C68.4372 215.643 68.0693 216.614 68.0693 217.6C68.0693 218.586 68.4372 219.557 69.1949 220.293C70.6883 221.786 73.1086 221.786 74.602 220.293L119.264 175.603C120.095 174.904 120.618 173.86 120.618 172.682Z" fill="#FD93FF"/>
<path d="M1365.21 613.514C1365.34 601.219 1350.62 589.558 1323.8 580.677C1297.33 571.914 1262.21 566.83 1224.92 566.367C1187.92 565.881 1152.82 569.994 1126.08 577.94C1098.7 586.342 1084.11 597.393 1083.88 609.916C1083.72 621.533 1096.81 632.673 1120.71 641.281L1125.43 643.032C1151.72 651.604 1186.78 656.592 1224.16 657.063C1261.17 657.548 1296.27 653.436 1323.01 645.489C1350.38 637.094 1364.98 626.036 1365.2 613.521L1365.21 613.514ZM1322.37 643.356C1295.85 651.243 1260.99 655.319 1224.21 654.833C1187.05 654.363 1152.22 649.418 1126.18 640.928L1121.49 639.191C1098.53 630.929 1085.97 620.54 1086.12 609.953C1086.32 598.651 1100.75 588.042 1126.73 580.066C1153.25 572.179 1188.12 568.103 1224.91 568.589C1261.98 569.052 1296.85 574.092 1323.11 582.789C1324.52 583.252 1325.89 583.73 1327.23 584.209C1350.12 592.449 1363.09 603.014 1362.99 613.477C1362.78 624.778 1348.35 635.388 1322.37 643.356Z" fill="#FD93FF"/>
<path d="M719.573 269.62L682.863 266.728L714.048 286.969L693.56 318.01L726.069 300.676L742.275 334.587L743.585 297.027L780.287 299.918L749.117 279.633L769.59 248.622L737.104 265.948L720.89 232.016L719.573 269.62Z" fill="#4C43D6"/>
<path d="M1105.24 214.291C1130.16 198.907 1136.88 166.887 1122.31 142.828C1107.24 118.018 1074.32 109.675 1049.14 126.222C1025.59 141.702 1018.81 173.104 1033.6 197.104C1048.43 221.171 1080.25 229.728 1105.24 214.291ZM1052.22 127.259C1075.46 113.162 1105.99 120.763 1120.21 144.204C1134.37 167.534 1126.95 198.23 1103.79 212.224C1080.27 226.424 1049.82 218.963 1035.55 195.508C1021.33 172.118 1028.82 141.452 1052.23 127.259H1052.22Z" fill="#D6FD24"/>
<path d="M1042.96 183.522C1043.09 183.448 1043.22 183.375 1043.35 183.308C1045.79 182.102 1048.33 181.594 1051.04 182.072C1051.96 182.234 1052.45 181.969 1052.55 181.344C1052.65 180.697 1052.33 180.284 1051.36 180.145C1050.33 179.99 1049.26 179.917 1048.21 179.946C1047.51 179.968 1047.14 179.762 1046.97 179.107C1046.55 177.577 1045.96 176.076 1045.7 174.524C1044.82 169.175 1045.49 163.958 1047.29 158.889C1050.46 149.972 1056.13 143.298 1064.98 139.686C1072.84 136.478 1080.85 136.25 1088.86 139.244C1093.41 140.944 1097.28 143.666 1100.42 147.411C1101.3 148.463 1101.26 148.456 1100.62 149.64C1100.17 150.464 1099.79 151.333 1099.43 152.208C1099.18 152.834 1099.23 153.452 1099.98 153.687C1100.71 153.915 1101.1 153.488 1101.32 152.826C1102.24 150.097 1103.99 148.051 1106.35 146.469C1107.14 145.94 1107.36 145.432 1107.04 144.924C1106.7 144.38 1106.01 144.314 1105.23 144.814C1104.69 145.16 1104.2 145.572 1103.69 145.962C1103.34 146.227 1103 146.506 1102.56 146.852C1099.1 142.555 1094.88 139.443 1089.86 137.449C1084.85 135.463 1079.64 134.756 1074.3 135.256C1068.95 135.757 1063.97 137.361 1059.38 140.149C1053.37 143.791 1049.09 148.964 1046.31 155.357C1042.79 163.436 1041.9 171.713 1045.05 180.233C1044.78 180.38 1044.56 180.505 1044.33 180.608C1043.57 180.954 1042.81 181.263 1042.07 181.631C1041.31 182.006 1041.04 182.624 1041.4 183.176C1041.79 183.794 1042.35 183.868 1042.97 183.537L1042.96 183.522Z" fill="#D6FD24"/>
<path d="M1098.18 168.195C1095.76 166.304 1091.73 164.406 1090.86 168.805C1090.66 169.821 1090.6 170.932 1090.76 171.947C1091.56 176.928 1093.94 181.048 1097.91 184.175C1098.78 184.86 1099.85 185.367 1100.92 185.684C1102.9 186.272 1104.6 185.272 1105.05 183.256C1105.83 179.695 1104.6 175.972 1102.52 172.859C1101.3 171.035 1099.78 169.431 1098.19 168.187L1098.18 168.195Z" fill="#D6FD24"/>
<path d="M1070.49 180.24C1065 179.306 1066.34 187.193 1067.52 190.158C1067.9 191.13 1068.41 192.167 1069.01 193.19C1070.79 196.192 1073.44 199.061 1076.61 199.856C1078.58 200.349 1080.17 199.569 1080.65 197.619C1080.95 196.405 1081.05 195.051 1080.86 193.822C1080.12 189.15 1077.83 185.302 1074.28 182.205C1073.19 181.256 1071.96 180.491 1070.49 180.248V180.24Z" fill="#D6FD24"/>
<path d="M535.879 742.589L507.586 737.438L517.23 764.462C517.444 765.191 517.4 765.89 517.069 766.574C516.76 767.266 516.223 767.759 515.509 768.053L500.737 773.291L500.597 773.387C499.906 773.645 499.207 773.601 498.471 773.284C497.78 772.975 497.272 772.438 496.934 771.71L487.267 744.803L468.868 766.545L468.772 766.405L468.75 766.523C468.309 767.052 467.728 767.369 466.992 767.501C466.33 767.56 465.712 767.413 465.094 767.038L465.072 767.155L464.704 766.743L452.669 756.627C452.08 756.075 451.779 755.413 451.735 754.633C451.698 753.838 451.911 753.125 452.397 752.551L470.921 730.78L442.804 725.666L442.818 725.607L442.759 725.593C442.09 725.468 441.546 725.129 441.089 724.563C440.619 724.033 440.405 723.43 440.449 722.745L440.391 722.731L443.304 706.713C443.451 705.911 443.848 705.293 444.488 704.881C445.136 704.432 445.871 704.285 446.673 704.432L447.328 704.609L474.761 709.597L465.094 682.691L465.16 682.647V682.588C464.954 681.904 464.969 681.256 465.19 680.609C465.447 679.969 465.881 679.461 466.477 679.086L466.359 679.064L481.727 673.649C482.485 673.362 483.228 673.398 483.92 673.707C484.641 674.061 485.126 674.635 485.376 675.385L494.969 702.394L513.596 680.521L513.618 680.403C514.155 679.895 514.795 679.623 515.531 679.557C516.326 679.52 517.024 679.704 517.569 680.153L529.604 690.269L529.641 690.394C530.237 690.887 530.568 691.513 530.656 692.278C530.73 693.08 530.539 693.794 530.112 694.382L511.47 716.256L539.764 721.406C540.477 721.575 541.059 721.965 541.47 722.569C541.882 723.209 542.059 723.908 542 724.651L539.175 740.161L539.058 740.139L539.153 740.278C539.013 741.043 538.601 741.654 537.91 742.096C537.285 742.53 536.608 742.692 535.879 742.596" fill="#4C43D6"/>
<path d="M1160.33 593.9C1159.28 595.541 1158.76 596.843 1158.76 597.8C1158.76 598.116 1158.87 598.396 1159.1 598.624C1159.33 598.852 1159.62 598.97 1159.96 598.97C1160.27 598.97 1160.56 598.867 1160.79 598.668C1160.97 598.528 1161.13 598.219 1161.24 597.741C1161.74 595.879 1162.85 594.32 1164.55 593.062C1166.25 591.803 1168.19 591.171 1170.39 591.171C1172.85 591.171 1174.96 592.002 1176.7 593.665C1178.44 595.328 1179.31 597.233 1179.31 599.396C1179.31 600.198 1179.16 600.993 1178.85 601.78C1178.54 602.575 1177.96 603.487 1177.13 604.525C1176.29 605.562 1174.73 607.195 1172.48 609.417C1167.64 614.178 1162.66 618.864 1157.54 623.463V627.186H1181.9V623.676C1181.9 623.073 1181.78 622.646 1181.54 622.389C1181.3 622.131 1181 621.999 1180.64 621.999C1180.26 621.999 1179.95 622.131 1179.72 622.389C1179.47 622.646 1179.35 623.08 1179.35 623.676V624.669H1160V624.493C1163.72 621.27 1168.54 616.738 1174.46 610.896C1176.82 608.579 1178.46 606.842 1179.37 605.687C1180.28 604.539 1180.92 603.48 1181.3 602.509C1181.69 601.537 1181.88 600.471 1181.88 599.315C1181.88 596.556 1180.75 594.084 1178.49 591.899C1176.23 589.721 1173.53 588.625 1170.39 588.625C1168.44 588.625 1166.55 589.096 1164.7 590.038C1162.85 590.979 1161.4 592.267 1160.35 593.908L1160.33 593.9Z" fill="#FD93FF"/>
<path d="M1214.18 624.368C1216.76 621.204 1218.05 616.915 1218.05 611.492V605.253C1218.05 602.935 1217.83 600.912 1217.39 599.19C1217.06 597.991 1216.56 596.659 1215.89 595.203C1215.2 593.746 1214.57 592.672 1213.97 591.987C1213.05 590.928 1211.94 590.104 1210.64 589.508C1209.33 588.919 1207.94 588.625 1206.43 588.625C1203.35 588.625 1200.81 589.868 1198.78 592.348C1196.2 595.512 1194.91 599.808 1194.91 605.253V611.492C1194.91 613.795 1195.14 615.804 1195.61 617.525C1195.91 618.747 1196.4 620.086 1197.09 621.55C1197.78 623.014 1198.42 624.074 1199 624.728C1199.92 625.788 1201.03 626.612 1202.34 627.208C1203.65 627.796 1205.05 628.091 1206.53 628.091C1209.61 628.091 1212.16 626.847 1214.18 624.368ZM1200.74 622.72C1199.88 621.498 1199.11 619.858 1198.45 617.798C1197.78 615.737 1197.44 613.515 1197.44 611.132V605.577C1197.44 601.736 1198.24 598.374 1199.84 595.49C1201.44 592.605 1203.65 591.171 1206.47 591.171C1207.89 591.171 1209.17 591.524 1210.31 592.223C1211.11 592.723 1211.76 593.326 1212.26 594.025C1213.1 595.247 1213.86 596.88 1214.53 598.933C1215.2 600.986 1215.53 603.2 1215.53 605.577V611.132C1215.53 614.972 1214.73 618.342 1213.14 621.234C1211.53 624.125 1209.33 625.567 1206.54 625.567C1205.1 625.567 1203.81 625.207 1202.67 624.486C1201.87 623.985 1201.23 623.397 1200.75 622.712L1200.74 622.72Z" fill="#FD93FF"/>
<path d="M1241.67 588.617C1239.73 588.617 1237.84 589.088 1235.99 590.03C1234.13 590.972 1232.68 592.259 1231.64 593.9C1230.59 595.541 1230.06 596.843 1230.06 597.799C1230.06 598.116 1230.18 598.395 1230.41 598.623C1230.64 598.851 1230.93 598.969 1231.26 598.969C1231.58 598.969 1231.87 598.866 1232.1 598.668C1232.28 598.528 1232.43 598.219 1232.55 597.74C1233.05 595.879 1234.16 594.319 1235.85 593.061C1237.55 591.803 1239.5 591.17 1241.7 591.17C1244.16 591.17 1246.26 592.002 1248.01 593.664C1249.75 595.327 1250.62 597.233 1250.62 599.396C1250.62 600.198 1250.46 600.993 1250.16 601.78C1249.85 602.574 1249.27 603.487 1248.43 604.524C1247.6 605.562 1246.04 607.195 1243.79 609.417C1238.94 614.177 1233.96 618.864 1228.84 623.462V627.185H1253.21V623.676C1253.21 623.072 1253.09 622.646 1252.85 622.388C1252.61 622.131 1252.31 621.998 1251.95 621.998C1251.57 621.998 1251.26 622.131 1251.02 622.388C1250.78 622.646 1250.66 623.08 1250.66 623.676V624.669H1231.31V624.492C1235.03 621.27 1239.85 616.738 1245.77 610.896C1248.13 608.578 1249.77 606.842 1250.68 605.687C1251.59 604.539 1252.23 603.479 1252.61 602.508C1253 601.537 1253.19 600.47 1253.19 599.315C1253.19 596.556 1252.05 594.084 1249.8 591.899C1247.54 589.713 1244.84 588.625 1241.7 588.625L1241.67 588.617Z" fill="#FD93FF"/>
<path d="M1277.86 588.617C1274.78 588.617 1272.03 589.471 1269.61 591.17C1267.86 592.392 1266.99 593.4 1266.99 594.202C1266.99 594.518 1267.11 594.798 1267.35 595.026C1267.6 595.254 1267.88 595.371 1268.22 595.371C1268.44 595.371 1268.63 595.327 1268.81 595.239C1268.98 595.151 1269.22 594.901 1269.55 594.503C1270.43 593.466 1271.6 592.642 1273.06 592.046C1274.51 591.442 1276.12 591.148 1277.86 591.148C1280.34 591.148 1282.35 591.869 1283.89 593.311C1285.43 594.753 1286.2 596.416 1286.2 598.292C1286.2 600.168 1285.47 601.714 1283.99 603.097C1282.52 604.48 1280.66 605.164 1278.4 605.164L1276.23 605.135C1275.73 605.135 1275.36 605.253 1275.11 605.495C1274.86 605.738 1274.73 606.032 1274.73 606.393C1274.73 606.776 1274.87 607.077 1275.12 607.305C1275.38 607.533 1275.81 607.651 1276.41 607.651C1278.27 607.651 1280.11 608.063 1281.94 608.895C1283.75 609.726 1285.15 610.859 1286.12 612.301C1287.09 613.743 1287.58 615.215 1287.58 616.716C1287.58 618.96 1286.59 620.99 1284.62 622.822C1282.65 624.654 1280.21 625.567 1277.29 625.567C1273.83 625.567 1270.55 624.419 1267.44 622.116C1267.05 621.814 1266.68 621.667 1266.36 621.667C1266.04 621.667 1265.77 621.785 1265.54 622.028C1265.31 622.27 1265.19 622.55 1265.19 622.866C1265.19 623.227 1265.34 623.565 1265.64 623.889C1266.56 624.853 1268.18 625.787 1270.5 626.707C1272.82 627.627 1275.06 628.09 1277.23 628.09C1280.91 628.09 1283.97 626.935 1286.42 624.625C1288.87 622.315 1290.1 619.651 1290.1 616.627C1290.1 614.67 1289.49 612.779 1288.27 610.969C1287.05 609.159 1285.27 607.732 1282.96 606.695C1284.86 605.797 1286.3 604.59 1287.28 603.097C1288.25 601.596 1288.75 600.007 1288.75 598.322C1288.75 595.68 1287.72 593.407 1285.69 591.494C1283.65 589.581 1281.04 588.625 1277.85 588.625L1277.86 588.617Z" fill="#FD93FF"/>
</g>
</svg>
