<svg width="1265" height="331" viewBox="0 0 1265 331" fill="none" xmlns="http://www.w3.org/2000/svg">
<g filter="url(#filter0_d_57_2422)">
<path d="M14.5917 17.0755H67.565C81.3987 17.0755 92.1958 20.562 99.9562 27.5352C107.829 34.5083 111.766 44.5181 111.766 57.5646C111.766 66.3372 109.854 73.8165 106.03 80.0023C102.206 86.1881 96.8071 90.7994 89.834 93.8361L110.753 135H80.0491L61.3229 98.0537H44.4524V135H14.5917V17.0755ZM62.3351 72.9167C68.296 72.9167 72.9073 71.792 76.1689 69.5426C79.4305 67.1808 81.0613 63.1881 81.0613 57.5646C81.0613 51.7162 79.4305 47.7235 76.1689 45.5866C73.0197 43.3372 68.4085 42.2125 62.3351 42.2125H44.4524V72.9167H62.3351ZM123.657 17.0755H153.517V135H123.657V17.0755ZM229.536 137.531C216.714 137.531 205.411 135.056 195.626 130.108C185.954 125.159 178.475 118.073 173.189 108.851C167.902 99.5158 165.259 88.6062 165.259 76.1221C165.259 63.638 167.902 52.7846 173.189 43.5621C178.475 34.2271 185.954 27.0853 195.626 22.1366C205.411 17.0755 216.714 14.5449 229.536 14.5449C237.971 14.5449 245.507 15.3884 252.142 17.0755C258.778 18.7625 264.908 21.4056 270.531 25.0046V53.347C265.582 49.4105 259.959 46.5426 253.661 44.743C247.475 42.9435 240.333 42.0438 232.235 42.0438C220.651 42.0438 211.709 45.0805 205.411 51.1538C199.113 57.1147 195.964 65.4375 195.964 76.1221C195.964 86.8067 199.113 95.1857 205.411 101.259C211.822 107.332 220.763 110.369 232.235 110.369C240.333 110.369 247.587 109.413 253.998 107.501C260.409 105.589 266.37 102.552 271.881 98.3911V126.565C261.196 133.875 247.081 137.531 229.536 137.531ZM283.629 17.0755H313.49V62.6257H359.715V17.0755H389.576V135H359.715V87.4253H313.49V135H283.629V17.0755ZM404.721 17.0755H434.582V135H404.721V17.0755ZM449.698 17.0755H533.375V42.2125H479.559V64.3128H518.867V87.7627H479.559V109.863H533.375V135H449.698V17.0755ZM602.587 17.0755H632.447V62.6257H678.672V17.0755H708.533V135H678.672V87.4253H632.447V135H602.587V17.0755ZM767.541 17.0755H796.896L843.965 135H813.429L803.982 110.707H760.456L751.008 135H720.304L767.541 17.0755ZM796.559 87.7627L782.219 48.1171L767.71 87.7627H796.559ZM834.641 17.0755H865.345L885.084 86.9192L904.147 17.0755H925.404L943.287 87.0879L962.857 17.0755H993.561L961.001 135H933.502L914.101 66.5059L894.869 135H867.201L834.641 17.0755ZM1030.26 42.2125H997.026V17.0755H1093.52V42.2125H1060.12V135H1030.26V42.2125ZM1102.77 17.0755H1132.63V135H1102.77V17.0755ZM1147.75 17.0755H1177.27L1220.63 87.2566V17.0755H1250.49V135H1221.13L1177.61 64.6502V135H1147.75V17.0755Z" fill="white"/>
<path d="M14.9746 169.401H45.271C53.1827 169.401 59.3578 171.395 63.7961 175.383C68.2987 179.371 70.55 185.096 70.55 192.557C70.55 197.574 69.4565 201.852 67.2695 205.39C65.0826 208.927 61.995 211.565 58.007 213.301L69.9711 236.844H52.4109L41.701 215.714H32.0525V236.844H14.9746V169.401ZM42.2799 201.337C45.6891 201.337 48.3263 200.694 50.1917 199.408C52.0571 198.057 52.9898 195.773 52.9898 192.557C52.9898 189.212 52.0571 186.929 50.1917 185.707C48.3906 184.42 45.7534 183.777 42.2799 183.777H32.0525V201.337H42.2799ZM110.286 238.291C103.468 238.291 97.2927 236.812 91.7609 233.853C86.2934 230.894 81.9516 226.777 78.7354 221.503C75.5836 216.164 74.0077 210.053 74.0077 203.17C74.0077 196.288 75.5836 190.177 78.7354 184.838C81.9516 179.499 86.2934 175.351 91.7609 172.392C97.2927 169.433 103.468 167.953 110.286 167.953C117.04 167.953 123.151 169.433 128.618 172.392C134.15 175.351 138.492 179.499 141.644 184.838C144.796 190.177 146.371 196.288 146.371 203.17C146.371 210.053 144.796 216.164 141.644 221.503C138.492 226.777 134.15 230.894 128.618 233.853C123.151 236.812 117.04 238.291 110.286 238.291ZM110.286 222.275C113.695 222.275 116.815 221.503 119.645 219.959C122.475 218.415 124.727 216.196 126.399 213.301C128.071 210.407 128.908 207.03 128.908 203.17C128.908 199.311 128.071 195.966 126.399 193.136C124.791 190.241 122.572 188.022 119.742 186.479C116.911 184.87 113.76 184.066 110.286 184.066C106.748 184.066 103.564 184.87 100.734 186.479C97.9038 188.022 95.6525 190.241 93.9801 193.136C92.372 195.966 91.568 199.311 91.568 203.17C91.568 207.03 92.372 210.407 93.9801 213.301C95.6525 216.196 97.9038 218.415 100.734 219.959C103.629 221.503 106.813 222.275 110.286 222.275ZM153.107 169.401H187.262C193.759 169.401 198.873 171.009 202.603 174.225C206.399 177.441 208.296 182.04 208.296 188.022C208.296 190.853 207.653 193.49 206.366 195.934C205.08 198.378 203.247 200.308 200.867 201.723C204.147 203.01 206.559 204.875 208.103 207.319C209.647 209.699 210.419 212.819 210.419 216.678C210.419 220.795 209.454 224.397 207.524 227.485C205.594 230.508 202.989 232.824 199.709 234.432C196.493 236.04 192.891 236.844 188.903 236.844H153.107V169.401ZM183.499 196.127C188.517 196.127 191.025 193.779 191.025 189.084C191.025 186.446 190.382 184.645 189.096 183.68C187.809 182.651 185.847 182.137 183.21 182.137H170.184V196.127H183.499ZM184.561 224.108C187.455 224.108 189.61 223.561 191.025 222.467C192.44 221.374 193.148 219.444 193.148 216.678C193.148 213.912 192.408 211.918 190.929 210.696C189.449 209.41 187.198 208.767 184.175 208.767H170.184V224.108H184.561ZM217.179 169.401H265.035V183.777H234.257V196.417H256.738V209.828H234.257V222.467H265.035V236.844H217.179V169.401ZM271.828 169.401H302.125C310.037 169.401 316.212 171.395 320.65 175.383C325.153 179.371 327.404 185.096 327.404 192.557C327.404 197.574 326.31 201.852 324.123 205.39C321.936 208.927 318.849 211.565 314.861 213.301L326.825 236.844H309.265L298.555 215.714H288.906V236.844H271.828V169.401ZM299.134 201.337C302.543 201.337 305.18 200.694 307.046 199.408C308.911 198.057 309.844 195.773 309.844 192.557C309.844 189.212 308.911 186.929 307.046 185.707C305.244 184.42 302.607 183.777 299.134 183.777H288.906V201.337H299.134ZM346.443 183.777H327.435V169.401H382.625V183.777H363.521V236.844H346.443V183.777ZM420.702 169.401H437.78V195.452H464.217V169.401H481.295V236.844H464.217V209.635H437.78V236.844H420.702V169.401ZM524.305 238.291C517.487 238.291 511.312 236.812 505.78 233.853C500.312 230.894 495.971 226.777 492.754 221.503C489.603 216.164 488.027 210.053 488.027 203.17C488.027 196.288 489.603 190.177 492.754 184.838C495.971 179.499 500.312 175.351 505.78 172.392C511.312 169.433 517.487 167.953 524.305 167.953C531.059 167.953 537.17 169.433 542.637 172.392C548.169 175.351 552.511 179.499 555.663 184.838C558.814 190.177 560.39 196.288 560.39 203.17C560.39 210.053 558.814 216.164 555.663 221.503C552.511 226.777 548.169 230.894 542.637 233.853C537.17 236.812 531.059 238.291 524.305 238.291ZM524.305 222.275C527.714 222.275 530.834 221.503 533.664 219.959C536.494 218.415 538.746 216.196 540.418 213.301C542.09 210.407 542.927 207.03 542.927 203.17C542.927 199.311 542.09 195.966 540.418 193.136C538.81 190.241 536.591 188.022 533.761 186.479C530.93 184.87 527.778 184.066 524.305 184.066C520.767 184.066 517.583 184.87 514.753 186.479C511.923 188.022 509.671 190.241 507.999 193.136C506.391 195.966 505.587 199.311 505.587 203.17C505.587 207.03 506.391 210.407 507.999 213.301C509.671 216.196 511.923 218.415 514.753 219.959C517.648 221.503 520.832 222.275 524.305 222.275ZM601.003 238.291C594.185 238.291 588.01 236.812 582.478 233.853C577.01 230.894 572.669 226.777 569.452 221.503C566.301 216.164 564.725 210.053 564.725 203.17C564.725 196.288 566.301 190.177 569.452 184.838C572.669 179.499 577.01 175.351 582.478 172.392C588.01 169.433 594.185 167.953 601.003 167.953C607.757 167.953 613.868 169.433 619.335 172.392C624.867 175.351 629.209 179.499 632.361 184.838C635.513 190.177 637.088 196.288 637.088 203.17C637.088 210.053 635.513 216.164 632.361 221.503C629.209 226.777 624.867 230.894 619.335 233.853C613.868 236.812 607.757 238.291 601.003 238.291ZM601.003 222.275C604.412 222.275 607.532 221.503 610.362 219.959C613.192 218.415 615.444 216.196 617.116 213.301C618.788 210.407 619.625 207.03 619.625 203.17C619.625 199.311 618.788 195.966 617.116 193.136C615.508 190.241 613.289 188.022 610.459 186.479C607.628 184.87 604.477 184.066 601.003 184.066C597.465 184.066 594.281 184.87 591.451 186.479C588.621 188.022 586.37 190.241 584.697 193.136C583.089 195.966 582.285 199.311 582.285 203.17C582.285 207.03 583.089 210.407 584.697 213.301C586.37 216.196 588.621 218.415 591.451 219.959C594.346 221.503 597.53 222.275 601.003 222.275ZM643.824 169.401H668.041C675.439 169.401 681.903 170.751 687.435 173.453C692.967 176.155 697.212 180.046 700.171 185.128C703.194 190.145 704.706 196.031 704.706 202.785C704.706 213.977 701.425 222.467 694.864 228.257C688.303 233.981 679.202 236.844 667.559 236.844H643.824V169.401ZM669.006 222.467C674.86 222.467 679.33 220.699 682.418 217.161C685.57 213.623 687.145 208.831 687.145 202.785C687.145 197.253 685.57 192.718 682.418 189.18C679.33 185.578 675.053 183.777 669.585 183.777H660.901V222.467H669.006ZM830.88 238.291C826.634 238.291 822.421 237.873 818.24 237.037C814.059 236.265 810.618 235.171 807.916 233.756V218.415C811.39 220.216 814.992 221.567 818.722 222.467C822.518 223.368 826.12 223.818 829.529 223.818C832.681 223.818 835.061 223.336 836.669 222.371C838.277 221.406 839.081 220.023 839.081 218.222C839.081 216.871 838.631 215.714 837.73 214.749C836.894 213.719 835.639 212.787 833.967 211.951C832.295 211.114 829.69 209.957 826.152 208.477C819.912 205.84 815.378 202.913 812.547 199.697C809.717 196.481 808.302 192.525 808.302 187.829C808.302 183.97 809.363 180.529 811.486 177.505C813.673 174.482 816.696 172.134 820.556 170.462C824.415 168.79 828.853 167.953 833.871 167.953C837.987 167.953 841.654 168.275 844.87 168.918C848.086 169.561 851.174 170.591 854.132 172.006V186.961C848.472 184.002 842.779 182.523 837.055 182.523C833.967 182.523 831.491 183.037 829.625 184.066C827.824 185.031 826.924 186.446 826.924 188.312C826.924 190.177 827.856 191.689 829.722 192.847C831.587 194.004 835.028 195.58 840.046 197.574C844.613 199.44 848.15 201.273 850.659 203.074C853.232 204.875 855.097 206.966 856.255 209.346C857.413 211.725 857.992 214.749 857.992 218.415C857.992 224.654 855.708 229.543 851.141 233.081C846.639 236.554 839.885 238.291 830.88 238.291ZM894.978 238.291C884.815 238.291 877.16 235.589 872.015 230.186C866.869 224.719 864.296 217.515 864.296 208.574V169.401H881.374V208.767C881.374 213.269 882.564 216.678 884.944 218.994C887.388 221.31 890.733 222.467 894.978 222.467C899.223 222.467 902.536 221.31 904.916 218.994C907.296 216.678 908.486 213.269 908.486 208.767V169.401H925.564V208.574C925.564 217.579 922.991 224.783 917.845 230.186C912.763 235.589 905.141 238.291 894.978 238.291ZM933.75 169.401H964.046C971.958 169.401 978.133 171.395 982.571 175.383C987.074 179.371 989.325 185.096 989.325 192.557C989.325 197.574 988.232 201.852 986.045 205.39C983.858 208.927 980.77 211.565 976.782 213.301L988.746 236.844H971.186L960.476 215.714H950.828V236.844H933.75V169.401ZM961.055 201.337C964.464 201.337 967.102 200.694 968.967 199.408C970.832 198.057 971.765 195.773 971.765 192.557C971.765 189.212 970.832 186.929 968.967 185.707C967.166 184.42 964.529 183.777 961.055 183.777H950.828V201.337H961.055ZM1029.54 238.291C1022.21 238.291 1015.75 236.876 1010.15 234.046C1004.62 231.215 1000.34 227.163 997.318 221.889C994.295 216.55 992.783 210.31 992.783 203.17C992.783 196.031 994.295 189.823 997.318 184.549C1000.34 179.21 1004.62 175.125 1010.15 172.295C1015.75 169.401 1022.21 167.953 1029.54 167.953C1034.43 167.953 1038.74 168.436 1042.47 169.401C1046.27 170.301 1049.77 171.781 1052.99 173.839V190.048C1050.16 187.797 1046.94 186.189 1043.34 185.224C1039.8 184.195 1035.72 183.68 1031.09 183.68C1027.1 183.68 1023.53 184.485 1020.38 186.093C1017.29 187.636 1014.85 189.888 1013.04 192.847C1011.24 195.805 1010.34 199.247 1010.34 203.17C1010.34 209.281 1012.11 214.105 1015.65 217.643C1019.25 221.181 1024.11 222.95 1030.22 222.95C1033.63 222.95 1036.49 222.371 1038.81 221.213V210.407H1028.48V198.443H1055.02V232.019C1048.13 236.201 1039.64 238.291 1029.54 238.291ZM1061.8 169.401H1109.66V183.777H1078.88V196.417H1101.36V209.828H1078.88V222.467H1109.66V236.844H1061.8V169.401ZM1149.38 238.291C1142.57 238.291 1136.39 236.812 1130.86 233.853C1125.39 230.894 1121.05 226.777 1117.83 221.503C1114.68 216.164 1113.11 210.053 1113.11 203.17C1113.11 196.288 1114.68 190.177 1117.83 184.838C1121.05 179.499 1125.39 175.351 1130.86 172.392C1136.39 169.433 1142.57 167.953 1149.38 167.953C1156.14 167.953 1162.25 169.433 1167.72 172.392C1173.25 175.351 1177.59 179.499 1180.74 184.838C1183.89 190.177 1185.47 196.288 1185.47 203.17C1185.47 210.053 1183.89 216.164 1180.74 221.503C1177.59 226.777 1173.25 230.894 1167.72 233.853C1162.25 236.812 1156.14 238.291 1149.38 238.291ZM1149.38 222.275C1152.79 222.275 1155.91 221.503 1158.74 219.959C1161.57 218.415 1163.83 216.196 1165.5 213.301C1167.17 210.407 1168.01 207.03 1168.01 203.17C1168.01 199.311 1167.17 195.966 1165.5 193.136C1163.89 190.241 1161.67 188.022 1158.84 186.479C1156.01 184.87 1152.86 184.066 1149.38 184.066C1145.85 184.066 1142.66 184.87 1139.83 186.479C1137 188.022 1134.75 190.241 1133.08 193.136C1131.47 195.966 1130.67 199.311 1130.67 203.17C1130.67 207.03 1131.47 210.407 1133.08 213.301C1134.75 216.196 1137 218.415 1139.83 219.959C1142.73 221.503 1145.91 222.275 1149.38 222.275ZM1192.21 169.401H1209.09L1233.89 209.538V169.401H1250.97V236.844H1234.18L1209.28 196.609V236.844H1192.21V169.401Z" fill="white"/>
<g clip-path="url(#clip0_57_2422)">
<path d="M790.271 215.426L770.724 211.816L777.389 230.765C777.535 231.274 777.503 231.765 777.277 232.249C777.064 232.735 776.694 233.078 776.197 233.285L765.992 236.959L765.896 237.027C765.417 237.208 764.934 237.175 764.429 236.954C763.949 236.738 763.598 236.362 763.368 235.85L756.69 216.985L743.978 232.227L743.911 232.13L743.896 232.213C743.592 232.582 743.189 232.806 742.684 232.897C742.229 232.94 741.8 232.832 741.373 232.57L741.358 232.653L741.102 232.364L732.787 225.269C732.382 224.881 732.171 224.416 732.143 223.873C732.117 223.315 732.263 222.817 732.601 222.412L745.399 207.145L725.974 203.557L725.982 203.515L725.94 203.507C725.481 203.422 725.104 203.183 724.784 202.783C724.46 202.411 724.313 201.986 724.342 201.509L724.301 201.502L726.315 190.271C726.415 189.708 726.689 189.275 727.131 188.988C727.579 188.673 728.087 188.57 728.642 188.672L729.094 188.798L748.046 192.298L741.365 173.433L741.414 173.399L741.421 173.358C741.271 172.876 741.282 172.424 741.434 171.97C741.612 171.52 741.913 171.164 742.323 170.9L742.243 170.884L752.861 167.083C753.387 166.882 753.9 166.906 754.378 167.122C754.878 167.37 755.211 167.772 755.381 168.3L762.007 187.24L774.875 171.9L774.89 171.817C775.261 171.46 775.701 171.272 776.212 171.224C776.763 171.198 777.242 171.329 777.619 171.639L785.934 178.735L785.96 178.825C786.372 179.17 786.602 179.61 786.66 180.146C786.713 180.71 786.581 181.21 786.283 181.624L773.401 196.961L792.948 200.571C793.444 200.691 793.841 200.963 794.128 201.384C794.411 201.834 794.533 202.324 794.496 202.842L792.546 213.717L792.466 213.702L792.531 213.799C792.435 214.335 792.149 214.764 791.675 215.073C791.243 215.377 790.776 215.488 790.271 215.423" fill="white"/>
</g>
<path d="M40.1705 317.31C35.2853 317.31 30.861 316.25 26.8975 314.13C22.9801 312.01 19.8692 309.061 17.5649 305.282C15.3066 301.456 14.1775 297.078 14.1775 292.147C14.1775 287.216 15.3066 282.837 17.5649 279.012C19.8692 275.187 22.9801 272.214 26.8975 270.094C30.861 267.974 35.2853 266.914 40.1705 266.914C45.0097 266.914 49.3879 267.974 53.3053 270.094C57.2688 272.214 60.3797 275.187 62.6379 279.012C64.8962 282.837 66.0253 287.216 66.0253 292.147C66.0253 297.078 64.8962 301.456 62.6379 305.282C60.3797 309.061 57.2688 312.01 53.3053 314.13C49.3879 316.25 45.0097 317.31 40.1705 317.31ZM40.1705 305.835C42.6131 305.835 44.8484 305.282 46.8762 304.176C48.904 303.07 50.5171 301.48 51.7153 299.406C52.9136 297.332 53.5127 294.912 53.5127 292.147C53.5127 289.382 52.9136 286.985 51.7153 284.957C50.5631 282.883 48.9731 281.293 46.9453 280.187C44.9175 279.035 42.6592 278.459 40.1705 278.459C37.6357 278.459 35.3544 279.035 33.3266 280.187C31.2988 281.293 29.6857 282.883 28.4875 284.957C27.3353 286.985 26.7592 289.382 26.7592 292.147C26.7592 294.912 27.3353 297.332 28.4875 299.406C29.6857 301.48 31.2988 303.07 33.3266 304.176C35.4005 305.282 37.6818 305.835 40.1705 305.835ZM84.1661 317.31C81.1244 317.31 78.1057 317.011 75.11 316.412C72.1144 315.859 69.6487 315.075 67.7131 314.061V303.07C70.2018 304.36 72.7826 305.328 75.4557 305.973C78.1748 306.618 80.7557 306.941 83.1983 306.941C85.4565 306.941 87.1618 306.595 88.3139 305.904C89.4661 305.213 90.0422 304.222 90.0422 302.931C90.0422 301.963 89.7196 301.134 89.0744 300.443C88.4752 299.705 87.5765 299.037 86.3783 298.438C85.18 297.839 83.3135 297.009 80.7787 295.949C76.3083 294.06 73.0592 291.963 71.0313 289.658C69.0035 287.354 67.9896 284.52 67.9896 281.155C67.9896 278.39 68.75 275.924 70.2709 273.758C71.8378 271.592 74.0039 269.91 76.7692 268.712C79.5344 267.513 82.7144 266.914 86.3092 266.914C89.2587 266.914 91.8857 267.145 94.19 267.606C96.4944 268.066 98.7065 268.804 100.827 269.818V280.533C96.7709 278.413 92.6922 277.353 88.5905 277.353C86.3783 277.353 84.6039 277.722 83.2674 278.459C81.977 279.15 81.3318 280.164 81.3318 281.501C81.3318 282.837 82 283.92 83.3365 284.75C84.6731 285.58 87.1387 286.709 90.7335 288.137C94.0057 289.474 96.5405 290.787 98.3378 292.078C100.181 293.368 101.518 294.866 102.347 296.571C103.177 298.276 103.592 300.443 103.592 303.07C103.592 307.54 101.956 311.043 98.6835 313.577C95.4574 316.066 90.6183 317.31 84.1661 317.31ZM131.655 317.31C126.401 317.31 121.769 316.296 117.76 314.269C113.796 312.241 110.731 309.337 108.565 305.558C106.399 301.733 105.316 297.263 105.316 292.147C105.316 287.031 106.399 282.584 108.565 278.805C110.731 274.98 113.796 272.053 117.76 270.025C121.769 267.951 126.401 266.914 131.655 266.914C135.111 266.914 138.199 267.26 140.918 267.951C143.638 268.643 146.149 269.726 148.454 271.2V282.814C146.426 281.201 144.121 280.026 141.541 279.289C139.006 278.551 136.079 278.183 132.761 278.183C128.014 278.183 124.35 279.427 121.769 281.916C119.188 284.358 117.898 287.769 117.898 292.147C117.898 296.525 119.188 299.959 121.769 302.447C124.396 304.936 128.06 306.18 132.761 306.18C136.079 306.18 139.052 305.789 141.679 305.005C144.306 304.222 146.748 302.977 149.007 301.272V312.817C144.628 315.813 138.845 317.31 131.655 317.31ZM170.04 267.951H182.068L201.356 316.273H188.843L184.972 306.319H167.136L163.265 316.273H150.683L170.04 267.951ZM181.93 296.917L176.054 280.671L170.109 296.917H181.93ZM206.209 267.951H227.916C233.585 267.951 238.009 269.38 241.189 272.237C244.415 275.095 246.028 279.196 246.028 284.543C246.028 288.137 245.245 291.202 243.678 293.737C242.111 296.272 239.898 298.161 237.041 299.406L245.613 316.273H233.031L225.358 301.134H218.445V316.273H206.209V267.951ZM225.773 290.833C228.215 290.833 230.105 290.373 231.441 289.451C232.778 288.483 233.446 286.847 233.446 284.543C233.446 282.146 232.778 280.51 231.441 279.634C230.151 278.713 228.261 278.252 225.773 278.252H218.445V290.833H225.773ZM274.394 267.951H286.146L300.111 297.885L314.144 267.951H325.827V316.273H314.421V292.009L302.876 316.273H297.345L285.87 292.009V316.273H274.394V267.951ZM353.686 317.31C346.404 317.31 340.92 315.375 337.233 311.503C333.546 307.586 331.702 302.424 331.702 296.018V267.951H343.938V296.156C343.938 299.383 344.791 301.825 346.496 303.484C348.247 305.143 350.644 305.973 353.686 305.973C356.727 305.973 359.101 305.143 360.806 303.484C362.511 301.825 363.364 299.383 363.364 296.156V267.951H375.6V296.018C375.6 302.47 373.757 307.632 370.07 311.503C366.429 315.375 360.967 317.31 353.686 317.31ZM381.465 267.951H393.701V305.973H414.717V316.273H381.465V267.951ZM417.178 267.951H451.467V278.252H429.414V287.308H445.522V296.917H429.414V305.973H451.467V316.273H417.178V267.951ZM456.334 267.951H478.041C483.71 267.951 488.134 269.38 491.314 272.237C494.54 275.095 496.153 279.196 496.153 284.543C496.153 288.137 495.37 291.202 493.803 293.737C492.236 296.272 490.024 298.161 487.166 299.406L495.739 316.273H483.157L475.483 301.134H468.57V316.273H456.334V267.951ZM475.898 290.833C478.341 290.833 480.23 290.373 481.567 289.451C482.903 288.483 483.572 286.847 483.572 284.543C483.572 282.146 482.903 280.51 481.567 279.634C480.276 278.713 478.387 278.252 475.898 278.252H468.57V290.833H475.898ZM524.624 317.31C519.738 317.31 515.314 316.25 511.351 314.13C507.433 312.01 504.322 309.061 502.018 305.282C499.76 301.456 498.631 297.078 498.631 292.147C498.631 287.216 499.76 282.837 502.018 279.012C504.322 275.187 507.433 272.214 511.351 270.094C515.314 267.974 519.738 266.914 524.624 266.914C529.463 266.914 533.841 267.974 537.758 270.094C541.722 272.214 544.833 275.187 547.091 279.012C549.349 282.837 550.478 287.216 550.478 292.147C550.478 297.078 549.349 301.456 547.091 305.282C544.833 309.061 541.722 312.01 537.758 314.13C533.841 316.25 529.463 317.31 524.624 317.31ZM524.624 305.835C527.066 305.835 529.302 305.282 531.329 304.176C533.357 303.07 534.97 301.48 536.168 299.406C537.367 297.332 537.966 294.912 537.966 292.147C537.966 289.382 537.367 286.985 536.168 284.957C535.016 282.883 533.426 281.293 531.398 280.187C529.371 279.035 527.112 278.459 524.624 278.459C522.089 278.459 519.808 279.035 517.78 280.187C515.752 281.293 514.139 282.883 512.941 284.957C511.788 286.985 511.212 289.382 511.212 292.147C511.212 294.912 511.788 297.332 512.941 299.406C514.139 301.48 515.752 303.07 517.78 304.176C519.854 305.282 522.135 305.835 524.624 305.835ZM625.785 267.951H647.492C653.16 267.951 657.585 269.38 660.765 272.237C663.991 275.095 665.604 279.196 665.604 284.543C665.604 288.137 664.82 291.202 663.253 293.737C661.687 296.272 659.474 298.161 656.617 299.406L665.189 316.273H652.607L644.934 301.134H638.021V316.273H625.785V267.951ZM645.349 290.833C647.791 290.833 649.681 290.373 651.017 289.451C652.354 288.483 653.022 286.847 653.022 284.543C653.022 282.146 652.354 280.51 651.017 279.634C649.727 278.713 647.837 278.252 645.349 278.252H638.021V290.833H645.349ZM694.074 317.31C689.189 317.31 684.765 316.25 680.801 314.13C676.884 312.01 673.773 309.061 671.469 305.282C669.21 301.456 668.081 297.078 668.081 292.147C668.081 287.216 669.21 282.837 671.469 279.012C673.773 275.187 676.884 272.214 680.801 270.094C684.765 267.974 689.189 266.914 694.074 266.914C698.913 266.914 703.292 267.974 707.209 270.094C711.173 272.214 714.283 275.187 716.542 279.012C718.8 282.837 719.929 287.216 719.929 292.147C719.929 297.078 718.8 301.456 716.542 305.282C714.283 309.061 711.173 312.01 707.209 314.13C703.292 316.25 698.913 317.31 694.074 317.31ZM694.074 305.835C696.517 305.835 698.752 305.282 700.78 304.176C702.808 303.07 704.421 301.48 705.619 299.406C706.817 297.332 707.416 294.912 707.416 292.147C707.416 289.382 706.817 286.985 705.619 284.957C704.467 282.883 702.877 281.293 700.849 280.187C698.821 279.035 696.563 278.459 694.074 278.459C691.539 278.459 689.258 279.035 687.23 280.187C685.203 281.293 683.589 282.883 682.391 284.957C681.239 286.985 680.663 289.382 680.663 292.147C680.663 294.912 681.239 297.332 682.391 299.406C683.589 301.48 685.203 303.07 687.23 304.176C689.304 305.282 691.586 305.835 694.074 305.835ZM749.028 317.31C744.142 317.31 739.718 316.25 735.755 314.13C731.837 312.01 728.726 309.061 726.422 305.282C724.164 301.456 723.035 297.078 723.035 292.147C723.035 287.216 724.164 282.837 726.422 279.012C728.726 275.187 731.837 272.214 735.755 270.094C739.718 267.974 744.142 266.914 749.028 266.914C753.867 266.914 758.245 267.974 762.162 270.094C766.126 272.214 769.237 275.187 771.495 279.012C773.753 282.837 774.882 287.216 774.882 292.147C774.882 297.078 773.753 301.456 771.495 305.282C769.237 309.061 766.126 312.01 762.162 314.13C758.245 316.25 753.867 317.31 749.028 317.31ZM749.028 305.835C751.47 305.835 753.705 305.282 755.733 304.176C757.761 303.07 759.374 301.48 760.572 299.406C761.771 297.332 762.37 294.912 762.37 292.147C762.37 289.382 761.771 286.985 760.572 284.957C759.42 282.883 757.83 281.293 755.802 280.187C753.775 279.035 751.516 278.459 749.028 278.459C746.493 278.459 744.211 279.035 742.184 280.187C740.156 281.293 738.543 282.883 737.345 284.957C736.192 286.985 735.616 289.382 735.616 292.147C735.616 294.912 736.192 297.332 737.345 299.406C738.543 301.48 740.156 303.07 742.184 304.176C744.258 305.282 746.539 305.835 749.028 305.835ZM779.708 267.951H804.18C808.835 267.951 812.499 269.103 815.172 271.408C817.891 273.712 819.251 277.007 819.251 281.293C819.251 283.321 818.79 285.211 817.868 286.962C816.946 288.713 815.633 290.096 813.928 291.11C816.278 292.032 818.006 293.368 819.112 295.12C820.218 296.825 820.771 299.06 820.771 301.825C820.771 304.775 820.08 307.356 818.698 309.568C817.315 311.734 815.448 313.393 813.098 314.545C810.794 315.697 808.213 316.273 805.355 316.273H779.708V267.951ZM801.484 287.1C805.079 287.1 806.876 285.418 806.876 282.054C806.876 280.164 806.415 278.874 805.494 278.183C804.572 277.445 803.166 277.076 801.277 277.076H791.944V287.1H801.484ZM802.245 307.148C804.318 307.148 805.862 306.756 806.876 305.973C807.89 305.19 808.397 303.807 808.397 301.825C808.397 299.843 807.867 298.415 806.807 297.539C805.747 296.617 804.134 296.156 801.968 296.156H791.944V307.148H802.245ZM839.066 267.951H851.094L870.382 316.273H857.869L853.998 306.319H836.162L832.291 316.273H819.709L839.066 267.951ZM850.956 296.917L845.08 280.671L839.135 296.917H850.956ZM875.235 267.951H887.471V286.616H906.413V267.951H918.649V316.273H906.413V296.779H887.471V316.273H875.235V267.951ZM946.966 267.951H959.548L967.636 296.571L975.448 267.951H984.158L991.486 296.64L999.505 267.951H1012.09L998.745 316.273H987.476L979.526 288.206L971.645 316.273H960.308L946.966 267.951ZM1014.51 267.951H1036.22C1041.88 267.951 1046.31 269.38 1049.49 272.237C1052.71 275.095 1054.33 279.196 1054.33 284.543C1054.33 288.137 1053.54 291.202 1051.98 293.737C1050.41 296.272 1048.2 298.161 1045.34 299.406L1053.91 316.273H1041.33L1033.66 301.134H1026.74V316.273H1014.51V267.951ZM1034.07 290.833C1036.51 290.833 1038.4 290.373 1039.74 289.451C1041.08 288.483 1041.75 286.847 1041.75 284.543C1041.75 282.146 1041.08 280.51 1039.74 279.634C1038.45 278.713 1036.56 278.252 1034.07 278.252H1026.74V290.833H1034.07ZM1080.84 317.31C1073.56 317.31 1068.07 315.375 1064.39 311.503C1060.7 307.586 1058.85 302.424 1058.85 296.018V267.951H1071.09V296.156C1071.09 299.383 1071.94 301.825 1073.65 303.484C1075.4 305.143 1077.8 305.973 1080.84 305.973C1083.88 305.973 1086.25 305.143 1087.96 303.484C1089.66 301.825 1090.52 299.383 1090.52 296.156V267.951H1102.75V296.018C1102.75 302.47 1100.91 307.632 1097.22 311.503C1093.58 315.375 1088.12 317.31 1080.84 317.31ZM1108.62 267.951H1120.85V286.616H1139.8V267.951H1152.03V316.273H1139.8V296.779H1120.85V316.273H1108.62V267.951ZM1158.24 267.951H1169.99L1183.95 297.885L1197.99 267.951H1209.67V316.273H1198.26V292.009L1186.72 316.273H1181.19L1169.71 292.009V316.273H1158.24V267.951ZM1215.89 267.951H1250.18V278.252H1228.13V287.308H1244.23V296.917H1228.13V305.973H1250.18V316.273H1215.89V267.951Z" fill="white"/>
<g clip-path="url(#clip1_57_2422)">
<path d="M611.232 299.206L596.773 296.535L601.704 310.552C601.812 310.929 601.788 311.292 601.621 311.649C601.463 312.009 601.19 312.263 600.822 312.416L593.273 315.134L593.202 315.184C592.848 315.318 592.49 315.294 592.117 315.13C591.762 314.97 591.502 314.692 591.332 314.314L586.392 300.359L576.989 311.633L576.94 311.561L576.929 311.623C576.704 311.896 576.405 312.062 576.032 312.129C575.695 312.161 575.378 312.081 575.062 311.887L575.051 311.949L574.862 311.735L568.711 306.486C568.411 306.2 568.255 305.856 568.235 305.454C568.216 305.041 568.324 304.673 568.573 304.373L578.04 293.08L563.671 290.426L563.677 290.395L563.646 290.389C563.307 290.326 563.028 290.149 562.791 289.853C562.552 289.578 562.443 289.264 562.464 288.911L562.434 288.905L563.923 280.598C563.998 280.181 564.2 279.862 564.527 279.649C564.858 279.416 565.234 279.34 565.645 279.415L565.979 279.509L579.998 282.098L575.056 268.143L575.092 268.118L575.098 268.087C574.987 267.731 574.994 267.396 575.107 267.06C575.239 266.728 575.461 266.464 575.765 266.269L575.706 266.257L583.56 263.446C583.949 263.297 584.328 263.314 584.682 263.474C585.052 263.658 585.298 263.955 585.424 264.346L590.325 278.356L599.844 267.009L599.855 266.947C600.13 266.683 600.455 266.544 600.833 266.509C601.24 266.489 601.595 266.586 601.874 266.816L608.025 272.065L608.044 272.131C608.349 272.387 608.519 272.712 608.561 273.109C608.601 273.525 608.503 273.895 608.282 274.202L598.754 285.547L613.213 288.217C613.579 288.306 613.873 288.507 614.086 288.819C614.295 289.151 614.385 289.514 614.358 289.897L612.916 297.941L612.856 297.93L612.904 298.002C612.833 298.398 612.622 298.716 612.271 298.944C611.951 299.169 611.606 299.251 611.232 299.203" fill="white"/>
</g>
</g>
<defs>
<filter id="filter0_d_57_2422" x="0.537436" y="0.908529" width="1264.07" height="330.042" filterUnits="userSpaceOnUse" color-interpolation-filters="sRGB">
<feFlood flood-opacity="0" result="BackgroundImageFix"/>
<feColorMatrix in="SourceAlpha" type="matrix" values="0 0 0 0 0 0 0 0 0 0 0 0 0 0 0 0 0 0 127 0" result="hardAlpha"/>
<feOffset/>
<feGaussianBlur stdDeviation="6.81917"/>
<feComposite in2="hardAlpha" operator="out"/>
<feColorMatrix type="matrix" values="0 0 0 0 0 0 0 0 0 0 0 0 0 0 0 0 0 0 0.25 0"/>
<feBlend mode="normal" in2="BackgroundImageFix" result="effect1_dropShadow_57_2422"/>
<feBlend mode="normal" in="SourceGraphic" in2="effect1_dropShadow_57_2422" result="shape"/>
</filter>
<clipPath id="clip0_57_2422">
<rect width="70.197" height="70.197" fill="white" transform="translate(724.305 166.945)"/>
</clipPath>
<clipPath id="clip1_57_2422">
<rect width="51.9256" height="51.9256" fill="white" transform="translate(562.438 263.344)"/>
</clipPath>
</defs>
</svg>
