<?xml version="1.0" encoding="UTF-8"?><svg id="Layer_2" xmlns="http://www.w3.org/2000/svg" viewBox="0 0 1476.33 175.24"><defs><style>.cls-1{fill:#fff;}</style></defs><g id="Layer_1-2"><path class="cls-1" d="m0,1.65h125.91v43.21H51.41v23.84h53.65v39.49h-53.65v23.84h74.51v43.21H0V1.65Z"/><path class="cls-1" d="m132.32,1.65h51.41v130.38h70.04v43.21h-121.44V1.65Z"/><path class="cls-1" d="m265.2,85.47c13.61-1.61,26.02-3.41,37.23-5.42,11.2-2,20.38-4.73,27.51-8.19,9.56-4.84,17.71-11.4,24.45-19.69,6.73-8.28,11.29-17.98,13.64-29.09,1.4-6.57,1.83-10.86,1.31-12.87-.52-2.01-1.69-3.21-3.5-3.59-7.03-1.5-15.55.67-25.55,6.48-10,5.82-20.11,14.34-30.31,25.55-10.2,11.22-19.38,24.02-27.53,38.4-8.15,14.38-13.89,29.39-17.22,45.04-2.46,11.56-2.07,20.35,1.15,26.36,3.22,6.02,8.34,9.78,15.37,11.27,8.17,1.74,17.31,1.08,27.44-1.99,10.12-3.06,20.85-10.02,32.17-20.89l4.86,3.88c-5.9,6.56-13.11,12.62-21.63,18.15-8.53,5.54-17.62,9.59-27.29,12.15-9.67,2.57-19.38,2.81-29.12.74-13.83-2.94-23.92-9.3-30.25-19.05-6.34-9.76-7.82-22.57-4.45-38.44,2.07-9.75,6.21-20.3,12.42-31.66,6.21-11.36,13.94-22.39,23.21-33.1,9.26-10.71,19.63-20.18,31.1-28.4,11.46-8.23,23.51-14.2,36.15-17.91,12.63-3.72,25.41-4.2,38.33-1.45,7.03,1.5,12.58,4.63,16.66,9.41s5.33,10.91,3.73,18.39c-1.92,9.07-6.39,16.94-13.37,23.63-6.99,6.69-15.54,12.34-25.64,16.94-10.1,4.6-20.79,8.32-32.05,11.14-11.26,2.82-22.16,5.01-32.68,6.56-10.52,1.56-19.76,2.67-27.72,3.35l1.57-5.71Z"/><path class="cls-1" d="m389.98,1.65h51.41v67.31L494.78,1.65h60.6l-66.81,84.2,71.53,89.4h-60.6l-58.11-72.51v72.51h-51.41V1.65Z"/><path class="cls-1" d="m558.21,1.65h80.71c20.86,0,37.34,5.26,49.42,15.78,12.08,10.51,18.13,25.7,18.13,45.57,0,12.91-2.7,23.92-8.07,33.03-5.38,9.11-13.04,16.06-22.97,20.86l29.06,58.36h-52.65l-25.33-50.91h-16.89v50.91h-51.41V1.65Zm70.53,81.96c7.95,0,14.12-1.53,18.5-4.6,4.39-3.06,6.58-8.4,6.58-16.01s-2.19-12.95-6.58-16.02c-4.39-3.06-10.56-4.6-18.5-4.6h-19.12v41.23h19.12Z"/><path class="cls-1" d="m711.61,1.65h51.41v173.6h-51.41V1.65Z"/><path class="cls-1" d="m774.47,1.65h51.41v67.31L879.28,1.65h60.6l-66.81,84.2,71.53,89.4h-60.6l-58.11-72.51v72.51h-51.41V1.65Z"/><path class="cls-1" d="m942.71,1.65h125.91v43.21h-74.51v23.84h53.65v39.49h-53.65v23.84h74.51v43.21h-125.91V1.65Z"/><path class="cls-1" d="m1075.03,1.65h125.91v43.21h-74.51v23.84h53.65v39.49h-53.65v23.84h74.51v43.21h-125.91V1.65Z"/><path class="cls-1" d="m1207.34,1.65h51.41v130.38h70.03v43.21h-121.44V1.65Z"/><path class="cls-1" d="m1353.15,155.6c-1.11-.18-2.14-.72-2.92-1.59l-.36-.39-11.61-9.76c-.6-.51-1.31-1.01-2.05-1.55-2.74-1.98-6.37-4.61-7.86-8.64-1.23,1.44-2.46,2.89-3.69,4.33-1.78,2.09-4.98,4.61-4.4,7.58.79,4.04,5.83,6.58,8.71,9,3.96,3.33,7.92,6.66,11.88,9.99,0,0,.59.66.59.66l.03-.19c3.67,2.22,7.16-1.52,9.28-4.14,1.31-1.62,2.61-3.26,3.91-4.89-.51-.09-1.02-.23-1.52-.41Z"/><path class="cls-1" d="m1348.37,50.09c.21.04.43.08.64.12,2.26.41,4.58.93,6.82,1.43,2.13.47,4.29.95,6.43,1.35-.49-1.26-1.03-2.54-1.56-3.8-.75-1.78-1.53-3.62-2.17-5.4l-4.86-13.53c-.37-1.02-.85-2.14-1.35-3.31-.64-1.49-1.31-3.05-1.88-4.66-.4.13-.79.28-1.19.41-3.04.97-7.62,2.72-7.79,6.52-.19,4.29,2.95,9.83,4.41,13.9.84,2.33,1.67,4.65,2.51,6.98Z"/><path class="cls-1" d="m1353.85,96.16c-11.22-2.05-22.43-4.09-33.64-6.14l-.63-.11c-1.47-.25-3.3-.55-5.2-1.71-6.71-4.11-4.43-13.03-3.07-18.36.24-.92.45-1.75.57-2.42l.38-2.11c-.47-.03-.94-.04-1.4.02-2.06.25-3.7,1.7-4.07,3.74-.84,4.6-1.67,9.19-2.51,13.79-.72,3.95-4.23,12.92.19,15.63,1.29.79,2.68.91,4.13,1.17,12.19,2.23,24.39,4.46,36.58,6.68,4.39-5.16,8.39-9.86,8.66-10.18Z"/><path class="cls-1" d="m1424.41,160.93c-3.14.95-6.3,1.96-9.41,3.04-.36.12-.72.27-1.08.41-1.47.58-3.3,1.3-5.42,1.3-2.41,0-4.6-.94-6.33-2.73-2.72-2.76-3.94-6.97-5.02-10.69-.3-1.03-.58-2-.87-2.82l-8.81-24.53c-.11.13-.22.25-.33.38-2.77,3.25-5.6,6.58-8.4,9.92,1.68,4.66,3.35,9.33,5.03,13.99,1.57,4.36,3.14,8.73,4.7,13.09,1.23,3.41,2.25,9.15,4.78,11.72,2.33,2.39,5.02.69,7.63-.22,3.38-1.17,6.78-2.27,10.21-3.29,3.91-1.17,8.11-2.04,11.52-4.41,1.67-1.16,2.38-3.21,1.81-5.16,0,0,0-.02,0-.02Z"/><path class="cls-1" d="m1460.5,115.83c-.88-.19-1.74-.4-2.56-.6-1.05-.26-2.05-.51-2.93-.67l-25.85-4.7c1.29,3.62,2.88,8.07,4.49,12.57,3.25.59,6.51,1.18,9.76,1.78,3.02.55,7.32,2.02,10.68,1.98.56,0,1.1-.06,1.6-.16,1.78-.37,3.28-1.75,3.61-3.56,0,0-.15-.22-.15-.22l.19.04,1.17-6.44Z"/><path class="cls-1" d="m1466.58,111.64c-3.36.04-7.66-1.43-10.68-1.98-4.53-.82-9.07-1.65-13.6-2.47-6.78-1.23-13.57-2.47-20.35-3.7-.03,0-.37-.04-.39-.07,0,0,15.35,42.99,15.35,42.99.56,1.94-.15,4-1.81,5.16-3.41,2.37-7.61,3.24-11.52,4.41-3.42,1.02-6.83,2.12-10.21,3.29-2.61.9-5.31,2.61-7.63.22-2.53-2.57-3.55-8.31-4.78-11.72-1.57-4.36-3.14-8.73-4.7-13.09-2.31-6.42-4.61-12.84-6.92-19.26,0-.02-.11-.25-.1-.27-5.83,6.89-11.74,13.72-17.5,20.67-2.88,3.48-5.66,7.03-8.5,10.55-2.12,2.62-5.61,6.37-9.28,4.14l-.03.19s-.59-.66-.59-.66c-3.96-3.33-7.92-6.66-11.88-9.99-2.87-2.41-7.91-4.96-8.71-9-.58-2.97,2.62-5.49,4.4-7.58,5.29-6.21,10.57-12.43,15.86-18.64,3.41-4,6.82-8.01,10.22-12.01-14.05-2.56-28.09-5.12-42.14-7.69-1.45-.26-2.84-.38-4.13-1.17-4.42-2.71-.91-11.68-.19-15.63.84-4.6,1.67-9.19,2.51-13.79.37-2.05,2.01-3.5,4.07-3.74,1.34-.16,2.69.11,4.01.38,6.9,1.4,13.82,2.69,20.74,3.96,6.81,1.24,14.12,3.44,21.01,3.75-.77-5.49-4.02-11.51-5.91-16.76-1.62-4.51-3.24-9.02-4.86-13.53-1.46-4.07-4.6-9.62-4.41-13.9.17-3.8,4.75-5.55,7.79-6.52,4.96-1.58,9.68-3.56,14.55-5.36,3.25-1.2,8.51-2.46,9.94,1.89,0,0,15.26,42.97,15.26,42.97,8.72-10.25,17.45-20.49,26.17-30.74,2.27-2.66,5.77-7.93,9.78-4.66,2.96,2.49,5.92,4.98,8.88,7.46,3.16,2.66,11.38,7.43,11.89,11.77.41,3.48-3.72,6.83-5.84,9.31-2.74,3.22-5.48,6.43-8.23,9.65-5.01,5.88-10.03,11.77-15.04,17.65-.46.54-.91,1.07-1.37,1.61,13.81,2.51,27.6,5.24,41.45,7.54,3.4.57,7.46,1.44,7.14,5.81l-4.49,24.67-.19-.04s.15.22.15.22c-.33,1.81-1.83,3.19-3.61,3.56-.5.1-1.04.15-1.6.16Z"/></g></svg>