<svg width="191" height="23" viewBox="0 0 191 23" fill="none" xmlns="http://www.w3.org/2000/svg">
<g clip-path="url(#clip0_57_2336)">
<path d="M0 0.210938H16.2908V5.88298H6.65062V9.01226H13.5903V14.1943H6.65062V17.3236H16.2908V22.9956H0V0.210938Z" fill="#currentColor"/>
<path d="M17.1211 0.210938H23.7717V17.3236H32.8319V22.9956H17.1211V0.210938Z" fill="#currentColor"/>
<path d="M34.3116 11.2155C36.0735 11.0039 37.678 10.7682 39.1271 10.5047C40.5761 10.243 41.7636 9.88474 42.6875 9.43001C43.9243 8.79525 44.9782 7.93405 45.8509 6.84641C46.7218 5.75877 47.3109 4.48739 47.6165 3.02854C47.7976 2.16549 47.8525 1.60311 47.7866 1.33955C47.7189 1.07599 47.5671 0.918229 47.3329 0.868116C46.4236 0.671376 45.3203 0.95535 44.0286 1.71818C42.7351 2.48101 41.4269 3.6002 40.1078 5.07018C38.7868 6.54388 37.5994 8.22359 36.5455 10.1112C35.4898 11.9988 34.7488 13.968 34.3189 16.0227C34.0005 17.5409 34.0499 18.6935 34.4671 19.4823C34.8842 20.2711 35.5466 20.7648 36.4559 20.9616C37.5134 21.1899 38.6953 21.1026 40.0053 20.7017C41.3153 20.3008 42.7021 19.3858 44.1677 17.9604L44.797 18.4689C44.0341 19.3301 43.101 20.1245 41.9996 20.8502C40.8963 21.5778 39.7199 22.1086 38.4684 22.4445C37.217 22.7805 35.9619 22.8139 34.7013 22.5411C32.9119 22.155 31.6074 21.3198 30.7877 20.041C29.9663 18.7603 29.776 17.0787 30.2114 14.9963C30.4804 13.7175 31.0146 12.331 31.8178 10.8406C32.621 9.3502 33.6218 7.90249 34.8202 6.49747C36.0186 5.09245 37.3597 3.84891 38.8435 2.77055C40.3273 1.69034 41.8843 0.907093 43.52 0.420811C45.1538 -0.0673264 46.8078 -0.130432 48.48 0.229639C49.3894 0.426379 50.1084 0.836563 50.6353 1.4639C51.1641 2.09124 51.3251 2.89491 51.1183 3.87675C50.8695 5.06647 50.2914 6.10028 49.3875 6.97819C48.4837 7.85609 47.3768 8.59665 46.0705 9.20172C44.7641 9.80493 43.3809 10.2949 41.9246 10.6624C40.4682 11.0336 39.0576 11.3195 37.6963 11.5236C36.3351 11.7278 35.1404 11.8744 34.1103 11.9635L34.3134 11.2137L34.3116 11.2155Z" fill="#currentColor"/>
<path d="M50.4531 0.210938H57.1056V9.04381L64.0123 0.210938H71.8522L63.2091 11.2618L72.4633 22.9956H64.6234L57.1056 13.4779V22.9956H50.4531V0.210938Z" fill="#currentColor"/>
<path d="M72.2188 0.210938H82.6603C85.359 0.210938 87.4905 0.901383 89.0548 2.28227C90.6191 3.66316 91.4004 5.65655 91.4004 8.26242C91.4004 9.95698 91.0509 11.4028 90.3556 12.5963C89.6586 13.7916 88.6687 14.7047 87.3825 15.3339L91.1424 22.9938H84.3308L81.0539 16.312H78.8694V22.9938H72.2188V0.210938ZM81.343 10.9667C82.3712 10.9667 83.169 10.7662 83.7361 10.3635C84.3033 9.9607 84.5869 9.26097 84.5869 8.26242C84.5869 7.26387 84.3033 6.56229 83.7361 6.15953C83.169 5.75677 82.3712 5.55632 81.343 5.55632H78.8694V10.9667H81.343Z" fill="#currentColor"/>
<path d="M92.0664 0.210938H98.7189V22.9938H92.0664V0.210938Z" fill="#currentColor"/>
<path d="M100.195 0.210938H106.848V9.04381L113.755 0.210938H121.594L112.951 11.2618L122.205 22.9956H114.366L106.848 13.4779V22.9956H100.195V0.210938Z" fill="#currentColor"/>
<path d="M121.965 0.210938H138.256V5.88298H128.615V9.01226H135.555V14.1943H128.615V17.3236H138.256V22.9956H121.965V0.210938Z" fill="#currentColor"/>
<path d="M139.082 0.210938H155.373V5.88298H145.733V9.01226H152.672V14.1943H145.733V17.3236H155.373V22.9956H139.082V0.210938Z" fill="#currentColor"/>
<path d="M156.199 0.210938H162.852V17.3236H171.912V22.9956H156.201V0.210938H156.199Z" fill="#currentColor"/>
<path d="M175.062 20.4237C174.919 20.4015 174.785 20.3291 174.685 20.2159L174.639 20.1639L173.137 18.8832C173.058 18.8164 172.967 18.7496 172.872 18.6809C172.517 18.4211 172.048 18.0758 171.856 17.5469C171.697 17.7362 171.538 17.9255 171.379 18.1148C171.148 18.3895 170.735 18.7199 170.81 19.1097C170.912 19.6386 171.565 19.9746 171.937 20.2901C172.449 20.7263 172.961 21.1643 173.474 21.6005L173.551 21.6858L173.554 21.6617C174.028 21.9531 174.48 21.4613 174.754 21.1179C174.925 20.9044 175.093 20.691 175.261 20.4757C175.195 20.4627 175.129 20.446 175.065 20.4219L175.062 20.4237Z" fill="#currentColor"/>
<path d="M174.445 6.57865C174.472 6.58422 174.501 6.58979 174.527 6.5935C174.82 6.64733 175.12 6.716 175.409 6.78096C175.685 6.84221 175.965 6.90532 176.241 6.95914C176.177 6.79396 176.108 6.62506 176.038 6.45987C175.941 6.22601 175.841 5.98472 175.758 5.75086L175.129 3.97464C175.081 3.841 175.019 3.69437 174.953 3.54032C174.871 3.34544 174.785 3.13942 174.71 2.92969C174.659 2.94639 174.607 2.96681 174.556 2.98351C174.163 3.10972 173.57 3.33987 173.548 3.83915C173.522 4.40152 173.929 5.12909 174.119 5.66363C174.227 5.96987 174.335 6.27426 174.443 6.58051L174.445 6.57865Z" fill="#currentColor"/>
<path d="M175.152 12.6216C173.701 12.3524 172.25 12.0833 170.799 11.8161L170.717 11.8012C170.527 11.7697 170.291 11.7288 170.044 11.5766C169.177 11.0365 169.471 9.86722 169.647 9.16749C169.678 9.04685 169.705 8.93734 169.722 8.85011L169.771 8.57356C169.711 8.56985 169.65 8.56799 169.59 8.57542C169.323 8.60883 169.112 8.79814 169.063 9.06727C168.955 9.67048 168.847 10.2737 168.739 10.8769C168.646 11.3947 168.192 12.5733 168.765 12.9278C168.931 13.0318 169.112 13.0466 169.299 13.0819C170.876 13.3751 172.453 13.6665 174.032 13.9579C174.601 13.2805 175.119 12.6643 175.152 12.6216Z" fill="#currentColor"/>
<path d="M184.283 21.1258C183.877 21.2501 183.467 21.3837 183.066 21.5248C183.02 21.5415 182.973 21.5601 182.927 21.5786C182.737 21.6547 182.499 21.7494 182.226 21.7494C181.915 21.7494 181.632 21.625 181.407 21.3912C181.055 21.0292 180.896 20.4761 180.757 19.988C180.719 19.8525 180.682 19.7263 180.644 19.6168L179.504 16.3984C179.489 16.4151 179.476 16.4318 179.462 16.4485C179.103 16.8754 178.737 17.3116 178.375 17.7515C178.593 18.364 178.809 18.9765 179.026 19.5871C179.229 20.1606 179.433 20.7323 179.636 21.3058C179.795 21.7531 179.927 22.5067 180.254 22.8444C180.554 23.1581 180.904 22.9335 181.242 22.8166C181.679 22.6626 182.118 22.5196 182.563 22.386C183.07 22.232 183.613 22.1187 184.054 21.8069C184.27 21.6547 184.361 21.3856 184.288 21.1295V21.1276L184.283 21.1258Z" fill="#currentColor"/>
<path d="M188.953 15.207C188.839 15.181 188.728 15.155 188.622 15.1272C188.486 15.0938 188.356 15.0604 188.243 15.0399L184.898 14.4219C185.065 14.897 185.272 15.4817 185.478 16.0719C185.899 16.1498 186.32 16.2278 186.741 16.3058C187.132 16.3781 187.689 16.5712 188.122 16.5656C188.195 16.5656 188.265 16.5582 188.329 16.5452C188.559 16.4969 188.753 16.3169 188.795 16.0775L188.775 16.0478L188.799 16.0515L188.951 15.2051L188.953 15.207Z" fill="#currentColor"/>
<path d="M189.737 14.6529C189.302 14.6585 188.745 14.4654 188.356 14.3931C187.768 14.2854 187.183 14.1759 186.596 14.0682C185.717 13.9068 184.841 13.7434 183.963 13.582C183.959 13.582 183.913 13.5764 183.913 13.5727L185.9 19.215C185.973 19.4693 185.882 19.7403 185.666 19.8925C185.225 20.2043 184.682 20.3175 184.175 20.4716C183.732 20.6052 183.291 20.75 182.854 20.9022C182.516 21.021 182.168 21.2437 181.866 20.93C181.539 20.5922 181.407 19.8405 181.248 19.3914C181.045 18.8178 180.841 18.2462 180.638 17.6727C180.34 16.83 180.042 15.9874 179.744 15.1447C179.744 15.141 179.729 15.1113 179.731 15.1095C178.977 16.0134 178.212 16.9098 177.468 17.823C177.094 18.2796 176.736 18.7455 176.368 19.2076C176.094 19.551 175.642 20.0428 175.168 19.7514L175.164 19.7756L175.087 19.6902C174.575 19.254 174.063 18.816 173.55 18.3798C173.179 18.0624 172.526 17.7284 172.423 17.1994C172.348 16.8096 172.762 16.4792 172.992 16.2045C173.677 15.3897 174.361 14.5731 175.045 13.7583C175.486 13.233 175.927 12.7078 176.368 12.1825C174.551 11.8466 172.734 11.5106 170.916 11.1728C170.729 11.1376 170.548 11.1227 170.382 11.0188C169.809 10.6624 170.264 9.48569 170.356 8.96786C170.464 8.36465 170.572 7.76144 170.68 7.15822C170.727 6.8891 170.94 6.69978 171.207 6.66637C171.381 6.64596 171.554 6.68122 171.726 6.71649C172.619 6.90024 173.514 7.06913 174.41 7.23618C175.307 7.40322 176.236 7.68719 177.129 7.72803C177.03 7.00788 176.61 6.21721 176.364 5.52862C176.154 4.93655 175.945 4.34447 175.735 3.7524C175.547 3.21786 175.139 2.49029 175.164 1.92791C175.186 1.42864 175.779 1.19849 176.172 1.07228C176.814 0.864405 177.426 0.60456 178.055 0.368844C178.476 0.211081 179.156 0.0458935 179.341 0.617553L181.315 6.25805C182.444 4.91428 183.573 3.56865 184.7 2.22488C184.993 1.87595 185.447 1.18364 185.966 1.61424C186.349 1.94091 186.733 2.26757 187.115 2.59423C187.523 2.94317 188.588 3.57051 188.654 4.13845C188.707 4.59504 188.173 5.03492 187.898 5.35972C187.543 5.78105 187.188 6.20422 186.833 6.62554C186.184 7.39765 185.536 8.16976 184.887 8.94187C184.828 9.0124 184.768 9.08293 184.709 9.15346C186.497 9.48384 188.281 9.8402 190.072 10.1427C190.513 10.217 191.036 10.332 190.996 10.9037L190.416 14.1425L190.392 14.1388L190.412 14.1685C190.37 14.406 190.176 14.5879 189.946 14.6362C189.881 14.6492 189.812 14.6566 189.739 14.6566L189.737 14.6529Z" fill="#currentColor"/>
</g>
<defs>
<clipPath id="clip0_57_2336">
<rect width="191" height="23" fill="#currentColor"/>
</clipPath>
</defs>
</svg>
