<svg width="61" height="61" viewBox="0 0 61 61" fill="none" xmlns="http://www.w3.org/2000/svg">
<path d="M15.0543 15.4357C6.58874 24.1381 7.07637 37.6496 15.3195 45.8074C23.8381 54.2153 37.879 54.2093 46.3347 45.0149C54.2426 36.4153 53.8379 23.1422 45.5152 15.0318C37.1693 6.89721 23.5475 6.70671 15.0543 15.4357ZM44.9931 44.9153C37.0704 52.93 24.0673 52.9887 16.0276 45.0453C8.0236 37.1371 7.94109 24.0827 15.8455 16.1169C23.8668 8.0329 36.8316 7.92314 44.8897 15.8704C52.9253 23.7954 52.9716 36.8441 44.9931 44.9153Z" fill="#141414"/>
<path d="M43.1099 21.4263C43.0632 21.4682 43.0179 21.5114 42.9705 21.5513C42.1148 22.2817 41.1444 22.7437 40.0095 22.8288C39.6262 22.8584 39.4547 23.012 39.4758 23.2746C39.4977 23.5446 39.67 23.6782 40.0717 23.6354C40.5044 23.5903 40.939 23.5129 41.357 23.3928C41.6348 23.3128 41.8029 23.3582 41.9406 23.6021C42.2617 24.172 42.6473 24.7136 42.9033 25.311C43.7872 27.3639 44.0416 29.5233 43.8231 31.7381C43.438 35.6329 41.8284 38.8856 38.6359 41.2336C35.8036 43.3178 32.6103 44.225 29.0966 43.8403C27.1031 43.6216 25.2763 42.9251 23.6471 41.7435C23.1883 41.4106 23.2068 41.4092 23.3462 40.8691C23.444 40.4928 23.5088 40.1062 23.5651 39.7203C23.6058 39.4439 23.5214 39.2015 23.1959 39.1831C22.881 39.1647 22.7676 39.3771 22.7447 39.6632C22.6518 40.8485 22.148 41.8494 21.3612 42.7229C21.0965 43.017 21.0576 43.2426 21.236 43.4138C21.4275 43.598 21.7094 43.5548 21.9721 43.2759C22.1534 43.0834 22.3109 42.8673 22.4764 42.6604C22.5906 42.5184 22.7002 42.3719 22.8433 42.1876C24.6601 43.5574 26.6632 44.3756 28.8755 44.6637C31.0853 44.9504 33.2421 44.7027 35.3409 43.9587C37.4358 43.216 39.2772 42.0624 40.8421 40.4788C42.8884 38.4084 44.091 35.9015 44.5725 33.0561C45.1818 29.4605 44.7157 26.0524 42.6016 22.9603C42.6962 22.8751 42.7718 22.8014 42.8526 22.7355C43.1221 22.5211 43.4002 22.3192 43.6605 22.0957C43.9273 21.8669 43.9707 21.5944 43.7758 21.4096C43.5566 21.2019 43.3267 21.2282 43.1092 21.4256L43.1099 21.4263Z" fill="#141414"/>
<path d="M22.4742 33.1924C23.6324 33.7033 25.4412 34.0546 25.3497 32.2048C25.3287 31.7767 25.2458 31.3268 25.078 30.9348C24.2597 29.0205 22.8928 27.6134 20.9924 26.7614C20.5768 26.5751 20.093 26.4816 19.6364 26.4623C18.7845 26.4265 18.2011 27.0019 18.2226 27.8536C18.2624 29.3606 19.1239 30.7291 20.2711 31.7612C20.9435 32.367 21.7137 32.8567 22.4742 33.1924Z" fill="#141414"/>
<path d="M32.3921 25.5409C34.6907 25.3559 33.3647 22.3323 32.5982 21.2655C32.3462 20.9138 32.0409 20.55 31.6967 20.2017C30.6852 19.1803 29.3342 18.2988 27.9843 18.304C27.1483 18.3076 26.5857 18.7827 26.5867 19.6114C26.5868 20.128 26.6819 20.6806 26.8822 21.1546C27.6422 22.9508 28.947 24.261 30.6781 25.1413C31.2092 25.4117 31.7795 25.5908 32.3927 25.5415L32.3921 25.5409Z" fill="#141414"/>
</svg>
